%TF.GenerationSoftware,KiCad,Pcbnew,7.0.2*%
%TF.CreationDate,2023-07-14T13:18:19-03:00*%
%TF.ProjectId,HM_CENTRAL-02,484d5f43-454e-4545-9241-4c2d30322e6b,rev?*%
%TF.SameCoordinates,Original*%
%TF.FileFunction,Legend,Top*%
%TF.FilePolarity,Positive*%
%FSLAX46Y46*%
G04 Gerber Fmt 4.6, Leading zero omitted, Abs format (unit mm)*
G04 Created by KiCad (PCBNEW 7.0.2) date 2023-07-14 13:18:19*
%MOMM*%
%LPD*%
G01*
G04 APERTURE LIST*
%ADD10C,0.150000*%
%ADD11C,0.101600*%
%ADD12C,0.120000*%
%ADD13C,0.127000*%
%ADD14C,0.254000*%
G04 APERTURE END LIST*
D10*
%TO.C,Q4*%
X97254761Y-135157857D02*
X97159523Y-135110238D01*
X97159523Y-135110238D02*
X97064285Y-135015000D01*
X97064285Y-135015000D02*
X96921428Y-134872142D01*
X96921428Y-134872142D02*
X96826190Y-134824523D01*
X96826190Y-134824523D02*
X96730952Y-134824523D01*
X96778571Y-135062619D02*
X96683333Y-135015000D01*
X96683333Y-135015000D02*
X96588095Y-134919761D01*
X96588095Y-134919761D02*
X96540476Y-134729285D01*
X96540476Y-134729285D02*
X96540476Y-134395952D01*
X96540476Y-134395952D02*
X96588095Y-134205476D01*
X96588095Y-134205476D02*
X96683333Y-134110238D01*
X96683333Y-134110238D02*
X96778571Y-134062619D01*
X96778571Y-134062619D02*
X96969047Y-134062619D01*
X96969047Y-134062619D02*
X97064285Y-134110238D01*
X97064285Y-134110238D02*
X97159523Y-134205476D01*
X97159523Y-134205476D02*
X97207142Y-134395952D01*
X97207142Y-134395952D02*
X97207142Y-134729285D01*
X97207142Y-134729285D02*
X97159523Y-134919761D01*
X97159523Y-134919761D02*
X97064285Y-135015000D01*
X97064285Y-135015000D02*
X96969047Y-135062619D01*
X96969047Y-135062619D02*
X96778571Y-135062619D01*
X98064285Y-134395952D02*
X98064285Y-135062619D01*
X97826190Y-134015000D02*
X97588095Y-134729285D01*
X97588095Y-134729285D02*
X98207142Y-134729285D01*
%TO.C,RM5*%
X75882619Y-96428095D02*
X75406428Y-96761428D01*
X75882619Y-96999523D02*
X74882619Y-96999523D01*
X74882619Y-96999523D02*
X74882619Y-96618571D01*
X74882619Y-96618571D02*
X74930238Y-96523333D01*
X74930238Y-96523333D02*
X74977857Y-96475714D01*
X74977857Y-96475714D02*
X75073095Y-96428095D01*
X75073095Y-96428095D02*
X75215952Y-96428095D01*
X75215952Y-96428095D02*
X75311190Y-96475714D01*
X75311190Y-96475714D02*
X75358809Y-96523333D01*
X75358809Y-96523333D02*
X75406428Y-96618571D01*
X75406428Y-96618571D02*
X75406428Y-96999523D01*
X75882619Y-95999523D02*
X74882619Y-95999523D01*
X74882619Y-95999523D02*
X75596904Y-95666190D01*
X75596904Y-95666190D02*
X74882619Y-95332857D01*
X74882619Y-95332857D02*
X75882619Y-95332857D01*
X74882619Y-94380476D02*
X74882619Y-94856666D01*
X74882619Y-94856666D02*
X75358809Y-94904285D01*
X75358809Y-94904285D02*
X75311190Y-94856666D01*
X75311190Y-94856666D02*
X75263571Y-94761428D01*
X75263571Y-94761428D02*
X75263571Y-94523333D01*
X75263571Y-94523333D02*
X75311190Y-94428095D01*
X75311190Y-94428095D02*
X75358809Y-94380476D01*
X75358809Y-94380476D02*
X75454047Y-94332857D01*
X75454047Y-94332857D02*
X75692142Y-94332857D01*
X75692142Y-94332857D02*
X75787380Y-94380476D01*
X75787380Y-94380476D02*
X75835000Y-94428095D01*
X75835000Y-94428095D02*
X75882619Y-94523333D01*
X75882619Y-94523333D02*
X75882619Y-94761428D01*
X75882619Y-94761428D02*
X75835000Y-94856666D01*
X75835000Y-94856666D02*
X75787380Y-94904285D01*
%TO.C,RM10*%
X79782619Y-122194285D02*
X79306428Y-122527618D01*
X79782619Y-122765713D02*
X78782619Y-122765713D01*
X78782619Y-122765713D02*
X78782619Y-122384761D01*
X78782619Y-122384761D02*
X78830238Y-122289523D01*
X78830238Y-122289523D02*
X78877857Y-122241904D01*
X78877857Y-122241904D02*
X78973095Y-122194285D01*
X78973095Y-122194285D02*
X79115952Y-122194285D01*
X79115952Y-122194285D02*
X79211190Y-122241904D01*
X79211190Y-122241904D02*
X79258809Y-122289523D01*
X79258809Y-122289523D02*
X79306428Y-122384761D01*
X79306428Y-122384761D02*
X79306428Y-122765713D01*
X79782619Y-121765713D02*
X78782619Y-121765713D01*
X78782619Y-121765713D02*
X79496904Y-121432380D01*
X79496904Y-121432380D02*
X78782619Y-121099047D01*
X78782619Y-121099047D02*
X79782619Y-121099047D01*
X79782619Y-120099047D02*
X79782619Y-120670475D01*
X79782619Y-120384761D02*
X78782619Y-120384761D01*
X78782619Y-120384761D02*
X78925476Y-120479999D01*
X78925476Y-120479999D02*
X79020714Y-120575237D01*
X79020714Y-120575237D02*
X79068333Y-120670475D01*
X78782619Y-119479999D02*
X78782619Y-119384761D01*
X78782619Y-119384761D02*
X78830238Y-119289523D01*
X78830238Y-119289523D02*
X78877857Y-119241904D01*
X78877857Y-119241904D02*
X78973095Y-119194285D01*
X78973095Y-119194285D02*
X79163571Y-119146666D01*
X79163571Y-119146666D02*
X79401666Y-119146666D01*
X79401666Y-119146666D02*
X79592142Y-119194285D01*
X79592142Y-119194285D02*
X79687380Y-119241904D01*
X79687380Y-119241904D02*
X79735000Y-119289523D01*
X79735000Y-119289523D02*
X79782619Y-119384761D01*
X79782619Y-119384761D02*
X79782619Y-119479999D01*
X79782619Y-119479999D02*
X79735000Y-119575237D01*
X79735000Y-119575237D02*
X79687380Y-119622856D01*
X79687380Y-119622856D02*
X79592142Y-119670475D01*
X79592142Y-119670475D02*
X79401666Y-119718094D01*
X79401666Y-119718094D02*
X79163571Y-119718094D01*
X79163571Y-119718094D02*
X78973095Y-119670475D01*
X78973095Y-119670475D02*
X78877857Y-119622856D01*
X78877857Y-119622856D02*
X78830238Y-119575237D01*
X78830238Y-119575237D02*
X78782619Y-119479999D01*
%TO.C,M18*%
X87314286Y-82092619D02*
X87314286Y-81092619D01*
X87314286Y-81092619D02*
X87647619Y-81806904D01*
X87647619Y-81806904D02*
X87980952Y-81092619D01*
X87980952Y-81092619D02*
X87980952Y-82092619D01*
X88980952Y-82092619D02*
X88409524Y-82092619D01*
X88695238Y-82092619D02*
X88695238Y-81092619D01*
X88695238Y-81092619D02*
X88600000Y-81235476D01*
X88600000Y-81235476D02*
X88504762Y-81330714D01*
X88504762Y-81330714D02*
X88409524Y-81378333D01*
X89552381Y-81521190D02*
X89457143Y-81473571D01*
X89457143Y-81473571D02*
X89409524Y-81425952D01*
X89409524Y-81425952D02*
X89361905Y-81330714D01*
X89361905Y-81330714D02*
X89361905Y-81283095D01*
X89361905Y-81283095D02*
X89409524Y-81187857D01*
X89409524Y-81187857D02*
X89457143Y-81140238D01*
X89457143Y-81140238D02*
X89552381Y-81092619D01*
X89552381Y-81092619D02*
X89742857Y-81092619D01*
X89742857Y-81092619D02*
X89838095Y-81140238D01*
X89838095Y-81140238D02*
X89885714Y-81187857D01*
X89885714Y-81187857D02*
X89933333Y-81283095D01*
X89933333Y-81283095D02*
X89933333Y-81330714D01*
X89933333Y-81330714D02*
X89885714Y-81425952D01*
X89885714Y-81425952D02*
X89838095Y-81473571D01*
X89838095Y-81473571D02*
X89742857Y-81521190D01*
X89742857Y-81521190D02*
X89552381Y-81521190D01*
X89552381Y-81521190D02*
X89457143Y-81568809D01*
X89457143Y-81568809D02*
X89409524Y-81616428D01*
X89409524Y-81616428D02*
X89361905Y-81711666D01*
X89361905Y-81711666D02*
X89361905Y-81902142D01*
X89361905Y-81902142D02*
X89409524Y-81997380D01*
X89409524Y-81997380D02*
X89457143Y-82045000D01*
X89457143Y-82045000D02*
X89552381Y-82092619D01*
X89552381Y-82092619D02*
X89742857Y-82092619D01*
X89742857Y-82092619D02*
X89838095Y-82045000D01*
X89838095Y-82045000D02*
X89885714Y-81997380D01*
X89885714Y-81997380D02*
X89933333Y-81902142D01*
X89933333Y-81902142D02*
X89933333Y-81711666D01*
X89933333Y-81711666D02*
X89885714Y-81616428D01*
X89885714Y-81616428D02*
X89838095Y-81568809D01*
X89838095Y-81568809D02*
X89742857Y-81521190D01*
%TO.C,R7*%
X54692619Y-131286666D02*
X54216428Y-131619999D01*
X54692619Y-131858094D02*
X53692619Y-131858094D01*
X53692619Y-131858094D02*
X53692619Y-131477142D01*
X53692619Y-131477142D02*
X53740238Y-131381904D01*
X53740238Y-131381904D02*
X53787857Y-131334285D01*
X53787857Y-131334285D02*
X53883095Y-131286666D01*
X53883095Y-131286666D02*
X54025952Y-131286666D01*
X54025952Y-131286666D02*
X54121190Y-131334285D01*
X54121190Y-131334285D02*
X54168809Y-131381904D01*
X54168809Y-131381904D02*
X54216428Y-131477142D01*
X54216428Y-131477142D02*
X54216428Y-131858094D01*
X53692619Y-130953332D02*
X53692619Y-130286666D01*
X53692619Y-130286666D02*
X54692619Y-130715237D01*
%TO.C,R2*%
X83865833Y-140762619D02*
X83532500Y-140286428D01*
X83294405Y-140762619D02*
X83294405Y-139762619D01*
X83294405Y-139762619D02*
X83675357Y-139762619D01*
X83675357Y-139762619D02*
X83770595Y-139810238D01*
X83770595Y-139810238D02*
X83818214Y-139857857D01*
X83818214Y-139857857D02*
X83865833Y-139953095D01*
X83865833Y-139953095D02*
X83865833Y-140095952D01*
X83865833Y-140095952D02*
X83818214Y-140191190D01*
X83818214Y-140191190D02*
X83770595Y-140238809D01*
X83770595Y-140238809D02*
X83675357Y-140286428D01*
X83675357Y-140286428D02*
X83294405Y-140286428D01*
X84246786Y-139857857D02*
X84294405Y-139810238D01*
X84294405Y-139810238D02*
X84389643Y-139762619D01*
X84389643Y-139762619D02*
X84627738Y-139762619D01*
X84627738Y-139762619D02*
X84722976Y-139810238D01*
X84722976Y-139810238D02*
X84770595Y-139857857D01*
X84770595Y-139857857D02*
X84818214Y-139953095D01*
X84818214Y-139953095D02*
X84818214Y-140048333D01*
X84818214Y-140048333D02*
X84770595Y-140191190D01*
X84770595Y-140191190D02*
X84199167Y-140762619D01*
X84199167Y-140762619D02*
X84818214Y-140762619D01*
%TO.C,M3*%
X76990476Y-82052619D02*
X76990476Y-81052619D01*
X76990476Y-81052619D02*
X77323809Y-81766904D01*
X77323809Y-81766904D02*
X77657142Y-81052619D01*
X77657142Y-81052619D02*
X77657142Y-82052619D01*
X78038095Y-81052619D02*
X78657142Y-81052619D01*
X78657142Y-81052619D02*
X78323809Y-81433571D01*
X78323809Y-81433571D02*
X78466666Y-81433571D01*
X78466666Y-81433571D02*
X78561904Y-81481190D01*
X78561904Y-81481190D02*
X78609523Y-81528809D01*
X78609523Y-81528809D02*
X78657142Y-81624047D01*
X78657142Y-81624047D02*
X78657142Y-81862142D01*
X78657142Y-81862142D02*
X78609523Y-81957380D01*
X78609523Y-81957380D02*
X78561904Y-82005000D01*
X78561904Y-82005000D02*
X78466666Y-82052619D01*
X78466666Y-82052619D02*
X78180952Y-82052619D01*
X78180952Y-82052619D02*
X78085714Y-82005000D01*
X78085714Y-82005000D02*
X78038095Y-81957380D01*
%TO.C,C7*%
X112537380Y-39366666D02*
X112585000Y-39414285D01*
X112585000Y-39414285D02*
X112632619Y-39557142D01*
X112632619Y-39557142D02*
X112632619Y-39652380D01*
X112632619Y-39652380D02*
X112585000Y-39795237D01*
X112585000Y-39795237D02*
X112489761Y-39890475D01*
X112489761Y-39890475D02*
X112394523Y-39938094D01*
X112394523Y-39938094D02*
X112204047Y-39985713D01*
X112204047Y-39985713D02*
X112061190Y-39985713D01*
X112061190Y-39985713D02*
X111870714Y-39938094D01*
X111870714Y-39938094D02*
X111775476Y-39890475D01*
X111775476Y-39890475D02*
X111680238Y-39795237D01*
X111680238Y-39795237D02*
X111632619Y-39652380D01*
X111632619Y-39652380D02*
X111632619Y-39557142D01*
X111632619Y-39557142D02*
X111680238Y-39414285D01*
X111680238Y-39414285D02*
X111727857Y-39366666D01*
X111632619Y-39033332D02*
X111632619Y-38366666D01*
X111632619Y-38366666D02*
X112632619Y-38795237D01*
%TO.C,J6*%
X118972619Y-105533333D02*
X119686904Y-105533333D01*
X119686904Y-105533333D02*
X119829761Y-105580952D01*
X119829761Y-105580952D02*
X119925000Y-105676190D01*
X119925000Y-105676190D02*
X119972619Y-105819047D01*
X119972619Y-105819047D02*
X119972619Y-105914285D01*
X118972619Y-104628571D02*
X118972619Y-104819047D01*
X118972619Y-104819047D02*
X119020238Y-104914285D01*
X119020238Y-104914285D02*
X119067857Y-104961904D01*
X119067857Y-104961904D02*
X119210714Y-105057142D01*
X119210714Y-105057142D02*
X119401190Y-105104761D01*
X119401190Y-105104761D02*
X119782142Y-105104761D01*
X119782142Y-105104761D02*
X119877380Y-105057142D01*
X119877380Y-105057142D02*
X119925000Y-105009523D01*
X119925000Y-105009523D02*
X119972619Y-104914285D01*
X119972619Y-104914285D02*
X119972619Y-104723809D01*
X119972619Y-104723809D02*
X119925000Y-104628571D01*
X119925000Y-104628571D02*
X119877380Y-104580952D01*
X119877380Y-104580952D02*
X119782142Y-104533333D01*
X119782142Y-104533333D02*
X119544047Y-104533333D01*
X119544047Y-104533333D02*
X119448809Y-104580952D01*
X119448809Y-104580952D02*
X119401190Y-104628571D01*
X119401190Y-104628571D02*
X119353571Y-104723809D01*
X119353571Y-104723809D02*
X119353571Y-104914285D01*
X119353571Y-104914285D02*
X119401190Y-105009523D01*
X119401190Y-105009523D02*
X119448809Y-105057142D01*
X119448809Y-105057142D02*
X119544047Y-105104761D01*
%TO.C,RM21*%
X99982619Y-96864285D02*
X99506428Y-97197618D01*
X99982619Y-97435713D02*
X98982619Y-97435713D01*
X98982619Y-97435713D02*
X98982619Y-97054761D01*
X98982619Y-97054761D02*
X99030238Y-96959523D01*
X99030238Y-96959523D02*
X99077857Y-96911904D01*
X99077857Y-96911904D02*
X99173095Y-96864285D01*
X99173095Y-96864285D02*
X99315952Y-96864285D01*
X99315952Y-96864285D02*
X99411190Y-96911904D01*
X99411190Y-96911904D02*
X99458809Y-96959523D01*
X99458809Y-96959523D02*
X99506428Y-97054761D01*
X99506428Y-97054761D02*
X99506428Y-97435713D01*
X99982619Y-96435713D02*
X98982619Y-96435713D01*
X98982619Y-96435713D02*
X99696904Y-96102380D01*
X99696904Y-96102380D02*
X98982619Y-95769047D01*
X98982619Y-95769047D02*
X99982619Y-95769047D01*
X99077857Y-95340475D02*
X99030238Y-95292856D01*
X99030238Y-95292856D02*
X98982619Y-95197618D01*
X98982619Y-95197618D02*
X98982619Y-94959523D01*
X98982619Y-94959523D02*
X99030238Y-94864285D01*
X99030238Y-94864285D02*
X99077857Y-94816666D01*
X99077857Y-94816666D02*
X99173095Y-94769047D01*
X99173095Y-94769047D02*
X99268333Y-94769047D01*
X99268333Y-94769047D02*
X99411190Y-94816666D01*
X99411190Y-94816666D02*
X99982619Y-95388094D01*
X99982619Y-95388094D02*
X99982619Y-94769047D01*
X99982619Y-93816666D02*
X99982619Y-94388094D01*
X99982619Y-94102380D02*
X98982619Y-94102380D01*
X98982619Y-94102380D02*
X99125476Y-94197618D01*
X99125476Y-94197618D02*
X99220714Y-94292856D01*
X99220714Y-94292856D02*
X99268333Y-94388094D01*
%TO.C,RM14*%
X97382619Y-122164285D02*
X96906428Y-122497618D01*
X97382619Y-122735713D02*
X96382619Y-122735713D01*
X96382619Y-122735713D02*
X96382619Y-122354761D01*
X96382619Y-122354761D02*
X96430238Y-122259523D01*
X96430238Y-122259523D02*
X96477857Y-122211904D01*
X96477857Y-122211904D02*
X96573095Y-122164285D01*
X96573095Y-122164285D02*
X96715952Y-122164285D01*
X96715952Y-122164285D02*
X96811190Y-122211904D01*
X96811190Y-122211904D02*
X96858809Y-122259523D01*
X96858809Y-122259523D02*
X96906428Y-122354761D01*
X96906428Y-122354761D02*
X96906428Y-122735713D01*
X97382619Y-121735713D02*
X96382619Y-121735713D01*
X96382619Y-121735713D02*
X97096904Y-121402380D01*
X97096904Y-121402380D02*
X96382619Y-121069047D01*
X96382619Y-121069047D02*
X97382619Y-121069047D01*
X97382619Y-120069047D02*
X97382619Y-120640475D01*
X97382619Y-120354761D02*
X96382619Y-120354761D01*
X96382619Y-120354761D02*
X96525476Y-120449999D01*
X96525476Y-120449999D02*
X96620714Y-120545237D01*
X96620714Y-120545237D02*
X96668333Y-120640475D01*
X96715952Y-119211904D02*
X97382619Y-119211904D01*
X96335000Y-119449999D02*
X97049285Y-119688094D01*
X97049285Y-119688094D02*
X97049285Y-119069047D01*
%TO.C,R4*%
X105133333Y-136562619D02*
X104800000Y-136086428D01*
X104561905Y-136562619D02*
X104561905Y-135562619D01*
X104561905Y-135562619D02*
X104942857Y-135562619D01*
X104942857Y-135562619D02*
X105038095Y-135610238D01*
X105038095Y-135610238D02*
X105085714Y-135657857D01*
X105085714Y-135657857D02*
X105133333Y-135753095D01*
X105133333Y-135753095D02*
X105133333Y-135895952D01*
X105133333Y-135895952D02*
X105085714Y-135991190D01*
X105085714Y-135991190D02*
X105038095Y-136038809D01*
X105038095Y-136038809D02*
X104942857Y-136086428D01*
X104942857Y-136086428D02*
X104561905Y-136086428D01*
X105990476Y-135895952D02*
X105990476Y-136562619D01*
X105752381Y-135515000D02*
X105514286Y-136229285D01*
X105514286Y-136229285D02*
X106133333Y-136229285D01*
%TO.C,M19*%
X90914286Y-82092619D02*
X90914286Y-81092619D01*
X90914286Y-81092619D02*
X91247619Y-81806904D01*
X91247619Y-81806904D02*
X91580952Y-81092619D01*
X91580952Y-81092619D02*
X91580952Y-82092619D01*
X92580952Y-82092619D02*
X92009524Y-82092619D01*
X92295238Y-82092619D02*
X92295238Y-81092619D01*
X92295238Y-81092619D02*
X92200000Y-81235476D01*
X92200000Y-81235476D02*
X92104762Y-81330714D01*
X92104762Y-81330714D02*
X92009524Y-81378333D01*
X93057143Y-82092619D02*
X93247619Y-82092619D01*
X93247619Y-82092619D02*
X93342857Y-82045000D01*
X93342857Y-82045000D02*
X93390476Y-81997380D01*
X93390476Y-81997380D02*
X93485714Y-81854523D01*
X93485714Y-81854523D02*
X93533333Y-81664047D01*
X93533333Y-81664047D02*
X93533333Y-81283095D01*
X93533333Y-81283095D02*
X93485714Y-81187857D01*
X93485714Y-81187857D02*
X93438095Y-81140238D01*
X93438095Y-81140238D02*
X93342857Y-81092619D01*
X93342857Y-81092619D02*
X93152381Y-81092619D01*
X93152381Y-81092619D02*
X93057143Y-81140238D01*
X93057143Y-81140238D02*
X93009524Y-81187857D01*
X93009524Y-81187857D02*
X92961905Y-81283095D01*
X92961905Y-81283095D02*
X92961905Y-81521190D01*
X92961905Y-81521190D02*
X93009524Y-81616428D01*
X93009524Y-81616428D02*
X93057143Y-81664047D01*
X93057143Y-81664047D02*
X93152381Y-81711666D01*
X93152381Y-81711666D02*
X93342857Y-81711666D01*
X93342857Y-81711666D02*
X93438095Y-81664047D01*
X93438095Y-81664047D02*
X93485714Y-81616428D01*
X93485714Y-81616428D02*
X93533333Y-81521190D01*
D11*
%TO.C,U3*%
X87321600Y-29757546D02*
X87321600Y-30785641D01*
X87321600Y-30785641D02*
X87382077Y-30906593D01*
X87382077Y-30906593D02*
X87442553Y-30967070D01*
X87442553Y-30967070D02*
X87563505Y-31027546D01*
X87563505Y-31027546D02*
X87805410Y-31027546D01*
X87805410Y-31027546D02*
X87926362Y-30967070D01*
X87926362Y-30967070D02*
X87986839Y-30906593D01*
X87986839Y-30906593D02*
X88047315Y-30785641D01*
X88047315Y-30785641D02*
X88047315Y-29757546D01*
X88531124Y-29757546D02*
X89317315Y-29757546D01*
X89317315Y-29757546D02*
X88893981Y-30241355D01*
X88893981Y-30241355D02*
X89075410Y-30241355D01*
X89075410Y-30241355D02*
X89196362Y-30301831D01*
X89196362Y-30301831D02*
X89256838Y-30362308D01*
X89256838Y-30362308D02*
X89317315Y-30483260D01*
X89317315Y-30483260D02*
X89317315Y-30785641D01*
X89317315Y-30785641D02*
X89256838Y-30906593D01*
X89256838Y-30906593D02*
X89196362Y-30967070D01*
X89196362Y-30967070D02*
X89075410Y-31027546D01*
X89075410Y-31027546D02*
X88712553Y-31027546D01*
X88712553Y-31027546D02*
X88591600Y-30967070D01*
X88591600Y-30967070D02*
X88531124Y-30906593D01*
X85477077Y-28319422D02*
X85356124Y-28258946D01*
X85356124Y-28258946D02*
X85174696Y-28258946D01*
X85174696Y-28258946D02*
X84993267Y-28319422D01*
X84993267Y-28319422D02*
X84872315Y-28440374D01*
X84872315Y-28440374D02*
X84811838Y-28561327D01*
X84811838Y-28561327D02*
X84751362Y-28803231D01*
X84751362Y-28803231D02*
X84751362Y-28984660D01*
X84751362Y-28984660D02*
X84811838Y-29226565D01*
X84811838Y-29226565D02*
X84872315Y-29347517D01*
X84872315Y-29347517D02*
X84993267Y-29468470D01*
X84993267Y-29468470D02*
X85174696Y-29528946D01*
X85174696Y-29528946D02*
X85295648Y-29528946D01*
X85295648Y-29528946D02*
X85477077Y-29468470D01*
X85477077Y-29468470D02*
X85537553Y-29407993D01*
X85537553Y-29407993D02*
X85537553Y-28984660D01*
X85537553Y-28984660D02*
X85295648Y-28984660D01*
X86323743Y-28924184D02*
X86323743Y-29528946D01*
X85900410Y-28258946D02*
X86323743Y-28924184D01*
X86323743Y-28924184D02*
X86747077Y-28258946D01*
X87170409Y-29045136D02*
X88138029Y-29045136D01*
X89347552Y-28258946D02*
X88742790Y-28258946D01*
X88742790Y-28258946D02*
X88682314Y-28863708D01*
X88682314Y-28863708D02*
X88742790Y-28803231D01*
X88742790Y-28803231D02*
X88863743Y-28742755D01*
X88863743Y-28742755D02*
X89166124Y-28742755D01*
X89166124Y-28742755D02*
X89287076Y-28803231D01*
X89287076Y-28803231D02*
X89347552Y-28863708D01*
X89347552Y-28863708D02*
X89408029Y-28984660D01*
X89408029Y-28984660D02*
X89408029Y-29287041D01*
X89408029Y-29287041D02*
X89347552Y-29407993D01*
X89347552Y-29407993D02*
X89287076Y-29468470D01*
X89287076Y-29468470D02*
X89166124Y-29528946D01*
X89166124Y-29528946D02*
X88863743Y-29528946D01*
X88863743Y-29528946D02*
X88742790Y-29468470D01*
X88742790Y-29468470D02*
X88682314Y-29407993D01*
X89891838Y-28379898D02*
X89952314Y-28319422D01*
X89952314Y-28319422D02*
X90073267Y-28258946D01*
X90073267Y-28258946D02*
X90375648Y-28258946D01*
X90375648Y-28258946D02*
X90496600Y-28319422D01*
X90496600Y-28319422D02*
X90557076Y-28379898D01*
X90557076Y-28379898D02*
X90617553Y-28500850D01*
X90617553Y-28500850D02*
X90617553Y-28621803D01*
X90617553Y-28621803D02*
X90557076Y-28803231D01*
X90557076Y-28803231D02*
X89831362Y-29528946D01*
X89831362Y-29528946D02*
X90617553Y-29528946D01*
X91827077Y-29528946D02*
X91101362Y-29528946D01*
X91464219Y-29528946D02*
X91464219Y-28258946D01*
X91464219Y-28258946D02*
X91343267Y-28440374D01*
X91343267Y-28440374D02*
X91222315Y-28561327D01*
X91222315Y-28561327D02*
X91101362Y-28621803D01*
X91893419Y-35108660D02*
X92740086Y-34806279D01*
X91893419Y-34503898D02*
X92740086Y-34806279D01*
X92740086Y-34806279D02*
X93042467Y-34927231D01*
X93042467Y-34927231D02*
X93102943Y-34987708D01*
X93102943Y-34987708D02*
X93163419Y-35108660D01*
X96240206Y-32139158D02*
X95393539Y-31473920D01*
X95393539Y-32139158D02*
X96240206Y-31473920D01*
D10*
%TO.C,J7*%
X102866666Y-69462619D02*
X102866666Y-70176904D01*
X102866666Y-70176904D02*
X102819047Y-70319761D01*
X102819047Y-70319761D02*
X102723809Y-70415000D01*
X102723809Y-70415000D02*
X102580952Y-70462619D01*
X102580952Y-70462619D02*
X102485714Y-70462619D01*
X103247619Y-69462619D02*
X103914285Y-69462619D01*
X103914285Y-69462619D02*
X103485714Y-70462619D01*
%TO.C,M23*%
X110712619Y-44775713D02*
X109712619Y-44775713D01*
X109712619Y-44775713D02*
X110426904Y-44442380D01*
X110426904Y-44442380D02*
X109712619Y-44109047D01*
X109712619Y-44109047D02*
X110712619Y-44109047D01*
X109807857Y-43680475D02*
X109760238Y-43632856D01*
X109760238Y-43632856D02*
X109712619Y-43537618D01*
X109712619Y-43537618D02*
X109712619Y-43299523D01*
X109712619Y-43299523D02*
X109760238Y-43204285D01*
X109760238Y-43204285D02*
X109807857Y-43156666D01*
X109807857Y-43156666D02*
X109903095Y-43109047D01*
X109903095Y-43109047D02*
X109998333Y-43109047D01*
X109998333Y-43109047D02*
X110141190Y-43156666D01*
X110141190Y-43156666D02*
X110712619Y-43728094D01*
X110712619Y-43728094D02*
X110712619Y-43109047D01*
X109712619Y-42775713D02*
X109712619Y-42156666D01*
X109712619Y-42156666D02*
X110093571Y-42489999D01*
X110093571Y-42489999D02*
X110093571Y-42347142D01*
X110093571Y-42347142D02*
X110141190Y-42251904D01*
X110141190Y-42251904D02*
X110188809Y-42204285D01*
X110188809Y-42204285D02*
X110284047Y-42156666D01*
X110284047Y-42156666D02*
X110522142Y-42156666D01*
X110522142Y-42156666D02*
X110617380Y-42204285D01*
X110617380Y-42204285D02*
X110665000Y-42251904D01*
X110665000Y-42251904D02*
X110712619Y-42347142D01*
X110712619Y-42347142D02*
X110712619Y-42632856D01*
X110712619Y-42632856D02*
X110665000Y-42728094D01*
X110665000Y-42728094D02*
X110617380Y-42775713D01*
%TO.C,J5*%
X118932619Y-101933333D02*
X119646904Y-101933333D01*
X119646904Y-101933333D02*
X119789761Y-101980952D01*
X119789761Y-101980952D02*
X119885000Y-102076190D01*
X119885000Y-102076190D02*
X119932619Y-102219047D01*
X119932619Y-102219047D02*
X119932619Y-102314285D01*
X118932619Y-100980952D02*
X118932619Y-101457142D01*
X118932619Y-101457142D02*
X119408809Y-101504761D01*
X119408809Y-101504761D02*
X119361190Y-101457142D01*
X119361190Y-101457142D02*
X119313571Y-101361904D01*
X119313571Y-101361904D02*
X119313571Y-101123809D01*
X119313571Y-101123809D02*
X119361190Y-101028571D01*
X119361190Y-101028571D02*
X119408809Y-100980952D01*
X119408809Y-100980952D02*
X119504047Y-100933333D01*
X119504047Y-100933333D02*
X119742142Y-100933333D01*
X119742142Y-100933333D02*
X119837380Y-100980952D01*
X119837380Y-100980952D02*
X119885000Y-101028571D01*
X119885000Y-101028571D02*
X119932619Y-101123809D01*
X119932619Y-101123809D02*
X119932619Y-101361904D01*
X119932619Y-101361904D02*
X119885000Y-101457142D01*
X119885000Y-101457142D02*
X119837380Y-101504761D01*
%TO.C,C9*%
X47853333Y-53107380D02*
X47805714Y-53155000D01*
X47805714Y-53155000D02*
X47662857Y-53202619D01*
X47662857Y-53202619D02*
X47567619Y-53202619D01*
X47567619Y-53202619D02*
X47424762Y-53155000D01*
X47424762Y-53155000D02*
X47329524Y-53059761D01*
X47329524Y-53059761D02*
X47281905Y-52964523D01*
X47281905Y-52964523D02*
X47234286Y-52774047D01*
X47234286Y-52774047D02*
X47234286Y-52631190D01*
X47234286Y-52631190D02*
X47281905Y-52440714D01*
X47281905Y-52440714D02*
X47329524Y-52345476D01*
X47329524Y-52345476D02*
X47424762Y-52250238D01*
X47424762Y-52250238D02*
X47567619Y-52202619D01*
X47567619Y-52202619D02*
X47662857Y-52202619D01*
X47662857Y-52202619D02*
X47805714Y-52250238D01*
X47805714Y-52250238D02*
X47853333Y-52297857D01*
X48329524Y-53202619D02*
X48520000Y-53202619D01*
X48520000Y-53202619D02*
X48615238Y-53155000D01*
X48615238Y-53155000D02*
X48662857Y-53107380D01*
X48662857Y-53107380D02*
X48758095Y-52964523D01*
X48758095Y-52964523D02*
X48805714Y-52774047D01*
X48805714Y-52774047D02*
X48805714Y-52393095D01*
X48805714Y-52393095D02*
X48758095Y-52297857D01*
X48758095Y-52297857D02*
X48710476Y-52250238D01*
X48710476Y-52250238D02*
X48615238Y-52202619D01*
X48615238Y-52202619D02*
X48424762Y-52202619D01*
X48424762Y-52202619D02*
X48329524Y-52250238D01*
X48329524Y-52250238D02*
X48281905Y-52297857D01*
X48281905Y-52297857D02*
X48234286Y-52393095D01*
X48234286Y-52393095D02*
X48234286Y-52631190D01*
X48234286Y-52631190D02*
X48281905Y-52726428D01*
X48281905Y-52726428D02*
X48329524Y-52774047D01*
X48329524Y-52774047D02*
X48424762Y-52821666D01*
X48424762Y-52821666D02*
X48615238Y-52821666D01*
X48615238Y-52821666D02*
X48710476Y-52774047D01*
X48710476Y-52774047D02*
X48758095Y-52726428D01*
X48758095Y-52726428D02*
X48805714Y-52631190D01*
%TO.C,R5*%
X106313333Y-141832619D02*
X105980000Y-141356428D01*
X105741905Y-141832619D02*
X105741905Y-140832619D01*
X105741905Y-140832619D02*
X106122857Y-140832619D01*
X106122857Y-140832619D02*
X106218095Y-140880238D01*
X106218095Y-140880238D02*
X106265714Y-140927857D01*
X106265714Y-140927857D02*
X106313333Y-141023095D01*
X106313333Y-141023095D02*
X106313333Y-141165952D01*
X106313333Y-141165952D02*
X106265714Y-141261190D01*
X106265714Y-141261190D02*
X106218095Y-141308809D01*
X106218095Y-141308809D02*
X106122857Y-141356428D01*
X106122857Y-141356428D02*
X105741905Y-141356428D01*
X107218095Y-140832619D02*
X106741905Y-140832619D01*
X106741905Y-140832619D02*
X106694286Y-141308809D01*
X106694286Y-141308809D02*
X106741905Y-141261190D01*
X106741905Y-141261190D02*
X106837143Y-141213571D01*
X106837143Y-141213571D02*
X107075238Y-141213571D01*
X107075238Y-141213571D02*
X107170476Y-141261190D01*
X107170476Y-141261190D02*
X107218095Y-141308809D01*
X107218095Y-141308809D02*
X107265714Y-141404047D01*
X107265714Y-141404047D02*
X107265714Y-141642142D01*
X107265714Y-141642142D02*
X107218095Y-141737380D01*
X107218095Y-141737380D02*
X107170476Y-141785000D01*
X107170476Y-141785000D02*
X107075238Y-141832619D01*
X107075238Y-141832619D02*
X106837143Y-141832619D01*
X106837143Y-141832619D02*
X106741905Y-141785000D01*
X106741905Y-141785000D02*
X106694286Y-141737380D01*
%TO.C,Q8*%
X95814761Y-129832857D02*
X95719523Y-129785238D01*
X95719523Y-129785238D02*
X95624285Y-129690000D01*
X95624285Y-129690000D02*
X95481428Y-129547142D01*
X95481428Y-129547142D02*
X95386190Y-129499523D01*
X95386190Y-129499523D02*
X95290952Y-129499523D01*
X95338571Y-129737619D02*
X95243333Y-129690000D01*
X95243333Y-129690000D02*
X95148095Y-129594761D01*
X95148095Y-129594761D02*
X95100476Y-129404285D01*
X95100476Y-129404285D02*
X95100476Y-129070952D01*
X95100476Y-129070952D02*
X95148095Y-128880476D01*
X95148095Y-128880476D02*
X95243333Y-128785238D01*
X95243333Y-128785238D02*
X95338571Y-128737619D01*
X95338571Y-128737619D02*
X95529047Y-128737619D01*
X95529047Y-128737619D02*
X95624285Y-128785238D01*
X95624285Y-128785238D02*
X95719523Y-128880476D01*
X95719523Y-128880476D02*
X95767142Y-129070952D01*
X95767142Y-129070952D02*
X95767142Y-129404285D01*
X95767142Y-129404285D02*
X95719523Y-129594761D01*
X95719523Y-129594761D02*
X95624285Y-129690000D01*
X95624285Y-129690000D02*
X95529047Y-129737619D01*
X95529047Y-129737619D02*
X95338571Y-129737619D01*
X96338571Y-129166190D02*
X96243333Y-129118571D01*
X96243333Y-129118571D02*
X96195714Y-129070952D01*
X96195714Y-129070952D02*
X96148095Y-128975714D01*
X96148095Y-128975714D02*
X96148095Y-128928095D01*
X96148095Y-128928095D02*
X96195714Y-128832857D01*
X96195714Y-128832857D02*
X96243333Y-128785238D01*
X96243333Y-128785238D02*
X96338571Y-128737619D01*
X96338571Y-128737619D02*
X96529047Y-128737619D01*
X96529047Y-128737619D02*
X96624285Y-128785238D01*
X96624285Y-128785238D02*
X96671904Y-128832857D01*
X96671904Y-128832857D02*
X96719523Y-128928095D01*
X96719523Y-128928095D02*
X96719523Y-128975714D01*
X96719523Y-128975714D02*
X96671904Y-129070952D01*
X96671904Y-129070952D02*
X96624285Y-129118571D01*
X96624285Y-129118571D02*
X96529047Y-129166190D01*
X96529047Y-129166190D02*
X96338571Y-129166190D01*
X96338571Y-129166190D02*
X96243333Y-129213809D01*
X96243333Y-129213809D02*
X96195714Y-129261428D01*
X96195714Y-129261428D02*
X96148095Y-129356666D01*
X96148095Y-129356666D02*
X96148095Y-129547142D01*
X96148095Y-129547142D02*
X96195714Y-129642380D01*
X96195714Y-129642380D02*
X96243333Y-129690000D01*
X96243333Y-129690000D02*
X96338571Y-129737619D01*
X96338571Y-129737619D02*
X96529047Y-129737619D01*
X96529047Y-129737619D02*
X96624285Y-129690000D01*
X96624285Y-129690000D02*
X96671904Y-129642380D01*
X96671904Y-129642380D02*
X96719523Y-129547142D01*
X96719523Y-129547142D02*
X96719523Y-129356666D01*
X96719523Y-129356666D02*
X96671904Y-129261428D01*
X96671904Y-129261428D02*
X96624285Y-129213809D01*
X96624285Y-129213809D02*
X96529047Y-129166190D01*
%TO.C,Q7*%
X104714761Y-123567857D02*
X104619523Y-123520238D01*
X104619523Y-123520238D02*
X104524285Y-123425000D01*
X104524285Y-123425000D02*
X104381428Y-123282142D01*
X104381428Y-123282142D02*
X104286190Y-123234523D01*
X104286190Y-123234523D02*
X104190952Y-123234523D01*
X104238571Y-123472619D02*
X104143333Y-123425000D01*
X104143333Y-123425000D02*
X104048095Y-123329761D01*
X104048095Y-123329761D02*
X104000476Y-123139285D01*
X104000476Y-123139285D02*
X104000476Y-122805952D01*
X104000476Y-122805952D02*
X104048095Y-122615476D01*
X104048095Y-122615476D02*
X104143333Y-122520238D01*
X104143333Y-122520238D02*
X104238571Y-122472619D01*
X104238571Y-122472619D02*
X104429047Y-122472619D01*
X104429047Y-122472619D02*
X104524285Y-122520238D01*
X104524285Y-122520238D02*
X104619523Y-122615476D01*
X104619523Y-122615476D02*
X104667142Y-122805952D01*
X104667142Y-122805952D02*
X104667142Y-123139285D01*
X104667142Y-123139285D02*
X104619523Y-123329761D01*
X104619523Y-123329761D02*
X104524285Y-123425000D01*
X104524285Y-123425000D02*
X104429047Y-123472619D01*
X104429047Y-123472619D02*
X104238571Y-123472619D01*
X105000476Y-122472619D02*
X105667142Y-122472619D01*
X105667142Y-122472619D02*
X105238571Y-123472619D01*
%TO.C,M4*%
X73390476Y-82052619D02*
X73390476Y-81052619D01*
X73390476Y-81052619D02*
X73723809Y-81766904D01*
X73723809Y-81766904D02*
X74057142Y-81052619D01*
X74057142Y-81052619D02*
X74057142Y-82052619D01*
X74961904Y-81385952D02*
X74961904Y-82052619D01*
X74723809Y-81005000D02*
X74485714Y-81719285D01*
X74485714Y-81719285D02*
X75104761Y-81719285D01*
%TO.C,C8*%
X58437380Y-41546666D02*
X58485000Y-41594285D01*
X58485000Y-41594285D02*
X58532619Y-41737142D01*
X58532619Y-41737142D02*
X58532619Y-41832380D01*
X58532619Y-41832380D02*
X58485000Y-41975237D01*
X58485000Y-41975237D02*
X58389761Y-42070475D01*
X58389761Y-42070475D02*
X58294523Y-42118094D01*
X58294523Y-42118094D02*
X58104047Y-42165713D01*
X58104047Y-42165713D02*
X57961190Y-42165713D01*
X57961190Y-42165713D02*
X57770714Y-42118094D01*
X57770714Y-42118094D02*
X57675476Y-42070475D01*
X57675476Y-42070475D02*
X57580238Y-41975237D01*
X57580238Y-41975237D02*
X57532619Y-41832380D01*
X57532619Y-41832380D02*
X57532619Y-41737142D01*
X57532619Y-41737142D02*
X57580238Y-41594285D01*
X57580238Y-41594285D02*
X57627857Y-41546666D01*
X57961190Y-40975237D02*
X57913571Y-41070475D01*
X57913571Y-41070475D02*
X57865952Y-41118094D01*
X57865952Y-41118094D02*
X57770714Y-41165713D01*
X57770714Y-41165713D02*
X57723095Y-41165713D01*
X57723095Y-41165713D02*
X57627857Y-41118094D01*
X57627857Y-41118094D02*
X57580238Y-41070475D01*
X57580238Y-41070475D02*
X57532619Y-40975237D01*
X57532619Y-40975237D02*
X57532619Y-40784761D01*
X57532619Y-40784761D02*
X57580238Y-40689523D01*
X57580238Y-40689523D02*
X57627857Y-40641904D01*
X57627857Y-40641904D02*
X57723095Y-40594285D01*
X57723095Y-40594285D02*
X57770714Y-40594285D01*
X57770714Y-40594285D02*
X57865952Y-40641904D01*
X57865952Y-40641904D02*
X57913571Y-40689523D01*
X57913571Y-40689523D02*
X57961190Y-40784761D01*
X57961190Y-40784761D02*
X57961190Y-40975237D01*
X57961190Y-40975237D02*
X58008809Y-41070475D01*
X58008809Y-41070475D02*
X58056428Y-41118094D01*
X58056428Y-41118094D02*
X58151666Y-41165713D01*
X58151666Y-41165713D02*
X58342142Y-41165713D01*
X58342142Y-41165713D02*
X58437380Y-41118094D01*
X58437380Y-41118094D02*
X58485000Y-41070475D01*
X58485000Y-41070475D02*
X58532619Y-40975237D01*
X58532619Y-40975237D02*
X58532619Y-40784761D01*
X58532619Y-40784761D02*
X58485000Y-40689523D01*
X58485000Y-40689523D02*
X58437380Y-40641904D01*
X58437380Y-40641904D02*
X58342142Y-40594285D01*
X58342142Y-40594285D02*
X58151666Y-40594285D01*
X58151666Y-40594285D02*
X58056428Y-40641904D01*
X58056428Y-40641904D02*
X58008809Y-40689523D01*
X58008809Y-40689523D02*
X57961190Y-40784761D01*
%TO.C,R35*%
X115932619Y-132042857D02*
X115456428Y-132376190D01*
X115932619Y-132614285D02*
X114932619Y-132614285D01*
X114932619Y-132614285D02*
X114932619Y-132233333D01*
X114932619Y-132233333D02*
X114980238Y-132138095D01*
X114980238Y-132138095D02*
X115027857Y-132090476D01*
X115027857Y-132090476D02*
X115123095Y-132042857D01*
X115123095Y-132042857D02*
X115265952Y-132042857D01*
X115265952Y-132042857D02*
X115361190Y-132090476D01*
X115361190Y-132090476D02*
X115408809Y-132138095D01*
X115408809Y-132138095D02*
X115456428Y-132233333D01*
X115456428Y-132233333D02*
X115456428Y-132614285D01*
X114932619Y-131709523D02*
X114932619Y-131090476D01*
X114932619Y-131090476D02*
X115313571Y-131423809D01*
X115313571Y-131423809D02*
X115313571Y-131280952D01*
X115313571Y-131280952D02*
X115361190Y-131185714D01*
X115361190Y-131185714D02*
X115408809Y-131138095D01*
X115408809Y-131138095D02*
X115504047Y-131090476D01*
X115504047Y-131090476D02*
X115742142Y-131090476D01*
X115742142Y-131090476D02*
X115837380Y-131138095D01*
X115837380Y-131138095D02*
X115885000Y-131185714D01*
X115885000Y-131185714D02*
X115932619Y-131280952D01*
X115932619Y-131280952D02*
X115932619Y-131566666D01*
X115932619Y-131566666D02*
X115885000Y-131661904D01*
X115885000Y-131661904D02*
X115837380Y-131709523D01*
X114932619Y-130185714D02*
X114932619Y-130661904D01*
X114932619Y-130661904D02*
X115408809Y-130709523D01*
X115408809Y-130709523D02*
X115361190Y-130661904D01*
X115361190Y-130661904D02*
X115313571Y-130566666D01*
X115313571Y-130566666D02*
X115313571Y-130328571D01*
X115313571Y-130328571D02*
X115361190Y-130233333D01*
X115361190Y-130233333D02*
X115408809Y-130185714D01*
X115408809Y-130185714D02*
X115504047Y-130138095D01*
X115504047Y-130138095D02*
X115742142Y-130138095D01*
X115742142Y-130138095D02*
X115837380Y-130185714D01*
X115837380Y-130185714D02*
X115885000Y-130233333D01*
X115885000Y-130233333D02*
X115932619Y-130328571D01*
X115932619Y-130328571D02*
X115932619Y-130566666D01*
X115932619Y-130566666D02*
X115885000Y-130661904D01*
X115885000Y-130661904D02*
X115837380Y-130709523D01*
%TO.C,J9*%
X75682619Y-48373333D02*
X76396904Y-48373333D01*
X76396904Y-48373333D02*
X76539761Y-48420952D01*
X76539761Y-48420952D02*
X76635000Y-48516190D01*
X76635000Y-48516190D02*
X76682619Y-48659047D01*
X76682619Y-48659047D02*
X76682619Y-48754285D01*
X76682619Y-47849523D02*
X76682619Y-47659047D01*
X76682619Y-47659047D02*
X76635000Y-47563809D01*
X76635000Y-47563809D02*
X76587380Y-47516190D01*
X76587380Y-47516190D02*
X76444523Y-47420952D01*
X76444523Y-47420952D02*
X76254047Y-47373333D01*
X76254047Y-47373333D02*
X75873095Y-47373333D01*
X75873095Y-47373333D02*
X75777857Y-47420952D01*
X75777857Y-47420952D02*
X75730238Y-47468571D01*
X75730238Y-47468571D02*
X75682619Y-47563809D01*
X75682619Y-47563809D02*
X75682619Y-47754285D01*
X75682619Y-47754285D02*
X75730238Y-47849523D01*
X75730238Y-47849523D02*
X75777857Y-47897142D01*
X75777857Y-47897142D02*
X75873095Y-47944761D01*
X75873095Y-47944761D02*
X76111190Y-47944761D01*
X76111190Y-47944761D02*
X76206428Y-47897142D01*
X76206428Y-47897142D02*
X76254047Y-47849523D01*
X76254047Y-47849523D02*
X76301666Y-47754285D01*
X76301666Y-47754285D02*
X76301666Y-47563809D01*
X76301666Y-47563809D02*
X76254047Y-47468571D01*
X76254047Y-47468571D02*
X76206428Y-47420952D01*
X76206428Y-47420952D02*
X76111190Y-47373333D01*
%TO.C,R3*%
X61265833Y-135562619D02*
X60932500Y-135086428D01*
X60694405Y-135562619D02*
X60694405Y-134562619D01*
X60694405Y-134562619D02*
X61075357Y-134562619D01*
X61075357Y-134562619D02*
X61170595Y-134610238D01*
X61170595Y-134610238D02*
X61218214Y-134657857D01*
X61218214Y-134657857D02*
X61265833Y-134753095D01*
X61265833Y-134753095D02*
X61265833Y-134895952D01*
X61265833Y-134895952D02*
X61218214Y-134991190D01*
X61218214Y-134991190D02*
X61170595Y-135038809D01*
X61170595Y-135038809D02*
X61075357Y-135086428D01*
X61075357Y-135086428D02*
X60694405Y-135086428D01*
X61599167Y-134562619D02*
X62218214Y-134562619D01*
X62218214Y-134562619D02*
X61884881Y-134943571D01*
X61884881Y-134943571D02*
X62027738Y-134943571D01*
X62027738Y-134943571D02*
X62122976Y-134991190D01*
X62122976Y-134991190D02*
X62170595Y-135038809D01*
X62170595Y-135038809D02*
X62218214Y-135134047D01*
X62218214Y-135134047D02*
X62218214Y-135372142D01*
X62218214Y-135372142D02*
X62170595Y-135467380D01*
X62170595Y-135467380D02*
X62122976Y-135515000D01*
X62122976Y-135515000D02*
X62027738Y-135562619D01*
X62027738Y-135562619D02*
X61742024Y-135562619D01*
X61742024Y-135562619D02*
X61646786Y-135515000D01*
X61646786Y-135515000D02*
X61599167Y-135467380D01*
%TO.C,RM23*%
X101295714Y-39112619D02*
X100962381Y-38636428D01*
X100724286Y-39112619D02*
X100724286Y-38112619D01*
X100724286Y-38112619D02*
X101105238Y-38112619D01*
X101105238Y-38112619D02*
X101200476Y-38160238D01*
X101200476Y-38160238D02*
X101248095Y-38207857D01*
X101248095Y-38207857D02*
X101295714Y-38303095D01*
X101295714Y-38303095D02*
X101295714Y-38445952D01*
X101295714Y-38445952D02*
X101248095Y-38541190D01*
X101248095Y-38541190D02*
X101200476Y-38588809D01*
X101200476Y-38588809D02*
X101105238Y-38636428D01*
X101105238Y-38636428D02*
X100724286Y-38636428D01*
X101724286Y-39112619D02*
X101724286Y-38112619D01*
X101724286Y-38112619D02*
X102057619Y-38826904D01*
X102057619Y-38826904D02*
X102390952Y-38112619D01*
X102390952Y-38112619D02*
X102390952Y-39112619D01*
X102819524Y-38207857D02*
X102867143Y-38160238D01*
X102867143Y-38160238D02*
X102962381Y-38112619D01*
X102962381Y-38112619D02*
X103200476Y-38112619D01*
X103200476Y-38112619D02*
X103295714Y-38160238D01*
X103295714Y-38160238D02*
X103343333Y-38207857D01*
X103343333Y-38207857D02*
X103390952Y-38303095D01*
X103390952Y-38303095D02*
X103390952Y-38398333D01*
X103390952Y-38398333D02*
X103343333Y-38541190D01*
X103343333Y-38541190D02*
X102771905Y-39112619D01*
X102771905Y-39112619D02*
X103390952Y-39112619D01*
X103724286Y-38112619D02*
X104343333Y-38112619D01*
X104343333Y-38112619D02*
X104010000Y-38493571D01*
X104010000Y-38493571D02*
X104152857Y-38493571D01*
X104152857Y-38493571D02*
X104248095Y-38541190D01*
X104248095Y-38541190D02*
X104295714Y-38588809D01*
X104295714Y-38588809D02*
X104343333Y-38684047D01*
X104343333Y-38684047D02*
X104343333Y-38922142D01*
X104343333Y-38922142D02*
X104295714Y-39017380D01*
X104295714Y-39017380D02*
X104248095Y-39065000D01*
X104248095Y-39065000D02*
X104152857Y-39112619D01*
X104152857Y-39112619D02*
X103867143Y-39112619D01*
X103867143Y-39112619D02*
X103771905Y-39065000D01*
X103771905Y-39065000D02*
X103724286Y-39017380D01*
%TO.C,M12*%
X93614286Y-107292619D02*
X93614286Y-106292619D01*
X93614286Y-106292619D02*
X93947619Y-107006904D01*
X93947619Y-107006904D02*
X94280952Y-106292619D01*
X94280952Y-106292619D02*
X94280952Y-107292619D01*
X95280952Y-107292619D02*
X94709524Y-107292619D01*
X94995238Y-107292619D02*
X94995238Y-106292619D01*
X94995238Y-106292619D02*
X94900000Y-106435476D01*
X94900000Y-106435476D02*
X94804762Y-106530714D01*
X94804762Y-106530714D02*
X94709524Y-106578333D01*
X95661905Y-106387857D02*
X95709524Y-106340238D01*
X95709524Y-106340238D02*
X95804762Y-106292619D01*
X95804762Y-106292619D02*
X96042857Y-106292619D01*
X96042857Y-106292619D02*
X96138095Y-106340238D01*
X96138095Y-106340238D02*
X96185714Y-106387857D01*
X96185714Y-106387857D02*
X96233333Y-106483095D01*
X96233333Y-106483095D02*
X96233333Y-106578333D01*
X96233333Y-106578333D02*
X96185714Y-106721190D01*
X96185714Y-106721190D02*
X95614286Y-107292619D01*
X95614286Y-107292619D02*
X96233333Y-107292619D01*
%TO.C,C1*%
X51438333Y-112087380D02*
X51390714Y-112135000D01*
X51390714Y-112135000D02*
X51247857Y-112182619D01*
X51247857Y-112182619D02*
X51152619Y-112182619D01*
X51152619Y-112182619D02*
X51009762Y-112135000D01*
X51009762Y-112135000D02*
X50914524Y-112039761D01*
X50914524Y-112039761D02*
X50866905Y-111944523D01*
X50866905Y-111944523D02*
X50819286Y-111754047D01*
X50819286Y-111754047D02*
X50819286Y-111611190D01*
X50819286Y-111611190D02*
X50866905Y-111420714D01*
X50866905Y-111420714D02*
X50914524Y-111325476D01*
X50914524Y-111325476D02*
X51009762Y-111230238D01*
X51009762Y-111230238D02*
X51152619Y-111182619D01*
X51152619Y-111182619D02*
X51247857Y-111182619D01*
X51247857Y-111182619D02*
X51390714Y-111230238D01*
X51390714Y-111230238D02*
X51438333Y-111277857D01*
X52390714Y-112182619D02*
X51819286Y-112182619D01*
X52105000Y-112182619D02*
X52105000Y-111182619D01*
X52105000Y-111182619D02*
X52009762Y-111325476D01*
X52009762Y-111325476D02*
X51914524Y-111420714D01*
X51914524Y-111420714D02*
X51819286Y-111468333D01*
%TO.C,RM7*%
X68782619Y-121768095D02*
X68306428Y-122101428D01*
X68782619Y-122339523D02*
X67782619Y-122339523D01*
X67782619Y-122339523D02*
X67782619Y-121958571D01*
X67782619Y-121958571D02*
X67830238Y-121863333D01*
X67830238Y-121863333D02*
X67877857Y-121815714D01*
X67877857Y-121815714D02*
X67973095Y-121768095D01*
X67973095Y-121768095D02*
X68115952Y-121768095D01*
X68115952Y-121768095D02*
X68211190Y-121815714D01*
X68211190Y-121815714D02*
X68258809Y-121863333D01*
X68258809Y-121863333D02*
X68306428Y-121958571D01*
X68306428Y-121958571D02*
X68306428Y-122339523D01*
X68782619Y-121339523D02*
X67782619Y-121339523D01*
X67782619Y-121339523D02*
X68496904Y-121006190D01*
X68496904Y-121006190D02*
X67782619Y-120672857D01*
X67782619Y-120672857D02*
X68782619Y-120672857D01*
X67782619Y-120291904D02*
X67782619Y-119625238D01*
X67782619Y-119625238D02*
X68782619Y-120053809D01*
%TO.C,J4*%
X74972619Y-52813333D02*
X75686904Y-52813333D01*
X75686904Y-52813333D02*
X75829761Y-52860952D01*
X75829761Y-52860952D02*
X75925000Y-52956190D01*
X75925000Y-52956190D02*
X75972619Y-53099047D01*
X75972619Y-53099047D02*
X75972619Y-53194285D01*
X75305952Y-51908571D02*
X75972619Y-51908571D01*
X74925000Y-52146666D02*
X75639285Y-52384761D01*
X75639285Y-52384761D02*
X75639285Y-51765714D01*
%TO.C,M8*%
X69290476Y-107392619D02*
X69290476Y-106392619D01*
X69290476Y-106392619D02*
X69623809Y-107106904D01*
X69623809Y-107106904D02*
X69957142Y-106392619D01*
X69957142Y-106392619D02*
X69957142Y-107392619D01*
X70576190Y-106821190D02*
X70480952Y-106773571D01*
X70480952Y-106773571D02*
X70433333Y-106725952D01*
X70433333Y-106725952D02*
X70385714Y-106630714D01*
X70385714Y-106630714D02*
X70385714Y-106583095D01*
X70385714Y-106583095D02*
X70433333Y-106487857D01*
X70433333Y-106487857D02*
X70480952Y-106440238D01*
X70480952Y-106440238D02*
X70576190Y-106392619D01*
X70576190Y-106392619D02*
X70766666Y-106392619D01*
X70766666Y-106392619D02*
X70861904Y-106440238D01*
X70861904Y-106440238D02*
X70909523Y-106487857D01*
X70909523Y-106487857D02*
X70957142Y-106583095D01*
X70957142Y-106583095D02*
X70957142Y-106630714D01*
X70957142Y-106630714D02*
X70909523Y-106725952D01*
X70909523Y-106725952D02*
X70861904Y-106773571D01*
X70861904Y-106773571D02*
X70766666Y-106821190D01*
X70766666Y-106821190D02*
X70576190Y-106821190D01*
X70576190Y-106821190D02*
X70480952Y-106868809D01*
X70480952Y-106868809D02*
X70433333Y-106916428D01*
X70433333Y-106916428D02*
X70385714Y-107011666D01*
X70385714Y-107011666D02*
X70385714Y-107202142D01*
X70385714Y-107202142D02*
X70433333Y-107297380D01*
X70433333Y-107297380D02*
X70480952Y-107345000D01*
X70480952Y-107345000D02*
X70576190Y-107392619D01*
X70576190Y-107392619D02*
X70766666Y-107392619D01*
X70766666Y-107392619D02*
X70861904Y-107345000D01*
X70861904Y-107345000D02*
X70909523Y-107297380D01*
X70909523Y-107297380D02*
X70957142Y-107202142D01*
X70957142Y-107202142D02*
X70957142Y-107011666D01*
X70957142Y-107011666D02*
X70909523Y-106916428D01*
X70909523Y-106916428D02*
X70861904Y-106868809D01*
X70861904Y-106868809D02*
X70766666Y-106821190D01*
%TO.C,Q6*%
X81564761Y-123387857D02*
X81469523Y-123340238D01*
X81469523Y-123340238D02*
X81374285Y-123245000D01*
X81374285Y-123245000D02*
X81231428Y-123102142D01*
X81231428Y-123102142D02*
X81136190Y-123054523D01*
X81136190Y-123054523D02*
X81040952Y-123054523D01*
X81088571Y-123292619D02*
X80993333Y-123245000D01*
X80993333Y-123245000D02*
X80898095Y-123149761D01*
X80898095Y-123149761D02*
X80850476Y-122959285D01*
X80850476Y-122959285D02*
X80850476Y-122625952D01*
X80850476Y-122625952D02*
X80898095Y-122435476D01*
X80898095Y-122435476D02*
X80993333Y-122340238D01*
X80993333Y-122340238D02*
X81088571Y-122292619D01*
X81088571Y-122292619D02*
X81279047Y-122292619D01*
X81279047Y-122292619D02*
X81374285Y-122340238D01*
X81374285Y-122340238D02*
X81469523Y-122435476D01*
X81469523Y-122435476D02*
X81517142Y-122625952D01*
X81517142Y-122625952D02*
X81517142Y-122959285D01*
X81517142Y-122959285D02*
X81469523Y-123149761D01*
X81469523Y-123149761D02*
X81374285Y-123245000D01*
X81374285Y-123245000D02*
X81279047Y-123292619D01*
X81279047Y-123292619D02*
X81088571Y-123292619D01*
X82374285Y-122292619D02*
X82183809Y-122292619D01*
X82183809Y-122292619D02*
X82088571Y-122340238D01*
X82088571Y-122340238D02*
X82040952Y-122387857D01*
X82040952Y-122387857D02*
X81945714Y-122530714D01*
X81945714Y-122530714D02*
X81898095Y-122721190D01*
X81898095Y-122721190D02*
X81898095Y-123102142D01*
X81898095Y-123102142D02*
X81945714Y-123197380D01*
X81945714Y-123197380D02*
X81993333Y-123245000D01*
X81993333Y-123245000D02*
X82088571Y-123292619D01*
X82088571Y-123292619D02*
X82279047Y-123292619D01*
X82279047Y-123292619D02*
X82374285Y-123245000D01*
X82374285Y-123245000D02*
X82421904Y-123197380D01*
X82421904Y-123197380D02*
X82469523Y-123102142D01*
X82469523Y-123102142D02*
X82469523Y-122864047D01*
X82469523Y-122864047D02*
X82421904Y-122768809D01*
X82421904Y-122768809D02*
X82374285Y-122721190D01*
X82374285Y-122721190D02*
X82279047Y-122673571D01*
X82279047Y-122673571D02*
X82088571Y-122673571D01*
X82088571Y-122673571D02*
X81993333Y-122721190D01*
X81993333Y-122721190D02*
X81945714Y-122768809D01*
X81945714Y-122768809D02*
X81898095Y-122864047D01*
%TO.C,RM17*%
X115282619Y-122164285D02*
X114806428Y-122497618D01*
X115282619Y-122735713D02*
X114282619Y-122735713D01*
X114282619Y-122735713D02*
X114282619Y-122354761D01*
X114282619Y-122354761D02*
X114330238Y-122259523D01*
X114330238Y-122259523D02*
X114377857Y-122211904D01*
X114377857Y-122211904D02*
X114473095Y-122164285D01*
X114473095Y-122164285D02*
X114615952Y-122164285D01*
X114615952Y-122164285D02*
X114711190Y-122211904D01*
X114711190Y-122211904D02*
X114758809Y-122259523D01*
X114758809Y-122259523D02*
X114806428Y-122354761D01*
X114806428Y-122354761D02*
X114806428Y-122735713D01*
X115282619Y-121735713D02*
X114282619Y-121735713D01*
X114282619Y-121735713D02*
X114996904Y-121402380D01*
X114996904Y-121402380D02*
X114282619Y-121069047D01*
X114282619Y-121069047D02*
X115282619Y-121069047D01*
X115282619Y-120069047D02*
X115282619Y-120640475D01*
X115282619Y-120354761D02*
X114282619Y-120354761D01*
X114282619Y-120354761D02*
X114425476Y-120449999D01*
X114425476Y-120449999D02*
X114520714Y-120545237D01*
X114520714Y-120545237D02*
X114568333Y-120640475D01*
X114282619Y-119735713D02*
X114282619Y-119069047D01*
X114282619Y-119069047D02*
X115282619Y-119497618D01*
%TO.C,H1*%
X46238095Y-38262619D02*
X46238095Y-37262619D01*
X46238095Y-37738809D02*
X46809523Y-37738809D01*
X46809523Y-38262619D02*
X46809523Y-37262619D01*
X47809523Y-38262619D02*
X47238095Y-38262619D01*
X47523809Y-38262619D02*
X47523809Y-37262619D01*
X47523809Y-37262619D02*
X47428571Y-37405476D01*
X47428571Y-37405476D02*
X47333333Y-37500714D01*
X47333333Y-37500714D02*
X47238095Y-37548333D01*
%TO.C,RM15*%
X108082619Y-122164285D02*
X107606428Y-122497618D01*
X108082619Y-122735713D02*
X107082619Y-122735713D01*
X107082619Y-122735713D02*
X107082619Y-122354761D01*
X107082619Y-122354761D02*
X107130238Y-122259523D01*
X107130238Y-122259523D02*
X107177857Y-122211904D01*
X107177857Y-122211904D02*
X107273095Y-122164285D01*
X107273095Y-122164285D02*
X107415952Y-122164285D01*
X107415952Y-122164285D02*
X107511190Y-122211904D01*
X107511190Y-122211904D02*
X107558809Y-122259523D01*
X107558809Y-122259523D02*
X107606428Y-122354761D01*
X107606428Y-122354761D02*
X107606428Y-122735713D01*
X108082619Y-121735713D02*
X107082619Y-121735713D01*
X107082619Y-121735713D02*
X107796904Y-121402380D01*
X107796904Y-121402380D02*
X107082619Y-121069047D01*
X107082619Y-121069047D02*
X108082619Y-121069047D01*
X108082619Y-120069047D02*
X108082619Y-120640475D01*
X108082619Y-120354761D02*
X107082619Y-120354761D01*
X107082619Y-120354761D02*
X107225476Y-120449999D01*
X107225476Y-120449999D02*
X107320714Y-120545237D01*
X107320714Y-120545237D02*
X107368333Y-120640475D01*
X107082619Y-119164285D02*
X107082619Y-119640475D01*
X107082619Y-119640475D02*
X107558809Y-119688094D01*
X107558809Y-119688094D02*
X107511190Y-119640475D01*
X107511190Y-119640475D02*
X107463571Y-119545237D01*
X107463571Y-119545237D02*
X107463571Y-119307142D01*
X107463571Y-119307142D02*
X107511190Y-119211904D01*
X107511190Y-119211904D02*
X107558809Y-119164285D01*
X107558809Y-119164285D02*
X107654047Y-119116666D01*
X107654047Y-119116666D02*
X107892142Y-119116666D01*
X107892142Y-119116666D02*
X107987380Y-119164285D01*
X107987380Y-119164285D02*
X108035000Y-119211904D01*
X108035000Y-119211904D02*
X108082619Y-119307142D01*
X108082619Y-119307142D02*
X108082619Y-119545237D01*
X108082619Y-119545237D02*
X108035000Y-119640475D01*
X108035000Y-119640475D02*
X107987380Y-119688094D01*
%TO.C,RM18*%
X90982619Y-96884285D02*
X90506428Y-97217618D01*
X90982619Y-97455713D02*
X89982619Y-97455713D01*
X89982619Y-97455713D02*
X89982619Y-97074761D01*
X89982619Y-97074761D02*
X90030238Y-96979523D01*
X90030238Y-96979523D02*
X90077857Y-96931904D01*
X90077857Y-96931904D02*
X90173095Y-96884285D01*
X90173095Y-96884285D02*
X90315952Y-96884285D01*
X90315952Y-96884285D02*
X90411190Y-96931904D01*
X90411190Y-96931904D02*
X90458809Y-96979523D01*
X90458809Y-96979523D02*
X90506428Y-97074761D01*
X90506428Y-97074761D02*
X90506428Y-97455713D01*
X90982619Y-96455713D02*
X89982619Y-96455713D01*
X89982619Y-96455713D02*
X90696904Y-96122380D01*
X90696904Y-96122380D02*
X89982619Y-95789047D01*
X89982619Y-95789047D02*
X90982619Y-95789047D01*
X90982619Y-94789047D02*
X90982619Y-95360475D01*
X90982619Y-95074761D02*
X89982619Y-95074761D01*
X89982619Y-95074761D02*
X90125476Y-95169999D01*
X90125476Y-95169999D02*
X90220714Y-95265237D01*
X90220714Y-95265237D02*
X90268333Y-95360475D01*
X90411190Y-94217618D02*
X90363571Y-94312856D01*
X90363571Y-94312856D02*
X90315952Y-94360475D01*
X90315952Y-94360475D02*
X90220714Y-94408094D01*
X90220714Y-94408094D02*
X90173095Y-94408094D01*
X90173095Y-94408094D02*
X90077857Y-94360475D01*
X90077857Y-94360475D02*
X90030238Y-94312856D01*
X90030238Y-94312856D02*
X89982619Y-94217618D01*
X89982619Y-94217618D02*
X89982619Y-94027142D01*
X89982619Y-94027142D02*
X90030238Y-93931904D01*
X90030238Y-93931904D02*
X90077857Y-93884285D01*
X90077857Y-93884285D02*
X90173095Y-93836666D01*
X90173095Y-93836666D02*
X90220714Y-93836666D01*
X90220714Y-93836666D02*
X90315952Y-93884285D01*
X90315952Y-93884285D02*
X90363571Y-93931904D01*
X90363571Y-93931904D02*
X90411190Y-94027142D01*
X90411190Y-94027142D02*
X90411190Y-94217618D01*
X90411190Y-94217618D02*
X90458809Y-94312856D01*
X90458809Y-94312856D02*
X90506428Y-94360475D01*
X90506428Y-94360475D02*
X90601666Y-94408094D01*
X90601666Y-94408094D02*
X90792142Y-94408094D01*
X90792142Y-94408094D02*
X90887380Y-94360475D01*
X90887380Y-94360475D02*
X90935000Y-94312856D01*
X90935000Y-94312856D02*
X90982619Y-94217618D01*
X90982619Y-94217618D02*
X90982619Y-94027142D01*
X90982619Y-94027142D02*
X90935000Y-93931904D01*
X90935000Y-93931904D02*
X90887380Y-93884285D01*
X90887380Y-93884285D02*
X90792142Y-93836666D01*
X90792142Y-93836666D02*
X90601666Y-93836666D01*
X90601666Y-93836666D02*
X90506428Y-93884285D01*
X90506428Y-93884285D02*
X90458809Y-93931904D01*
X90458809Y-93931904D02*
X90411190Y-94027142D01*
%TO.C,RM1*%
X87782619Y-96428095D02*
X87306428Y-96761428D01*
X87782619Y-96999523D02*
X86782619Y-96999523D01*
X86782619Y-96999523D02*
X86782619Y-96618571D01*
X86782619Y-96618571D02*
X86830238Y-96523333D01*
X86830238Y-96523333D02*
X86877857Y-96475714D01*
X86877857Y-96475714D02*
X86973095Y-96428095D01*
X86973095Y-96428095D02*
X87115952Y-96428095D01*
X87115952Y-96428095D02*
X87211190Y-96475714D01*
X87211190Y-96475714D02*
X87258809Y-96523333D01*
X87258809Y-96523333D02*
X87306428Y-96618571D01*
X87306428Y-96618571D02*
X87306428Y-96999523D01*
X87782619Y-95999523D02*
X86782619Y-95999523D01*
X86782619Y-95999523D02*
X87496904Y-95666190D01*
X87496904Y-95666190D02*
X86782619Y-95332857D01*
X86782619Y-95332857D02*
X87782619Y-95332857D01*
X87782619Y-94332857D02*
X87782619Y-94904285D01*
X87782619Y-94618571D02*
X86782619Y-94618571D01*
X86782619Y-94618571D02*
X86925476Y-94713809D01*
X86925476Y-94713809D02*
X87020714Y-94809047D01*
X87020714Y-94809047D02*
X87068333Y-94904285D01*
%TO.C,RM4*%
X78682619Y-96428095D02*
X78206428Y-96761428D01*
X78682619Y-96999523D02*
X77682619Y-96999523D01*
X77682619Y-96999523D02*
X77682619Y-96618571D01*
X77682619Y-96618571D02*
X77730238Y-96523333D01*
X77730238Y-96523333D02*
X77777857Y-96475714D01*
X77777857Y-96475714D02*
X77873095Y-96428095D01*
X77873095Y-96428095D02*
X78015952Y-96428095D01*
X78015952Y-96428095D02*
X78111190Y-96475714D01*
X78111190Y-96475714D02*
X78158809Y-96523333D01*
X78158809Y-96523333D02*
X78206428Y-96618571D01*
X78206428Y-96618571D02*
X78206428Y-96999523D01*
X78682619Y-95999523D02*
X77682619Y-95999523D01*
X77682619Y-95999523D02*
X78396904Y-95666190D01*
X78396904Y-95666190D02*
X77682619Y-95332857D01*
X77682619Y-95332857D02*
X78682619Y-95332857D01*
X78015952Y-94428095D02*
X78682619Y-94428095D01*
X77635000Y-94666190D02*
X78349285Y-94904285D01*
X78349285Y-94904285D02*
X78349285Y-94285238D01*
%TO.C,J10*%
X86882619Y-48139523D02*
X87596904Y-48139523D01*
X87596904Y-48139523D02*
X87739761Y-48187142D01*
X87739761Y-48187142D02*
X87835000Y-48282380D01*
X87835000Y-48282380D02*
X87882619Y-48425237D01*
X87882619Y-48425237D02*
X87882619Y-48520475D01*
X87882619Y-47139523D02*
X87882619Y-47710951D01*
X87882619Y-47425237D02*
X86882619Y-47425237D01*
X86882619Y-47425237D02*
X87025476Y-47520475D01*
X87025476Y-47520475D02*
X87120714Y-47615713D01*
X87120714Y-47615713D02*
X87168333Y-47710951D01*
X86882619Y-46520475D02*
X86882619Y-46425237D01*
X86882619Y-46425237D02*
X86930238Y-46329999D01*
X86930238Y-46329999D02*
X86977857Y-46282380D01*
X86977857Y-46282380D02*
X87073095Y-46234761D01*
X87073095Y-46234761D02*
X87263571Y-46187142D01*
X87263571Y-46187142D02*
X87501666Y-46187142D01*
X87501666Y-46187142D02*
X87692142Y-46234761D01*
X87692142Y-46234761D02*
X87787380Y-46282380D01*
X87787380Y-46282380D02*
X87835000Y-46329999D01*
X87835000Y-46329999D02*
X87882619Y-46425237D01*
X87882619Y-46425237D02*
X87882619Y-46520475D01*
X87882619Y-46520475D02*
X87835000Y-46615713D01*
X87835000Y-46615713D02*
X87787380Y-46663332D01*
X87787380Y-46663332D02*
X87692142Y-46710951D01*
X87692142Y-46710951D02*
X87501666Y-46758570D01*
X87501666Y-46758570D02*
X87263571Y-46758570D01*
X87263571Y-46758570D02*
X87073095Y-46710951D01*
X87073095Y-46710951D02*
X86977857Y-46663332D01*
X86977857Y-46663332D02*
X86930238Y-46615713D01*
X86930238Y-46615713D02*
X86882619Y-46520475D01*
%TO.C,U1*%
X61517619Y-58071904D02*
X62327142Y-58071904D01*
X62327142Y-58071904D02*
X62422380Y-58024285D01*
X62422380Y-58024285D02*
X62470000Y-57976666D01*
X62470000Y-57976666D02*
X62517619Y-57881428D01*
X62517619Y-57881428D02*
X62517619Y-57690952D01*
X62517619Y-57690952D02*
X62470000Y-57595714D01*
X62470000Y-57595714D02*
X62422380Y-57548095D01*
X62422380Y-57548095D02*
X62327142Y-57500476D01*
X62327142Y-57500476D02*
X61517619Y-57500476D01*
X62517619Y-56500476D02*
X62517619Y-57071904D01*
X62517619Y-56786190D02*
X61517619Y-56786190D01*
X61517619Y-56786190D02*
X61660476Y-56881428D01*
X61660476Y-56881428D02*
X61755714Y-56976666D01*
X61755714Y-56976666D02*
X61803333Y-57071904D01*
%TO.C,R17*%
X75267142Y-55612619D02*
X74933809Y-55136428D01*
X74695714Y-55612619D02*
X74695714Y-54612619D01*
X74695714Y-54612619D02*
X75076666Y-54612619D01*
X75076666Y-54612619D02*
X75171904Y-54660238D01*
X75171904Y-54660238D02*
X75219523Y-54707857D01*
X75219523Y-54707857D02*
X75267142Y-54803095D01*
X75267142Y-54803095D02*
X75267142Y-54945952D01*
X75267142Y-54945952D02*
X75219523Y-55041190D01*
X75219523Y-55041190D02*
X75171904Y-55088809D01*
X75171904Y-55088809D02*
X75076666Y-55136428D01*
X75076666Y-55136428D02*
X74695714Y-55136428D01*
X76219523Y-55612619D02*
X75648095Y-55612619D01*
X75933809Y-55612619D02*
X75933809Y-54612619D01*
X75933809Y-54612619D02*
X75838571Y-54755476D01*
X75838571Y-54755476D02*
X75743333Y-54850714D01*
X75743333Y-54850714D02*
X75648095Y-54898333D01*
X76552857Y-54612619D02*
X77219523Y-54612619D01*
X77219523Y-54612619D02*
X76790952Y-55612619D01*
%TO.C,M17*%
X111614286Y-107292619D02*
X111614286Y-106292619D01*
X111614286Y-106292619D02*
X111947619Y-107006904D01*
X111947619Y-107006904D02*
X112280952Y-106292619D01*
X112280952Y-106292619D02*
X112280952Y-107292619D01*
X113280952Y-107292619D02*
X112709524Y-107292619D01*
X112995238Y-107292619D02*
X112995238Y-106292619D01*
X112995238Y-106292619D02*
X112900000Y-106435476D01*
X112900000Y-106435476D02*
X112804762Y-106530714D01*
X112804762Y-106530714D02*
X112709524Y-106578333D01*
X113614286Y-106292619D02*
X114280952Y-106292619D01*
X114280952Y-106292619D02*
X113852381Y-107292619D01*
%TO.C,H2*%
X120238095Y-38262619D02*
X120238095Y-37262619D01*
X120238095Y-37738809D02*
X120809523Y-37738809D01*
X120809523Y-38262619D02*
X120809523Y-37262619D01*
X121238095Y-37357857D02*
X121285714Y-37310238D01*
X121285714Y-37310238D02*
X121380952Y-37262619D01*
X121380952Y-37262619D02*
X121619047Y-37262619D01*
X121619047Y-37262619D02*
X121714285Y-37310238D01*
X121714285Y-37310238D02*
X121761904Y-37357857D01*
X121761904Y-37357857D02*
X121809523Y-37453095D01*
X121809523Y-37453095D02*
X121809523Y-37548333D01*
X121809523Y-37548333D02*
X121761904Y-37691190D01*
X121761904Y-37691190D02*
X121190476Y-38262619D01*
X121190476Y-38262619D02*
X121809523Y-38262619D01*
%TO.C,M11*%
X79614286Y-107372619D02*
X79614286Y-106372619D01*
X79614286Y-106372619D02*
X79947619Y-107086904D01*
X79947619Y-107086904D02*
X80280952Y-106372619D01*
X80280952Y-106372619D02*
X80280952Y-107372619D01*
X81280952Y-107372619D02*
X80709524Y-107372619D01*
X80995238Y-107372619D02*
X80995238Y-106372619D01*
X80995238Y-106372619D02*
X80900000Y-106515476D01*
X80900000Y-106515476D02*
X80804762Y-106610714D01*
X80804762Y-106610714D02*
X80709524Y-106658333D01*
X82233333Y-107372619D02*
X81661905Y-107372619D01*
X81947619Y-107372619D02*
X81947619Y-106372619D01*
X81947619Y-106372619D02*
X81852381Y-106515476D01*
X81852381Y-106515476D02*
X81757143Y-106610714D01*
X81757143Y-106610714D02*
X81661905Y-106658333D01*
%TO.C,Q2*%
X81604761Y-129332857D02*
X81509523Y-129285238D01*
X81509523Y-129285238D02*
X81414285Y-129190000D01*
X81414285Y-129190000D02*
X81271428Y-129047142D01*
X81271428Y-129047142D02*
X81176190Y-128999523D01*
X81176190Y-128999523D02*
X81080952Y-128999523D01*
X81128571Y-129237619D02*
X81033333Y-129190000D01*
X81033333Y-129190000D02*
X80938095Y-129094761D01*
X80938095Y-129094761D02*
X80890476Y-128904285D01*
X80890476Y-128904285D02*
X80890476Y-128570952D01*
X80890476Y-128570952D02*
X80938095Y-128380476D01*
X80938095Y-128380476D02*
X81033333Y-128285238D01*
X81033333Y-128285238D02*
X81128571Y-128237619D01*
X81128571Y-128237619D02*
X81319047Y-128237619D01*
X81319047Y-128237619D02*
X81414285Y-128285238D01*
X81414285Y-128285238D02*
X81509523Y-128380476D01*
X81509523Y-128380476D02*
X81557142Y-128570952D01*
X81557142Y-128570952D02*
X81557142Y-128904285D01*
X81557142Y-128904285D02*
X81509523Y-129094761D01*
X81509523Y-129094761D02*
X81414285Y-129190000D01*
X81414285Y-129190000D02*
X81319047Y-129237619D01*
X81319047Y-129237619D02*
X81128571Y-129237619D01*
X81938095Y-128332857D02*
X81985714Y-128285238D01*
X81985714Y-128285238D02*
X82080952Y-128237619D01*
X82080952Y-128237619D02*
X82319047Y-128237619D01*
X82319047Y-128237619D02*
X82414285Y-128285238D01*
X82414285Y-128285238D02*
X82461904Y-128332857D01*
X82461904Y-128332857D02*
X82509523Y-128428095D01*
X82509523Y-128428095D02*
X82509523Y-128523333D01*
X82509523Y-128523333D02*
X82461904Y-128666190D01*
X82461904Y-128666190D02*
X81890476Y-129237619D01*
X81890476Y-129237619D02*
X82509523Y-129237619D01*
%TO.C,C6*%
X51438333Y-106007380D02*
X51390714Y-106055000D01*
X51390714Y-106055000D02*
X51247857Y-106102619D01*
X51247857Y-106102619D02*
X51152619Y-106102619D01*
X51152619Y-106102619D02*
X51009762Y-106055000D01*
X51009762Y-106055000D02*
X50914524Y-105959761D01*
X50914524Y-105959761D02*
X50866905Y-105864523D01*
X50866905Y-105864523D02*
X50819286Y-105674047D01*
X50819286Y-105674047D02*
X50819286Y-105531190D01*
X50819286Y-105531190D02*
X50866905Y-105340714D01*
X50866905Y-105340714D02*
X50914524Y-105245476D01*
X50914524Y-105245476D02*
X51009762Y-105150238D01*
X51009762Y-105150238D02*
X51152619Y-105102619D01*
X51152619Y-105102619D02*
X51247857Y-105102619D01*
X51247857Y-105102619D02*
X51390714Y-105150238D01*
X51390714Y-105150238D02*
X51438333Y-105197857D01*
X52295476Y-105102619D02*
X52105000Y-105102619D01*
X52105000Y-105102619D02*
X52009762Y-105150238D01*
X52009762Y-105150238D02*
X51962143Y-105197857D01*
X51962143Y-105197857D02*
X51866905Y-105340714D01*
X51866905Y-105340714D02*
X51819286Y-105531190D01*
X51819286Y-105531190D02*
X51819286Y-105912142D01*
X51819286Y-105912142D02*
X51866905Y-106007380D01*
X51866905Y-106007380D02*
X51914524Y-106055000D01*
X51914524Y-106055000D02*
X52009762Y-106102619D01*
X52009762Y-106102619D02*
X52200238Y-106102619D01*
X52200238Y-106102619D02*
X52295476Y-106055000D01*
X52295476Y-106055000D02*
X52343095Y-106007380D01*
X52343095Y-106007380D02*
X52390714Y-105912142D01*
X52390714Y-105912142D02*
X52390714Y-105674047D01*
X52390714Y-105674047D02*
X52343095Y-105578809D01*
X52343095Y-105578809D02*
X52295476Y-105531190D01*
X52295476Y-105531190D02*
X52200238Y-105483571D01*
X52200238Y-105483571D02*
X52009762Y-105483571D01*
X52009762Y-105483571D02*
X51914524Y-105531190D01*
X51914524Y-105531190D02*
X51866905Y-105578809D01*
X51866905Y-105578809D02*
X51819286Y-105674047D01*
%TO.C,C2*%
X51853333Y-119557380D02*
X51805714Y-119605000D01*
X51805714Y-119605000D02*
X51662857Y-119652619D01*
X51662857Y-119652619D02*
X51567619Y-119652619D01*
X51567619Y-119652619D02*
X51424762Y-119605000D01*
X51424762Y-119605000D02*
X51329524Y-119509761D01*
X51329524Y-119509761D02*
X51281905Y-119414523D01*
X51281905Y-119414523D02*
X51234286Y-119224047D01*
X51234286Y-119224047D02*
X51234286Y-119081190D01*
X51234286Y-119081190D02*
X51281905Y-118890714D01*
X51281905Y-118890714D02*
X51329524Y-118795476D01*
X51329524Y-118795476D02*
X51424762Y-118700238D01*
X51424762Y-118700238D02*
X51567619Y-118652619D01*
X51567619Y-118652619D02*
X51662857Y-118652619D01*
X51662857Y-118652619D02*
X51805714Y-118700238D01*
X51805714Y-118700238D02*
X51853333Y-118747857D01*
X52234286Y-118747857D02*
X52281905Y-118700238D01*
X52281905Y-118700238D02*
X52377143Y-118652619D01*
X52377143Y-118652619D02*
X52615238Y-118652619D01*
X52615238Y-118652619D02*
X52710476Y-118700238D01*
X52710476Y-118700238D02*
X52758095Y-118747857D01*
X52758095Y-118747857D02*
X52805714Y-118843095D01*
X52805714Y-118843095D02*
X52805714Y-118938333D01*
X52805714Y-118938333D02*
X52758095Y-119081190D01*
X52758095Y-119081190D02*
X52186667Y-119652619D01*
X52186667Y-119652619D02*
X52805714Y-119652619D01*
%TO.C,M9*%
X72890476Y-107392619D02*
X72890476Y-106392619D01*
X72890476Y-106392619D02*
X73223809Y-107106904D01*
X73223809Y-107106904D02*
X73557142Y-106392619D01*
X73557142Y-106392619D02*
X73557142Y-107392619D01*
X74080952Y-107392619D02*
X74271428Y-107392619D01*
X74271428Y-107392619D02*
X74366666Y-107345000D01*
X74366666Y-107345000D02*
X74414285Y-107297380D01*
X74414285Y-107297380D02*
X74509523Y-107154523D01*
X74509523Y-107154523D02*
X74557142Y-106964047D01*
X74557142Y-106964047D02*
X74557142Y-106583095D01*
X74557142Y-106583095D02*
X74509523Y-106487857D01*
X74509523Y-106487857D02*
X74461904Y-106440238D01*
X74461904Y-106440238D02*
X74366666Y-106392619D01*
X74366666Y-106392619D02*
X74176190Y-106392619D01*
X74176190Y-106392619D02*
X74080952Y-106440238D01*
X74080952Y-106440238D02*
X74033333Y-106487857D01*
X74033333Y-106487857D02*
X73985714Y-106583095D01*
X73985714Y-106583095D02*
X73985714Y-106821190D01*
X73985714Y-106821190D02*
X74033333Y-106916428D01*
X74033333Y-106916428D02*
X74080952Y-106964047D01*
X74080952Y-106964047D02*
X74176190Y-107011666D01*
X74176190Y-107011666D02*
X74366666Y-107011666D01*
X74366666Y-107011666D02*
X74461904Y-106964047D01*
X74461904Y-106964047D02*
X74509523Y-106916428D01*
X74509523Y-106916428D02*
X74557142Y-106821190D01*
%TO.C,RM11*%
X76082619Y-122164285D02*
X75606428Y-122497618D01*
X76082619Y-122735713D02*
X75082619Y-122735713D01*
X75082619Y-122735713D02*
X75082619Y-122354761D01*
X75082619Y-122354761D02*
X75130238Y-122259523D01*
X75130238Y-122259523D02*
X75177857Y-122211904D01*
X75177857Y-122211904D02*
X75273095Y-122164285D01*
X75273095Y-122164285D02*
X75415952Y-122164285D01*
X75415952Y-122164285D02*
X75511190Y-122211904D01*
X75511190Y-122211904D02*
X75558809Y-122259523D01*
X75558809Y-122259523D02*
X75606428Y-122354761D01*
X75606428Y-122354761D02*
X75606428Y-122735713D01*
X76082619Y-121735713D02*
X75082619Y-121735713D01*
X75082619Y-121735713D02*
X75796904Y-121402380D01*
X75796904Y-121402380D02*
X75082619Y-121069047D01*
X75082619Y-121069047D02*
X76082619Y-121069047D01*
X76082619Y-120069047D02*
X76082619Y-120640475D01*
X76082619Y-120354761D02*
X75082619Y-120354761D01*
X75082619Y-120354761D02*
X75225476Y-120449999D01*
X75225476Y-120449999D02*
X75320714Y-120545237D01*
X75320714Y-120545237D02*
X75368333Y-120640475D01*
X76082619Y-119116666D02*
X76082619Y-119688094D01*
X76082619Y-119402380D02*
X75082619Y-119402380D01*
X75082619Y-119402380D02*
X75225476Y-119497618D01*
X75225476Y-119497618D02*
X75320714Y-119592856D01*
X75320714Y-119592856D02*
X75368333Y-119688094D01*
%TO.C,R39*%
X103887142Y-45322619D02*
X103553809Y-44846428D01*
X103315714Y-45322619D02*
X103315714Y-44322619D01*
X103315714Y-44322619D02*
X103696666Y-44322619D01*
X103696666Y-44322619D02*
X103791904Y-44370238D01*
X103791904Y-44370238D02*
X103839523Y-44417857D01*
X103839523Y-44417857D02*
X103887142Y-44513095D01*
X103887142Y-44513095D02*
X103887142Y-44655952D01*
X103887142Y-44655952D02*
X103839523Y-44751190D01*
X103839523Y-44751190D02*
X103791904Y-44798809D01*
X103791904Y-44798809D02*
X103696666Y-44846428D01*
X103696666Y-44846428D02*
X103315714Y-44846428D01*
X104220476Y-44322619D02*
X104839523Y-44322619D01*
X104839523Y-44322619D02*
X104506190Y-44703571D01*
X104506190Y-44703571D02*
X104649047Y-44703571D01*
X104649047Y-44703571D02*
X104744285Y-44751190D01*
X104744285Y-44751190D02*
X104791904Y-44798809D01*
X104791904Y-44798809D02*
X104839523Y-44894047D01*
X104839523Y-44894047D02*
X104839523Y-45132142D01*
X104839523Y-45132142D02*
X104791904Y-45227380D01*
X104791904Y-45227380D02*
X104744285Y-45275000D01*
X104744285Y-45275000D02*
X104649047Y-45322619D01*
X104649047Y-45322619D02*
X104363333Y-45322619D01*
X104363333Y-45322619D02*
X104268095Y-45275000D01*
X104268095Y-45275000D02*
X104220476Y-45227380D01*
X105315714Y-45322619D02*
X105506190Y-45322619D01*
X105506190Y-45322619D02*
X105601428Y-45275000D01*
X105601428Y-45275000D02*
X105649047Y-45227380D01*
X105649047Y-45227380D02*
X105744285Y-45084523D01*
X105744285Y-45084523D02*
X105791904Y-44894047D01*
X105791904Y-44894047D02*
X105791904Y-44513095D01*
X105791904Y-44513095D02*
X105744285Y-44417857D01*
X105744285Y-44417857D02*
X105696666Y-44370238D01*
X105696666Y-44370238D02*
X105601428Y-44322619D01*
X105601428Y-44322619D02*
X105410952Y-44322619D01*
X105410952Y-44322619D02*
X105315714Y-44370238D01*
X105315714Y-44370238D02*
X105268095Y-44417857D01*
X105268095Y-44417857D02*
X105220476Y-44513095D01*
X105220476Y-44513095D02*
X105220476Y-44751190D01*
X105220476Y-44751190D02*
X105268095Y-44846428D01*
X105268095Y-44846428D02*
X105315714Y-44894047D01*
X105315714Y-44894047D02*
X105410952Y-44941666D01*
X105410952Y-44941666D02*
X105601428Y-44941666D01*
X105601428Y-44941666D02*
X105696666Y-44894047D01*
X105696666Y-44894047D02*
X105744285Y-44846428D01*
X105744285Y-44846428D02*
X105791904Y-44751190D01*
%TO.C,M13*%
X97214286Y-107292619D02*
X97214286Y-106292619D01*
X97214286Y-106292619D02*
X97547619Y-107006904D01*
X97547619Y-107006904D02*
X97880952Y-106292619D01*
X97880952Y-106292619D02*
X97880952Y-107292619D01*
X98880952Y-107292619D02*
X98309524Y-107292619D01*
X98595238Y-107292619D02*
X98595238Y-106292619D01*
X98595238Y-106292619D02*
X98500000Y-106435476D01*
X98500000Y-106435476D02*
X98404762Y-106530714D01*
X98404762Y-106530714D02*
X98309524Y-106578333D01*
X99214286Y-106292619D02*
X99833333Y-106292619D01*
X99833333Y-106292619D02*
X99500000Y-106673571D01*
X99500000Y-106673571D02*
X99642857Y-106673571D01*
X99642857Y-106673571D02*
X99738095Y-106721190D01*
X99738095Y-106721190D02*
X99785714Y-106768809D01*
X99785714Y-106768809D02*
X99833333Y-106864047D01*
X99833333Y-106864047D02*
X99833333Y-107102142D01*
X99833333Y-107102142D02*
X99785714Y-107197380D01*
X99785714Y-107197380D02*
X99738095Y-107245000D01*
X99738095Y-107245000D02*
X99642857Y-107292619D01*
X99642857Y-107292619D02*
X99357143Y-107292619D01*
X99357143Y-107292619D02*
X99261905Y-107245000D01*
X99261905Y-107245000D02*
X99214286Y-107197380D01*
%TO.C,M20*%
X94514286Y-82092619D02*
X94514286Y-81092619D01*
X94514286Y-81092619D02*
X94847619Y-81806904D01*
X94847619Y-81806904D02*
X95180952Y-81092619D01*
X95180952Y-81092619D02*
X95180952Y-82092619D01*
X95609524Y-81187857D02*
X95657143Y-81140238D01*
X95657143Y-81140238D02*
X95752381Y-81092619D01*
X95752381Y-81092619D02*
X95990476Y-81092619D01*
X95990476Y-81092619D02*
X96085714Y-81140238D01*
X96085714Y-81140238D02*
X96133333Y-81187857D01*
X96133333Y-81187857D02*
X96180952Y-81283095D01*
X96180952Y-81283095D02*
X96180952Y-81378333D01*
X96180952Y-81378333D02*
X96133333Y-81521190D01*
X96133333Y-81521190D02*
X95561905Y-82092619D01*
X95561905Y-82092619D02*
X96180952Y-82092619D01*
X96800000Y-81092619D02*
X96895238Y-81092619D01*
X96895238Y-81092619D02*
X96990476Y-81140238D01*
X96990476Y-81140238D02*
X97038095Y-81187857D01*
X97038095Y-81187857D02*
X97085714Y-81283095D01*
X97085714Y-81283095D02*
X97133333Y-81473571D01*
X97133333Y-81473571D02*
X97133333Y-81711666D01*
X97133333Y-81711666D02*
X97085714Y-81902142D01*
X97085714Y-81902142D02*
X97038095Y-81997380D01*
X97038095Y-81997380D02*
X96990476Y-82045000D01*
X96990476Y-82045000D02*
X96895238Y-82092619D01*
X96895238Y-82092619D02*
X96800000Y-82092619D01*
X96800000Y-82092619D02*
X96704762Y-82045000D01*
X96704762Y-82045000D02*
X96657143Y-81997380D01*
X96657143Y-81997380D02*
X96609524Y-81902142D01*
X96609524Y-81902142D02*
X96561905Y-81711666D01*
X96561905Y-81711666D02*
X96561905Y-81473571D01*
X96561905Y-81473571D02*
X96609524Y-81283095D01*
X96609524Y-81283095D02*
X96657143Y-81187857D01*
X96657143Y-81187857D02*
X96704762Y-81140238D01*
X96704762Y-81140238D02*
X96800000Y-81092619D01*
%TO.C,M15*%
X104414286Y-107292619D02*
X104414286Y-106292619D01*
X104414286Y-106292619D02*
X104747619Y-107006904D01*
X104747619Y-107006904D02*
X105080952Y-106292619D01*
X105080952Y-106292619D02*
X105080952Y-107292619D01*
X106080952Y-107292619D02*
X105509524Y-107292619D01*
X105795238Y-107292619D02*
X105795238Y-106292619D01*
X105795238Y-106292619D02*
X105700000Y-106435476D01*
X105700000Y-106435476D02*
X105604762Y-106530714D01*
X105604762Y-106530714D02*
X105509524Y-106578333D01*
X106985714Y-106292619D02*
X106509524Y-106292619D01*
X106509524Y-106292619D02*
X106461905Y-106768809D01*
X106461905Y-106768809D02*
X106509524Y-106721190D01*
X106509524Y-106721190D02*
X106604762Y-106673571D01*
X106604762Y-106673571D02*
X106842857Y-106673571D01*
X106842857Y-106673571D02*
X106938095Y-106721190D01*
X106938095Y-106721190D02*
X106985714Y-106768809D01*
X106985714Y-106768809D02*
X107033333Y-106864047D01*
X107033333Y-106864047D02*
X107033333Y-107102142D01*
X107033333Y-107102142D02*
X106985714Y-107197380D01*
X106985714Y-107197380D02*
X106938095Y-107245000D01*
X106938095Y-107245000D02*
X106842857Y-107292619D01*
X106842857Y-107292619D02*
X106604762Y-107292619D01*
X106604762Y-107292619D02*
X106509524Y-107245000D01*
X106509524Y-107245000D02*
X106461905Y-107197380D01*
%TO.C,Q5*%
X72704761Y-131657857D02*
X72609523Y-131610238D01*
X72609523Y-131610238D02*
X72514285Y-131515000D01*
X72514285Y-131515000D02*
X72371428Y-131372142D01*
X72371428Y-131372142D02*
X72276190Y-131324523D01*
X72276190Y-131324523D02*
X72180952Y-131324523D01*
X72228571Y-131562619D02*
X72133333Y-131515000D01*
X72133333Y-131515000D02*
X72038095Y-131419761D01*
X72038095Y-131419761D02*
X71990476Y-131229285D01*
X71990476Y-131229285D02*
X71990476Y-130895952D01*
X71990476Y-130895952D02*
X72038095Y-130705476D01*
X72038095Y-130705476D02*
X72133333Y-130610238D01*
X72133333Y-130610238D02*
X72228571Y-130562619D01*
X72228571Y-130562619D02*
X72419047Y-130562619D01*
X72419047Y-130562619D02*
X72514285Y-130610238D01*
X72514285Y-130610238D02*
X72609523Y-130705476D01*
X72609523Y-130705476D02*
X72657142Y-130895952D01*
X72657142Y-130895952D02*
X72657142Y-131229285D01*
X72657142Y-131229285D02*
X72609523Y-131419761D01*
X72609523Y-131419761D02*
X72514285Y-131515000D01*
X72514285Y-131515000D02*
X72419047Y-131562619D01*
X72419047Y-131562619D02*
X72228571Y-131562619D01*
X73561904Y-130562619D02*
X73085714Y-130562619D01*
X73085714Y-130562619D02*
X73038095Y-131038809D01*
X73038095Y-131038809D02*
X73085714Y-130991190D01*
X73085714Y-130991190D02*
X73180952Y-130943571D01*
X73180952Y-130943571D02*
X73419047Y-130943571D01*
X73419047Y-130943571D02*
X73514285Y-130991190D01*
X73514285Y-130991190D02*
X73561904Y-131038809D01*
X73561904Y-131038809D02*
X73609523Y-131134047D01*
X73609523Y-131134047D02*
X73609523Y-131372142D01*
X73609523Y-131372142D02*
X73561904Y-131467380D01*
X73561904Y-131467380D02*
X73514285Y-131515000D01*
X73514285Y-131515000D02*
X73419047Y-131562619D01*
X73419047Y-131562619D02*
X73180952Y-131562619D01*
X73180952Y-131562619D02*
X73085714Y-131515000D01*
X73085714Y-131515000D02*
X73038095Y-131467380D01*
%TO.C,M1*%
X84290476Y-81982619D02*
X84290476Y-80982619D01*
X84290476Y-80982619D02*
X84623809Y-81696904D01*
X84623809Y-81696904D02*
X84957142Y-80982619D01*
X84957142Y-80982619D02*
X84957142Y-81982619D01*
X85957142Y-81982619D02*
X85385714Y-81982619D01*
X85671428Y-81982619D02*
X85671428Y-80982619D01*
X85671428Y-80982619D02*
X85576190Y-81125476D01*
X85576190Y-81125476D02*
X85480952Y-81220714D01*
X85480952Y-81220714D02*
X85385714Y-81268333D01*
%TO.C,RM20*%
X97282619Y-96884285D02*
X96806428Y-97217618D01*
X97282619Y-97455713D02*
X96282619Y-97455713D01*
X96282619Y-97455713D02*
X96282619Y-97074761D01*
X96282619Y-97074761D02*
X96330238Y-96979523D01*
X96330238Y-96979523D02*
X96377857Y-96931904D01*
X96377857Y-96931904D02*
X96473095Y-96884285D01*
X96473095Y-96884285D02*
X96615952Y-96884285D01*
X96615952Y-96884285D02*
X96711190Y-96931904D01*
X96711190Y-96931904D02*
X96758809Y-96979523D01*
X96758809Y-96979523D02*
X96806428Y-97074761D01*
X96806428Y-97074761D02*
X96806428Y-97455713D01*
X97282619Y-96455713D02*
X96282619Y-96455713D01*
X96282619Y-96455713D02*
X96996904Y-96122380D01*
X96996904Y-96122380D02*
X96282619Y-95789047D01*
X96282619Y-95789047D02*
X97282619Y-95789047D01*
X96377857Y-95360475D02*
X96330238Y-95312856D01*
X96330238Y-95312856D02*
X96282619Y-95217618D01*
X96282619Y-95217618D02*
X96282619Y-94979523D01*
X96282619Y-94979523D02*
X96330238Y-94884285D01*
X96330238Y-94884285D02*
X96377857Y-94836666D01*
X96377857Y-94836666D02*
X96473095Y-94789047D01*
X96473095Y-94789047D02*
X96568333Y-94789047D01*
X96568333Y-94789047D02*
X96711190Y-94836666D01*
X96711190Y-94836666D02*
X97282619Y-95408094D01*
X97282619Y-95408094D02*
X97282619Y-94789047D01*
X96282619Y-94169999D02*
X96282619Y-94074761D01*
X96282619Y-94074761D02*
X96330238Y-93979523D01*
X96330238Y-93979523D02*
X96377857Y-93931904D01*
X96377857Y-93931904D02*
X96473095Y-93884285D01*
X96473095Y-93884285D02*
X96663571Y-93836666D01*
X96663571Y-93836666D02*
X96901666Y-93836666D01*
X96901666Y-93836666D02*
X97092142Y-93884285D01*
X97092142Y-93884285D02*
X97187380Y-93931904D01*
X97187380Y-93931904D02*
X97235000Y-93979523D01*
X97235000Y-93979523D02*
X97282619Y-94074761D01*
X97282619Y-94074761D02*
X97282619Y-94169999D01*
X97282619Y-94169999D02*
X97235000Y-94265237D01*
X97235000Y-94265237D02*
X97187380Y-94312856D01*
X97187380Y-94312856D02*
X97092142Y-94360475D01*
X97092142Y-94360475D02*
X96901666Y-94408094D01*
X96901666Y-94408094D02*
X96663571Y-94408094D01*
X96663571Y-94408094D02*
X96473095Y-94360475D01*
X96473095Y-94360475D02*
X96377857Y-94312856D01*
X96377857Y-94312856D02*
X96330238Y-94265237D01*
X96330238Y-94265237D02*
X96282619Y-94169999D01*
%TO.C,M5*%
X69790476Y-82052619D02*
X69790476Y-81052619D01*
X69790476Y-81052619D02*
X70123809Y-81766904D01*
X70123809Y-81766904D02*
X70457142Y-81052619D01*
X70457142Y-81052619D02*
X70457142Y-82052619D01*
X71409523Y-81052619D02*
X70933333Y-81052619D01*
X70933333Y-81052619D02*
X70885714Y-81528809D01*
X70885714Y-81528809D02*
X70933333Y-81481190D01*
X70933333Y-81481190D02*
X71028571Y-81433571D01*
X71028571Y-81433571D02*
X71266666Y-81433571D01*
X71266666Y-81433571D02*
X71361904Y-81481190D01*
X71361904Y-81481190D02*
X71409523Y-81528809D01*
X71409523Y-81528809D02*
X71457142Y-81624047D01*
X71457142Y-81624047D02*
X71457142Y-81862142D01*
X71457142Y-81862142D02*
X71409523Y-81957380D01*
X71409523Y-81957380D02*
X71361904Y-82005000D01*
X71361904Y-82005000D02*
X71266666Y-82052619D01*
X71266666Y-82052619D02*
X71028571Y-82052619D01*
X71028571Y-82052619D02*
X70933333Y-82005000D01*
X70933333Y-82005000D02*
X70885714Y-81957380D01*
%TO.C,J3*%
X72072619Y-63873333D02*
X72786904Y-63873333D01*
X72786904Y-63873333D02*
X72929761Y-63920952D01*
X72929761Y-63920952D02*
X73025000Y-64016190D01*
X73025000Y-64016190D02*
X73072619Y-64159047D01*
X73072619Y-64159047D02*
X73072619Y-64254285D01*
X72072619Y-63492380D02*
X72072619Y-62873333D01*
X72072619Y-62873333D02*
X72453571Y-63206666D01*
X72453571Y-63206666D02*
X72453571Y-63063809D01*
X72453571Y-63063809D02*
X72501190Y-62968571D01*
X72501190Y-62968571D02*
X72548809Y-62920952D01*
X72548809Y-62920952D02*
X72644047Y-62873333D01*
X72644047Y-62873333D02*
X72882142Y-62873333D01*
X72882142Y-62873333D02*
X72977380Y-62920952D01*
X72977380Y-62920952D02*
X73025000Y-62968571D01*
X73025000Y-62968571D02*
X73072619Y-63063809D01*
X73072619Y-63063809D02*
X73072619Y-63349523D01*
X73072619Y-63349523D02*
X73025000Y-63444761D01*
X73025000Y-63444761D02*
X72977380Y-63492380D01*
%TO.C,RM16*%
X111782619Y-122164285D02*
X111306428Y-122497618D01*
X111782619Y-122735713D02*
X110782619Y-122735713D01*
X110782619Y-122735713D02*
X110782619Y-122354761D01*
X110782619Y-122354761D02*
X110830238Y-122259523D01*
X110830238Y-122259523D02*
X110877857Y-122211904D01*
X110877857Y-122211904D02*
X110973095Y-122164285D01*
X110973095Y-122164285D02*
X111115952Y-122164285D01*
X111115952Y-122164285D02*
X111211190Y-122211904D01*
X111211190Y-122211904D02*
X111258809Y-122259523D01*
X111258809Y-122259523D02*
X111306428Y-122354761D01*
X111306428Y-122354761D02*
X111306428Y-122735713D01*
X111782619Y-121735713D02*
X110782619Y-121735713D01*
X110782619Y-121735713D02*
X111496904Y-121402380D01*
X111496904Y-121402380D02*
X110782619Y-121069047D01*
X110782619Y-121069047D02*
X111782619Y-121069047D01*
X111782619Y-120069047D02*
X111782619Y-120640475D01*
X111782619Y-120354761D02*
X110782619Y-120354761D01*
X110782619Y-120354761D02*
X110925476Y-120449999D01*
X110925476Y-120449999D02*
X111020714Y-120545237D01*
X111020714Y-120545237D02*
X111068333Y-120640475D01*
X110782619Y-119211904D02*
X110782619Y-119402380D01*
X110782619Y-119402380D02*
X110830238Y-119497618D01*
X110830238Y-119497618D02*
X110877857Y-119545237D01*
X110877857Y-119545237D02*
X111020714Y-119640475D01*
X111020714Y-119640475D02*
X111211190Y-119688094D01*
X111211190Y-119688094D02*
X111592142Y-119688094D01*
X111592142Y-119688094D02*
X111687380Y-119640475D01*
X111687380Y-119640475D02*
X111735000Y-119592856D01*
X111735000Y-119592856D02*
X111782619Y-119497618D01*
X111782619Y-119497618D02*
X111782619Y-119307142D01*
X111782619Y-119307142D02*
X111735000Y-119211904D01*
X111735000Y-119211904D02*
X111687380Y-119164285D01*
X111687380Y-119164285D02*
X111592142Y-119116666D01*
X111592142Y-119116666D02*
X111354047Y-119116666D01*
X111354047Y-119116666D02*
X111258809Y-119164285D01*
X111258809Y-119164285D02*
X111211190Y-119211904D01*
X111211190Y-119211904D02*
X111163571Y-119307142D01*
X111163571Y-119307142D02*
X111163571Y-119497618D01*
X111163571Y-119497618D02*
X111211190Y-119592856D01*
X111211190Y-119592856D02*
X111258809Y-119640475D01*
X111258809Y-119640475D02*
X111354047Y-119688094D01*
%TO.C,Q3*%
X104754761Y-129607857D02*
X104659523Y-129560238D01*
X104659523Y-129560238D02*
X104564285Y-129465000D01*
X104564285Y-129465000D02*
X104421428Y-129322142D01*
X104421428Y-129322142D02*
X104326190Y-129274523D01*
X104326190Y-129274523D02*
X104230952Y-129274523D01*
X104278571Y-129512619D02*
X104183333Y-129465000D01*
X104183333Y-129465000D02*
X104088095Y-129369761D01*
X104088095Y-129369761D02*
X104040476Y-129179285D01*
X104040476Y-129179285D02*
X104040476Y-128845952D01*
X104040476Y-128845952D02*
X104088095Y-128655476D01*
X104088095Y-128655476D02*
X104183333Y-128560238D01*
X104183333Y-128560238D02*
X104278571Y-128512619D01*
X104278571Y-128512619D02*
X104469047Y-128512619D01*
X104469047Y-128512619D02*
X104564285Y-128560238D01*
X104564285Y-128560238D02*
X104659523Y-128655476D01*
X104659523Y-128655476D02*
X104707142Y-128845952D01*
X104707142Y-128845952D02*
X104707142Y-129179285D01*
X104707142Y-129179285D02*
X104659523Y-129369761D01*
X104659523Y-129369761D02*
X104564285Y-129465000D01*
X104564285Y-129465000D02*
X104469047Y-129512619D01*
X104469047Y-129512619D02*
X104278571Y-129512619D01*
X105040476Y-128512619D02*
X105659523Y-128512619D01*
X105659523Y-128512619D02*
X105326190Y-128893571D01*
X105326190Y-128893571D02*
X105469047Y-128893571D01*
X105469047Y-128893571D02*
X105564285Y-128941190D01*
X105564285Y-128941190D02*
X105611904Y-128988809D01*
X105611904Y-128988809D02*
X105659523Y-129084047D01*
X105659523Y-129084047D02*
X105659523Y-129322142D01*
X105659523Y-129322142D02*
X105611904Y-129417380D01*
X105611904Y-129417380D02*
X105564285Y-129465000D01*
X105564285Y-129465000D02*
X105469047Y-129512619D01*
X105469047Y-129512619D02*
X105183333Y-129512619D01*
X105183333Y-129512619D02*
X105088095Y-129465000D01*
X105088095Y-129465000D02*
X105040476Y-129417380D01*
%TO.C,RM12*%
X104482619Y-122144285D02*
X104006428Y-122477618D01*
X104482619Y-122715713D02*
X103482619Y-122715713D01*
X103482619Y-122715713D02*
X103482619Y-122334761D01*
X103482619Y-122334761D02*
X103530238Y-122239523D01*
X103530238Y-122239523D02*
X103577857Y-122191904D01*
X103577857Y-122191904D02*
X103673095Y-122144285D01*
X103673095Y-122144285D02*
X103815952Y-122144285D01*
X103815952Y-122144285D02*
X103911190Y-122191904D01*
X103911190Y-122191904D02*
X103958809Y-122239523D01*
X103958809Y-122239523D02*
X104006428Y-122334761D01*
X104006428Y-122334761D02*
X104006428Y-122715713D01*
X104482619Y-121715713D02*
X103482619Y-121715713D01*
X103482619Y-121715713D02*
X104196904Y-121382380D01*
X104196904Y-121382380D02*
X103482619Y-121049047D01*
X103482619Y-121049047D02*
X104482619Y-121049047D01*
X104482619Y-120049047D02*
X104482619Y-120620475D01*
X104482619Y-120334761D02*
X103482619Y-120334761D01*
X103482619Y-120334761D02*
X103625476Y-120429999D01*
X103625476Y-120429999D02*
X103720714Y-120525237D01*
X103720714Y-120525237D02*
X103768333Y-120620475D01*
X103577857Y-119668094D02*
X103530238Y-119620475D01*
X103530238Y-119620475D02*
X103482619Y-119525237D01*
X103482619Y-119525237D02*
X103482619Y-119287142D01*
X103482619Y-119287142D02*
X103530238Y-119191904D01*
X103530238Y-119191904D02*
X103577857Y-119144285D01*
X103577857Y-119144285D02*
X103673095Y-119096666D01*
X103673095Y-119096666D02*
X103768333Y-119096666D01*
X103768333Y-119096666D02*
X103911190Y-119144285D01*
X103911190Y-119144285D02*
X104482619Y-119715713D01*
X104482619Y-119715713D02*
X104482619Y-119096666D01*
%TO.C,M16*%
X108014286Y-107292619D02*
X108014286Y-106292619D01*
X108014286Y-106292619D02*
X108347619Y-107006904D01*
X108347619Y-107006904D02*
X108680952Y-106292619D01*
X108680952Y-106292619D02*
X108680952Y-107292619D01*
X109680952Y-107292619D02*
X109109524Y-107292619D01*
X109395238Y-107292619D02*
X109395238Y-106292619D01*
X109395238Y-106292619D02*
X109300000Y-106435476D01*
X109300000Y-106435476D02*
X109204762Y-106530714D01*
X109204762Y-106530714D02*
X109109524Y-106578333D01*
X110538095Y-106292619D02*
X110347619Y-106292619D01*
X110347619Y-106292619D02*
X110252381Y-106340238D01*
X110252381Y-106340238D02*
X110204762Y-106387857D01*
X110204762Y-106387857D02*
X110109524Y-106530714D01*
X110109524Y-106530714D02*
X110061905Y-106721190D01*
X110061905Y-106721190D02*
X110061905Y-107102142D01*
X110061905Y-107102142D02*
X110109524Y-107197380D01*
X110109524Y-107197380D02*
X110157143Y-107245000D01*
X110157143Y-107245000D02*
X110252381Y-107292619D01*
X110252381Y-107292619D02*
X110442857Y-107292619D01*
X110442857Y-107292619D02*
X110538095Y-107245000D01*
X110538095Y-107245000D02*
X110585714Y-107197380D01*
X110585714Y-107197380D02*
X110633333Y-107102142D01*
X110633333Y-107102142D02*
X110633333Y-106864047D01*
X110633333Y-106864047D02*
X110585714Y-106768809D01*
X110585714Y-106768809D02*
X110538095Y-106721190D01*
X110538095Y-106721190D02*
X110442857Y-106673571D01*
X110442857Y-106673571D02*
X110252381Y-106673571D01*
X110252381Y-106673571D02*
X110157143Y-106721190D01*
X110157143Y-106721190D02*
X110109524Y-106768809D01*
X110109524Y-106768809D02*
X110061905Y-106864047D01*
%TO.C,M6*%
X62090476Y-107392619D02*
X62090476Y-106392619D01*
X62090476Y-106392619D02*
X62423809Y-107106904D01*
X62423809Y-107106904D02*
X62757142Y-106392619D01*
X62757142Y-106392619D02*
X62757142Y-107392619D01*
X63661904Y-106392619D02*
X63471428Y-106392619D01*
X63471428Y-106392619D02*
X63376190Y-106440238D01*
X63376190Y-106440238D02*
X63328571Y-106487857D01*
X63328571Y-106487857D02*
X63233333Y-106630714D01*
X63233333Y-106630714D02*
X63185714Y-106821190D01*
X63185714Y-106821190D02*
X63185714Y-107202142D01*
X63185714Y-107202142D02*
X63233333Y-107297380D01*
X63233333Y-107297380D02*
X63280952Y-107345000D01*
X63280952Y-107345000D02*
X63376190Y-107392619D01*
X63376190Y-107392619D02*
X63566666Y-107392619D01*
X63566666Y-107392619D02*
X63661904Y-107345000D01*
X63661904Y-107345000D02*
X63709523Y-107297380D01*
X63709523Y-107297380D02*
X63757142Y-107202142D01*
X63757142Y-107202142D02*
X63757142Y-106964047D01*
X63757142Y-106964047D02*
X63709523Y-106868809D01*
X63709523Y-106868809D02*
X63661904Y-106821190D01*
X63661904Y-106821190D02*
X63566666Y-106773571D01*
X63566666Y-106773571D02*
X63376190Y-106773571D01*
X63376190Y-106773571D02*
X63280952Y-106821190D01*
X63280952Y-106821190D02*
X63233333Y-106868809D01*
X63233333Y-106868809D02*
X63185714Y-106964047D01*
%TO.C,Q1*%
X72804761Y-135397857D02*
X72709523Y-135350238D01*
X72709523Y-135350238D02*
X72614285Y-135255000D01*
X72614285Y-135255000D02*
X72471428Y-135112142D01*
X72471428Y-135112142D02*
X72376190Y-135064523D01*
X72376190Y-135064523D02*
X72280952Y-135064523D01*
X72328571Y-135302619D02*
X72233333Y-135255000D01*
X72233333Y-135255000D02*
X72138095Y-135159761D01*
X72138095Y-135159761D02*
X72090476Y-134969285D01*
X72090476Y-134969285D02*
X72090476Y-134635952D01*
X72090476Y-134635952D02*
X72138095Y-134445476D01*
X72138095Y-134445476D02*
X72233333Y-134350238D01*
X72233333Y-134350238D02*
X72328571Y-134302619D01*
X72328571Y-134302619D02*
X72519047Y-134302619D01*
X72519047Y-134302619D02*
X72614285Y-134350238D01*
X72614285Y-134350238D02*
X72709523Y-134445476D01*
X72709523Y-134445476D02*
X72757142Y-134635952D01*
X72757142Y-134635952D02*
X72757142Y-134969285D01*
X72757142Y-134969285D02*
X72709523Y-135159761D01*
X72709523Y-135159761D02*
X72614285Y-135255000D01*
X72614285Y-135255000D02*
X72519047Y-135302619D01*
X72519047Y-135302619D02*
X72328571Y-135302619D01*
X73709523Y-135302619D02*
X73138095Y-135302619D01*
X73423809Y-135302619D02*
X73423809Y-134302619D01*
X73423809Y-134302619D02*
X73328571Y-134445476D01*
X73328571Y-134445476D02*
X73233333Y-134540714D01*
X73233333Y-134540714D02*
X73138095Y-134588333D01*
%TO.C,RM19*%
X94682619Y-96884285D02*
X94206428Y-97217618D01*
X94682619Y-97455713D02*
X93682619Y-97455713D01*
X93682619Y-97455713D02*
X93682619Y-97074761D01*
X93682619Y-97074761D02*
X93730238Y-96979523D01*
X93730238Y-96979523D02*
X93777857Y-96931904D01*
X93777857Y-96931904D02*
X93873095Y-96884285D01*
X93873095Y-96884285D02*
X94015952Y-96884285D01*
X94015952Y-96884285D02*
X94111190Y-96931904D01*
X94111190Y-96931904D02*
X94158809Y-96979523D01*
X94158809Y-96979523D02*
X94206428Y-97074761D01*
X94206428Y-97074761D02*
X94206428Y-97455713D01*
X94682619Y-96455713D02*
X93682619Y-96455713D01*
X93682619Y-96455713D02*
X94396904Y-96122380D01*
X94396904Y-96122380D02*
X93682619Y-95789047D01*
X93682619Y-95789047D02*
X94682619Y-95789047D01*
X94682619Y-94789047D02*
X94682619Y-95360475D01*
X94682619Y-95074761D02*
X93682619Y-95074761D01*
X93682619Y-95074761D02*
X93825476Y-95169999D01*
X93825476Y-95169999D02*
X93920714Y-95265237D01*
X93920714Y-95265237D02*
X93968333Y-95360475D01*
X94682619Y-94312856D02*
X94682619Y-94122380D01*
X94682619Y-94122380D02*
X94635000Y-94027142D01*
X94635000Y-94027142D02*
X94587380Y-93979523D01*
X94587380Y-93979523D02*
X94444523Y-93884285D01*
X94444523Y-93884285D02*
X94254047Y-93836666D01*
X94254047Y-93836666D02*
X93873095Y-93836666D01*
X93873095Y-93836666D02*
X93777857Y-93884285D01*
X93777857Y-93884285D02*
X93730238Y-93931904D01*
X93730238Y-93931904D02*
X93682619Y-94027142D01*
X93682619Y-94027142D02*
X93682619Y-94217618D01*
X93682619Y-94217618D02*
X93730238Y-94312856D01*
X93730238Y-94312856D02*
X93777857Y-94360475D01*
X93777857Y-94360475D02*
X93873095Y-94408094D01*
X93873095Y-94408094D02*
X94111190Y-94408094D01*
X94111190Y-94408094D02*
X94206428Y-94360475D01*
X94206428Y-94360475D02*
X94254047Y-94312856D01*
X94254047Y-94312856D02*
X94301666Y-94217618D01*
X94301666Y-94217618D02*
X94301666Y-94027142D01*
X94301666Y-94027142D02*
X94254047Y-93931904D01*
X94254047Y-93931904D02*
X94206428Y-93884285D01*
X94206428Y-93884285D02*
X94111190Y-93836666D01*
%TO.C,M7*%
X65690476Y-107392619D02*
X65690476Y-106392619D01*
X65690476Y-106392619D02*
X66023809Y-107106904D01*
X66023809Y-107106904D02*
X66357142Y-106392619D01*
X66357142Y-106392619D02*
X66357142Y-107392619D01*
X66738095Y-106392619D02*
X67404761Y-106392619D01*
X67404761Y-106392619D02*
X66976190Y-107392619D01*
%TO.C,M21*%
X98114286Y-82092619D02*
X98114286Y-81092619D01*
X98114286Y-81092619D02*
X98447619Y-81806904D01*
X98447619Y-81806904D02*
X98780952Y-81092619D01*
X98780952Y-81092619D02*
X98780952Y-82092619D01*
X99209524Y-81187857D02*
X99257143Y-81140238D01*
X99257143Y-81140238D02*
X99352381Y-81092619D01*
X99352381Y-81092619D02*
X99590476Y-81092619D01*
X99590476Y-81092619D02*
X99685714Y-81140238D01*
X99685714Y-81140238D02*
X99733333Y-81187857D01*
X99733333Y-81187857D02*
X99780952Y-81283095D01*
X99780952Y-81283095D02*
X99780952Y-81378333D01*
X99780952Y-81378333D02*
X99733333Y-81521190D01*
X99733333Y-81521190D02*
X99161905Y-82092619D01*
X99161905Y-82092619D02*
X99780952Y-82092619D01*
X100733333Y-82092619D02*
X100161905Y-82092619D01*
X100447619Y-82092619D02*
X100447619Y-81092619D01*
X100447619Y-81092619D02*
X100352381Y-81235476D01*
X100352381Y-81235476D02*
X100257143Y-81330714D01*
X100257143Y-81330714D02*
X100161905Y-81378333D01*
%TO.C,R9*%
X63065833Y-128732619D02*
X62732500Y-128256428D01*
X62494405Y-128732619D02*
X62494405Y-127732619D01*
X62494405Y-127732619D02*
X62875357Y-127732619D01*
X62875357Y-127732619D02*
X62970595Y-127780238D01*
X62970595Y-127780238D02*
X63018214Y-127827857D01*
X63018214Y-127827857D02*
X63065833Y-127923095D01*
X63065833Y-127923095D02*
X63065833Y-128065952D01*
X63065833Y-128065952D02*
X63018214Y-128161190D01*
X63018214Y-128161190D02*
X62970595Y-128208809D01*
X62970595Y-128208809D02*
X62875357Y-128256428D01*
X62875357Y-128256428D02*
X62494405Y-128256428D01*
X63542024Y-128732619D02*
X63732500Y-128732619D01*
X63732500Y-128732619D02*
X63827738Y-128685000D01*
X63827738Y-128685000D02*
X63875357Y-128637380D01*
X63875357Y-128637380D02*
X63970595Y-128494523D01*
X63970595Y-128494523D02*
X64018214Y-128304047D01*
X64018214Y-128304047D02*
X64018214Y-127923095D01*
X64018214Y-127923095D02*
X63970595Y-127827857D01*
X63970595Y-127827857D02*
X63922976Y-127780238D01*
X63922976Y-127780238D02*
X63827738Y-127732619D01*
X63827738Y-127732619D02*
X63637262Y-127732619D01*
X63637262Y-127732619D02*
X63542024Y-127780238D01*
X63542024Y-127780238D02*
X63494405Y-127827857D01*
X63494405Y-127827857D02*
X63446786Y-127923095D01*
X63446786Y-127923095D02*
X63446786Y-128161190D01*
X63446786Y-128161190D02*
X63494405Y-128256428D01*
X63494405Y-128256428D02*
X63542024Y-128304047D01*
X63542024Y-128304047D02*
X63637262Y-128351666D01*
X63637262Y-128351666D02*
X63827738Y-128351666D01*
X63827738Y-128351666D02*
X63922976Y-128304047D01*
X63922976Y-128304047D02*
X63970595Y-128256428D01*
X63970595Y-128256428D02*
X64018214Y-128161190D01*
%TO.C,C5*%
X51438333Y-95907380D02*
X51390714Y-95955000D01*
X51390714Y-95955000D02*
X51247857Y-96002619D01*
X51247857Y-96002619D02*
X51152619Y-96002619D01*
X51152619Y-96002619D02*
X51009762Y-95955000D01*
X51009762Y-95955000D02*
X50914524Y-95859761D01*
X50914524Y-95859761D02*
X50866905Y-95764523D01*
X50866905Y-95764523D02*
X50819286Y-95574047D01*
X50819286Y-95574047D02*
X50819286Y-95431190D01*
X50819286Y-95431190D02*
X50866905Y-95240714D01*
X50866905Y-95240714D02*
X50914524Y-95145476D01*
X50914524Y-95145476D02*
X51009762Y-95050238D01*
X51009762Y-95050238D02*
X51152619Y-95002619D01*
X51152619Y-95002619D02*
X51247857Y-95002619D01*
X51247857Y-95002619D02*
X51390714Y-95050238D01*
X51390714Y-95050238D02*
X51438333Y-95097857D01*
X52343095Y-95002619D02*
X51866905Y-95002619D01*
X51866905Y-95002619D02*
X51819286Y-95478809D01*
X51819286Y-95478809D02*
X51866905Y-95431190D01*
X51866905Y-95431190D02*
X51962143Y-95383571D01*
X51962143Y-95383571D02*
X52200238Y-95383571D01*
X52200238Y-95383571D02*
X52295476Y-95431190D01*
X52295476Y-95431190D02*
X52343095Y-95478809D01*
X52343095Y-95478809D02*
X52390714Y-95574047D01*
X52390714Y-95574047D02*
X52390714Y-95812142D01*
X52390714Y-95812142D02*
X52343095Y-95907380D01*
X52343095Y-95907380D02*
X52295476Y-95955000D01*
X52295476Y-95955000D02*
X52200238Y-96002619D01*
X52200238Y-96002619D02*
X51962143Y-96002619D01*
X51962143Y-96002619D02*
X51866905Y-95955000D01*
X51866905Y-95955000D02*
X51819286Y-95907380D01*
%TO.C,RM2*%
X84682619Y-96428095D02*
X84206428Y-96761428D01*
X84682619Y-96999523D02*
X83682619Y-96999523D01*
X83682619Y-96999523D02*
X83682619Y-96618571D01*
X83682619Y-96618571D02*
X83730238Y-96523333D01*
X83730238Y-96523333D02*
X83777857Y-96475714D01*
X83777857Y-96475714D02*
X83873095Y-96428095D01*
X83873095Y-96428095D02*
X84015952Y-96428095D01*
X84015952Y-96428095D02*
X84111190Y-96475714D01*
X84111190Y-96475714D02*
X84158809Y-96523333D01*
X84158809Y-96523333D02*
X84206428Y-96618571D01*
X84206428Y-96618571D02*
X84206428Y-96999523D01*
X84682619Y-95999523D02*
X83682619Y-95999523D01*
X83682619Y-95999523D02*
X84396904Y-95666190D01*
X84396904Y-95666190D02*
X83682619Y-95332857D01*
X83682619Y-95332857D02*
X84682619Y-95332857D01*
X83777857Y-94904285D02*
X83730238Y-94856666D01*
X83730238Y-94856666D02*
X83682619Y-94761428D01*
X83682619Y-94761428D02*
X83682619Y-94523333D01*
X83682619Y-94523333D02*
X83730238Y-94428095D01*
X83730238Y-94428095D02*
X83777857Y-94380476D01*
X83777857Y-94380476D02*
X83873095Y-94332857D01*
X83873095Y-94332857D02*
X83968333Y-94332857D01*
X83968333Y-94332857D02*
X84111190Y-94380476D01*
X84111190Y-94380476D02*
X84682619Y-94951904D01*
X84682619Y-94951904D02*
X84682619Y-94332857D01*
%TO.C,M24*%
X55672619Y-74905713D02*
X54672619Y-74905713D01*
X54672619Y-74905713D02*
X55386904Y-74572380D01*
X55386904Y-74572380D02*
X54672619Y-74239047D01*
X54672619Y-74239047D02*
X55672619Y-74239047D01*
X54767857Y-73810475D02*
X54720238Y-73762856D01*
X54720238Y-73762856D02*
X54672619Y-73667618D01*
X54672619Y-73667618D02*
X54672619Y-73429523D01*
X54672619Y-73429523D02*
X54720238Y-73334285D01*
X54720238Y-73334285D02*
X54767857Y-73286666D01*
X54767857Y-73286666D02*
X54863095Y-73239047D01*
X54863095Y-73239047D02*
X54958333Y-73239047D01*
X54958333Y-73239047D02*
X55101190Y-73286666D01*
X55101190Y-73286666D02*
X55672619Y-73858094D01*
X55672619Y-73858094D02*
X55672619Y-73239047D01*
X55005952Y-72381904D02*
X55672619Y-72381904D01*
X54625000Y-72619999D02*
X55339285Y-72858094D01*
X55339285Y-72858094D02*
X55339285Y-72239047D01*
%TO.C,RM3*%
X81282619Y-96428095D02*
X80806428Y-96761428D01*
X81282619Y-96999523D02*
X80282619Y-96999523D01*
X80282619Y-96999523D02*
X80282619Y-96618571D01*
X80282619Y-96618571D02*
X80330238Y-96523333D01*
X80330238Y-96523333D02*
X80377857Y-96475714D01*
X80377857Y-96475714D02*
X80473095Y-96428095D01*
X80473095Y-96428095D02*
X80615952Y-96428095D01*
X80615952Y-96428095D02*
X80711190Y-96475714D01*
X80711190Y-96475714D02*
X80758809Y-96523333D01*
X80758809Y-96523333D02*
X80806428Y-96618571D01*
X80806428Y-96618571D02*
X80806428Y-96999523D01*
X81282619Y-95999523D02*
X80282619Y-95999523D01*
X80282619Y-95999523D02*
X80996904Y-95666190D01*
X80996904Y-95666190D02*
X80282619Y-95332857D01*
X80282619Y-95332857D02*
X81282619Y-95332857D01*
X80282619Y-94951904D02*
X80282619Y-94332857D01*
X80282619Y-94332857D02*
X80663571Y-94666190D01*
X80663571Y-94666190D02*
X80663571Y-94523333D01*
X80663571Y-94523333D02*
X80711190Y-94428095D01*
X80711190Y-94428095D02*
X80758809Y-94380476D01*
X80758809Y-94380476D02*
X80854047Y-94332857D01*
X80854047Y-94332857D02*
X81092142Y-94332857D01*
X81092142Y-94332857D02*
X81187380Y-94380476D01*
X81187380Y-94380476D02*
X81235000Y-94428095D01*
X81235000Y-94428095D02*
X81282619Y-94523333D01*
X81282619Y-94523333D02*
X81282619Y-94809047D01*
X81282619Y-94809047D02*
X81235000Y-94904285D01*
X81235000Y-94904285D02*
X81187380Y-94951904D01*
%TO.C,R16*%
X87457142Y-116992619D02*
X87123809Y-116516428D01*
X86885714Y-116992619D02*
X86885714Y-115992619D01*
X86885714Y-115992619D02*
X87266666Y-115992619D01*
X87266666Y-115992619D02*
X87361904Y-116040238D01*
X87361904Y-116040238D02*
X87409523Y-116087857D01*
X87409523Y-116087857D02*
X87457142Y-116183095D01*
X87457142Y-116183095D02*
X87457142Y-116325952D01*
X87457142Y-116325952D02*
X87409523Y-116421190D01*
X87409523Y-116421190D02*
X87361904Y-116468809D01*
X87361904Y-116468809D02*
X87266666Y-116516428D01*
X87266666Y-116516428D02*
X86885714Y-116516428D01*
X88409523Y-116992619D02*
X87838095Y-116992619D01*
X88123809Y-116992619D02*
X88123809Y-115992619D01*
X88123809Y-115992619D02*
X88028571Y-116135476D01*
X88028571Y-116135476D02*
X87933333Y-116230714D01*
X87933333Y-116230714D02*
X87838095Y-116278333D01*
X89266666Y-115992619D02*
X89076190Y-115992619D01*
X89076190Y-115992619D02*
X88980952Y-116040238D01*
X88980952Y-116040238D02*
X88933333Y-116087857D01*
X88933333Y-116087857D02*
X88838095Y-116230714D01*
X88838095Y-116230714D02*
X88790476Y-116421190D01*
X88790476Y-116421190D02*
X88790476Y-116802142D01*
X88790476Y-116802142D02*
X88838095Y-116897380D01*
X88838095Y-116897380D02*
X88885714Y-116945000D01*
X88885714Y-116945000D02*
X88980952Y-116992619D01*
X88980952Y-116992619D02*
X89171428Y-116992619D01*
X89171428Y-116992619D02*
X89266666Y-116945000D01*
X89266666Y-116945000D02*
X89314285Y-116897380D01*
X89314285Y-116897380D02*
X89361904Y-116802142D01*
X89361904Y-116802142D02*
X89361904Y-116564047D01*
X89361904Y-116564047D02*
X89314285Y-116468809D01*
X89314285Y-116468809D02*
X89266666Y-116421190D01*
X89266666Y-116421190D02*
X89171428Y-116373571D01*
X89171428Y-116373571D02*
X88980952Y-116373571D01*
X88980952Y-116373571D02*
X88885714Y-116421190D01*
X88885714Y-116421190D02*
X88838095Y-116468809D01*
X88838095Y-116468809D02*
X88790476Y-116564047D01*
%TO.C,M25*%
X55672619Y-71305713D02*
X54672619Y-71305713D01*
X54672619Y-71305713D02*
X55386904Y-70972380D01*
X55386904Y-70972380D02*
X54672619Y-70639047D01*
X54672619Y-70639047D02*
X55672619Y-70639047D01*
X54767857Y-70210475D02*
X54720238Y-70162856D01*
X54720238Y-70162856D02*
X54672619Y-70067618D01*
X54672619Y-70067618D02*
X54672619Y-69829523D01*
X54672619Y-69829523D02*
X54720238Y-69734285D01*
X54720238Y-69734285D02*
X54767857Y-69686666D01*
X54767857Y-69686666D02*
X54863095Y-69639047D01*
X54863095Y-69639047D02*
X54958333Y-69639047D01*
X54958333Y-69639047D02*
X55101190Y-69686666D01*
X55101190Y-69686666D02*
X55672619Y-70258094D01*
X55672619Y-70258094D02*
X55672619Y-69639047D01*
X54672619Y-68734285D02*
X54672619Y-69210475D01*
X54672619Y-69210475D02*
X55148809Y-69258094D01*
X55148809Y-69258094D02*
X55101190Y-69210475D01*
X55101190Y-69210475D02*
X55053571Y-69115237D01*
X55053571Y-69115237D02*
X55053571Y-68877142D01*
X55053571Y-68877142D02*
X55101190Y-68781904D01*
X55101190Y-68781904D02*
X55148809Y-68734285D01*
X55148809Y-68734285D02*
X55244047Y-68686666D01*
X55244047Y-68686666D02*
X55482142Y-68686666D01*
X55482142Y-68686666D02*
X55577380Y-68734285D01*
X55577380Y-68734285D02*
X55625000Y-68781904D01*
X55625000Y-68781904D02*
X55672619Y-68877142D01*
X55672619Y-68877142D02*
X55672619Y-69115237D01*
X55672619Y-69115237D02*
X55625000Y-69210475D01*
X55625000Y-69210475D02*
X55577380Y-69258094D01*
%TO.C,J2*%
X116312619Y-77803333D02*
X117026904Y-77803333D01*
X117026904Y-77803333D02*
X117169761Y-77850952D01*
X117169761Y-77850952D02*
X117265000Y-77946190D01*
X117265000Y-77946190D02*
X117312619Y-78089047D01*
X117312619Y-78089047D02*
X117312619Y-78184285D01*
X116407857Y-77374761D02*
X116360238Y-77327142D01*
X116360238Y-77327142D02*
X116312619Y-77231904D01*
X116312619Y-77231904D02*
X116312619Y-76993809D01*
X116312619Y-76993809D02*
X116360238Y-76898571D01*
X116360238Y-76898571D02*
X116407857Y-76850952D01*
X116407857Y-76850952D02*
X116503095Y-76803333D01*
X116503095Y-76803333D02*
X116598333Y-76803333D01*
X116598333Y-76803333D02*
X116741190Y-76850952D01*
X116741190Y-76850952D02*
X117312619Y-77422380D01*
X117312619Y-77422380D02*
X117312619Y-76803333D01*
%TO.C,RM22*%
X102782619Y-96864285D02*
X102306428Y-97197618D01*
X102782619Y-97435713D02*
X101782619Y-97435713D01*
X101782619Y-97435713D02*
X101782619Y-97054761D01*
X101782619Y-97054761D02*
X101830238Y-96959523D01*
X101830238Y-96959523D02*
X101877857Y-96911904D01*
X101877857Y-96911904D02*
X101973095Y-96864285D01*
X101973095Y-96864285D02*
X102115952Y-96864285D01*
X102115952Y-96864285D02*
X102211190Y-96911904D01*
X102211190Y-96911904D02*
X102258809Y-96959523D01*
X102258809Y-96959523D02*
X102306428Y-97054761D01*
X102306428Y-97054761D02*
X102306428Y-97435713D01*
X102782619Y-96435713D02*
X101782619Y-96435713D01*
X101782619Y-96435713D02*
X102496904Y-96102380D01*
X102496904Y-96102380D02*
X101782619Y-95769047D01*
X101782619Y-95769047D02*
X102782619Y-95769047D01*
X101877857Y-95340475D02*
X101830238Y-95292856D01*
X101830238Y-95292856D02*
X101782619Y-95197618D01*
X101782619Y-95197618D02*
X101782619Y-94959523D01*
X101782619Y-94959523D02*
X101830238Y-94864285D01*
X101830238Y-94864285D02*
X101877857Y-94816666D01*
X101877857Y-94816666D02*
X101973095Y-94769047D01*
X101973095Y-94769047D02*
X102068333Y-94769047D01*
X102068333Y-94769047D02*
X102211190Y-94816666D01*
X102211190Y-94816666D02*
X102782619Y-95388094D01*
X102782619Y-95388094D02*
X102782619Y-94769047D01*
X101877857Y-94388094D02*
X101830238Y-94340475D01*
X101830238Y-94340475D02*
X101782619Y-94245237D01*
X101782619Y-94245237D02*
X101782619Y-94007142D01*
X101782619Y-94007142D02*
X101830238Y-93911904D01*
X101830238Y-93911904D02*
X101877857Y-93864285D01*
X101877857Y-93864285D02*
X101973095Y-93816666D01*
X101973095Y-93816666D02*
X102068333Y-93816666D01*
X102068333Y-93816666D02*
X102211190Y-93864285D01*
X102211190Y-93864285D02*
X102782619Y-94435713D01*
X102782619Y-94435713D02*
X102782619Y-93816666D01*
%TO.C,J8*%
X75702619Y-44773333D02*
X76416904Y-44773333D01*
X76416904Y-44773333D02*
X76559761Y-44820952D01*
X76559761Y-44820952D02*
X76655000Y-44916190D01*
X76655000Y-44916190D02*
X76702619Y-45059047D01*
X76702619Y-45059047D02*
X76702619Y-45154285D01*
X76131190Y-44154285D02*
X76083571Y-44249523D01*
X76083571Y-44249523D02*
X76035952Y-44297142D01*
X76035952Y-44297142D02*
X75940714Y-44344761D01*
X75940714Y-44344761D02*
X75893095Y-44344761D01*
X75893095Y-44344761D02*
X75797857Y-44297142D01*
X75797857Y-44297142D02*
X75750238Y-44249523D01*
X75750238Y-44249523D02*
X75702619Y-44154285D01*
X75702619Y-44154285D02*
X75702619Y-43963809D01*
X75702619Y-43963809D02*
X75750238Y-43868571D01*
X75750238Y-43868571D02*
X75797857Y-43820952D01*
X75797857Y-43820952D02*
X75893095Y-43773333D01*
X75893095Y-43773333D02*
X75940714Y-43773333D01*
X75940714Y-43773333D02*
X76035952Y-43820952D01*
X76035952Y-43820952D02*
X76083571Y-43868571D01*
X76083571Y-43868571D02*
X76131190Y-43963809D01*
X76131190Y-43963809D02*
X76131190Y-44154285D01*
X76131190Y-44154285D02*
X76178809Y-44249523D01*
X76178809Y-44249523D02*
X76226428Y-44297142D01*
X76226428Y-44297142D02*
X76321666Y-44344761D01*
X76321666Y-44344761D02*
X76512142Y-44344761D01*
X76512142Y-44344761D02*
X76607380Y-44297142D01*
X76607380Y-44297142D02*
X76655000Y-44249523D01*
X76655000Y-44249523D02*
X76702619Y-44154285D01*
X76702619Y-44154285D02*
X76702619Y-43963809D01*
X76702619Y-43963809D02*
X76655000Y-43868571D01*
X76655000Y-43868571D02*
X76607380Y-43820952D01*
X76607380Y-43820952D02*
X76512142Y-43773333D01*
X76512142Y-43773333D02*
X76321666Y-43773333D01*
X76321666Y-43773333D02*
X76226428Y-43820952D01*
X76226428Y-43820952D02*
X76178809Y-43868571D01*
X76178809Y-43868571D02*
X76131190Y-43963809D01*
%TO.C,C3*%
X51853333Y-125027380D02*
X51805714Y-125075000D01*
X51805714Y-125075000D02*
X51662857Y-125122619D01*
X51662857Y-125122619D02*
X51567619Y-125122619D01*
X51567619Y-125122619D02*
X51424762Y-125075000D01*
X51424762Y-125075000D02*
X51329524Y-124979761D01*
X51329524Y-124979761D02*
X51281905Y-124884523D01*
X51281905Y-124884523D02*
X51234286Y-124694047D01*
X51234286Y-124694047D02*
X51234286Y-124551190D01*
X51234286Y-124551190D02*
X51281905Y-124360714D01*
X51281905Y-124360714D02*
X51329524Y-124265476D01*
X51329524Y-124265476D02*
X51424762Y-124170238D01*
X51424762Y-124170238D02*
X51567619Y-124122619D01*
X51567619Y-124122619D02*
X51662857Y-124122619D01*
X51662857Y-124122619D02*
X51805714Y-124170238D01*
X51805714Y-124170238D02*
X51853333Y-124217857D01*
X52186667Y-124122619D02*
X52805714Y-124122619D01*
X52805714Y-124122619D02*
X52472381Y-124503571D01*
X52472381Y-124503571D02*
X52615238Y-124503571D01*
X52615238Y-124503571D02*
X52710476Y-124551190D01*
X52710476Y-124551190D02*
X52758095Y-124598809D01*
X52758095Y-124598809D02*
X52805714Y-124694047D01*
X52805714Y-124694047D02*
X52805714Y-124932142D01*
X52805714Y-124932142D02*
X52758095Y-125027380D01*
X52758095Y-125027380D02*
X52710476Y-125075000D01*
X52710476Y-125075000D02*
X52615238Y-125122619D01*
X52615238Y-125122619D02*
X52329524Y-125122619D01*
X52329524Y-125122619D02*
X52234286Y-125075000D01*
X52234286Y-125075000D02*
X52186667Y-125027380D01*
%TO.C,C4*%
X51538333Y-84187380D02*
X51490714Y-84235000D01*
X51490714Y-84235000D02*
X51347857Y-84282619D01*
X51347857Y-84282619D02*
X51252619Y-84282619D01*
X51252619Y-84282619D02*
X51109762Y-84235000D01*
X51109762Y-84235000D02*
X51014524Y-84139761D01*
X51014524Y-84139761D02*
X50966905Y-84044523D01*
X50966905Y-84044523D02*
X50919286Y-83854047D01*
X50919286Y-83854047D02*
X50919286Y-83711190D01*
X50919286Y-83711190D02*
X50966905Y-83520714D01*
X50966905Y-83520714D02*
X51014524Y-83425476D01*
X51014524Y-83425476D02*
X51109762Y-83330238D01*
X51109762Y-83330238D02*
X51252619Y-83282619D01*
X51252619Y-83282619D02*
X51347857Y-83282619D01*
X51347857Y-83282619D02*
X51490714Y-83330238D01*
X51490714Y-83330238D02*
X51538333Y-83377857D01*
X52395476Y-83615952D02*
X52395476Y-84282619D01*
X52157381Y-83235000D02*
X51919286Y-83949285D01*
X51919286Y-83949285D02*
X52538333Y-83949285D01*
%TO.C,R34*%
X113457142Y-127632619D02*
X113123809Y-127156428D01*
X112885714Y-127632619D02*
X112885714Y-126632619D01*
X112885714Y-126632619D02*
X113266666Y-126632619D01*
X113266666Y-126632619D02*
X113361904Y-126680238D01*
X113361904Y-126680238D02*
X113409523Y-126727857D01*
X113409523Y-126727857D02*
X113457142Y-126823095D01*
X113457142Y-126823095D02*
X113457142Y-126965952D01*
X113457142Y-126965952D02*
X113409523Y-127061190D01*
X113409523Y-127061190D02*
X113361904Y-127108809D01*
X113361904Y-127108809D02*
X113266666Y-127156428D01*
X113266666Y-127156428D02*
X112885714Y-127156428D01*
X113790476Y-126632619D02*
X114409523Y-126632619D01*
X114409523Y-126632619D02*
X114076190Y-127013571D01*
X114076190Y-127013571D02*
X114219047Y-127013571D01*
X114219047Y-127013571D02*
X114314285Y-127061190D01*
X114314285Y-127061190D02*
X114361904Y-127108809D01*
X114361904Y-127108809D02*
X114409523Y-127204047D01*
X114409523Y-127204047D02*
X114409523Y-127442142D01*
X114409523Y-127442142D02*
X114361904Y-127537380D01*
X114361904Y-127537380D02*
X114314285Y-127585000D01*
X114314285Y-127585000D02*
X114219047Y-127632619D01*
X114219047Y-127632619D02*
X113933333Y-127632619D01*
X113933333Y-127632619D02*
X113838095Y-127585000D01*
X113838095Y-127585000D02*
X113790476Y-127537380D01*
X115266666Y-126965952D02*
X115266666Y-127632619D01*
X115028571Y-126585000D02*
X114790476Y-127299285D01*
X114790476Y-127299285D02*
X115409523Y-127299285D01*
%TO.C,M22*%
X101714286Y-82112619D02*
X101714286Y-81112619D01*
X101714286Y-81112619D02*
X102047619Y-81826904D01*
X102047619Y-81826904D02*
X102380952Y-81112619D01*
X102380952Y-81112619D02*
X102380952Y-82112619D01*
X102809524Y-81207857D02*
X102857143Y-81160238D01*
X102857143Y-81160238D02*
X102952381Y-81112619D01*
X102952381Y-81112619D02*
X103190476Y-81112619D01*
X103190476Y-81112619D02*
X103285714Y-81160238D01*
X103285714Y-81160238D02*
X103333333Y-81207857D01*
X103333333Y-81207857D02*
X103380952Y-81303095D01*
X103380952Y-81303095D02*
X103380952Y-81398333D01*
X103380952Y-81398333D02*
X103333333Y-81541190D01*
X103333333Y-81541190D02*
X102761905Y-82112619D01*
X102761905Y-82112619D02*
X103380952Y-82112619D01*
X103761905Y-81207857D02*
X103809524Y-81160238D01*
X103809524Y-81160238D02*
X103904762Y-81112619D01*
X103904762Y-81112619D02*
X104142857Y-81112619D01*
X104142857Y-81112619D02*
X104238095Y-81160238D01*
X104238095Y-81160238D02*
X104285714Y-81207857D01*
X104285714Y-81207857D02*
X104333333Y-81303095D01*
X104333333Y-81303095D02*
X104333333Y-81398333D01*
X104333333Y-81398333D02*
X104285714Y-81541190D01*
X104285714Y-81541190D02*
X103714286Y-82112619D01*
X103714286Y-82112619D02*
X104333333Y-82112619D01*
%TO.C,J1*%
X59962919Y-25563153D02*
X59962919Y-26277753D01*
X59962919Y-26277753D02*
X59915279Y-26420673D01*
X59915279Y-26420673D02*
X59819999Y-26515954D01*
X59819999Y-26515954D02*
X59677079Y-26563594D01*
X59677079Y-26563594D02*
X59581799Y-26563594D01*
X60963360Y-26563594D02*
X60391680Y-26563594D01*
X60677520Y-26563594D02*
X60677520Y-25563153D01*
X60677520Y-25563153D02*
X60582240Y-25706073D01*
X60582240Y-25706073D02*
X60486960Y-25801353D01*
X60486960Y-25801353D02*
X60391680Y-25848993D01*
%TO.C,RM9*%
X83382619Y-121688095D02*
X82906428Y-122021428D01*
X83382619Y-122259523D02*
X82382619Y-122259523D01*
X82382619Y-122259523D02*
X82382619Y-121878571D01*
X82382619Y-121878571D02*
X82430238Y-121783333D01*
X82430238Y-121783333D02*
X82477857Y-121735714D01*
X82477857Y-121735714D02*
X82573095Y-121688095D01*
X82573095Y-121688095D02*
X82715952Y-121688095D01*
X82715952Y-121688095D02*
X82811190Y-121735714D01*
X82811190Y-121735714D02*
X82858809Y-121783333D01*
X82858809Y-121783333D02*
X82906428Y-121878571D01*
X82906428Y-121878571D02*
X82906428Y-122259523D01*
X83382619Y-121259523D02*
X82382619Y-121259523D01*
X82382619Y-121259523D02*
X83096904Y-120926190D01*
X83096904Y-120926190D02*
X82382619Y-120592857D01*
X82382619Y-120592857D02*
X83382619Y-120592857D01*
X83382619Y-120069047D02*
X83382619Y-119878571D01*
X83382619Y-119878571D02*
X83335000Y-119783333D01*
X83335000Y-119783333D02*
X83287380Y-119735714D01*
X83287380Y-119735714D02*
X83144523Y-119640476D01*
X83144523Y-119640476D02*
X82954047Y-119592857D01*
X82954047Y-119592857D02*
X82573095Y-119592857D01*
X82573095Y-119592857D02*
X82477857Y-119640476D01*
X82477857Y-119640476D02*
X82430238Y-119688095D01*
X82430238Y-119688095D02*
X82382619Y-119783333D01*
X82382619Y-119783333D02*
X82382619Y-119973809D01*
X82382619Y-119973809D02*
X82430238Y-120069047D01*
X82430238Y-120069047D02*
X82477857Y-120116666D01*
X82477857Y-120116666D02*
X82573095Y-120164285D01*
X82573095Y-120164285D02*
X82811190Y-120164285D01*
X82811190Y-120164285D02*
X82906428Y-120116666D01*
X82906428Y-120116666D02*
X82954047Y-120069047D01*
X82954047Y-120069047D02*
X83001666Y-119973809D01*
X83001666Y-119973809D02*
X83001666Y-119783333D01*
X83001666Y-119783333D02*
X82954047Y-119688095D01*
X82954047Y-119688095D02*
X82906428Y-119640476D01*
X82906428Y-119640476D02*
X82811190Y-119592857D01*
%TO.C,M14*%
X100814286Y-107292619D02*
X100814286Y-106292619D01*
X100814286Y-106292619D02*
X101147619Y-107006904D01*
X101147619Y-107006904D02*
X101480952Y-106292619D01*
X101480952Y-106292619D02*
X101480952Y-107292619D01*
X102480952Y-107292619D02*
X101909524Y-107292619D01*
X102195238Y-107292619D02*
X102195238Y-106292619D01*
X102195238Y-106292619D02*
X102100000Y-106435476D01*
X102100000Y-106435476D02*
X102004762Y-106530714D01*
X102004762Y-106530714D02*
X101909524Y-106578333D01*
X103338095Y-106625952D02*
X103338095Y-107292619D01*
X103100000Y-106245000D02*
X102861905Y-106959285D01*
X102861905Y-106959285D02*
X103480952Y-106959285D01*
%TO.C,R38*%
X74212619Y-44932857D02*
X73736428Y-45266190D01*
X74212619Y-45504285D02*
X73212619Y-45504285D01*
X73212619Y-45504285D02*
X73212619Y-45123333D01*
X73212619Y-45123333D02*
X73260238Y-45028095D01*
X73260238Y-45028095D02*
X73307857Y-44980476D01*
X73307857Y-44980476D02*
X73403095Y-44932857D01*
X73403095Y-44932857D02*
X73545952Y-44932857D01*
X73545952Y-44932857D02*
X73641190Y-44980476D01*
X73641190Y-44980476D02*
X73688809Y-45028095D01*
X73688809Y-45028095D02*
X73736428Y-45123333D01*
X73736428Y-45123333D02*
X73736428Y-45504285D01*
X73212619Y-44599523D02*
X73212619Y-43980476D01*
X73212619Y-43980476D02*
X73593571Y-44313809D01*
X73593571Y-44313809D02*
X73593571Y-44170952D01*
X73593571Y-44170952D02*
X73641190Y-44075714D01*
X73641190Y-44075714D02*
X73688809Y-44028095D01*
X73688809Y-44028095D02*
X73784047Y-43980476D01*
X73784047Y-43980476D02*
X74022142Y-43980476D01*
X74022142Y-43980476D02*
X74117380Y-44028095D01*
X74117380Y-44028095D02*
X74165000Y-44075714D01*
X74165000Y-44075714D02*
X74212619Y-44170952D01*
X74212619Y-44170952D02*
X74212619Y-44456666D01*
X74212619Y-44456666D02*
X74165000Y-44551904D01*
X74165000Y-44551904D02*
X74117380Y-44599523D01*
X73641190Y-43409047D02*
X73593571Y-43504285D01*
X73593571Y-43504285D02*
X73545952Y-43551904D01*
X73545952Y-43551904D02*
X73450714Y-43599523D01*
X73450714Y-43599523D02*
X73403095Y-43599523D01*
X73403095Y-43599523D02*
X73307857Y-43551904D01*
X73307857Y-43551904D02*
X73260238Y-43504285D01*
X73260238Y-43504285D02*
X73212619Y-43409047D01*
X73212619Y-43409047D02*
X73212619Y-43218571D01*
X73212619Y-43218571D02*
X73260238Y-43123333D01*
X73260238Y-43123333D02*
X73307857Y-43075714D01*
X73307857Y-43075714D02*
X73403095Y-43028095D01*
X73403095Y-43028095D02*
X73450714Y-43028095D01*
X73450714Y-43028095D02*
X73545952Y-43075714D01*
X73545952Y-43075714D02*
X73593571Y-43123333D01*
X73593571Y-43123333D02*
X73641190Y-43218571D01*
X73641190Y-43218571D02*
X73641190Y-43409047D01*
X73641190Y-43409047D02*
X73688809Y-43504285D01*
X73688809Y-43504285D02*
X73736428Y-43551904D01*
X73736428Y-43551904D02*
X73831666Y-43599523D01*
X73831666Y-43599523D02*
X74022142Y-43599523D01*
X74022142Y-43599523D02*
X74117380Y-43551904D01*
X74117380Y-43551904D02*
X74165000Y-43504285D01*
X74165000Y-43504285D02*
X74212619Y-43409047D01*
X74212619Y-43409047D02*
X74212619Y-43218571D01*
X74212619Y-43218571D02*
X74165000Y-43123333D01*
X74165000Y-43123333D02*
X74117380Y-43075714D01*
X74117380Y-43075714D02*
X74022142Y-43028095D01*
X74022142Y-43028095D02*
X73831666Y-43028095D01*
X73831666Y-43028095D02*
X73736428Y-43075714D01*
X73736428Y-43075714D02*
X73688809Y-43123333D01*
X73688809Y-43123333D02*
X73641190Y-43218571D01*
%TO.C,R1*%
X72733333Y-138062619D02*
X72400000Y-137586428D01*
X72161905Y-138062619D02*
X72161905Y-137062619D01*
X72161905Y-137062619D02*
X72542857Y-137062619D01*
X72542857Y-137062619D02*
X72638095Y-137110238D01*
X72638095Y-137110238D02*
X72685714Y-137157857D01*
X72685714Y-137157857D02*
X72733333Y-137253095D01*
X72733333Y-137253095D02*
X72733333Y-137395952D01*
X72733333Y-137395952D02*
X72685714Y-137491190D01*
X72685714Y-137491190D02*
X72638095Y-137538809D01*
X72638095Y-137538809D02*
X72542857Y-137586428D01*
X72542857Y-137586428D02*
X72161905Y-137586428D01*
X73685714Y-138062619D02*
X73114286Y-138062619D01*
X73400000Y-138062619D02*
X73400000Y-137062619D01*
X73400000Y-137062619D02*
X73304762Y-137205476D01*
X73304762Y-137205476D02*
X73209524Y-137300714D01*
X73209524Y-137300714D02*
X73114286Y-137348333D01*
%TO.C,R13*%
X87557142Y-120092619D02*
X87223809Y-119616428D01*
X86985714Y-120092619D02*
X86985714Y-119092619D01*
X86985714Y-119092619D02*
X87366666Y-119092619D01*
X87366666Y-119092619D02*
X87461904Y-119140238D01*
X87461904Y-119140238D02*
X87509523Y-119187857D01*
X87509523Y-119187857D02*
X87557142Y-119283095D01*
X87557142Y-119283095D02*
X87557142Y-119425952D01*
X87557142Y-119425952D02*
X87509523Y-119521190D01*
X87509523Y-119521190D02*
X87461904Y-119568809D01*
X87461904Y-119568809D02*
X87366666Y-119616428D01*
X87366666Y-119616428D02*
X86985714Y-119616428D01*
X88509523Y-120092619D02*
X87938095Y-120092619D01*
X88223809Y-120092619D02*
X88223809Y-119092619D01*
X88223809Y-119092619D02*
X88128571Y-119235476D01*
X88128571Y-119235476D02*
X88033333Y-119330714D01*
X88033333Y-119330714D02*
X87938095Y-119378333D01*
X88842857Y-119092619D02*
X89461904Y-119092619D01*
X89461904Y-119092619D02*
X89128571Y-119473571D01*
X89128571Y-119473571D02*
X89271428Y-119473571D01*
X89271428Y-119473571D02*
X89366666Y-119521190D01*
X89366666Y-119521190D02*
X89414285Y-119568809D01*
X89414285Y-119568809D02*
X89461904Y-119664047D01*
X89461904Y-119664047D02*
X89461904Y-119902142D01*
X89461904Y-119902142D02*
X89414285Y-119997380D01*
X89414285Y-119997380D02*
X89366666Y-120045000D01*
X89366666Y-120045000D02*
X89271428Y-120092619D01*
X89271428Y-120092619D02*
X88985714Y-120092619D01*
X88985714Y-120092619D02*
X88890476Y-120045000D01*
X88890476Y-120045000D02*
X88842857Y-119997380D01*
%TO.C,R8*%
X51692619Y-131286666D02*
X51216428Y-131619999D01*
X51692619Y-131858094D02*
X50692619Y-131858094D01*
X50692619Y-131858094D02*
X50692619Y-131477142D01*
X50692619Y-131477142D02*
X50740238Y-131381904D01*
X50740238Y-131381904D02*
X50787857Y-131334285D01*
X50787857Y-131334285D02*
X50883095Y-131286666D01*
X50883095Y-131286666D02*
X51025952Y-131286666D01*
X51025952Y-131286666D02*
X51121190Y-131334285D01*
X51121190Y-131334285D02*
X51168809Y-131381904D01*
X51168809Y-131381904D02*
X51216428Y-131477142D01*
X51216428Y-131477142D02*
X51216428Y-131858094D01*
X51121190Y-130715237D02*
X51073571Y-130810475D01*
X51073571Y-130810475D02*
X51025952Y-130858094D01*
X51025952Y-130858094D02*
X50930714Y-130905713D01*
X50930714Y-130905713D02*
X50883095Y-130905713D01*
X50883095Y-130905713D02*
X50787857Y-130858094D01*
X50787857Y-130858094D02*
X50740238Y-130810475D01*
X50740238Y-130810475D02*
X50692619Y-130715237D01*
X50692619Y-130715237D02*
X50692619Y-130524761D01*
X50692619Y-130524761D02*
X50740238Y-130429523D01*
X50740238Y-130429523D02*
X50787857Y-130381904D01*
X50787857Y-130381904D02*
X50883095Y-130334285D01*
X50883095Y-130334285D02*
X50930714Y-130334285D01*
X50930714Y-130334285D02*
X51025952Y-130381904D01*
X51025952Y-130381904D02*
X51073571Y-130429523D01*
X51073571Y-130429523D02*
X51121190Y-130524761D01*
X51121190Y-130524761D02*
X51121190Y-130715237D01*
X51121190Y-130715237D02*
X51168809Y-130810475D01*
X51168809Y-130810475D02*
X51216428Y-130858094D01*
X51216428Y-130858094D02*
X51311666Y-130905713D01*
X51311666Y-130905713D02*
X51502142Y-130905713D01*
X51502142Y-130905713D02*
X51597380Y-130858094D01*
X51597380Y-130858094D02*
X51645000Y-130810475D01*
X51645000Y-130810475D02*
X51692619Y-130715237D01*
X51692619Y-130715237D02*
X51692619Y-130524761D01*
X51692619Y-130524761D02*
X51645000Y-130429523D01*
X51645000Y-130429523D02*
X51597380Y-130381904D01*
X51597380Y-130381904D02*
X51502142Y-130334285D01*
X51502142Y-130334285D02*
X51311666Y-130334285D01*
X51311666Y-130334285D02*
X51216428Y-130381904D01*
X51216428Y-130381904D02*
X51168809Y-130429523D01*
X51168809Y-130429523D02*
X51121190Y-130524761D01*
%TO.C,RM13*%
X100882619Y-122144285D02*
X100406428Y-122477618D01*
X100882619Y-122715713D02*
X99882619Y-122715713D01*
X99882619Y-122715713D02*
X99882619Y-122334761D01*
X99882619Y-122334761D02*
X99930238Y-122239523D01*
X99930238Y-122239523D02*
X99977857Y-122191904D01*
X99977857Y-122191904D02*
X100073095Y-122144285D01*
X100073095Y-122144285D02*
X100215952Y-122144285D01*
X100215952Y-122144285D02*
X100311190Y-122191904D01*
X100311190Y-122191904D02*
X100358809Y-122239523D01*
X100358809Y-122239523D02*
X100406428Y-122334761D01*
X100406428Y-122334761D02*
X100406428Y-122715713D01*
X100882619Y-121715713D02*
X99882619Y-121715713D01*
X99882619Y-121715713D02*
X100596904Y-121382380D01*
X100596904Y-121382380D02*
X99882619Y-121049047D01*
X99882619Y-121049047D02*
X100882619Y-121049047D01*
X100882619Y-120049047D02*
X100882619Y-120620475D01*
X100882619Y-120334761D02*
X99882619Y-120334761D01*
X99882619Y-120334761D02*
X100025476Y-120429999D01*
X100025476Y-120429999D02*
X100120714Y-120525237D01*
X100120714Y-120525237D02*
X100168333Y-120620475D01*
X99882619Y-119715713D02*
X99882619Y-119096666D01*
X99882619Y-119096666D02*
X100263571Y-119429999D01*
X100263571Y-119429999D02*
X100263571Y-119287142D01*
X100263571Y-119287142D02*
X100311190Y-119191904D01*
X100311190Y-119191904D02*
X100358809Y-119144285D01*
X100358809Y-119144285D02*
X100454047Y-119096666D01*
X100454047Y-119096666D02*
X100692142Y-119096666D01*
X100692142Y-119096666D02*
X100787380Y-119144285D01*
X100787380Y-119144285D02*
X100835000Y-119191904D01*
X100835000Y-119191904D02*
X100882619Y-119287142D01*
X100882619Y-119287142D02*
X100882619Y-119572856D01*
X100882619Y-119572856D02*
X100835000Y-119668094D01*
X100835000Y-119668094D02*
X100787380Y-119715713D01*
%TO.C,R11*%
X87457142Y-110972619D02*
X87123809Y-110496428D01*
X86885714Y-110972619D02*
X86885714Y-109972619D01*
X86885714Y-109972619D02*
X87266666Y-109972619D01*
X87266666Y-109972619D02*
X87361904Y-110020238D01*
X87361904Y-110020238D02*
X87409523Y-110067857D01*
X87409523Y-110067857D02*
X87457142Y-110163095D01*
X87457142Y-110163095D02*
X87457142Y-110305952D01*
X87457142Y-110305952D02*
X87409523Y-110401190D01*
X87409523Y-110401190D02*
X87361904Y-110448809D01*
X87361904Y-110448809D02*
X87266666Y-110496428D01*
X87266666Y-110496428D02*
X86885714Y-110496428D01*
X88409523Y-110972619D02*
X87838095Y-110972619D01*
X88123809Y-110972619D02*
X88123809Y-109972619D01*
X88123809Y-109972619D02*
X88028571Y-110115476D01*
X88028571Y-110115476D02*
X87933333Y-110210714D01*
X87933333Y-110210714D02*
X87838095Y-110258333D01*
X89361904Y-110972619D02*
X88790476Y-110972619D01*
X89076190Y-110972619D02*
X89076190Y-109972619D01*
X89076190Y-109972619D02*
X88980952Y-110115476D01*
X88980952Y-110115476D02*
X88885714Y-110210714D01*
X88885714Y-110210714D02*
X88790476Y-110258333D01*
%TO.C,R6*%
X96323333Y-139312619D02*
X95990000Y-138836428D01*
X95751905Y-139312619D02*
X95751905Y-138312619D01*
X95751905Y-138312619D02*
X96132857Y-138312619D01*
X96132857Y-138312619D02*
X96228095Y-138360238D01*
X96228095Y-138360238D02*
X96275714Y-138407857D01*
X96275714Y-138407857D02*
X96323333Y-138503095D01*
X96323333Y-138503095D02*
X96323333Y-138645952D01*
X96323333Y-138645952D02*
X96275714Y-138741190D01*
X96275714Y-138741190D02*
X96228095Y-138788809D01*
X96228095Y-138788809D02*
X96132857Y-138836428D01*
X96132857Y-138836428D02*
X95751905Y-138836428D01*
X97180476Y-138312619D02*
X96990000Y-138312619D01*
X96990000Y-138312619D02*
X96894762Y-138360238D01*
X96894762Y-138360238D02*
X96847143Y-138407857D01*
X96847143Y-138407857D02*
X96751905Y-138550714D01*
X96751905Y-138550714D02*
X96704286Y-138741190D01*
X96704286Y-138741190D02*
X96704286Y-139122142D01*
X96704286Y-139122142D02*
X96751905Y-139217380D01*
X96751905Y-139217380D02*
X96799524Y-139265000D01*
X96799524Y-139265000D02*
X96894762Y-139312619D01*
X96894762Y-139312619D02*
X97085238Y-139312619D01*
X97085238Y-139312619D02*
X97180476Y-139265000D01*
X97180476Y-139265000D02*
X97228095Y-139217380D01*
X97228095Y-139217380D02*
X97275714Y-139122142D01*
X97275714Y-139122142D02*
X97275714Y-138884047D01*
X97275714Y-138884047D02*
X97228095Y-138788809D01*
X97228095Y-138788809D02*
X97180476Y-138741190D01*
X97180476Y-138741190D02*
X97085238Y-138693571D01*
X97085238Y-138693571D02*
X96894762Y-138693571D01*
X96894762Y-138693571D02*
X96799524Y-138741190D01*
X96799524Y-138741190D02*
X96751905Y-138788809D01*
X96751905Y-138788809D02*
X96704286Y-138884047D01*
%TO.C,R10*%
X110462619Y-130842857D02*
X109986428Y-131176190D01*
X110462619Y-131414285D02*
X109462619Y-131414285D01*
X109462619Y-131414285D02*
X109462619Y-131033333D01*
X109462619Y-131033333D02*
X109510238Y-130938095D01*
X109510238Y-130938095D02*
X109557857Y-130890476D01*
X109557857Y-130890476D02*
X109653095Y-130842857D01*
X109653095Y-130842857D02*
X109795952Y-130842857D01*
X109795952Y-130842857D02*
X109891190Y-130890476D01*
X109891190Y-130890476D02*
X109938809Y-130938095D01*
X109938809Y-130938095D02*
X109986428Y-131033333D01*
X109986428Y-131033333D02*
X109986428Y-131414285D01*
X110462619Y-129890476D02*
X110462619Y-130461904D01*
X110462619Y-130176190D02*
X109462619Y-130176190D01*
X109462619Y-130176190D02*
X109605476Y-130271428D01*
X109605476Y-130271428D02*
X109700714Y-130366666D01*
X109700714Y-130366666D02*
X109748333Y-130461904D01*
X109462619Y-129271428D02*
X109462619Y-129176190D01*
X109462619Y-129176190D02*
X109510238Y-129080952D01*
X109510238Y-129080952D02*
X109557857Y-129033333D01*
X109557857Y-129033333D02*
X109653095Y-128985714D01*
X109653095Y-128985714D02*
X109843571Y-128938095D01*
X109843571Y-128938095D02*
X110081666Y-128938095D01*
X110081666Y-128938095D02*
X110272142Y-128985714D01*
X110272142Y-128985714D02*
X110367380Y-129033333D01*
X110367380Y-129033333D02*
X110415000Y-129080952D01*
X110415000Y-129080952D02*
X110462619Y-129176190D01*
X110462619Y-129176190D02*
X110462619Y-129271428D01*
X110462619Y-129271428D02*
X110415000Y-129366666D01*
X110415000Y-129366666D02*
X110367380Y-129414285D01*
X110367380Y-129414285D02*
X110272142Y-129461904D01*
X110272142Y-129461904D02*
X110081666Y-129509523D01*
X110081666Y-129509523D02*
X109843571Y-129509523D01*
X109843571Y-129509523D02*
X109653095Y-129461904D01*
X109653095Y-129461904D02*
X109557857Y-129414285D01*
X109557857Y-129414285D02*
X109510238Y-129366666D01*
X109510238Y-129366666D02*
X109462619Y-129271428D01*
%TO.C,H3*%
X88138095Y-97662619D02*
X88138095Y-96662619D01*
X88138095Y-97138809D02*
X88709523Y-97138809D01*
X88709523Y-97662619D02*
X88709523Y-96662619D01*
X89090476Y-96662619D02*
X89709523Y-96662619D01*
X89709523Y-96662619D02*
X89376190Y-97043571D01*
X89376190Y-97043571D02*
X89519047Y-97043571D01*
X89519047Y-97043571D02*
X89614285Y-97091190D01*
X89614285Y-97091190D02*
X89661904Y-97138809D01*
X89661904Y-97138809D02*
X89709523Y-97234047D01*
X89709523Y-97234047D02*
X89709523Y-97472142D01*
X89709523Y-97472142D02*
X89661904Y-97567380D01*
X89661904Y-97567380D02*
X89614285Y-97615000D01*
X89614285Y-97615000D02*
X89519047Y-97662619D01*
X89519047Y-97662619D02*
X89233333Y-97662619D01*
X89233333Y-97662619D02*
X89138095Y-97615000D01*
X89138095Y-97615000D02*
X89090476Y-97567380D01*
%TO.C,R12*%
X87467142Y-113972619D02*
X87133809Y-113496428D01*
X86895714Y-113972619D02*
X86895714Y-112972619D01*
X86895714Y-112972619D02*
X87276666Y-112972619D01*
X87276666Y-112972619D02*
X87371904Y-113020238D01*
X87371904Y-113020238D02*
X87419523Y-113067857D01*
X87419523Y-113067857D02*
X87467142Y-113163095D01*
X87467142Y-113163095D02*
X87467142Y-113305952D01*
X87467142Y-113305952D02*
X87419523Y-113401190D01*
X87419523Y-113401190D02*
X87371904Y-113448809D01*
X87371904Y-113448809D02*
X87276666Y-113496428D01*
X87276666Y-113496428D02*
X86895714Y-113496428D01*
X88419523Y-113972619D02*
X87848095Y-113972619D01*
X88133809Y-113972619D02*
X88133809Y-112972619D01*
X88133809Y-112972619D02*
X88038571Y-113115476D01*
X88038571Y-113115476D02*
X87943333Y-113210714D01*
X87943333Y-113210714D02*
X87848095Y-113258333D01*
X88800476Y-113067857D02*
X88848095Y-113020238D01*
X88848095Y-113020238D02*
X88943333Y-112972619D01*
X88943333Y-112972619D02*
X89181428Y-112972619D01*
X89181428Y-112972619D02*
X89276666Y-113020238D01*
X89276666Y-113020238D02*
X89324285Y-113067857D01*
X89324285Y-113067857D02*
X89371904Y-113163095D01*
X89371904Y-113163095D02*
X89371904Y-113258333D01*
X89371904Y-113258333D02*
X89324285Y-113401190D01*
X89324285Y-113401190D02*
X88752857Y-113972619D01*
X88752857Y-113972619D02*
X89371904Y-113972619D01*
%TO.C,M2*%
X80590476Y-82052619D02*
X80590476Y-81052619D01*
X80590476Y-81052619D02*
X80923809Y-81766904D01*
X80923809Y-81766904D02*
X81257142Y-81052619D01*
X81257142Y-81052619D02*
X81257142Y-82052619D01*
X81685714Y-81147857D02*
X81733333Y-81100238D01*
X81733333Y-81100238D02*
X81828571Y-81052619D01*
X81828571Y-81052619D02*
X82066666Y-81052619D01*
X82066666Y-81052619D02*
X82161904Y-81100238D01*
X82161904Y-81100238D02*
X82209523Y-81147857D01*
X82209523Y-81147857D02*
X82257142Y-81243095D01*
X82257142Y-81243095D02*
X82257142Y-81338333D01*
X82257142Y-81338333D02*
X82209523Y-81481190D01*
X82209523Y-81481190D02*
X81638095Y-82052619D01*
X81638095Y-82052619D02*
X82257142Y-82052619D01*
%TO.C,RM8*%
X72482619Y-121768095D02*
X72006428Y-122101428D01*
X72482619Y-122339523D02*
X71482619Y-122339523D01*
X71482619Y-122339523D02*
X71482619Y-121958571D01*
X71482619Y-121958571D02*
X71530238Y-121863333D01*
X71530238Y-121863333D02*
X71577857Y-121815714D01*
X71577857Y-121815714D02*
X71673095Y-121768095D01*
X71673095Y-121768095D02*
X71815952Y-121768095D01*
X71815952Y-121768095D02*
X71911190Y-121815714D01*
X71911190Y-121815714D02*
X71958809Y-121863333D01*
X71958809Y-121863333D02*
X72006428Y-121958571D01*
X72006428Y-121958571D02*
X72006428Y-122339523D01*
X72482619Y-121339523D02*
X71482619Y-121339523D01*
X71482619Y-121339523D02*
X72196904Y-121006190D01*
X72196904Y-121006190D02*
X71482619Y-120672857D01*
X71482619Y-120672857D02*
X72482619Y-120672857D01*
X71911190Y-120053809D02*
X71863571Y-120149047D01*
X71863571Y-120149047D02*
X71815952Y-120196666D01*
X71815952Y-120196666D02*
X71720714Y-120244285D01*
X71720714Y-120244285D02*
X71673095Y-120244285D01*
X71673095Y-120244285D02*
X71577857Y-120196666D01*
X71577857Y-120196666D02*
X71530238Y-120149047D01*
X71530238Y-120149047D02*
X71482619Y-120053809D01*
X71482619Y-120053809D02*
X71482619Y-119863333D01*
X71482619Y-119863333D02*
X71530238Y-119768095D01*
X71530238Y-119768095D02*
X71577857Y-119720476D01*
X71577857Y-119720476D02*
X71673095Y-119672857D01*
X71673095Y-119672857D02*
X71720714Y-119672857D01*
X71720714Y-119672857D02*
X71815952Y-119720476D01*
X71815952Y-119720476D02*
X71863571Y-119768095D01*
X71863571Y-119768095D02*
X71911190Y-119863333D01*
X71911190Y-119863333D02*
X71911190Y-120053809D01*
X71911190Y-120053809D02*
X71958809Y-120149047D01*
X71958809Y-120149047D02*
X72006428Y-120196666D01*
X72006428Y-120196666D02*
X72101666Y-120244285D01*
X72101666Y-120244285D02*
X72292142Y-120244285D01*
X72292142Y-120244285D02*
X72387380Y-120196666D01*
X72387380Y-120196666D02*
X72435000Y-120149047D01*
X72435000Y-120149047D02*
X72482619Y-120053809D01*
X72482619Y-120053809D02*
X72482619Y-119863333D01*
X72482619Y-119863333D02*
X72435000Y-119768095D01*
X72435000Y-119768095D02*
X72387380Y-119720476D01*
X72387380Y-119720476D02*
X72292142Y-119672857D01*
X72292142Y-119672857D02*
X72101666Y-119672857D01*
X72101666Y-119672857D02*
X72006428Y-119720476D01*
X72006428Y-119720476D02*
X71958809Y-119768095D01*
X71958809Y-119768095D02*
X71911190Y-119863333D01*
%TO.C,RM6*%
X65182619Y-121768095D02*
X64706428Y-122101428D01*
X65182619Y-122339523D02*
X64182619Y-122339523D01*
X64182619Y-122339523D02*
X64182619Y-121958571D01*
X64182619Y-121958571D02*
X64230238Y-121863333D01*
X64230238Y-121863333D02*
X64277857Y-121815714D01*
X64277857Y-121815714D02*
X64373095Y-121768095D01*
X64373095Y-121768095D02*
X64515952Y-121768095D01*
X64515952Y-121768095D02*
X64611190Y-121815714D01*
X64611190Y-121815714D02*
X64658809Y-121863333D01*
X64658809Y-121863333D02*
X64706428Y-121958571D01*
X64706428Y-121958571D02*
X64706428Y-122339523D01*
X65182619Y-121339523D02*
X64182619Y-121339523D01*
X64182619Y-121339523D02*
X64896904Y-121006190D01*
X64896904Y-121006190D02*
X64182619Y-120672857D01*
X64182619Y-120672857D02*
X65182619Y-120672857D01*
X64182619Y-119768095D02*
X64182619Y-119958571D01*
X64182619Y-119958571D02*
X64230238Y-120053809D01*
X64230238Y-120053809D02*
X64277857Y-120101428D01*
X64277857Y-120101428D02*
X64420714Y-120196666D01*
X64420714Y-120196666D02*
X64611190Y-120244285D01*
X64611190Y-120244285D02*
X64992142Y-120244285D01*
X64992142Y-120244285D02*
X65087380Y-120196666D01*
X65087380Y-120196666D02*
X65135000Y-120149047D01*
X65135000Y-120149047D02*
X65182619Y-120053809D01*
X65182619Y-120053809D02*
X65182619Y-119863333D01*
X65182619Y-119863333D02*
X65135000Y-119768095D01*
X65135000Y-119768095D02*
X65087380Y-119720476D01*
X65087380Y-119720476D02*
X64992142Y-119672857D01*
X64992142Y-119672857D02*
X64754047Y-119672857D01*
X64754047Y-119672857D02*
X64658809Y-119720476D01*
X64658809Y-119720476D02*
X64611190Y-119768095D01*
X64611190Y-119768095D02*
X64563571Y-119863333D01*
X64563571Y-119863333D02*
X64563571Y-120053809D01*
X64563571Y-120053809D02*
X64611190Y-120149047D01*
X64611190Y-120149047D02*
X64658809Y-120196666D01*
X64658809Y-120196666D02*
X64754047Y-120244285D01*
%TO.C,M10*%
X76014286Y-107392619D02*
X76014286Y-106392619D01*
X76014286Y-106392619D02*
X76347619Y-107106904D01*
X76347619Y-107106904D02*
X76680952Y-106392619D01*
X76680952Y-106392619D02*
X76680952Y-107392619D01*
X77680952Y-107392619D02*
X77109524Y-107392619D01*
X77395238Y-107392619D02*
X77395238Y-106392619D01*
X77395238Y-106392619D02*
X77300000Y-106535476D01*
X77300000Y-106535476D02*
X77204762Y-106630714D01*
X77204762Y-106630714D02*
X77109524Y-106678333D01*
X78300000Y-106392619D02*
X78395238Y-106392619D01*
X78395238Y-106392619D02*
X78490476Y-106440238D01*
X78490476Y-106440238D02*
X78538095Y-106487857D01*
X78538095Y-106487857D02*
X78585714Y-106583095D01*
X78585714Y-106583095D02*
X78633333Y-106773571D01*
X78633333Y-106773571D02*
X78633333Y-107011666D01*
X78633333Y-107011666D02*
X78585714Y-107202142D01*
X78585714Y-107202142D02*
X78538095Y-107297380D01*
X78538095Y-107297380D02*
X78490476Y-107345000D01*
X78490476Y-107345000D02*
X78395238Y-107392619D01*
X78395238Y-107392619D02*
X78300000Y-107392619D01*
X78300000Y-107392619D02*
X78204762Y-107345000D01*
X78204762Y-107345000D02*
X78157143Y-107297380D01*
X78157143Y-107297380D02*
X78109524Y-107202142D01*
X78109524Y-107202142D02*
X78061905Y-107011666D01*
X78061905Y-107011666D02*
X78061905Y-106773571D01*
X78061905Y-106773571D02*
X78109524Y-106583095D01*
X78109524Y-106583095D02*
X78157143Y-106487857D01*
X78157143Y-106487857D02*
X78204762Y-106440238D01*
X78204762Y-106440238D02*
X78300000Y-106392619D01*
D12*
%TO.C,Q4*%
X100970000Y-133860000D02*
X100970000Y-129219000D01*
X100970000Y-133860000D02*
X90730000Y-133860000D01*
X100970000Y-132350000D02*
X90730000Y-132350000D01*
X100970000Y-129219000D02*
X90730000Y-129219000D01*
X97700000Y-133860000D02*
X97700000Y-132350000D01*
X93999000Y-133860000D02*
X93999000Y-132350000D01*
X90730000Y-133860000D02*
X90730000Y-129219000D01*
%TO.C,RM5*%
X73500000Y-95340000D02*
X73500000Y-95960000D01*
X74420000Y-94420000D02*
G75*
G03*
X74420000Y-94420000I-920000J0D01*
G01*
%TO.C,RM10*%
X77400000Y-120630000D02*
X77400000Y-121250000D01*
X78320000Y-119710000D02*
G75*
G03*
X78320000Y-119710000I-920000J0D01*
G01*
%TO.C,M18*%
X87270000Y-82630000D02*
X88600000Y-82630000D01*
X87270000Y-83960000D02*
X87270000Y-82630000D01*
X87270000Y-85230000D02*
X87270000Y-92910000D01*
X87270000Y-85230000D02*
X89930000Y-85230000D01*
X87270000Y-92910000D02*
X89930000Y-92910000D01*
X89930000Y-85230000D02*
X89930000Y-92910000D01*
%TO.C,R7*%
X56600000Y-135160000D02*
X56600000Y-134390000D01*
X55230000Y-134390000D02*
X57970000Y-134390000D01*
X57970000Y-134390000D02*
X57970000Y-127850000D01*
X55230000Y-127850000D02*
X55230000Y-134390000D01*
X57970000Y-127850000D02*
X55230000Y-127850000D01*
X56600000Y-127080000D02*
X56600000Y-127850000D01*
%TO.C,R2*%
X88860000Y-140870000D02*
X82320000Y-140870000D01*
X88860000Y-140540000D02*
X88860000Y-140870000D01*
X88860000Y-138460000D02*
X88860000Y-138130000D01*
X88860000Y-138130000D02*
X82320000Y-138130000D01*
X82320000Y-140870000D02*
X82320000Y-140540000D01*
X82320000Y-138130000D02*
X82320000Y-138460000D01*
%TO.C,M3*%
X76470000Y-82590000D02*
X77800000Y-82590000D01*
X76470000Y-83920000D02*
X76470000Y-82590000D01*
X76470000Y-85190000D02*
X76470000Y-92870000D01*
X76470000Y-85190000D02*
X79130000Y-85190000D01*
X76470000Y-92870000D02*
X79130000Y-92870000D01*
X79130000Y-85190000D02*
X79130000Y-92870000D01*
%TO.C,C7*%
X111040000Y-39200000D02*
G75*
G03*
X111040000Y-39200000I-2620000J0D01*
G01*
%TO.C,J6*%
X118510000Y-103870000D02*
X118510000Y-105200000D01*
X117180000Y-103870000D02*
X118510000Y-103870000D01*
X115910000Y-103870000D02*
X110770000Y-103870000D01*
X115910000Y-103870000D02*
X115910000Y-106530000D01*
X110770000Y-103870000D02*
X110770000Y-106530000D01*
X115910000Y-106530000D02*
X110770000Y-106530000D01*
%TO.C,RM21*%
X97600000Y-95300000D02*
X97600000Y-95920000D01*
X98520000Y-94380000D02*
G75*
G03*
X98520000Y-94380000I-920000J0D01*
G01*
%TO.C,RM14*%
X95000000Y-120600000D02*
X95000000Y-121220000D01*
X95920000Y-119680000D02*
G75*
G03*
X95920000Y-119680000I-920000J0D01*
G01*
%TO.C,R4*%
X100430000Y-134630000D02*
X106970000Y-134630000D01*
X100430000Y-134960000D02*
X100430000Y-134630000D01*
X100430000Y-137040000D02*
X100430000Y-137370000D01*
X100430000Y-137370000D02*
X106970000Y-137370000D01*
X106970000Y-134630000D02*
X106970000Y-134960000D01*
X106970000Y-137370000D02*
X106970000Y-137040000D01*
%TO.C,M19*%
X90870000Y-82630000D02*
X92200000Y-82630000D01*
X90870000Y-83960000D02*
X90870000Y-82630000D01*
X90870000Y-85230000D02*
X90870000Y-92910000D01*
X90870000Y-85230000D02*
X93530000Y-85230000D01*
X90870000Y-92910000D02*
X93530000Y-92910000D01*
X93530000Y-85230000D02*
X93530000Y-92910000D01*
D13*
%TO.C,U3*%
X91939200Y-36251540D02*
X92574200Y-36886540D01*
X91939200Y-36251540D02*
X92574200Y-35616540D01*
X95749200Y-36251540D02*
X91939200Y-36251540D01*
X95749200Y-36251540D02*
X95749200Y-32441540D01*
X95749200Y-32441540D02*
X95114200Y-33076540D01*
X95749200Y-32441540D02*
X96384200Y-33076540D01*
D14*
X81959540Y-29441800D02*
G75*
G03*
X81959540Y-29441800I-1399540J0D01*
G01*
X97199540Y-29441800D02*
G75*
G03*
X97199540Y-29441800I-1399540J0D01*
G01*
D12*
%TO.C,J7*%
X99160000Y-71000000D02*
X99160000Y-74000000D01*
X99160000Y-71000000D02*
X107260000Y-71000000D01*
X107260000Y-74000000D02*
X99160000Y-74000000D01*
X107260000Y-74000000D02*
X107260000Y-71000000D01*
%TO.C,M23*%
X109250000Y-42160000D02*
X109250000Y-43490000D01*
X107920000Y-42160000D02*
X109250000Y-42160000D01*
X106650000Y-42160000D02*
X98970000Y-42160000D01*
X106650000Y-42160000D02*
X106650000Y-44820000D01*
X98970000Y-42160000D02*
X98970000Y-44820000D01*
X106650000Y-44820000D02*
X98970000Y-44820000D01*
%TO.C,J5*%
X118470000Y-100270000D02*
X118470000Y-101600000D01*
X117140000Y-100270000D02*
X118470000Y-100270000D01*
X115870000Y-100270000D02*
X110730000Y-100270000D01*
X115870000Y-100270000D02*
X115870000Y-102930000D01*
X110730000Y-100270000D02*
X110730000Y-102930000D01*
X115870000Y-102930000D02*
X110730000Y-102930000D01*
%TO.C,C9*%
X52640000Y-51610000D02*
X52640000Y-49605000D01*
X52640000Y-51610000D02*
X43400000Y-51610000D01*
X52640000Y-48275000D02*
X52640000Y-46270000D01*
X52640000Y-46270000D02*
X43400000Y-46270000D01*
X43400000Y-51610000D02*
X43400000Y-49605000D01*
X43400000Y-48275000D02*
X43400000Y-46270000D01*
%TO.C,R5*%
X110520000Y-139000000D02*
X109750000Y-139000000D01*
X109750000Y-140370000D02*
X109750000Y-137630000D01*
X109750000Y-137630000D02*
X103210000Y-137630000D01*
X103210000Y-140370000D02*
X109750000Y-140370000D01*
X103210000Y-137630000D02*
X103210000Y-140370000D01*
X102440000Y-139000000D02*
X103210000Y-139000000D01*
%TO.C,Q8*%
X101030000Y-128275000D02*
X101030000Y-123634000D01*
X101030000Y-128275000D02*
X90790000Y-128275000D01*
X101030000Y-126765000D02*
X90790000Y-126765000D01*
X101030000Y-123634000D02*
X90790000Y-123634000D01*
X97760000Y-128275000D02*
X97760000Y-126765000D01*
X94059000Y-128275000D02*
X94059000Y-126765000D01*
X90790000Y-128275000D02*
X90790000Y-123634000D01*
%TO.C,Q7*%
X103010000Y-128420000D02*
X106610000Y-128420000D01*
X104810000Y-123970001D02*
G75*
G03*
X102453601Y-125471193I0J-2599999D01*
G01*
X102485817Y-127692795D02*
G75*
G03*
X103010001Y-128419999I2324183J1122795D01*
G01*
X107166400Y-125471193D02*
G75*
G03*
X104810000Y-123970000I-2356400J-1098807D01*
G01*
X106609999Y-128419999D02*
G75*
G03*
X107134183Y-127692795I-1799999J1849999D01*
G01*
%TO.C,M4*%
X72870000Y-82590000D02*
X74200000Y-82590000D01*
X72870000Y-83920000D02*
X72870000Y-82590000D01*
X72870000Y-85190000D02*
X72870000Y-92870000D01*
X72870000Y-85190000D02*
X75530000Y-85190000D01*
X72870000Y-92870000D02*
X75530000Y-92870000D01*
X75530000Y-85190000D02*
X75530000Y-92870000D01*
%TO.C,C8*%
X56940000Y-36760000D02*
X54935000Y-36760000D01*
X56940000Y-36760000D02*
X56940000Y-46000000D01*
X53605000Y-36760000D02*
X51600000Y-36760000D01*
X51600000Y-36760000D02*
X51600000Y-46000000D01*
X56940000Y-46000000D02*
X54935000Y-46000000D01*
X53605000Y-46000000D02*
X51600000Y-46000000D01*
%TO.C,R35*%
X114470000Y-128130000D02*
X114470000Y-134670000D01*
X114140000Y-128130000D02*
X114470000Y-128130000D01*
X112060000Y-128130000D02*
X111730000Y-128130000D01*
X111730000Y-128130000D02*
X111730000Y-134670000D01*
X114470000Y-134670000D02*
X114140000Y-134670000D01*
X111730000Y-134670000D02*
X112060000Y-134670000D01*
%TO.C,J9*%
X80260000Y-49370000D02*
X87940000Y-49370000D01*
X80260000Y-49370000D02*
X80260000Y-46710000D01*
X87940000Y-49370000D02*
X87940000Y-46710000D01*
X77660000Y-48040000D02*
X77660000Y-46710000D01*
X77660000Y-46710000D02*
X78990000Y-46710000D01*
X80260000Y-46710000D02*
X87940000Y-46710000D01*
%TO.C,R3*%
X66402500Y-136470000D02*
X59862500Y-136470000D01*
X66402500Y-136140000D02*
X66402500Y-136470000D01*
X66402500Y-134060000D02*
X66402500Y-133730000D01*
X66402500Y-133730000D02*
X59862500Y-133730000D01*
X59862500Y-136470000D02*
X59862500Y-136140000D01*
X59862500Y-133730000D02*
X59862500Y-134060000D01*
%TO.C,RM23*%
X100590000Y-39650000D02*
X104430000Y-39650000D01*
X100590000Y-41490000D02*
X104430000Y-41490000D01*
%TO.C,M12*%
X93570000Y-107830000D02*
X94900000Y-107830000D01*
X93570000Y-109160000D02*
X93570000Y-107830000D01*
X93570000Y-110430000D02*
X93570000Y-118110000D01*
X93570000Y-110430000D02*
X96230000Y-110430000D01*
X93570000Y-118110000D02*
X96230000Y-118110000D01*
X96230000Y-110430000D02*
X96230000Y-118110000D01*
%TO.C,C1*%
X56225000Y-112590000D02*
X56225000Y-110585000D01*
X56225000Y-112590000D02*
X46985000Y-112590000D01*
X56225000Y-109255000D02*
X56225000Y-107250000D01*
X56225000Y-107250000D02*
X46985000Y-107250000D01*
X46985000Y-112590000D02*
X46985000Y-110585000D01*
X46985000Y-109255000D02*
X46985000Y-107250000D01*
%TO.C,RM7*%
X66400000Y-120680000D02*
X66400000Y-121300000D01*
X67320000Y-119760000D02*
G75*
G03*
X67320000Y-119760000I-920000J0D01*
G01*
%TO.C,J4*%
X76950000Y-55080000D02*
X120250000Y-55080000D01*
X76950000Y-55080000D02*
X76950000Y-52480000D01*
X120250000Y-55080000D02*
X120250000Y-49880000D01*
X76950000Y-52480000D02*
X79550000Y-52480000D01*
X79550000Y-52480000D02*
X79550000Y-49880000D01*
X76950000Y-51210000D02*
X76950000Y-49880000D01*
X76950000Y-49880000D02*
X78280000Y-49880000D01*
X79550000Y-49880000D02*
X120250000Y-49880000D01*
%TO.C,M8*%
X68770000Y-107930000D02*
X70100000Y-107930000D01*
X68770000Y-109260000D02*
X68770000Y-107930000D01*
X68770000Y-110530000D02*
X68770000Y-118210000D01*
X68770000Y-110530000D02*
X71430000Y-110530000D01*
X68770000Y-118210000D02*
X71430000Y-118210000D01*
X71430000Y-110530000D02*
X71430000Y-118210000D01*
%TO.C,Q6*%
X76540000Y-123830000D02*
X76540000Y-128471000D01*
X76540000Y-123830000D02*
X86780000Y-123830000D01*
X76540000Y-125340000D02*
X86780000Y-125340000D01*
X76540000Y-128471000D02*
X86780000Y-128471000D01*
X79810000Y-123830000D02*
X79810000Y-125340000D01*
X83511000Y-123830000D02*
X83511000Y-125340000D01*
X86780000Y-123830000D02*
X86780000Y-128471000D01*
%TO.C,RM17*%
X112900000Y-120600000D02*
X112900000Y-121220000D01*
X113820000Y-119680000D02*
G75*
G03*
X113820000Y-119680000I-920000J0D01*
G01*
%TO.C,RM15*%
X105700000Y-120600000D02*
X105700000Y-121220000D01*
X106620000Y-119680000D02*
G75*
G03*
X106620000Y-119680000I-920000J0D01*
G01*
%TO.C,RM18*%
X88600000Y-95320000D02*
X88600000Y-95940000D01*
X89520000Y-94400000D02*
G75*
G03*
X89520000Y-94400000I-920000J0D01*
G01*
%TO.C,RM1*%
X85400000Y-95340000D02*
X85400000Y-95960000D01*
X86320000Y-94420000D02*
G75*
G03*
X86320000Y-94420000I-920000J0D01*
G01*
%TO.C,RM4*%
X76300000Y-95340000D02*
X76300000Y-95960000D01*
X77220000Y-94420000D02*
G75*
G03*
X77220000Y-94420000I-920000J0D01*
G01*
%TO.C,J10*%
X91460000Y-48660000D02*
X99140000Y-48660000D01*
X91460000Y-48660000D02*
X91460000Y-46000000D01*
X99140000Y-48660000D02*
X99140000Y-46000000D01*
X88860000Y-47330000D02*
X88860000Y-46000000D01*
X88860000Y-46000000D02*
X90190000Y-46000000D01*
X91460000Y-46000000D02*
X99140000Y-46000000D01*
%TO.C,U1*%
X52535000Y-50190000D02*
X63455000Y-50190000D01*
X52535000Y-52190000D02*
X52535000Y-50190000D01*
X48135000Y-52190000D02*
X52535000Y-52190000D01*
X61375000Y-54430000D02*
X63455000Y-54430000D01*
X61375000Y-54430000D02*
X61375000Y-60190000D01*
X48135000Y-55145000D02*
X46255000Y-55145000D01*
X48135000Y-55655000D02*
X46255000Y-55655000D01*
X48135000Y-57055000D02*
X46255000Y-57055000D01*
X48135000Y-57565000D02*
X46255000Y-57565000D01*
X48135000Y-58965000D02*
X46255000Y-58965000D01*
X48135000Y-59475000D02*
X46255000Y-59475000D01*
X61375000Y-60190000D02*
X63455000Y-60190000D01*
X52535000Y-62430000D02*
X52535000Y-64430000D01*
X48135000Y-62430000D02*
X48135000Y-52190000D01*
X48135000Y-62430000D02*
X52535000Y-62430000D01*
X52535000Y-64430000D02*
X63455000Y-64430000D01*
%TO.C,R17*%
X72640000Y-56150000D02*
X79180000Y-56150000D01*
X72640000Y-56480000D02*
X72640000Y-56150000D01*
X72640000Y-58560000D02*
X72640000Y-58890000D01*
X72640000Y-58890000D02*
X79180000Y-58890000D01*
X79180000Y-56150000D02*
X79180000Y-56480000D01*
X79180000Y-58890000D02*
X79180000Y-58560000D01*
%TO.C,M17*%
X111570000Y-107830000D02*
X112900000Y-107830000D01*
X111570000Y-109160000D02*
X111570000Y-107830000D01*
X111570000Y-110430000D02*
X111570000Y-118110000D01*
X111570000Y-110430000D02*
X114230000Y-110430000D01*
X111570000Y-118110000D02*
X114230000Y-118110000D01*
X114230000Y-110430000D02*
X114230000Y-118110000D01*
%TO.C,M11*%
X79570000Y-107910000D02*
X80900000Y-107910000D01*
X79570000Y-109240000D02*
X79570000Y-107910000D01*
X79570000Y-110510000D02*
X79570000Y-118190000D01*
X79570000Y-110510000D02*
X82230000Y-110510000D01*
X79570000Y-118190000D02*
X82230000Y-118190000D01*
X82230000Y-110510000D02*
X82230000Y-118190000D01*
%TO.C,Q2*%
X76580000Y-129775000D02*
X76580000Y-134416000D01*
X76580000Y-129775000D02*
X86820000Y-129775000D01*
X76580000Y-131285000D02*
X86820000Y-131285000D01*
X76580000Y-134416000D02*
X86820000Y-134416000D01*
X79850000Y-129775000D02*
X79850000Y-131285000D01*
X83551000Y-129775000D02*
X83551000Y-131285000D01*
X86820000Y-129775000D02*
X86820000Y-134416000D01*
%TO.C,C6*%
X56725000Y-101820000D02*
G75*
G03*
X56725000Y-101820000I-5120000J0D01*
G01*
%TO.C,C2*%
X54640000Y-115440000D02*
G75*
G03*
X54640000Y-115440000I-2620000J0D01*
G01*
%TO.C,M9*%
X72370000Y-107930000D02*
X73700000Y-107930000D01*
X72370000Y-109260000D02*
X72370000Y-107930000D01*
X72370000Y-110530000D02*
X72370000Y-118210000D01*
X72370000Y-110530000D02*
X75030000Y-110530000D01*
X72370000Y-118210000D02*
X75030000Y-118210000D01*
X75030000Y-110530000D02*
X75030000Y-118210000D01*
%TO.C,RM11*%
X73700000Y-120600000D02*
X73700000Y-121220000D01*
X74620000Y-119680000D02*
G75*
G03*
X74620000Y-119680000I-920000J0D01*
G01*
%TO.C,R39*%
X101260000Y-45860000D02*
X107800000Y-45860000D01*
X101260000Y-46190000D02*
X101260000Y-45860000D01*
X101260000Y-48270000D02*
X101260000Y-48600000D01*
X101260000Y-48600000D02*
X107800000Y-48600000D01*
X107800000Y-45860000D02*
X107800000Y-46190000D01*
X107800000Y-48600000D02*
X107800000Y-48270000D01*
%TO.C,M13*%
X97170000Y-107830000D02*
X98500000Y-107830000D01*
X97170000Y-109160000D02*
X97170000Y-107830000D01*
X97170000Y-110430000D02*
X97170000Y-118110000D01*
X97170000Y-110430000D02*
X99830000Y-110430000D01*
X97170000Y-118110000D02*
X99830000Y-118110000D01*
X99830000Y-110430000D02*
X99830000Y-118110000D01*
%TO.C,M20*%
X94470000Y-82630000D02*
X95800000Y-82630000D01*
X94470000Y-83960000D02*
X94470000Y-82630000D01*
X94470000Y-85230000D02*
X94470000Y-92910000D01*
X94470000Y-85230000D02*
X97130000Y-85230000D01*
X94470000Y-92910000D02*
X97130000Y-92910000D01*
X97130000Y-85230000D02*
X97130000Y-92910000D01*
%TO.C,M15*%
X104370000Y-107830000D02*
X105700000Y-107830000D01*
X104370000Y-109160000D02*
X104370000Y-107830000D01*
X104370000Y-110430000D02*
X104370000Y-118110000D01*
X104370000Y-110430000D02*
X107030000Y-110430000D01*
X104370000Y-118110000D02*
X107030000Y-118110000D01*
X107030000Y-110430000D02*
X107030000Y-118110000D01*
%TO.C,Q5*%
X74600000Y-125690000D02*
X71000000Y-125690000D01*
X72800000Y-130139999D02*
G75*
G03*
X75156399Y-128638807I0J2599999D01*
G01*
X75124183Y-126417205D02*
G75*
G03*
X74599999Y-125690001I-2324183J-1122795D01*
G01*
X70443600Y-128638807D02*
G75*
G03*
X72800000Y-130140000I2356400J1098807D01*
G01*
X71000001Y-125690001D02*
G75*
G03*
X70475817Y-126417205I1799999J-1849999D01*
G01*
%TO.C,M1*%
X83670000Y-82590000D02*
X85000000Y-82590000D01*
X83670000Y-83920000D02*
X83670000Y-82590000D01*
X83670000Y-85190000D02*
X83670000Y-92870000D01*
X83670000Y-85190000D02*
X86330000Y-85190000D01*
X83670000Y-92870000D02*
X86330000Y-92870000D01*
X86330000Y-85190000D02*
X86330000Y-92870000D01*
%TO.C,RM20*%
X94900000Y-95320000D02*
X94900000Y-95940000D01*
X95820000Y-94400000D02*
G75*
G03*
X95820000Y-94400000I-920000J0D01*
G01*
%TO.C,M5*%
X69270000Y-82590000D02*
X70600000Y-82590000D01*
X69270000Y-83920000D02*
X69270000Y-82590000D01*
X69270000Y-85190000D02*
X69270000Y-92870000D01*
X69270000Y-85190000D02*
X71930000Y-85190000D01*
X69270000Y-92870000D02*
X71930000Y-92870000D01*
X71930000Y-85190000D02*
X71930000Y-92870000D01*
%TO.C,J3*%
X74050000Y-66140000D02*
X117350000Y-66140000D01*
X74050000Y-66140000D02*
X74050000Y-63540000D01*
X117350000Y-66140000D02*
X117350000Y-60940000D01*
X74050000Y-63540000D02*
X76650000Y-63540000D01*
X76650000Y-63540000D02*
X76650000Y-60940000D01*
X74050000Y-62270000D02*
X74050000Y-60940000D01*
X74050000Y-60940000D02*
X75380000Y-60940000D01*
X76650000Y-60940000D02*
X117350000Y-60940000D01*
%TO.C,RM16*%
X109400000Y-120600000D02*
X109400000Y-121220000D01*
X110320000Y-119680000D02*
G75*
G03*
X110320000Y-119680000I-920000J0D01*
G01*
%TO.C,Q3*%
X103050000Y-134460000D02*
X106650000Y-134460000D01*
X104850000Y-130010001D02*
G75*
G03*
X102493601Y-131511193I0J-2599999D01*
G01*
X102525817Y-133732795D02*
G75*
G03*
X103050001Y-134459999I2324183J1122795D01*
G01*
X107206400Y-131511193D02*
G75*
G03*
X104850000Y-130010000I-2356400J-1098807D01*
G01*
X106649999Y-134459999D02*
G75*
G03*
X107174183Y-133732795I-1799999J1849999D01*
G01*
%TO.C,RM12*%
X102100000Y-120580000D02*
X102100000Y-121200000D01*
X103020000Y-119660000D02*
G75*
G03*
X103020000Y-119660000I-920000J0D01*
G01*
%TO.C,M16*%
X107970000Y-107830000D02*
X109300000Y-107830000D01*
X107970000Y-109160000D02*
X107970000Y-107830000D01*
X107970000Y-110430000D02*
X107970000Y-118110000D01*
X107970000Y-110430000D02*
X110630000Y-110430000D01*
X107970000Y-118110000D02*
X110630000Y-118110000D01*
X110630000Y-110430000D02*
X110630000Y-118110000D01*
%TO.C,M6*%
X61570000Y-107930000D02*
X62900000Y-107930000D01*
X61570000Y-109260000D02*
X61570000Y-107930000D01*
X61570000Y-110530000D02*
X61570000Y-118210000D01*
X61570000Y-110530000D02*
X64230000Y-110530000D01*
X61570000Y-118210000D02*
X64230000Y-118210000D01*
X64230000Y-110530000D02*
X64230000Y-118210000D01*
%TO.C,Q1*%
X74700000Y-131390000D02*
X71100000Y-131390000D01*
X72900000Y-135839999D02*
G75*
G03*
X75256399Y-134338807I0J2599999D01*
G01*
X75224183Y-132117205D02*
G75*
G03*
X74699999Y-131390001I-2324183J-1122795D01*
G01*
X70543600Y-134338807D02*
G75*
G03*
X72900000Y-135840000I2356400J1098807D01*
G01*
X71100001Y-131390001D02*
G75*
G03*
X70575817Y-132117205I1799999J-1849999D01*
G01*
%TO.C,RM19*%
X92300000Y-95320000D02*
X92300000Y-95940000D01*
X93220000Y-94400000D02*
G75*
G03*
X93220000Y-94400000I-920000J0D01*
G01*
%TO.C,M7*%
X65170000Y-107930000D02*
X66500000Y-107930000D01*
X65170000Y-109260000D02*
X65170000Y-107930000D01*
X65170000Y-110530000D02*
X65170000Y-118210000D01*
X65170000Y-110530000D02*
X67830000Y-110530000D01*
X65170000Y-118210000D02*
X67830000Y-118210000D01*
X67830000Y-110530000D02*
X67830000Y-118210000D01*
%TO.C,M21*%
X98070000Y-82630000D02*
X99400000Y-82630000D01*
X98070000Y-83960000D02*
X98070000Y-82630000D01*
X98070000Y-85230000D02*
X98070000Y-92910000D01*
X98070000Y-85230000D02*
X100730000Y-85230000D01*
X98070000Y-92910000D02*
X100730000Y-92910000D01*
X100730000Y-85230000D02*
X100730000Y-92910000D01*
%TO.C,R9*%
X66470000Y-126570000D02*
X59930000Y-126570000D01*
X66470000Y-126240000D02*
X66470000Y-126570000D01*
X66470000Y-124160000D02*
X66470000Y-123830000D01*
X66470000Y-123830000D02*
X59930000Y-123830000D01*
X59930000Y-126570000D02*
X59930000Y-126240000D01*
X59930000Y-123830000D02*
X59930000Y-124160000D01*
%TO.C,C5*%
X56725000Y-91320000D02*
G75*
G03*
X56725000Y-91320000I-5120000J0D01*
G01*
%TO.C,RM2*%
X82300000Y-95340000D02*
X82300000Y-95960000D01*
X83220000Y-94420000D02*
G75*
G03*
X83220000Y-94420000I-920000J0D01*
G01*
%TO.C,M24*%
X54210000Y-72290000D02*
X54210000Y-73620000D01*
X52880000Y-72290000D02*
X54210000Y-72290000D01*
X51610000Y-72290000D02*
X49010000Y-72290000D01*
X51610000Y-72290000D02*
X51610000Y-74950000D01*
X49010000Y-72290000D02*
X49010000Y-74950000D01*
X51610000Y-74950000D02*
X49010000Y-74950000D01*
%TO.C,RM3*%
X78900000Y-95340000D02*
X78900000Y-95960000D01*
X79820000Y-94420000D02*
G75*
G03*
X79820000Y-94420000I-920000J0D01*
G01*
%TO.C,R16*%
X84830000Y-117530000D02*
X91370000Y-117530000D01*
X84830000Y-117860000D02*
X84830000Y-117530000D01*
X84830000Y-119940000D02*
X84830000Y-120270000D01*
X84830000Y-120270000D02*
X91370000Y-120270000D01*
X91370000Y-117530000D02*
X91370000Y-117860000D01*
X91370000Y-120270000D02*
X91370000Y-119940000D01*
%TO.C,M25*%
X54210000Y-68690000D02*
X54210000Y-70020000D01*
X52880000Y-68690000D02*
X54210000Y-68690000D01*
X51610000Y-68690000D02*
X49010000Y-68690000D01*
X51610000Y-68690000D02*
X51610000Y-71350000D01*
X49010000Y-68690000D02*
X49010000Y-71350000D01*
X51610000Y-71350000D02*
X49010000Y-71350000D01*
%TO.C,J2*%
X115410000Y-74870000D02*
X67030000Y-74870000D01*
X115410000Y-74870000D02*
X115410000Y-77470000D01*
X67030000Y-74870000D02*
X67030000Y-80070000D01*
X115410000Y-77470000D02*
X112810000Y-77470000D01*
X112810000Y-77470000D02*
X112810000Y-80070000D01*
X115410000Y-78740000D02*
X115410000Y-80070000D01*
X115410000Y-80070000D02*
X114080000Y-80070000D01*
X112810000Y-80070000D02*
X67030000Y-80070000D01*
%TO.C,RM22*%
X100400000Y-95300000D02*
X100400000Y-95920000D01*
X101320000Y-94380000D02*
G75*
G03*
X101320000Y-94380000I-920000J0D01*
G01*
%TO.C,J8*%
X80280000Y-45770000D02*
X87960000Y-45770000D01*
X80280000Y-45770000D02*
X80280000Y-43110000D01*
X87960000Y-45770000D02*
X87960000Y-43110000D01*
X77680000Y-44440000D02*
X77680000Y-43110000D01*
X77680000Y-43110000D02*
X79010000Y-43110000D01*
X80280000Y-43110000D02*
X87960000Y-43110000D01*
%TO.C,C3*%
X54640000Y-120910000D02*
G75*
G03*
X54640000Y-120910000I-2620000J0D01*
G01*
%TO.C,C4*%
X56725000Y-80720000D02*
G75*
G03*
X56725000Y-80720000I-5120000J0D01*
G01*
%TO.C,R34*%
X117370000Y-126170000D02*
X110830000Y-126170000D01*
X117370000Y-125840000D02*
X117370000Y-126170000D01*
X117370000Y-123760000D02*
X117370000Y-123430000D01*
X117370000Y-123430000D02*
X110830000Y-123430000D01*
X110830000Y-126170000D02*
X110830000Y-125840000D01*
X110830000Y-123430000D02*
X110830000Y-123760000D01*
%TO.C,M22*%
X101670000Y-82650000D02*
X103000000Y-82650000D01*
X101670000Y-83980000D02*
X101670000Y-82650000D01*
X101670000Y-85250000D02*
X101670000Y-92930000D01*
X101670000Y-85250000D02*
X104330000Y-85250000D01*
X101670000Y-92930000D02*
X104330000Y-92930000D01*
X104330000Y-85250000D02*
X104330000Y-92930000D01*
D13*
%TO.C,J1*%
X57370000Y-29265750D02*
X57370000Y-47465750D01*
X57370000Y-47465750D02*
X59342000Y-47465750D01*
X63698000Y-47465750D02*
X66542000Y-47465750D01*
X67660000Y-49775750D02*
X68930000Y-49775750D01*
X68930000Y-49775750D02*
X68930000Y-48505750D01*
X68930000Y-49775750D02*
X68930000Y-51045750D01*
X70200000Y-49775750D02*
X68930000Y-49775750D01*
X72870000Y-29265750D02*
X57370000Y-29265750D01*
X72870000Y-47465750D02*
X70898000Y-47465750D01*
X72870000Y-47465750D02*
X72870000Y-29265750D01*
D12*
%TO.C,RM9*%
X81000000Y-120600000D02*
X81000000Y-121220000D01*
X81920000Y-119680000D02*
G75*
G03*
X81920000Y-119680000I-920000J0D01*
G01*
%TO.C,M14*%
X100770000Y-107830000D02*
X102100000Y-107830000D01*
X100770000Y-109160000D02*
X100770000Y-107830000D01*
X100770000Y-110430000D02*
X100770000Y-118110000D01*
X100770000Y-110430000D02*
X103430000Y-110430000D01*
X100770000Y-118110000D02*
X103430000Y-118110000D01*
X103430000Y-110430000D02*
X103430000Y-118110000D01*
%TO.C,R38*%
X74750000Y-47560000D02*
X74750000Y-41020000D01*
X75080000Y-47560000D02*
X74750000Y-47560000D01*
X77160000Y-47560000D02*
X77490000Y-47560000D01*
X77490000Y-47560000D02*
X77490000Y-41020000D01*
X74750000Y-41020000D02*
X75080000Y-41020000D01*
X77490000Y-41020000D02*
X77160000Y-41020000D01*
%TO.C,R1*%
X77770000Y-138870000D02*
X71230000Y-138870000D01*
X77770000Y-138540000D02*
X77770000Y-138870000D01*
X77770000Y-136460000D02*
X77770000Y-136130000D01*
X77770000Y-136130000D02*
X71230000Y-136130000D01*
X71230000Y-138870000D02*
X71230000Y-138540000D01*
X71230000Y-136130000D02*
X71230000Y-136460000D01*
%TO.C,R13*%
X84930000Y-120630000D02*
X91470000Y-120630000D01*
X84930000Y-120960000D02*
X84930000Y-120630000D01*
X84930000Y-123040000D02*
X84930000Y-123370000D01*
X84930000Y-123370000D02*
X91470000Y-123370000D01*
X91470000Y-120630000D02*
X91470000Y-120960000D01*
X91470000Y-123370000D02*
X91470000Y-123040000D01*
%TO.C,R8*%
X53600000Y-135160000D02*
X53600000Y-134390000D01*
X52230000Y-134390000D02*
X54970000Y-134390000D01*
X54970000Y-134390000D02*
X54970000Y-127850000D01*
X52230000Y-127850000D02*
X52230000Y-134390000D01*
X54970000Y-127850000D02*
X52230000Y-127850000D01*
X53600000Y-127080000D02*
X53600000Y-127850000D01*
%TO.C,RM13*%
X98500000Y-120580000D02*
X98500000Y-121200000D01*
X99420000Y-119660000D02*
G75*
G03*
X99420000Y-119660000I-920000J0D01*
G01*
%TO.C,R11*%
X84830000Y-111510000D02*
X91370000Y-111510000D01*
X84830000Y-111840000D02*
X84830000Y-111510000D01*
X84830000Y-113920000D02*
X84830000Y-114250000D01*
X84830000Y-114250000D02*
X91370000Y-114250000D01*
X91370000Y-111510000D02*
X91370000Y-111840000D01*
X91370000Y-114250000D02*
X91370000Y-113920000D01*
%TO.C,R6*%
X98770000Y-140370000D02*
X92230000Y-140370000D01*
X98770000Y-140040000D02*
X98770000Y-140370000D01*
X98770000Y-137960000D02*
X98770000Y-137630000D01*
X98770000Y-137630000D02*
X92230000Y-137630000D01*
X92230000Y-140370000D02*
X92230000Y-140040000D01*
X92230000Y-137630000D02*
X92230000Y-137960000D01*
%TO.C,R10*%
X108630000Y-134670000D02*
X108630000Y-128130000D01*
X108960000Y-134670000D02*
X108630000Y-134670000D01*
X111040000Y-134670000D02*
X111370000Y-134670000D01*
X111370000Y-134670000D02*
X111370000Y-128130000D01*
X108630000Y-128130000D02*
X108960000Y-128130000D01*
X111370000Y-128130000D02*
X111040000Y-128130000D01*
%TO.C,R12*%
X84840000Y-114510000D02*
X91380000Y-114510000D01*
X84840000Y-114840000D02*
X84840000Y-114510000D01*
X84840000Y-116920000D02*
X84840000Y-117250000D01*
X84840000Y-117250000D02*
X91380000Y-117250000D01*
X91380000Y-114510000D02*
X91380000Y-114840000D01*
X91380000Y-117250000D02*
X91380000Y-116920000D01*
%TO.C,M2*%
X80070000Y-82590000D02*
X81400000Y-82590000D01*
X80070000Y-83920000D02*
X80070000Y-82590000D01*
X80070000Y-85190000D02*
X80070000Y-92870000D01*
X80070000Y-85190000D02*
X82730000Y-85190000D01*
X80070000Y-92870000D02*
X82730000Y-92870000D01*
X82730000Y-85190000D02*
X82730000Y-92870000D01*
%TO.C,RM8*%
X70100000Y-120680000D02*
X70100000Y-121300000D01*
X71020000Y-119760000D02*
G75*
G03*
X71020000Y-119760000I-920000J0D01*
G01*
%TO.C,RM6*%
X62800000Y-120680000D02*
X62800000Y-121300000D01*
X63720000Y-119760000D02*
G75*
G03*
X63720000Y-119760000I-920000J0D01*
G01*
%TO.C,M10*%
X75970000Y-107930000D02*
X77300000Y-107930000D01*
X75970000Y-109260000D02*
X75970000Y-107930000D01*
X75970000Y-110530000D02*
X75970000Y-118210000D01*
X75970000Y-110530000D02*
X78630000Y-110530000D01*
X75970000Y-118210000D02*
X78630000Y-118210000D01*
X78630000Y-110530000D02*
X78630000Y-118210000D01*
%TD*%
M02*
