M48
; DRILL file {KiCad 7.0.2} date Fri Jul 14 13:18:32 2023
; FORMAT={-:-/ absolute / inch / decimal}
; #@! TF.CreationDate,2023-07-14T13:18:32-03:00
; #@! TF.GenerationSoftware,Kicad,Pcbnew,7.0.2
; #@! TF.FileFunction,Plated,1,4,PTH
FMAT,2
INCH
; #@! TA.AperFunction,Plated,PTH,ComponentDrill
T1C0.0197
; #@! TA.AperFunction,Plated,PTH,ComponentDrill
T2C0.0236
; #@! TA.AperFunction,Plated,PTH,ComponentDrill
T3C0.0276
; #@! TA.AperFunction,Plated,PTH,ComponentDrill
T4C0.0315
; #@! TA.AperFunction,Plated,PTH,ComponentDrill
T5C0.0394
; #@! TA.AperFunction,Plated,PTH,ComponentDrill
T6C0.0433
; #@! TA.AperFunction,Plated,PTH,ComponentDrill
T7C0.0512
; #@! TA.AperFunction,Plated,PTH,ComponentDrill
T8C0.0787
; #@! TA.AperFunction,Plated,PTH,ComponentDrill
T9C0.1063
%
G90
G05
T1
X2.5474Y-1.9807
X2.5474Y-2.0331
X2.5474Y-2.0858
X2.5474Y-2.1382
X2.5474Y-2.3744
X2.5474Y-2.4268
X2.5474Y-2.4795
X2.5474Y-2.5319
X2.5628Y-1.9335
X2.5628Y-2.1854
X2.5628Y-2.3272
X2.5628Y-2.5791
X2.6033Y-1.9039
X2.6033Y-2.215
X2.6033Y-2.2976
X2.6033Y-2.6087
X2.653Y-1.9039
X2.653Y-2.215
X2.653Y-2.2976
X2.653Y-2.6087
X2.6935Y-1.9335
X2.6935Y-2.1854
X2.6935Y-2.3272
X2.6935Y-2.5791
X2.7089Y-1.9807
X2.7089Y-2.0331
X2.7089Y-2.0858
X2.7089Y-2.1382
X2.7089Y-2.3744
X2.7089Y-2.4268
X2.7089Y-2.4795
X2.7089Y-2.5319
T3
X2.4724Y-4.715
X2.4724Y-4.815
X2.6142Y-4.715
X2.6142Y-4.815
X2.7598Y-4.715
X2.7598Y-4.815
X2.8937Y-3.7173
X2.8937Y-3.8173
X2.9016Y-4.7118
X2.9016Y-4.8118
X3.0039Y-3.7173
X3.0039Y-3.8173
X3.0472Y-4.713
X3.0472Y-4.813
X3.1063Y-3.7173
X3.1063Y-3.8173
X3.189Y-4.7118
X3.189Y-4.8118
X3.2402Y-3.7173
X3.2402Y-3.8173
X3.3622Y-3.7173
X3.3622Y-3.8173
X3.4882Y-3.7165
X3.4882Y-3.8165
X3.6339Y-3.7165
X3.6339Y-3.8165
X3.7362Y-3.7165
X3.7362Y-3.8165
X3.7402Y-4.7118
X3.7402Y-4.8118
X3.8425Y-3.7157
X3.8425Y-3.8157
X3.878Y-4.711
X3.878Y-4.811
X3.9358Y-1.5972
X3.9528Y-3.7157
X3.9528Y-3.8157
X4.0197Y-4.711
X4.0197Y-4.811
X4.1358Y-1.5972
X4.1614Y-4.7118
X4.1614Y-4.8118
X4.3071Y-4.7118
X4.3071Y-4.8118
X4.4449Y-4.7118
X4.4449Y-4.8118
T4
X1.7429Y-1.9268
X1.7856Y-2.1811
X1.7856Y-2.2563
X1.7856Y-2.3315
X1.8841Y-4.3276
X1.9333Y-3.178
X1.9333Y-3.5953
X1.9333Y-4.0087
X2.0087Y-4.5449
X2.0087Y-4.7602
X2.0382Y-1.9268
X2.0874Y-4.5449
X2.0874Y-4.7602
X2.1102Y-4.9622
X2.1102Y-5.3622
X2.1301Y-3.178
X2.1301Y-3.5953
X2.1301Y-4.0087
X2.1366Y-1.4815
X2.1366Y-1.7768
X2.1793Y-4.3276
X2.2283Y-4.9622
X2.2283Y-5.3622
X2.3355Y-5.3189
X2.3382Y-4.9291
X2.6355Y-5.3189
X2.6382Y-4.9291
X2.7661Y-5.0213
X2.7701Y-5.2457
X2.7831Y-5.4134
X2.8386Y-2.2646
X2.8661Y-5.0213
X2.8701Y-5.2457
X2.9661Y-5.0213
X2.9701Y-5.2457
X2.9969Y-1.5937
X2.9969Y-1.8937
X3.0831Y-5.4134
X3.1386Y-2.2646
X3.2197Y-5.4921
X3.3185Y-4.4441
X3.3185Y-4.6811
X3.3189Y-4.5622
X3.3224Y-4.8031
X3.5197Y-5.4921
X3.6098Y-5.4724
X3.6185Y-4.4441
X3.6185Y-4.6811
X3.6189Y-4.5622
X3.6224Y-4.8031
X3.9098Y-5.4724
X3.9327Y-5.3543
X3.9654Y-1.8594
X3.9921Y-5.4724
X4.0264Y-4.9831
X4.028Y-5.2209
X4.1264Y-4.9831
X4.128Y-5.2209
X4.2264Y-4.9831
X4.228Y-5.2209
X4.2327Y-5.3543
X4.2654Y-1.8594
X4.2685Y-1.5039
X4.2685Y-1.5827
X4.3307Y-5.0232
X4.3307Y-5.3232
X4.3421Y-4.9134
X4.3921Y-5.4724
X4.4528Y-5.0232
X4.4528Y-5.3232
X4.6421Y-4.9134
T5
X1.9819Y-2.7567
X1.9819Y-2.8984
X2.0819Y-2.7567
X2.0819Y-2.8984
X2.4764Y-4.3016
X2.4764Y-4.4016
X2.4764Y-4.5016
X2.4764Y-4.6016
X2.6181Y-4.3016
X2.6181Y-4.4016
X2.6181Y-4.5016
X2.6181Y-4.6016
X2.6913Y-3.0
X2.6913Y-3.1
X2.7598Y-4.3016
X2.7598Y-4.4016
X2.7598Y-4.5016
X2.7598Y-4.6016
X2.7795Y-3.3039
X2.7795Y-3.4039
X2.7795Y-3.5039
X2.7795Y-3.6039
X2.7913Y-3.0
X2.7913Y-3.1
X2.8913Y-3.0
X2.8913Y-3.1
X2.9016Y-4.3016
X2.9016Y-4.4016
X2.9016Y-4.5016
X2.9016Y-4.6016
X2.9213Y-3.3039
X2.9213Y-3.4039
X2.9213Y-3.5039
X2.9213Y-3.6039
X2.9677Y-2.4516
X2.9677Y-2.5516
X2.9913Y-3.0
X2.9913Y-3.1
X3.0433Y-4.3016
X3.0433Y-4.4016
X3.0433Y-4.5016
X3.0433Y-4.6016
X3.063Y-3.3039
X3.063Y-3.4039
X3.063Y-3.5039
X3.063Y-3.6039
X3.0677Y-2.4516
X3.0677Y-2.5516
X3.0819Y-2.0161
X3.0819Y-2.1161
X3.0913Y-3.0
X3.0913Y-3.1
X3.1098Y-1.8913
X3.1106Y-1.7496
X3.1217Y-1.5921
X3.1677Y-2.4516
X3.1677Y-2.5516
X3.1819Y-2.0161
X3.1819Y-2.1161
X3.185Y-4.3008
X3.185Y-4.4008
X3.185Y-4.5008
X3.185Y-4.6008
X3.1913Y-3.0
X3.1913Y-3.1
X3.2047Y-3.3039
X3.2047Y-3.4039
X3.2047Y-3.5039
X3.2047Y-3.6039
X3.2098Y-1.8913
X3.2106Y-1.7496
X3.2217Y-1.5921
X3.2677Y-2.4516
X3.2677Y-2.5516
X3.2819Y-2.0161
X3.2819Y-2.1161
X3.2839Y-2.8827
X3.2913Y-3.0
X3.2913Y-3.1
X3.3098Y-1.8913
X3.3106Y-1.7496
X3.3217Y-1.5921
X3.3465Y-3.3039
X3.3465Y-3.4039
X3.3465Y-3.5039
X3.3465Y-3.6039
X3.3677Y-2.4516
X3.3677Y-2.5516
X3.3819Y-2.0161
X3.3819Y-2.1161
X3.3839Y-2.8827
X3.3913Y-3.0
X3.3913Y-3.1
X3.4098Y-1.8913
X3.4106Y-1.7496
X3.4217Y-1.5921
X3.4677Y-2.4516
X3.4677Y-2.5516
X3.4819Y-2.0161
X3.4819Y-2.1161
X3.4839Y-2.8827
X3.4882Y-3.3055
X3.4882Y-3.4055
X3.4882Y-3.5055
X3.4882Y-3.6055
X3.4913Y-3.0
X3.4913Y-3.1
X3.5217Y-1.5921
X3.5508Y-1.8634
X3.5677Y-2.4516
X3.5677Y-2.5516
X3.5819Y-2.0161
X3.5819Y-2.1161
X3.5839Y-2.8827
X3.5913Y-3.0
X3.5913Y-3.1
X3.6217Y-1.5921
X3.6299Y-3.3055
X3.6299Y-3.4055
X3.6299Y-3.5055
X3.6299Y-3.6055
X3.6508Y-1.8634
X3.6677Y-2.4516
X3.6677Y-2.5516
X3.6819Y-2.0161
X3.6819Y-2.1161
X3.6839Y-2.8827
X3.6913Y-3.0
X3.6913Y-3.1
X3.7217Y-1.5921
X3.7362Y-4.2976
X3.7362Y-4.3976
X3.7362Y-4.4976
X3.7362Y-4.5976
X3.7508Y-1.8634
X3.7677Y-2.4516
X3.7677Y-2.5516
X3.7717Y-3.3055
X3.7717Y-3.4055
X3.7717Y-3.5055
X3.7717Y-3.6055
X3.7819Y-2.0161
X3.7819Y-2.1161
X3.7839Y-2.8827
X3.7913Y-3.0
X3.7913Y-3.1
X3.8217Y-1.5921
X3.8508Y-1.8634
X3.8677Y-2.4516
X3.8677Y-2.5516
X3.878Y-4.2976
X3.878Y-4.3976
X3.878Y-4.4976
X3.878Y-4.5976
X3.8819Y-2.0161
X3.8819Y-2.1161
X3.8913Y-3.0
X3.8913Y-3.1
X3.9134Y-3.3055
X3.9134Y-3.4055
X3.9134Y-3.5055
X3.9134Y-3.6055
X3.9488Y-1.7122
X3.9677Y-2.4516
X3.9677Y-2.5516
X3.9819Y-2.0161
X3.9819Y-2.1161
X3.9913Y-3.0
X3.9913Y-3.1
X4.0197Y-4.2976
X4.0197Y-4.3976
X4.0197Y-4.4976
X4.0197Y-4.5976
X4.0488Y-1.7122
X4.0551Y-3.3063
X4.0551Y-3.4063
X4.0551Y-3.5063
X4.0551Y-3.6063
X4.0677Y-2.4516
X4.0677Y-2.5516
X4.0819Y-2.0161
X4.0819Y-2.1161
X4.0913Y-3.0
X4.0913Y-3.1
X4.1488Y-1.7122
X4.1614Y-4.2976
X4.1614Y-4.3976
X4.1614Y-4.4976
X4.1614Y-4.5976
X4.1677Y-2.4516
X4.1677Y-2.5516
X4.1819Y-2.0161
X4.1819Y-2.1161
X4.1913Y-3.0
X4.1913Y-3.1
X4.2488Y-1.7122
X4.2677Y-2.4516
X4.2677Y-2.5516
X4.2819Y-2.0161
X4.2819Y-2.1161
X4.2913Y-3.0
X4.2913Y-3.1
X4.3031Y-4.2976
X4.3031Y-4.3976
X4.3031Y-4.4976
X4.3031Y-4.5976
X4.3677Y-2.4516
X4.3677Y-2.5516
X4.3819Y-2.0161
X4.3819Y-2.1161
X4.3913Y-3.0
X4.3913Y-3.1
X4.4118Y-4.0
X4.4134Y-4.1417
X4.4449Y-4.2976
X4.4449Y-4.3976
X4.4449Y-4.4976
X4.4449Y-4.5976
X4.4677Y-2.4516
X4.4677Y-2.5516
X4.4819Y-2.0161
X4.4819Y-2.1161
X4.4913Y-3.0
X4.4913Y-3.1
X4.5118Y-4.0
X4.5134Y-4.1417
X4.5677Y-2.4516
X4.5677Y-2.5516
X4.5819Y-2.0161
X4.5819Y-2.1161
X4.6118Y-4.0
X4.6134Y-4.1417
X4.6819Y-2.0161
X4.6819Y-2.1161
T6
X3.115Y-5.0039
X3.1165Y-5.238
X3.215Y-5.0039
X3.2165Y-5.238
X3.315Y-5.0039
X3.3165Y-5.238
X3.6736Y-5.1413
X3.676Y-4.9215
X3.7736Y-5.1413
X3.776Y-4.9215
X3.8736Y-5.1413
X3.876Y-4.9215
T7
X3.963Y-2.8543
X4.163Y-2.8543
T9
X2.422Y-1.7959
X2.7055Y-1.7959
T2
G00X2.298Y-1.538
M15
G01X2.298Y-1.5813
M16
G05
G00X2.8295Y-1.538
M15
G01X2.8295Y-1.5813
M16
G05
T8
G00X2.6281Y-1.9807
M15
G01X2.6281Y-2.1382
M16
G05
G00X2.6281Y-2.3744
M15
G01X2.6281Y-2.5319
M16
G05
T0
M30
