%TF.GenerationSoftware,KiCad,Pcbnew,7.0.2*%
%TF.CreationDate,2023-07-14T13:18:19-03:00*%
%TF.ProjectId,HM_CENTRAL-02,484d5f43-454e-4545-9241-4c2d30322e6b,rev?*%
%TF.SameCoordinates,Original*%
%TF.FileFunction,Legend,Bot*%
%TF.FilePolarity,Positive*%
%FSLAX46Y46*%
G04 Gerber Fmt 4.6, Leading zero omitted, Abs format (unit mm)*
G04 Created by KiCad (PCBNEW 7.0.2) date 2023-07-14 13:18:19*
%MOMM*%
%LPD*%
G01*
G04 APERTURE LIST*
%ADD10C,0.150000*%
%ADD11C,0.120000*%
G04 APERTURE END LIST*
D10*
%TO.C,U2*%
X110592619Y-41408095D02*
X111402142Y-41408095D01*
X111402142Y-41408095D02*
X111497380Y-41455714D01*
X111497380Y-41455714D02*
X111545000Y-41503333D01*
X111545000Y-41503333D02*
X111592619Y-41598571D01*
X111592619Y-41598571D02*
X111592619Y-41789047D01*
X111592619Y-41789047D02*
X111545000Y-41884285D01*
X111545000Y-41884285D02*
X111497380Y-41931904D01*
X111497380Y-41931904D02*
X111402142Y-41979523D01*
X111402142Y-41979523D02*
X110592619Y-41979523D01*
X110687857Y-42408095D02*
X110640238Y-42455714D01*
X110640238Y-42455714D02*
X110592619Y-42550952D01*
X110592619Y-42550952D02*
X110592619Y-42789047D01*
X110592619Y-42789047D02*
X110640238Y-42884285D01*
X110640238Y-42884285D02*
X110687857Y-42931904D01*
X110687857Y-42931904D02*
X110783095Y-42979523D01*
X110783095Y-42979523D02*
X110878333Y-42979523D01*
X110878333Y-42979523D02*
X111021190Y-42931904D01*
X111021190Y-42931904D02*
X111592619Y-42360476D01*
X111592619Y-42360476D02*
X111592619Y-42979523D01*
%TO.C,J13*%
X79822619Y-72420476D02*
X80536904Y-72420476D01*
X80536904Y-72420476D02*
X80679761Y-72372857D01*
X80679761Y-72372857D02*
X80775000Y-72277619D01*
X80775000Y-72277619D02*
X80822619Y-72134762D01*
X80822619Y-72134762D02*
X80822619Y-72039524D01*
X80822619Y-73420476D02*
X80822619Y-72849048D01*
X80822619Y-73134762D02*
X79822619Y-73134762D01*
X79822619Y-73134762D02*
X79965476Y-73039524D01*
X79965476Y-73039524D02*
X80060714Y-72944286D01*
X80060714Y-72944286D02*
X80108333Y-72849048D01*
X79822619Y-73753810D02*
X79822619Y-74372857D01*
X79822619Y-74372857D02*
X80203571Y-74039524D01*
X80203571Y-74039524D02*
X80203571Y-74182381D01*
X80203571Y-74182381D02*
X80251190Y-74277619D01*
X80251190Y-74277619D02*
X80298809Y-74325238D01*
X80298809Y-74325238D02*
X80394047Y-74372857D01*
X80394047Y-74372857D02*
X80632142Y-74372857D01*
X80632142Y-74372857D02*
X80727380Y-74325238D01*
X80727380Y-74325238D02*
X80775000Y-74277619D01*
X80775000Y-74277619D02*
X80822619Y-74182381D01*
X80822619Y-74182381D02*
X80822619Y-73896667D01*
X80822619Y-73896667D02*
X80775000Y-73801429D01*
X80775000Y-73801429D02*
X80727380Y-73753810D01*
D11*
%TO.C,U2*%
X116740000Y-46270000D02*
X116740000Y-40260000D01*
X109920000Y-44020000D02*
X109920000Y-40260000D01*
X109920000Y-40260000D02*
X111180000Y-40260000D01*
X116740000Y-40260000D02*
X115480000Y-40260000D01*
%TO.C,J13*%
X97440000Y-71890000D02*
X97440000Y-74550000D01*
X84680000Y-71890000D02*
X97440000Y-71890000D01*
X84680000Y-71890000D02*
X84680000Y-74550000D01*
X82080000Y-73220000D02*
X82080000Y-74550000D01*
X84680000Y-74550000D02*
X97440000Y-74550000D01*
X82080000Y-74550000D02*
X83410000Y-74550000D01*
%TD*%
M02*
