%TF.GenerationSoftware,KiCad,Pcbnew,7.0.2*%
%TF.CreationDate,2023-07-14T13:18:19-03:00*%
%TF.ProjectId,HM_CENTRAL-02,484d5f43-454e-4545-9241-4c2d30322e6b,rev?*%
%TF.SameCoordinates,Original*%
%TF.FileFunction,Copper,L4,Bot*%
%TF.FilePolarity,Positive*%
%FSLAX46Y46*%
G04 Gerber Fmt 4.6, Leading zero omitted, Abs format (unit mm)*
G04 Created by KiCad (PCBNEW 7.0.2) date 2023-07-14 13:18:19*
%MOMM*%
%LPD*%
G01*
G04 APERTURE LIST*
G04 Aperture macros list*
%AMRoundRect*
0 Rectangle with rounded corners*
0 $1 Rounding radius*
0 $2 $3 $4 $5 $6 $7 $8 $9 X,Y pos of 4 corners*
0 Add a 4 corners polygon primitive as box body*
4,1,4,$2,$3,$4,$5,$6,$7,$8,$9,$2,$3,0*
0 Add four circle primitives for the rounded corners*
1,1,$1+$1,$2,$3*
1,1,$1+$1,$4,$5*
1,1,$1+$1,$6,$7*
1,1,$1+$1,$8,$9*
0 Add four rect primitives between the rounded corners*
20,1,$1+$1,$2,$3,$4,$5,0*
20,1,$1+$1,$4,$5,$6,$7,0*
20,1,$1+$1,$6,$7,$8,$9,0*
20,1,$1+$1,$8,$9,$2,$3,0*%
%AMHorizOval*
0 Thick line with rounded ends*
0 $1 width*
0 $2 $3 position (X,Y) of the first rounded end (center of the circle)*
0 $4 $5 position (X,Y) of the second rounded end (center of the circle)*
0 Add line between two ends*
20,1,$1,$2,$3,$4,$5,0*
0 Add two circle primitives to create the rounded ends*
1,1,$1,$2,$3*
1,1,$1,$4,$5*%
G04 Aperture macros list end*
%TA.AperFunction,ComponentPad*%
%ADD10R,1.905000X2.000000*%
%TD*%
%TA.AperFunction,ComponentPad*%
%ADD11O,1.905000X2.000000*%
%TD*%
%TA.AperFunction,ComponentPad*%
%ADD12C,1.400000*%
%TD*%
%TA.AperFunction,ComponentPad*%
%ADD13O,1.400000X1.400000*%
%TD*%
%TA.AperFunction,ComponentPad*%
%ADD14R,1.700000X1.700000*%
%TD*%
%TA.AperFunction,ComponentPad*%
%ADD15O,1.700000X1.700000*%
%TD*%
%TA.AperFunction,ComponentPad*%
%ADD16C,1.600000*%
%TD*%
%TA.AperFunction,ComponentPad*%
%ADD17O,1.600000X1.600000*%
%TD*%
%TA.AperFunction,ComponentPad*%
%ADD18O,1.500000X3.000000*%
%TD*%
%TA.AperFunction,ComponentPad*%
%ADD19RoundRect,0.650000X-0.650000X-0.650000X0.650000X-0.650000X0.650000X0.650000X-0.650000X0.650000X0*%
%TD*%
%TA.AperFunction,ComponentPad*%
%ADD20C,2.600000*%
%TD*%
%TA.AperFunction,ComponentPad*%
%ADD21R,1.500000X1.500000*%
%TD*%
%TA.AperFunction,ComponentPad*%
%ADD22C,1.500000*%
%TD*%
%TA.AperFunction,ComponentPad*%
%ADD23HorizOval,0.800000X0.000000X0.000000X0.000000X0.000000X0*%
%TD*%
%TA.AperFunction,ComponentPad*%
%ADD24HorizOval,0.800000X0.000000X0.000000X0.000000X0.000000X0*%
%TD*%
%TA.AperFunction,ComponentPad*%
%ADD25C,0.800000*%
%TD*%
%TA.AperFunction,ComponentPad*%
%ADD26O,6.000000X9.000000*%
%TD*%
%TA.AperFunction,ComponentPad*%
%ADD27R,4.000000X4.000000*%
%TD*%
%TA.AperFunction,ComponentPad*%
%ADD28C,4.000000*%
%TD*%
%TA.AperFunction,ComponentPad*%
%ADD29O,1.200000X2.400000*%
%TD*%
%TA.AperFunction,SMDPad,CuDef*%
%ADD30R,1.500000X2.000000*%
%TD*%
%TA.AperFunction,SMDPad,CuDef*%
%ADD31R,3.800000X2.000000*%
%TD*%
%TA.AperFunction,Conductor*%
%ADD32C,2.000000*%
%TD*%
%TA.AperFunction,Conductor*%
%ADD33C,0.700000*%
%TD*%
%TA.AperFunction,Conductor*%
%ADD34C,1.500000*%
%TD*%
%TA.AperFunction,Conductor*%
%ADD35C,1.000000*%
%TD*%
%TA.AperFunction,Conductor*%
%ADD36C,6.000000*%
%TD*%
%TA.AperFunction,Conductor*%
%ADD37C,0.800000*%
%TD*%
%TA.AperFunction,Conductor*%
%ADD38C,2.500000*%
%TD*%
%TA.AperFunction,Conductor*%
%ADD39C,3.000000*%
%TD*%
G04 APERTURE END LIST*
D10*
%TO.P,Q4,1,G*%
%TO.N,Net-(Q3-C)*%
X98390000Y-130590000D03*
D11*
%TO.P,Q4,2,D*%
%TO.N,R_ARM_GND*%
X95850000Y-130590000D03*
%TO.P,Q4,3,S*%
%TO.N,GND*%
X93310000Y-130590000D03*
%TD*%
D12*
%TO.P,RM5,1*%
%TO.N,L_TX_CURRENT*%
X73500000Y-94420000D03*
D13*
%TO.P,RM5,2*%
%TO.N,L_ARM_GND*%
X73500000Y-96960000D03*
%TD*%
D12*
%TO.P,RM10,1*%
%TO.N,L_ANK_CURRENT*%
X77400000Y-119710000D03*
D13*
%TO.P,RM10,2*%
%TO.N,L_LEG_GND*%
X77400000Y-122250000D03*
%TD*%
D14*
%TO.P,M18,1,POT*%
%TO.N,R_TX_POT*%
X88600000Y-83960000D03*
D15*
%TO.P,M18,2,PWM*%
%TO.N,R_TX_PWM*%
X88600000Y-86500000D03*
%TO.P,M18,3,+*%
%TO.N,SERVO_VCC*%
X88600000Y-89040000D03*
%TO.P,M18,4,-*%
%TO.N,R_TX_CURRENT*%
X88600000Y-91580000D03*
%TD*%
D16*
%TO.P,R7,1*%
%TO.N,SHUTOFF*%
X56600000Y-136200000D03*
D17*
%TO.P,R7,2*%
%TO.N,Net-(Q5-B)*%
X56600000Y-126040000D03*
%TD*%
D16*
%TO.P,R2,1*%
%TO.N,L_ARM_CONTROL*%
X89400000Y-139500000D03*
D17*
%TO.P,R2,2*%
%TO.N,Net-(Q1-C)*%
X81780000Y-139500000D03*
%TD*%
D14*
%TO.P,M3,1,POT*%
%TO.N,L_ELBR_POT*%
X77800000Y-83920000D03*
D15*
%TO.P,M3,2,PWM*%
%TO.N,L_ELBR_PWM*%
X77800000Y-86460000D03*
%TO.P,M3,3,+*%
%TO.N,SERVO_VCC*%
X77800000Y-89000000D03*
%TO.P,M3,4,-*%
%TO.N,L_ELBR_CURRENT*%
X77800000Y-91540000D03*
%TD*%
D16*
%TO.P,C7,1*%
%TO.N,3V3*%
X108420000Y-38200000D03*
%TO.P,C7,2*%
%TO.N,GND*%
X108420000Y-40200000D03*
%TD*%
D14*
%TO.P,J6,1,Pin_1*%
%TO.N,GND*%
X117180000Y-105200000D03*
D15*
%TO.P,J6,2,Pin_2*%
%TO.N,SERVO_VCC*%
X114640000Y-105200000D03*
%TO.P,J6,3,Pin_3*%
%TO.N,R_FT_ANGLE*%
X112100000Y-105200000D03*
%TD*%
D12*
%TO.P,RM21,1*%
%TO.N,R_ELB_CURRENT*%
X97600000Y-94380000D03*
D13*
%TO.P,RM21,2*%
%TO.N,R_ARM_GND*%
X97600000Y-96920000D03*
%TD*%
D12*
%TO.P,RM14,1*%
%TO.N,R_FT_CURRENT*%
X95000000Y-119680000D03*
D13*
%TO.P,RM14,2*%
%TO.N,R_LEG_GND*%
X95000000Y-122220000D03*
%TD*%
D16*
%TO.P,R4,1*%
%TO.N,SHUTOFF*%
X99890000Y-136000000D03*
D17*
%TO.P,R4,2*%
%TO.N,Net-(Q3-B)*%
X107510000Y-136000000D03*
%TD*%
D14*
%TO.P,M19,1,POT*%
%TO.N,R_SH_POT*%
X92200000Y-83960000D03*
D15*
%TO.P,M19,2,PWM*%
%TO.N,R_SH_PWM*%
X92200000Y-86500000D03*
%TO.P,M19,3,+*%
%TO.N,SERVO_VCC*%
X92200000Y-89040000D03*
%TO.P,M19,4,-*%
%TO.N,R_SH_CURRENT*%
X92200000Y-91580000D03*
%TD*%
D18*
%TO.P,U3,ADO,ADO*%
%TO.N,unconnected-(U3-PadADO)*%
X94530000Y-40440000D03*
%TO.P,U3,GND,GND*%
%TO.N,GND*%
X81830000Y-40440000D03*
%TO.P,U3,INT,INT*%
%TO.N,unconnected-(U3-PadINT)*%
X97070000Y-40440000D03*
%TO.P,U3,SCL,SCL*%
%TO.N,SCL*%
X84370000Y-40440000D03*
%TO.P,U3,SDA,SDA*%
%TO.N,SDA*%
X86910000Y-40440000D03*
%TO.P,U3,VCC,VCC*%
%TO.N,3V3*%
X79290000Y-40440000D03*
%TO.P,U3,XCL,XCL*%
%TO.N,unconnected-(U3-PadXCL)*%
X89450000Y-40440000D03*
%TO.P,U3,XDA,XDA*%
%TO.N,unconnected-(U3-PadXDA)*%
X91990000Y-40440000D03*
%TD*%
D19*
%TO.P,J7,1,Pin_1*%
%TO.N,3V3*%
X100660000Y-72500000D03*
D20*
%TO.P,J7,2,Pin_2*%
%TO.N,SHUTOFF*%
X105740000Y-72500000D03*
%TD*%
D14*
%TO.P,M23,1,POT*%
%TO.N,HD_POT*%
X107920000Y-43490000D03*
D15*
%TO.P,M23,2,PWM*%
%TO.N,HD_PWM*%
X105380000Y-43490000D03*
%TO.P,M23,3,+*%
%TO.N,SERVO_VCC*%
X102840000Y-43490000D03*
%TO.P,M23,4,-*%
%TO.N,HD_CURRENT*%
X100300000Y-43490000D03*
%TD*%
D14*
%TO.P,J5,1,Pin_1*%
%TO.N,GND*%
X117140000Y-101600000D03*
D15*
%TO.P,J5,2,Pin_2*%
%TO.N,SERVO_VCC*%
X114600000Y-101600000D03*
%TO.P,J5,3,Pin_3*%
%TO.N,L_FT_ANGLE*%
X112060000Y-101600000D03*
%TD*%
D16*
%TO.P,C9,1*%
%TO.N,GND*%
X51770000Y-48940000D03*
%TO.P,C9,2*%
%TO.N,I_SENS*%
X44270000Y-48940000D03*
%TD*%
%TO.P,R5,1*%
%TO.N,R_ARM_CONTROL*%
X111560000Y-139000000D03*
D17*
%TO.P,R5,2*%
%TO.N,Net-(Q3-C)*%
X101400000Y-139000000D03*
%TD*%
D10*
%TO.P,Q8,1,G*%
%TO.N,Net-(Q7-C)*%
X98450000Y-125005000D03*
D11*
%TO.P,Q8,2,D*%
%TO.N,R_LEG_GND*%
X95910000Y-125005000D03*
%TO.P,Q8,3,S*%
%TO.N,GND*%
X93370000Y-125005000D03*
%TD*%
D21*
%TO.P,Q7,1,C*%
%TO.N,Net-(Q7-C)*%
X102270000Y-126570000D03*
D22*
%TO.P,Q7,2,B*%
%TO.N,Net-(Q7-B)*%
X104810000Y-126570000D03*
%TO.P,Q7,3,E*%
%TO.N,GND*%
X107350000Y-126570000D03*
%TD*%
D14*
%TO.P,M4,1,POT*%
%TO.N,L_SH_POT*%
X74200000Y-83920000D03*
D15*
%TO.P,M4,2,PWM*%
%TO.N,L_SH_PWM*%
X74200000Y-86460000D03*
%TO.P,M4,3,+*%
%TO.N,SERVO_VCC*%
X74200000Y-89000000D03*
%TO.P,M4,4,-*%
%TO.N,L_SH_CURRENT*%
X74200000Y-91540000D03*
%TD*%
D16*
%TO.P,C8,1*%
%TO.N,3V3*%
X54270000Y-37630000D03*
%TO.P,C8,2*%
%TO.N,GND*%
X54270000Y-45130000D03*
%TD*%
%TO.P,R35,1*%
%TO.N,Net-(Q7-C)*%
X113100000Y-127590000D03*
D17*
%TO.P,R35,2*%
%TO.N,GND*%
X113100000Y-135210000D03*
%TD*%
D14*
%TO.P,J9,1,Pin_1*%
%TO.N,3V3*%
X78990000Y-48040000D03*
D15*
%TO.P,J9,2,Pin_2*%
%TO.N,GND*%
X81530000Y-48040000D03*
%TO.P,J9,3,Pin_3*%
%TO.N,SCL*%
X84070000Y-48040000D03*
%TO.P,J9,4,Pin_4*%
%TO.N,SDA*%
X86610000Y-48040000D03*
%TD*%
D16*
%TO.P,R3,1*%
%TO.N,Net-(Q1-C)*%
X66942500Y-135100000D03*
D17*
%TO.P,R3,2*%
%TO.N,GND*%
X59322500Y-135100000D03*
%TD*%
D12*
%TO.P,RM23,1*%
%TO.N,HD_CURRENT*%
X99970000Y-40570000D03*
D13*
%TO.P,RM23,2*%
%TO.N,GND*%
X105050000Y-40570000D03*
%TD*%
D14*
%TO.P,M12,1,POT*%
%TO.N,R_FT_POT*%
X94900000Y-109160000D03*
D15*
%TO.P,M12,2,PWM*%
%TO.N,R_FT_PWM*%
X94900000Y-111700000D03*
%TO.P,M12,3,+*%
%TO.N,SERVO_VCC*%
X94900000Y-114240000D03*
%TO.P,M12,4,-*%
%TO.N,R_FT_CURRENT*%
X94900000Y-116780000D03*
%TD*%
D16*
%TO.P,C1,1*%
%TO.N,SERVO_VCC*%
X55355000Y-109920000D03*
%TO.P,C1,2*%
%TO.N,GND*%
X47855000Y-109920000D03*
%TD*%
D12*
%TO.P,RM7,1*%
%TO.N,L_TG_CURRENT*%
X66400000Y-119760000D03*
D13*
%TO.P,RM7,2*%
%TO.N,L_LEG_GND*%
X66400000Y-122300000D03*
%TD*%
D14*
%TO.P,J4,1,Pin_1*%
%TO.N,L_HP_POT*%
X78280000Y-51210000D03*
D15*
%TO.P,J4,2,Pin_2*%
%TO.N,L_TG_POT*%
X78280000Y-53750000D03*
%TO.P,J4,3,Pin_3*%
%TO.N,GND*%
X80820000Y-51210000D03*
%TO.P,J4,4,Pin_4*%
%TO.N,L_KNR_POT*%
X80820000Y-53750000D03*
%TO.P,J4,5,Pin_5*%
%TO.N,GND*%
X83360000Y-51210000D03*
%TO.P,J4,6,Pin_6*%
%TO.N,L_KN_POT*%
X83360000Y-53750000D03*
%TO.P,J4,7,Pin_7*%
%TO.N,SCL*%
X85900000Y-51210000D03*
%TO.P,J4,8,Pin_8*%
%TO.N,GND*%
X85900000Y-53750000D03*
%TO.P,J4,9,Pin_9*%
%TO.N,SDA*%
X88440000Y-51210000D03*
%TO.P,J4,10,Pin_10*%
%TO.N,GND*%
X88440000Y-53750000D03*
%TO.P,J4,11,Pin_11*%
%TO.N,3V3*%
X90980000Y-51210000D03*
%TO.P,J4,12,Pin_12*%
%TO.N,R_TX_POT*%
X90980000Y-53750000D03*
%TO.P,J4,13,Pin_13*%
%TO.N,GND*%
X93520000Y-51210000D03*
%TO.P,J4,14,Pin_14*%
%TO.N,L_HND_POT*%
X93520000Y-53750000D03*
%TO.P,J4,15,Pin_15*%
%TO.N,SERVO_VCC*%
X96060000Y-51210000D03*
%TO.P,J4,16,Pin_16*%
X96060000Y-53750000D03*
%TO.P,J4,17,Pin_17*%
%TO.N,HD_POT*%
X98600000Y-51210000D03*
%TO.P,J4,18,Pin_18*%
%TO.N,L_TX_POT*%
X98600000Y-53750000D03*
%TO.P,J4,19,Pin_19*%
%TO.N,R_HP_POT*%
X101140000Y-51210000D03*
%TO.P,J4,20,Pin_20*%
%TO.N,L_SH_POT*%
X101140000Y-53750000D03*
%TO.P,J4,21,Pin_21*%
%TO.N,R_TG_POT*%
X103680000Y-51210000D03*
%TO.P,J4,22,Pin_22*%
%TO.N,L_ELBR_POT*%
X103680000Y-53750000D03*
%TO.P,J4,23,Pin_23*%
%TO.N,R_KNR_POT*%
X106220000Y-51210000D03*
%TO.P,J4,24,Pin_24*%
%TO.N,L_ELB_POT*%
X106220000Y-53750000D03*
%TO.P,J4,25,Pin_25*%
%TO.N,R_KN_POT*%
X108760000Y-51210000D03*
%TO.P,J4,26,Pin_26*%
%TO.N,SHUTOFF*%
X108760000Y-53750000D03*
%TO.P,J4,27,Pin_27*%
%TO.N,R_ANK_POT*%
X111300000Y-51210000D03*
%TO.P,J4,28,Pin_28*%
%TO.N,R_ELBR_POT*%
X111300000Y-53750000D03*
%TO.P,J4,29,Pin_29*%
%TO.N,R_FT_POT*%
X113840000Y-51210000D03*
%TO.P,J4,30,Pin_30*%
%TO.N,R_ELB_POT*%
X113840000Y-53750000D03*
%TO.P,J4,31,Pin_31*%
%TO.N,L_FT_POT*%
X116380000Y-51210000D03*
%TO.P,J4,32,Pin_32*%
%TO.N,R_HND_POT*%
X116380000Y-53750000D03*
%TO.P,J4,33,Pin_33*%
%TO.N,L_ANK_POT*%
X118920000Y-51210000D03*
%TO.P,J4,34,Pin_34*%
%TO.N,R_SH_POT*%
X118920000Y-53750000D03*
%TD*%
D14*
%TO.P,M8,1,POT*%
%TO.N,L_KNR_POT*%
X70100000Y-109260000D03*
D15*
%TO.P,M8,2,PWM*%
%TO.N,L_KNR_PWM*%
X70100000Y-111800000D03*
%TO.P,M8,3,+*%
%TO.N,SERVO_VCC*%
X70100000Y-114340000D03*
%TO.P,M8,4,-*%
%TO.N,L_KNR_CURRENT*%
X70100000Y-116880000D03*
%TD*%
D10*
%TO.P,Q6,1,G*%
%TO.N,Net-(Q5-C)*%
X79120000Y-127100000D03*
D11*
%TO.P,Q6,2,D*%
%TO.N,L_LEG_GND*%
X81660000Y-127100000D03*
%TO.P,Q6,3,S*%
%TO.N,GND*%
X84200000Y-127100000D03*
%TD*%
D12*
%TO.P,RM17,1*%
%TO.N,R_HP_CURRENT*%
X112900000Y-119680000D03*
D13*
%TO.P,RM17,2*%
%TO.N,R_LEG_GND*%
X112900000Y-122220000D03*
%TD*%
D12*
%TO.P,RM15,1*%
%TO.N,R_KNR_CURRENT*%
X105700000Y-119680000D03*
D13*
%TO.P,RM15,2*%
%TO.N,R_LEG_GND*%
X105700000Y-122220000D03*
%TD*%
D12*
%TO.P,RM18,1*%
%TO.N,R_TX_CURRENT*%
X88600000Y-94400000D03*
D13*
%TO.P,RM18,2*%
%TO.N,R_ARM_GND*%
X88600000Y-96940000D03*
%TD*%
D12*
%TO.P,RM1,1*%
%TO.N,L_HND_CURRENT*%
X85400000Y-94420000D03*
D13*
%TO.P,RM1,2*%
%TO.N,L_ARM_GND*%
X85400000Y-96960000D03*
%TD*%
D12*
%TO.P,RM4,1*%
%TO.N,L_SH_CURRENT*%
X76300000Y-94420000D03*
D13*
%TO.P,RM4,2*%
%TO.N,L_ARM_GND*%
X76300000Y-96960000D03*
%TD*%
D14*
%TO.P,J10,1,Pin_1*%
%TO.N,3V3*%
X90190000Y-47330000D03*
D15*
%TO.P,J10,2,Pin_2*%
%TO.N,GND*%
X92730000Y-47330000D03*
%TO.P,J10,3,Pin_3*%
%TO.N,SCL*%
X95270000Y-47330000D03*
%TO.P,J10,4,Pin_4*%
%TO.N,SDA*%
X97810000Y-47330000D03*
%TD*%
D21*
%TO.P,U1,1,VCC*%
%TO.N,3V3*%
X45355000Y-55400000D03*
D22*
%TO.P,U1,2,GND*%
%TO.N,GND*%
X45355000Y-57310000D03*
%TO.P,U1,3,VIOUT*%
%TO.N,I_SENS*%
X45355000Y-59220000D03*
D23*
%TO.P,U1,4,IP+*%
%TO.N,SERVO_VCC*%
X67385000Y-58360000D03*
D24*
X66125000Y-58360000D03*
D25*
X68415000Y-59110000D03*
X65095000Y-59110000D03*
X68805000Y-60310000D03*
X64705000Y-60310000D03*
X68805000Y-61640000D03*
X64705000Y-61640000D03*
D26*
X66755000Y-62310000D03*
D25*
X68805000Y-62980000D03*
X64705000Y-62980000D03*
X68805000Y-64310000D03*
X64705000Y-64310000D03*
X68415000Y-65510000D03*
X65095000Y-65510000D03*
X67385000Y-66260000D03*
X66125000Y-66260000D03*
%TO.P,U1,5,IP-*%
%TO.N,Net-(J1-+)*%
X67385000Y-48360000D03*
X66125000Y-48360000D03*
X68415000Y-49110000D03*
X65095000Y-49110000D03*
X68805000Y-50310000D03*
X64705000Y-50310000D03*
X68805000Y-51640000D03*
X64705000Y-51640000D03*
D26*
X66755000Y-52310000D03*
D25*
X68805000Y-52980000D03*
X64705000Y-52980000D03*
X68805000Y-54310000D03*
X64705000Y-54310000D03*
X68415000Y-55510000D03*
X65095000Y-55510000D03*
D24*
X67385000Y-56260000D03*
D23*
X66125000Y-56260000D03*
%TD*%
D16*
%TO.P,R17,1*%
%TO.N,SERVO_VCC*%
X72100000Y-57520000D03*
D17*
%TO.P,R17,2*%
X79720000Y-57520000D03*
%TD*%
D14*
%TO.P,M17,1,POT*%
%TO.N,R_HP_POT*%
X112900000Y-109160000D03*
D15*
%TO.P,M17,2,PWM*%
%TO.N,R_HP_PWM*%
X112900000Y-111700000D03*
%TO.P,M17,3,+*%
%TO.N,SERVO_VCC*%
X112900000Y-114240000D03*
%TO.P,M17,4,-*%
%TO.N,R_HP_CURRENT*%
X112900000Y-116780000D03*
%TD*%
D14*
%TO.P,M11,1,POT*%
%TO.N,L_FT_POT*%
X80900000Y-109240000D03*
D15*
%TO.P,M11,2,PWM*%
%TO.N,L_FT_PWM*%
X80900000Y-111780000D03*
%TO.P,M11,3,+*%
%TO.N,SERVO_VCC*%
X80900000Y-114320000D03*
%TO.P,M11,4,-*%
%TO.N,L_FT_CURRENT*%
X80900000Y-116860000D03*
%TD*%
D10*
%TO.P,Q2,1,G*%
%TO.N,Net-(Q1-C)*%
X79160000Y-133045000D03*
D11*
%TO.P,Q2,2,D*%
%TO.N,L_ARM_GND*%
X81700000Y-133045000D03*
%TO.P,Q2,3,S*%
%TO.N,GND*%
X84240000Y-133045000D03*
%TD*%
D16*
%TO.P,C6,1*%
%TO.N,SERVO_VCC*%
X54105000Y-101820000D03*
%TO.P,C6,2*%
%TO.N,GND*%
X49105000Y-101820000D03*
%TD*%
%TO.P,C2,1*%
%TO.N,SERVO_VCC*%
X53020000Y-115440000D03*
%TO.P,C2,2*%
%TO.N,GND*%
X51020000Y-115440000D03*
%TD*%
D14*
%TO.P,M9,1,POT*%
%TO.N,L_KN_POT*%
X73700000Y-109260000D03*
D15*
%TO.P,M9,2,PWM*%
%TO.N,L_KN_PWM*%
X73700000Y-111800000D03*
%TO.P,M9,3,+*%
%TO.N,SERVO_VCC*%
X73700000Y-114340000D03*
%TO.P,M9,4,-*%
%TO.N,L_KN_CURRENT*%
X73700000Y-116880000D03*
%TD*%
D12*
%TO.P,RM11,1*%
%TO.N,L_KN_CURRENT*%
X73700000Y-119680000D03*
D13*
%TO.P,RM11,2*%
%TO.N,L_LEG_GND*%
X73700000Y-122220000D03*
%TD*%
D16*
%TO.P,R39,1*%
%TO.N,SDA*%
X100720000Y-47230000D03*
D17*
%TO.P,R39,2*%
%TO.N,3V3*%
X108340000Y-47230000D03*
%TD*%
D14*
%TO.P,M13,1,POT*%
%TO.N,R_ANK_POT*%
X98500000Y-109160000D03*
D15*
%TO.P,M13,2,PWM*%
%TO.N,R_ANK_PWM*%
X98500000Y-111700000D03*
%TO.P,M13,3,+*%
%TO.N,SERVO_VCC*%
X98500000Y-114240000D03*
%TO.P,M13,4,-*%
%TO.N,R_ANK_CURRENT*%
X98500000Y-116780000D03*
%TD*%
D14*
%TO.P,M20,1,POT*%
%TO.N,R_ELBR_POT*%
X95800000Y-83960000D03*
D15*
%TO.P,M20,2,PWM*%
%TO.N,R_ELBR_PWM*%
X95800000Y-86500000D03*
%TO.P,M20,3,+*%
%TO.N,SERVO_VCC*%
X95800000Y-89040000D03*
%TO.P,M20,4,-*%
%TO.N,R_ELBR_CURRENT*%
X95800000Y-91580000D03*
%TD*%
D14*
%TO.P,M15,1,POT*%
%TO.N,R_KNR_POT*%
X105700000Y-109160000D03*
D15*
%TO.P,M15,2,PWM*%
%TO.N,R_KNR_PWM*%
X105700000Y-111700000D03*
%TO.P,M15,3,+*%
%TO.N,SERVO_VCC*%
X105700000Y-114240000D03*
%TO.P,M15,4,-*%
%TO.N,R_KNR_CURRENT*%
X105700000Y-116780000D03*
%TD*%
D21*
%TO.P,Q5,1,C*%
%TO.N,Net-(Q5-C)*%
X75340000Y-127540000D03*
D22*
%TO.P,Q5,2,B*%
%TO.N,Net-(Q5-B)*%
X72800000Y-127540000D03*
%TO.P,Q5,3,E*%
%TO.N,GND*%
X70260000Y-127540000D03*
%TD*%
D14*
%TO.P,M1,1,POT*%
%TO.N,L_HND_POT*%
X85000000Y-83920000D03*
D15*
%TO.P,M1,2,PWM*%
%TO.N,L_HND_PWM*%
X85000000Y-86460000D03*
%TO.P,M1,3,+*%
%TO.N,SERVO_VCC*%
X85000000Y-89000000D03*
%TO.P,M1,4,-*%
%TO.N,L_HND_CURRENT*%
X85000000Y-91540000D03*
%TD*%
D12*
%TO.P,RM20,1*%
%TO.N,R_ELBR_CURRENT*%
X94900000Y-94400000D03*
D13*
%TO.P,RM20,2*%
%TO.N,R_ARM_GND*%
X94900000Y-96940000D03*
%TD*%
D14*
%TO.P,M5,1,POT*%
%TO.N,L_TX_POT*%
X70600000Y-83920000D03*
D15*
%TO.P,M5,2,PWM*%
%TO.N,L_TX_PWM*%
X70600000Y-86460000D03*
%TO.P,M5,3,+*%
%TO.N,SERVO_VCC*%
X70600000Y-89000000D03*
%TO.P,M5,4,-*%
%TO.N,L_TX_CURRENT*%
X70600000Y-91540000D03*
%TD*%
D14*
%TO.P,J3,1,Pin_1*%
%TO.N,L_HP_CURRENT*%
X75380000Y-62270000D03*
D15*
%TO.P,J3,2,Pin_2*%
%TO.N,L_TG_CURRENT*%
X75380000Y-64810000D03*
%TO.P,J3,3,Pin_3*%
%TO.N,L_LEG_GND*%
X77920000Y-62270000D03*
%TO.P,J3,4,Pin_4*%
%TO.N,L_KNR_CURRENT*%
X77920000Y-64810000D03*
%TO.P,J3,5,Pin_5*%
%TO.N,R_LEG_GND*%
X80460000Y-62270000D03*
%TO.P,J3,6,Pin_6*%
%TO.N,L_KN_CURRENT*%
X80460000Y-64810000D03*
%TO.P,J3,7,Pin_7*%
%TO.N,SCL*%
X83000000Y-62270000D03*
%TO.P,J3,8,Pin_8*%
%TO.N,R_ARM_GND*%
X83000000Y-64810000D03*
%TO.P,J3,9,Pin_9*%
%TO.N,SDA*%
X85540000Y-62270000D03*
%TO.P,J3,10,Pin_10*%
%TO.N,L_ARM_GND*%
X85540000Y-64810000D03*
%TO.P,J3,11,Pin_11*%
%TO.N,3V3*%
X88080000Y-62270000D03*
%TO.P,J3,12,Pin_12*%
%TO.N,R_TX_CURRENT*%
X88080000Y-64810000D03*
%TO.P,J3,13,Pin_13*%
%TO.N,GND*%
X90620000Y-62270000D03*
%TO.P,J3,14,Pin_14*%
%TO.N,L_HND_CURRENT*%
X90620000Y-64810000D03*
%TO.P,J3,15,Pin_15*%
%TO.N,SERVO_VCC*%
X93160000Y-62270000D03*
%TO.P,J3,16,Pin_16*%
X93160000Y-64810000D03*
%TO.P,J3,17,Pin_17*%
%TO.N,HD_CURRENT*%
X95700000Y-62270000D03*
%TO.P,J3,18,Pin_18*%
%TO.N,L_TX_CURRENT*%
X95700000Y-64810000D03*
%TO.P,J3,19,Pin_19*%
%TO.N,R_HP_CURRENT*%
X98240000Y-62270000D03*
%TO.P,J3,20,Pin_20*%
%TO.N,L_SH_CURRENT*%
X98240000Y-64810000D03*
%TO.P,J3,21,Pin_21*%
%TO.N,R_TG_CURRENT*%
X100780000Y-62270000D03*
%TO.P,J3,22,Pin_22*%
%TO.N,L_ELBR_CURRENT*%
X100780000Y-64810000D03*
%TO.P,J3,23,Pin_23*%
%TO.N,R_KNR_CURRENT*%
X103320000Y-62270000D03*
%TO.P,J3,24,Pin_24*%
%TO.N,L_ELB_CURRENT*%
X103320000Y-64810000D03*
%TO.P,J3,25,Pin_25*%
%TO.N,R_KN_CURRENT*%
X105860000Y-62270000D03*
%TO.P,J3,26,Pin_26*%
%TO.N,SHUTOFF*%
X105860000Y-64810000D03*
%TO.P,J3,27,Pin_27*%
%TO.N,R_ANK_CURRENT*%
X108400000Y-62270000D03*
%TO.P,J3,28,Pin_28*%
%TO.N,R_ELBR_CURRENT*%
X108400000Y-64810000D03*
%TO.P,J3,29,Pin_29*%
%TO.N,R_FT_CURRENT*%
X110940000Y-62270000D03*
%TO.P,J3,30,Pin_30*%
%TO.N,R_ELB_CURRENT*%
X110940000Y-64810000D03*
%TO.P,J3,31,Pin_31*%
%TO.N,L_FT_CURRENT*%
X113480000Y-62270000D03*
%TO.P,J3,32,Pin_32*%
%TO.N,R_HND_CURRENT*%
X113480000Y-64810000D03*
%TO.P,J3,33,Pin_33*%
%TO.N,L_ANK_CURRENT*%
X116020000Y-62270000D03*
%TO.P,J3,34,Pin_34*%
%TO.N,R_SH_CURRENT*%
X116020000Y-64810000D03*
%TD*%
D12*
%TO.P,RM16,1*%
%TO.N,R_TG_CURRENT*%
X109400000Y-119680000D03*
D13*
%TO.P,RM16,2*%
%TO.N,R_LEG_GND*%
X109400000Y-122220000D03*
%TD*%
D21*
%TO.P,Q3,1,C*%
%TO.N,Net-(Q3-C)*%
X102310000Y-132610000D03*
D22*
%TO.P,Q3,2,B*%
%TO.N,Net-(Q3-B)*%
X104850000Y-132610000D03*
%TO.P,Q3,3,E*%
%TO.N,GND*%
X107390000Y-132610000D03*
%TD*%
D12*
%TO.P,RM12,1*%
%TO.N,R_KN_CURRENT*%
X102100000Y-119660000D03*
D13*
%TO.P,RM12,2*%
%TO.N,R_LEG_GND*%
X102100000Y-122200000D03*
%TD*%
D14*
%TO.P,M16,1,POT*%
%TO.N,R_TG_POT*%
X109300000Y-109160000D03*
D15*
%TO.P,M16,2,PWM*%
%TO.N,R_TG_PWM*%
X109300000Y-111700000D03*
%TO.P,M16,3,+*%
%TO.N,SERVO_VCC*%
X109300000Y-114240000D03*
%TO.P,M16,4,-*%
%TO.N,R_TG_CURRENT*%
X109300000Y-116780000D03*
%TD*%
D14*
%TO.P,M6,1,POT*%
%TO.N,L_HP_POT*%
X62900000Y-109260000D03*
D15*
%TO.P,M6,2,PWM*%
%TO.N,L_HP_PWM*%
X62900000Y-111800000D03*
%TO.P,M6,3,+*%
%TO.N,SERVO_VCC*%
X62900000Y-114340000D03*
%TO.P,M6,4,-*%
%TO.N,L_HP_CURRENT*%
X62900000Y-116880000D03*
%TD*%
D21*
%TO.P,Q1,1,C*%
%TO.N,Net-(Q1-C)*%
X75440000Y-133240000D03*
D22*
%TO.P,Q1,2,B*%
%TO.N,Net-(Q1-B)*%
X72900000Y-133240000D03*
%TO.P,Q1,3,E*%
%TO.N,GND*%
X70360000Y-133240000D03*
%TD*%
D12*
%TO.P,RM19,1*%
%TO.N,R_SH_CURRENT*%
X92300000Y-94400000D03*
D13*
%TO.P,RM19,2*%
%TO.N,R_ARM_GND*%
X92300000Y-96940000D03*
%TD*%
D14*
%TO.P,M7,1,POT*%
%TO.N,L_TG_POT*%
X66500000Y-109260000D03*
D15*
%TO.P,M7,2,PWM*%
%TO.N,L_TG_PWM*%
X66500000Y-111800000D03*
%TO.P,M7,3,+*%
%TO.N,SERVO_VCC*%
X66500000Y-114340000D03*
%TO.P,M7,4,-*%
%TO.N,L_TG_CURRENT*%
X66500000Y-116880000D03*
%TD*%
D14*
%TO.P,M21,1,POT*%
%TO.N,R_ELB_POT*%
X99400000Y-83960000D03*
D15*
%TO.P,M21,2,PWM*%
%TO.N,R_ELB_PWM*%
X99400000Y-86500000D03*
%TO.P,M21,3,+*%
%TO.N,SERVO_VCC*%
X99400000Y-89040000D03*
%TO.P,M21,4,-*%
%TO.N,R_ELB_CURRENT*%
X99400000Y-91580000D03*
%TD*%
D16*
%TO.P,R9,1*%
%TO.N,Net-(Q5-C)*%
X67010000Y-125200000D03*
D17*
%TO.P,R9,2*%
%TO.N,GND*%
X59390000Y-125200000D03*
%TD*%
D16*
%TO.P,C5,1*%
%TO.N,SERVO_VCC*%
X54105000Y-91320000D03*
%TO.P,C5,2*%
%TO.N,GND*%
X49105000Y-91320000D03*
%TD*%
D12*
%TO.P,RM2,1*%
%TO.N,L_ELB_CURRENT*%
X82300000Y-94420000D03*
D13*
%TO.P,RM2,2*%
%TO.N,L_ARM_GND*%
X82300000Y-96960000D03*
%TD*%
D14*
%TO.P,M24,1,+*%
%TO.N,SERVO_VCC*%
X52880000Y-73620000D03*
D15*
%TO.P,M24,2,-*%
%TO.N,GND*%
X50340000Y-73620000D03*
%TD*%
D12*
%TO.P,RM3,1*%
%TO.N,L_ELBR_CURRENT*%
X78900000Y-94420000D03*
D13*
%TO.P,RM3,2*%
%TO.N,L_ARM_GND*%
X78900000Y-96960000D03*
%TD*%
D16*
%TO.P,R16,1*%
%TO.N,GND*%
X84290000Y-118900000D03*
D17*
%TO.P,R16,2*%
X91910000Y-118900000D03*
%TD*%
D14*
%TO.P,M25,1,+*%
%TO.N,SERVO_VCC*%
X52880000Y-70020000D03*
D15*
%TO.P,M25,2,-*%
%TO.N,GND*%
X50340000Y-70020000D03*
%TD*%
D14*
%TO.P,J2,1,Pin_1*%
%TO.N,L_FT_ANGLE*%
X114080000Y-78740000D03*
D15*
%TO.P,J2,2,Pin_2*%
%TO.N,R_LEG_CONTROL*%
X114080000Y-76200000D03*
%TO.P,J2,3,Pin_3*%
%TO.N,R_FT_ANGLE*%
X111540000Y-78740000D03*
%TO.P,J2,4,Pin_4*%
%TO.N,R_ARM_CONTROL*%
X111540000Y-76200000D03*
%TO.P,J2,5,Pin_5*%
%TO.N,R_HP_PWM*%
X109000000Y-78740000D03*
%TO.P,J2,6,Pin_6*%
%TO.N,L_ARM_CONTROL*%
X109000000Y-76200000D03*
%TO.P,J2,7,Pin_7*%
%TO.N,R_TG_PWM*%
X106460000Y-78740000D03*
%TO.P,J2,8,Pin_8*%
%TO.N,L_LEG_CONTROL*%
X106460000Y-76200000D03*
%TO.P,J2,9,Pin_9*%
%TO.N,R_KNR_PWM*%
X103920000Y-78740000D03*
%TO.P,J2,10,Pin_10*%
%TO.N,SHUTOFF*%
X103920000Y-76200000D03*
%TO.P,J2,11,Pin_11*%
%TO.N,R_KN_PWM*%
X101380000Y-78740000D03*
%TO.P,J2,12,Pin_12*%
%TO.N,I_SENS*%
X101380000Y-76200000D03*
%TO.P,J2,13,Pin_13*%
%TO.N,R_ANK_PWM*%
X98840000Y-78740000D03*
%TO.P,J2,14,Pin_14*%
%TO.N,3V3*%
X98840000Y-76200000D03*
%TO.P,J2,15,Pin_15*%
%TO.N,R_FT_PWM*%
X96300000Y-78740000D03*
%TO.P,J2,16,Pin_16*%
%TO.N,HD_PWM*%
X96300000Y-76200000D03*
%TO.P,J2,17,Pin_17*%
%TO.N,R_HND_PWM*%
X93760000Y-78740000D03*
%TO.P,J2,18,Pin_18*%
%TO.N,MAIN_TX*%
X93760000Y-76200000D03*
%TO.P,J2,19,Pin_19*%
%TO.N,R_ELB_PWM*%
X91220000Y-78740000D03*
%TO.P,J2,20,Pin_20*%
%TO.N,MAIN_RX*%
X91220000Y-76200000D03*
%TO.P,J2,21,Pin_21*%
%TO.N,R_ELBR_PWM*%
X88680000Y-78740000D03*
%TO.P,J2,22,Pin_22*%
%TO.N,SDA*%
X88680000Y-76200000D03*
%TO.P,J2,23,Pin_23*%
%TO.N,R_SH_PWM*%
X86140000Y-78740000D03*
%TO.P,J2,24,Pin_24*%
%TO.N,SCL*%
X86140000Y-76200000D03*
%TO.P,J2,25,Pin_25*%
%TO.N,R_TX_PWM*%
X83600000Y-78740000D03*
%TO.P,J2,26,Pin_26*%
%TO.N,GND*%
X83600000Y-76200000D03*
%TO.P,J2,27,Pin_27*%
%TO.N,L_HND_PWM*%
X81060000Y-78740000D03*
%TO.P,J2,28,Pin_28*%
%TO.N,SERVO_VCC*%
X81060000Y-76200000D03*
%TO.P,J2,29,Pin_29*%
%TO.N,L_ELB_PWM*%
X78520000Y-78740000D03*
%TO.P,J2,30,Pin_30*%
%TO.N,L_HP_PWM*%
X78520000Y-76200000D03*
%TO.P,J2,31,Pin_31*%
%TO.N,L_ELBR_PWM*%
X75980000Y-78740000D03*
%TO.P,J2,32,Pin_32*%
%TO.N,L_TG_PWM*%
X75980000Y-76200000D03*
%TO.P,J2,33,Pin_33*%
%TO.N,L_SH_PWM*%
X73440000Y-78740000D03*
%TO.P,J2,34,Pin_34*%
%TO.N,L_KNR_PWM*%
X73440000Y-76200000D03*
%TO.P,J2,35,Pin_35*%
%TO.N,L_TX_PWM*%
X70900000Y-78740000D03*
%TO.P,J2,36,Pin_36*%
%TO.N,L_KN_PWM*%
X70900000Y-76200000D03*
%TO.P,J2,37,Pin_37*%
%TO.N,L_FT_PWM*%
X68360000Y-78740000D03*
%TO.P,J2,38,Pin_38*%
%TO.N,L_ANK_PWM*%
X68360000Y-76200000D03*
%TD*%
D12*
%TO.P,RM22,1*%
%TO.N,R_HND_CURRENT*%
X100400000Y-94380000D03*
D13*
%TO.P,RM22,2*%
%TO.N,R_ARM_GND*%
X100400000Y-96920000D03*
%TD*%
D14*
%TO.P,J8,1,Pin_1*%
%TO.N,3V3*%
X79010000Y-44440000D03*
D15*
%TO.P,J8,2,Pin_2*%
%TO.N,GND*%
X81550000Y-44440000D03*
%TO.P,J8,3,Pin_3*%
%TO.N,SCL*%
X84090000Y-44440000D03*
%TO.P,J8,4,Pin_4*%
%TO.N,SDA*%
X86630000Y-44440000D03*
%TD*%
D16*
%TO.P,C3,1*%
%TO.N,SERVO_VCC*%
X53020000Y-120910000D03*
%TO.P,C3,2*%
%TO.N,GND*%
X51020000Y-120910000D03*
%TD*%
%TO.P,C4,1*%
%TO.N,SERVO_VCC*%
X54105000Y-80720000D03*
%TO.P,C4,2*%
%TO.N,GND*%
X49105000Y-80720000D03*
%TD*%
%TO.P,R34,1*%
%TO.N,R_LEG_CONTROL*%
X117910000Y-124800000D03*
D17*
%TO.P,R34,2*%
%TO.N,Net-(Q7-C)*%
X110290000Y-124800000D03*
%TD*%
D14*
%TO.P,M22,1,POT*%
%TO.N,R_HND_POT*%
X103000000Y-83980000D03*
D15*
%TO.P,M22,2,PWM*%
%TO.N,R_HND_PWM*%
X103000000Y-86520000D03*
%TO.P,M22,3,+*%
%TO.N,SERVO_VCC*%
X103000000Y-89060000D03*
%TO.P,M22,4,-*%
%TO.N,R_HND_CURRENT*%
X103000000Y-91600000D03*
%TD*%
D27*
%TO.P,J1,1,+*%
%TO.N,Net-(J1-+)*%
X68720000Y-45615750D03*
D28*
%TO.P,J1,2,-*%
%TO.N,GND*%
X61520000Y-45615750D03*
D29*
%TO.P,J1,S1*%
%TO.N,N/C*%
X71870000Y-39615750D03*
%TO.P,J1,S2*%
X58370000Y-39615750D03*
%TD*%
D12*
%TO.P,RM9,1*%
%TO.N,L_FT_CURRENT*%
X81000000Y-119680000D03*
D13*
%TO.P,RM9,2*%
%TO.N,L_LEG_GND*%
X81000000Y-122220000D03*
%TD*%
D14*
%TO.P,M14,1,POT*%
%TO.N,R_KN_POT*%
X102100000Y-109160000D03*
D15*
%TO.P,M14,2,PWM*%
%TO.N,R_KN_PWM*%
X102100000Y-111700000D03*
%TO.P,M14,3,+*%
%TO.N,SERVO_VCC*%
X102100000Y-114240000D03*
%TO.P,M14,4,-*%
%TO.N,R_KN_CURRENT*%
X102100000Y-116780000D03*
%TD*%
D16*
%TO.P,R38,1*%
%TO.N,SCL*%
X76120000Y-48100000D03*
D17*
%TO.P,R38,2*%
%TO.N,3V3*%
X76120000Y-40480000D03*
%TD*%
D16*
%TO.P,R1,1*%
%TO.N,SHUTOFF*%
X78310000Y-137500000D03*
D17*
%TO.P,R1,2*%
%TO.N,Net-(Q1-B)*%
X70690000Y-137500000D03*
%TD*%
D16*
%TO.P,R13,1*%
%TO.N,GND*%
X84390000Y-122000000D03*
D17*
%TO.P,R13,2*%
X92010000Y-122000000D03*
%TD*%
D16*
%TO.P,R8,1*%
%TO.N,L_LEG_CONTROL*%
X53600000Y-136200000D03*
D17*
%TO.P,R8,2*%
%TO.N,Net-(Q5-C)*%
X53600000Y-126040000D03*
%TD*%
D12*
%TO.P,RM13,1*%
%TO.N,R_ANK_CURRENT*%
X98500000Y-119660000D03*
D13*
%TO.P,RM13,2*%
%TO.N,R_LEG_GND*%
X98500000Y-122200000D03*
%TD*%
D16*
%TO.P,R11,1*%
%TO.N,SERVO_VCC*%
X84290000Y-112880000D03*
D17*
%TO.P,R11,2*%
X91910000Y-112880000D03*
%TD*%
D16*
%TO.P,R6,1*%
%TO.N,Net-(Q3-C)*%
X99310000Y-139000000D03*
D17*
%TO.P,R6,2*%
%TO.N,GND*%
X91690000Y-139000000D03*
%TD*%
D16*
%TO.P,R10,1*%
%TO.N,SHUTOFF*%
X110000000Y-135210000D03*
D17*
%TO.P,R10,2*%
%TO.N,Net-(Q7-B)*%
X110000000Y-127590000D03*
%TD*%
D16*
%TO.P,R12,1*%
%TO.N,SERVO_VCC*%
X84300000Y-115880000D03*
D17*
%TO.P,R12,2*%
X91920000Y-115880000D03*
%TD*%
D14*
%TO.P,M2,1,POT*%
%TO.N,L_ELB_POT*%
X81400000Y-83920000D03*
D15*
%TO.P,M2,2,PWM*%
%TO.N,L_ELB_PWM*%
X81400000Y-86460000D03*
%TO.P,M2,3,+*%
%TO.N,SERVO_VCC*%
X81400000Y-89000000D03*
%TO.P,M2,4,-*%
%TO.N,L_ELB_CURRENT*%
X81400000Y-91540000D03*
%TD*%
D12*
%TO.P,RM8,1*%
%TO.N,L_KNR_CURRENT*%
X70100000Y-119760000D03*
D13*
%TO.P,RM8,2*%
%TO.N,L_LEG_GND*%
X70100000Y-122300000D03*
%TD*%
D12*
%TO.P,RM6,1*%
%TO.N,L_HP_CURRENT*%
X62800000Y-119760000D03*
D13*
%TO.P,RM6,2*%
%TO.N,L_LEG_GND*%
X62800000Y-122300000D03*
%TD*%
D14*
%TO.P,M10,1,POT*%
%TO.N,L_ANK_POT*%
X77300000Y-109260000D03*
D15*
%TO.P,M10,2,PWM*%
%TO.N,L_ANK_PWM*%
X77300000Y-111800000D03*
%TO.P,M10,3,+*%
%TO.N,SERVO_VCC*%
X77300000Y-114340000D03*
%TO.P,M10,4,-*%
%TO.N,L_ANK_CURRENT*%
X77300000Y-116880000D03*
%TD*%
D30*
%TO.P,U2,1,GND*%
%TO.N,GND*%
X115630000Y-45320000D03*
%TO.P,U2,2,VO*%
%TO.N,3V3*%
X113330000Y-45320000D03*
D31*
X113330000Y-39020000D03*
D30*
%TO.P,U2,3,VI*%
%TO.N,SERVO_VCC*%
X111030000Y-45320000D03*
%TD*%
D14*
%TO.P,J13,1,Pin_1*%
%TO.N,SERVO_VCC*%
X83410000Y-73220000D03*
D15*
%TO.P,J13,2,Pin_2*%
%TO.N,GND*%
X85950000Y-73220000D03*
%TO.P,J13,3,Pin_3*%
%TO.N,SCL*%
X88490000Y-73220000D03*
%TO.P,J13,4,Pin_4*%
%TO.N,SDA*%
X91030000Y-73220000D03*
%TO.P,J13,5,Pin_5*%
%TO.N,MAIN_RX*%
X93570000Y-73220000D03*
%TO.P,J13,6,Pin_6*%
%TO.N,MAIN_TX*%
X96110000Y-73220000D03*
%TD*%
D32*
%TO.N,GND*%
X107350000Y-128610000D02*
X107350000Y-126570000D01*
D33*
X85900000Y-73900000D02*
X83600000Y-76200000D01*
D34*
X45455000Y-57410000D02*
X52630000Y-57410000D01*
D33*
X72970000Y-49240000D02*
X72970000Y-54970000D01*
D35*
X81900000Y-40510000D02*
X81900000Y-42750000D01*
D32*
X83672500Y-130200000D02*
X69332500Y-130200000D01*
D33*
X73350000Y-69180000D02*
X82460000Y-69180000D01*
D34*
X45355000Y-57310000D02*
X45455000Y-57410000D01*
D35*
X81900000Y-42750000D02*
X81900000Y-44090000D01*
D33*
X92730000Y-50420000D02*
X93520000Y-51210000D01*
D32*
X99710000Y-127550000D02*
X101410000Y-129250000D01*
D35*
X61900000Y-45600000D02*
X58500000Y-49000000D01*
X81830000Y-40440000D02*
X81900000Y-40510000D01*
D32*
X107390000Y-130600000D02*
X107390000Y-132610000D01*
X84200000Y-119100000D02*
X84400000Y-118900000D01*
D36*
X61284250Y-45615750D02*
X53800000Y-53100000D01*
X48150000Y-64230000D02*
X48150000Y-111450000D01*
D37*
X94390000Y-141700000D02*
X106610000Y-141700000D01*
D33*
X105350000Y-40120000D02*
X105350000Y-40530000D01*
X108420000Y-40200000D02*
X109040000Y-40200000D01*
X73900000Y-44700000D02*
X73900000Y-48310000D01*
D36*
X48605000Y-128005000D02*
X51000000Y-130400000D01*
D33*
X92730000Y-47330000D02*
X92730000Y-50420000D01*
D32*
X69232500Y-130100000D02*
X68932500Y-130400000D01*
D36*
X48605000Y-111905000D02*
X48605000Y-117076855D01*
D33*
X105350000Y-40530000D02*
X105480000Y-40400000D01*
D35*
X54700000Y-45150000D02*
X54700000Y-48900000D01*
D32*
X107390000Y-128650000D02*
X107390000Y-130600000D01*
D35*
X113100000Y-134810000D02*
X113100000Y-131900000D01*
D33*
X70920000Y-60290000D02*
X70920000Y-66750000D01*
D32*
X84200000Y-127100000D02*
X84200000Y-129672500D01*
D35*
X81900000Y-44090000D02*
X81540000Y-44450000D01*
D32*
X93370000Y-125005000D02*
X93370000Y-127550000D01*
X69252500Y-128547500D02*
X70260000Y-127540000D01*
D33*
X83360000Y-51210000D02*
X85900000Y-53750000D01*
X59322500Y-135100000D02*
X59322500Y-131390000D01*
D36*
X48150000Y-111450000D02*
X48605000Y-111905000D01*
D32*
X101410000Y-129250000D02*
X106710000Y-129250000D01*
D33*
X59390000Y-125200000D02*
X59390000Y-129342500D01*
D37*
X91690000Y-139000000D02*
X94390000Y-141700000D01*
X81900000Y-42750000D02*
X81840000Y-42810000D01*
D33*
X113200000Y-42500000D02*
X115630000Y-44930000D01*
D32*
X84200000Y-129672500D02*
X83672500Y-130200000D01*
D33*
X103360000Y-38130000D02*
X105350000Y-40120000D01*
D32*
X69252500Y-131060000D02*
X69252500Y-132132500D01*
D33*
X117280000Y-101600000D02*
X117280000Y-105200000D01*
X72600000Y-41600000D02*
X73900000Y-42900000D01*
X82460000Y-69180000D02*
X85900000Y-72620000D01*
X70920000Y-66750000D02*
X73350000Y-69180000D01*
D36*
X54700000Y-130400000D02*
X58332500Y-130400000D01*
D33*
X81830000Y-38850000D02*
X82550000Y-38130000D01*
X71890000Y-59320000D02*
X70920000Y-60290000D01*
X59390000Y-129342500D02*
X58332500Y-130400000D01*
D37*
X75790000Y-42810000D02*
X73900000Y-44700000D01*
D33*
X65900000Y-41600000D02*
X72600000Y-41600000D01*
X109040000Y-40200000D02*
X111340000Y-42500000D01*
X73900000Y-42900000D02*
X73900000Y-44700000D01*
X85900000Y-72620000D02*
X85900000Y-73900000D01*
D35*
X113100000Y-131900000D02*
X111800000Y-130600000D01*
D32*
X107350000Y-128610000D02*
X107390000Y-128650000D01*
D36*
X51000000Y-130400000D02*
X54700000Y-130400000D01*
D33*
X72400000Y-59320000D02*
X71890000Y-59320000D01*
D32*
X92100000Y-118980000D02*
X92020000Y-118900000D01*
D33*
X82550000Y-38130000D02*
X103360000Y-38130000D01*
D32*
X84200000Y-127100000D02*
X84200000Y-119100000D01*
D35*
X111800000Y-130600000D02*
X107390000Y-130600000D01*
D32*
X69232500Y-130100000D02*
X69292500Y-130160000D01*
D35*
X54700000Y-48900000D02*
X54600000Y-49000000D01*
D32*
X69252500Y-132132500D02*
X70360000Y-133240000D01*
D35*
X58500000Y-49000000D02*
X54600000Y-49000000D01*
D33*
X73970000Y-55970000D02*
X73970000Y-57750000D01*
D32*
X93370000Y-130530000D02*
X93310000Y-130590000D01*
D36*
X53800000Y-58580000D02*
X48150000Y-64230000D01*
D33*
X108220000Y-40400000D02*
X108420000Y-40200000D01*
X115630000Y-44930000D02*
X115630000Y-45320000D01*
D32*
X68932500Y-130400000D02*
X67932500Y-130400000D01*
D33*
X116000000Y-108100000D02*
X116000000Y-129000000D01*
D32*
X93370000Y-127550000D02*
X99710000Y-127550000D01*
D37*
X81840000Y-42810000D02*
X75790000Y-42810000D01*
D32*
X106710000Y-129250000D02*
X107350000Y-128610000D01*
D33*
X105480000Y-40400000D02*
X108220000Y-40400000D01*
D37*
X106610000Y-141700000D02*
X113100000Y-135210000D01*
D33*
X59322500Y-131390000D02*
X58332500Y-130400000D01*
D35*
X55200000Y-130900000D02*
X54700000Y-130400000D01*
D36*
X53800000Y-53100000D02*
X53800000Y-58580000D01*
D33*
X72970000Y-54970000D02*
X73970000Y-55970000D01*
D32*
X93370000Y-127550000D02*
X93370000Y-130530000D01*
D36*
X61520000Y-45615750D02*
X61284250Y-45615750D01*
D32*
X69332500Y-130200000D02*
X69232500Y-130100000D01*
X92100000Y-123735000D02*
X92100000Y-118980000D01*
D33*
X111340000Y-42500000D02*
X113200000Y-42500000D01*
X73900000Y-48310000D02*
X72970000Y-49240000D01*
D32*
X83672500Y-130200000D02*
X84240000Y-130767500D01*
D33*
X117280000Y-106820000D02*
X116000000Y-108100000D01*
D32*
X69252500Y-130940000D02*
X69252500Y-128547500D01*
D36*
X48605000Y-119263145D02*
X48605000Y-128005000D01*
D34*
X52630000Y-57410000D02*
X53800000Y-58580000D01*
D36*
X58332500Y-130400000D02*
X67932500Y-130400000D01*
D35*
X53000000Y-49000000D02*
X54600000Y-49000000D01*
D33*
X73970000Y-57750000D02*
X72400000Y-59320000D01*
X81830000Y-40440000D02*
X81830000Y-38850000D01*
X116000000Y-129000000D02*
X113100000Y-131900000D01*
X117280000Y-105200000D02*
X117280000Y-106820000D01*
D32*
X84240000Y-130767500D02*
X84240000Y-133045000D01*
X93370000Y-125005000D02*
X92100000Y-123735000D01*
D33*
X61900000Y-45600000D02*
X65900000Y-41600000D01*
%TO.N,L_LEG_CONTROL*%
X53500000Y-140700000D02*
X53500000Y-136300000D01*
X122990000Y-75290000D02*
X122990000Y-134900000D01*
D37*
X53500000Y-136300000D02*
X53600000Y-136200000D01*
D33*
X106460000Y-75140000D02*
X109580000Y-72020000D01*
X122990000Y-134900000D02*
X113990000Y-143900000D01*
X56700000Y-143900000D02*
X53500000Y-140700000D01*
X106460000Y-76200000D02*
X106460000Y-75140000D01*
X113990000Y-143900000D02*
X56700000Y-143900000D01*
X119720000Y-72020000D02*
X122990000Y-75290000D01*
X109580000Y-72020000D02*
X119720000Y-72020000D01*
D32*
%TO.N,L_LEG_GND*%
X81660000Y-123060000D02*
X80900000Y-122300000D01*
X62800000Y-122300000D02*
X80900000Y-122300000D01*
X80900000Y-122300000D02*
X81000000Y-122300000D01*
X81660000Y-127100000D02*
X81660000Y-123060000D01*
D33*
%TO.N,R_LEG_CONTROL*%
X118420000Y-78700000D02*
X118420000Y-98895000D01*
X118420000Y-98895000D02*
X118900000Y-99375000D01*
X118900000Y-99375000D02*
X118900000Y-108800000D01*
X114080000Y-76200000D02*
X115920000Y-76200000D01*
X115920000Y-76200000D02*
X118420000Y-78700000D01*
X118900000Y-108800000D02*
X117910000Y-109790000D01*
X117910000Y-109790000D02*
X117910000Y-124800000D01*
D32*
%TO.N,R_LEG_GND*%
X95910000Y-125005000D02*
X95910000Y-123192500D01*
X95000000Y-122200000D02*
X98500000Y-122200000D01*
X98500000Y-122200000D02*
X109380000Y-122200000D01*
X95910000Y-123192500D02*
X96902500Y-122200000D01*
X109380000Y-122200000D02*
X109400000Y-122220000D01*
X109400000Y-122220000D02*
X112900000Y-122220000D01*
X96902500Y-122200000D02*
X98500000Y-122200000D01*
D33*
%TO.N,L_ARM_CONTROL*%
X118730000Y-73230000D02*
X110770000Y-73230000D01*
X110770000Y-73230000D02*
X109000000Y-75000000D01*
X113060000Y-142800000D02*
X121620000Y-134240000D01*
X121620000Y-134240000D02*
X121620000Y-76120000D01*
X89400000Y-141500000D02*
X90700000Y-142800000D01*
X121620000Y-76120000D02*
X118730000Y-73230000D01*
X109000000Y-75000000D02*
X109000000Y-76200000D01*
X90700000Y-142800000D02*
X113060000Y-142800000D01*
X89400000Y-139100000D02*
X89400000Y-141500000D01*
D32*
%TO.N,L_ARM_GND*%
X82300000Y-100700000D02*
X86900000Y-105300000D01*
X85912500Y-135600000D02*
X82800000Y-135600000D01*
X82300000Y-96960000D02*
X82300000Y-100700000D01*
X82300000Y-96960000D02*
X82300000Y-97140000D01*
X81700000Y-134500000D02*
X81700000Y-133045000D01*
X86932500Y-134580000D02*
X85912500Y-135600000D01*
X82800000Y-135600000D02*
X81700000Y-134500000D01*
X86900000Y-105300000D02*
X86900000Y-134547500D01*
X86900000Y-134547500D02*
X86932500Y-134580000D01*
X85400000Y-96960000D02*
X73500000Y-96960000D01*
D33*
%TO.N,R_ARM_CONTROL*%
X120200000Y-76600000D02*
X117900000Y-74300000D01*
X112400000Y-74300000D02*
X111540000Y-75160000D01*
X111800000Y-76340000D02*
X111740000Y-76400000D01*
X119700000Y-111500000D02*
X120200000Y-111000000D01*
X111540000Y-75160000D02*
X111540000Y-76200000D01*
X111560000Y-139500000D02*
X114410000Y-139500000D01*
X119700000Y-134210000D02*
X119700000Y-111500000D01*
X114410000Y-139500000D02*
X119700000Y-134210000D01*
X117900000Y-74300000D02*
X112400000Y-74300000D01*
X120200000Y-111000000D02*
X120200000Y-76600000D01*
D32*
%TO.N,R_ARM_GND*%
X89400000Y-133080000D02*
X90510000Y-134190000D01*
X94900000Y-100840000D02*
X89400000Y-106340000D01*
X89400000Y-106340000D02*
X89400000Y-133080000D01*
X94510000Y-134190000D02*
X95850000Y-132850000D01*
X94900000Y-96940000D02*
X94900000Y-100840000D01*
X90510000Y-134190000D02*
X94510000Y-134190000D01*
X100380000Y-96940000D02*
X100400000Y-96920000D01*
X95850000Y-132850000D02*
X95850000Y-130590000D01*
X88600000Y-96940000D02*
X100380000Y-96940000D01*
D36*
%TO.N,Net-(J1-+)*%
X68720000Y-50345000D02*
X66755000Y-52310000D01*
X68720000Y-45615750D02*
X68720000Y-50345000D01*
D35*
%TO.N,3V3*%
X113100000Y-46450000D02*
X114070000Y-47420000D01*
X48500000Y-51600000D02*
X48500000Y-48300000D01*
X114940000Y-39020000D02*
X113330000Y-39020000D01*
X111970000Y-39020000D02*
X113330000Y-39020000D01*
X98840000Y-75360000D02*
X98840000Y-76200000D01*
X108590000Y-37030000D02*
X109160000Y-37600000D01*
X54500000Y-37400000D02*
X74400000Y-37400000D01*
X109080000Y-37680000D02*
X109160000Y-37600000D01*
X114070000Y-47420000D02*
X122160000Y-47420000D01*
X102770000Y-68330000D02*
X100660000Y-70440000D01*
X117800000Y-47280000D02*
X117800000Y-41880000D01*
X75800000Y-38800000D02*
X78000000Y-38800000D01*
X45355000Y-54745000D02*
X48500000Y-51600000D01*
X100660000Y-73540000D02*
X98840000Y-75360000D01*
X109080000Y-38240000D02*
X109080000Y-37680000D01*
X75900000Y-38900000D02*
X75800000Y-38800000D01*
X48500000Y-48300000D02*
X54240000Y-42560000D01*
X80800000Y-37030000D02*
X108590000Y-37030000D01*
X117800000Y-41880000D02*
X114940000Y-39020000D01*
X54270000Y-37630000D02*
X54500000Y-37400000D01*
X109160000Y-37600000D02*
X110550000Y-37600000D01*
X74400000Y-37400000D02*
X75800000Y-38800000D01*
X122160000Y-47420000D02*
X124990000Y-50250000D01*
X75900000Y-40580000D02*
X75900000Y-38900000D01*
X54240000Y-42560000D02*
X54240000Y-37660000D01*
X108340000Y-47230000D02*
X108530000Y-47420000D01*
D33*
X90190000Y-50420000D02*
X90980000Y-51210000D01*
D35*
X79360000Y-38470000D02*
X80800000Y-37030000D01*
X45355000Y-55400000D02*
X45355000Y-54745000D01*
X79360000Y-40160000D02*
X79360000Y-38470000D01*
X54240000Y-37660000D02*
X54270000Y-37630000D01*
X124990000Y-65210000D02*
X121870000Y-68330000D01*
X108530000Y-47420000D02*
X114070000Y-47420000D01*
X124990000Y-50250000D02*
X124990000Y-65210000D01*
X78000000Y-38800000D02*
X79360000Y-40160000D01*
X100660000Y-70440000D02*
X100660000Y-73540000D01*
X110550000Y-37600000D02*
X111970000Y-39020000D01*
D33*
X90190000Y-47330000D02*
X90190000Y-50420000D01*
D35*
X121870000Y-68330000D02*
X102770000Y-68330000D01*
%TO.N,L_TX_CURRENT*%
X72580000Y-94420000D02*
X73500000Y-94420000D01*
X70600000Y-91540000D02*
X70600000Y-92440000D01*
X70600000Y-91540000D02*
X70600000Y-91810000D01*
X70600000Y-92440000D02*
X72580000Y-94420000D01*
%TO.N,R_TX_CURRENT*%
X88600000Y-91580000D02*
X88600000Y-94400000D01*
%TO.N,L_SH_CURRENT*%
X74925000Y-91540000D02*
X76300000Y-92915000D01*
X74550000Y-91540000D02*
X74925000Y-91540000D01*
X76300000Y-92915000D02*
X76300000Y-94420000D01*
%TO.N,R_SH_CURRENT*%
X92200000Y-91580000D02*
X92200000Y-94300000D01*
X92200000Y-94300000D02*
X92300000Y-94400000D01*
%TO.N,L_ELB_CURRENT*%
X81400000Y-91540000D02*
X81400000Y-93520000D01*
X81400000Y-93520000D02*
X82300000Y-94420000D01*
%TO.N,R_ELB_CURRENT*%
X99400000Y-91580000D02*
X99400000Y-92580000D01*
X99400000Y-92580000D02*
X97600000Y-94380000D01*
D33*
%TO.N,I_SENS*%
X126160000Y-138340000D02*
X126160000Y-74260000D01*
X44700000Y-51400000D02*
X43550000Y-52550000D01*
D35*
X44700000Y-49370000D02*
X44270000Y-48940000D01*
D33*
X118600000Y-145900000D02*
X126160000Y-138340000D01*
X43550000Y-58170000D02*
X44600000Y-59220000D01*
X43550000Y-52550000D02*
X43550000Y-58170000D01*
X53600000Y-145900000D02*
X118600000Y-145900000D01*
X44800000Y-59220000D02*
X44070000Y-59950000D01*
X103100000Y-70900000D02*
X103100000Y-73900000D01*
X101380000Y-75620000D02*
X101380000Y-76200000D01*
X103100000Y-73900000D02*
X101380000Y-75620000D01*
D35*
X44700000Y-51400000D02*
X44700000Y-49370000D01*
D33*
X121550000Y-69650000D02*
X104350000Y-69650000D01*
X44070000Y-59950000D02*
X44070000Y-136370000D01*
X45355000Y-59220000D02*
X44800000Y-59220000D01*
X44600000Y-59220000D02*
X45355000Y-59220000D01*
X126160000Y-74260000D02*
X121550000Y-69650000D01*
X44070000Y-136370000D02*
X53600000Y-145900000D01*
X104350000Y-69650000D02*
X103100000Y-70900000D01*
D36*
%TO.N,SERVO_VCC*%
X55270000Y-70370000D02*
X55270000Y-79370000D01*
D34*
X94490000Y-57280000D02*
X79810000Y-57280000D01*
D32*
X93380000Y-114240000D02*
X92020000Y-112880000D01*
D34*
X96060000Y-53750000D02*
X96060000Y-55710000D01*
D38*
X58460000Y-114340000D02*
X62900000Y-114340000D01*
D32*
X84400000Y-106900000D02*
X82200000Y-104700000D01*
D33*
X102840000Y-42500000D02*
X103240000Y-42100000D01*
D32*
X102960000Y-89000000D02*
X103000000Y-89040000D01*
D37*
X98540000Y-39760000D02*
X99220000Y-39080000D01*
D34*
X70310000Y-57520000D02*
X72100000Y-57520000D01*
D35*
X56640000Y-115440000D02*
X53660000Y-115440000D01*
D33*
X103380000Y-41960000D02*
X109190000Y-41960000D01*
X102840000Y-43490000D02*
X102840000Y-42500000D01*
D32*
X58100000Y-113980000D02*
X58460000Y-114340000D01*
D36*
X56400000Y-112280000D02*
X56400000Y-110931876D01*
D38*
X62900000Y-114340000D02*
X82840000Y-114340000D01*
D37*
X101350000Y-45690000D02*
X99710000Y-45690000D01*
D33*
X67775000Y-65335000D02*
X72860000Y-70420000D01*
X72860000Y-70420000D02*
X80530000Y-70420000D01*
D37*
X96060000Y-51210000D02*
X96060000Y-49770000D01*
D33*
X66755000Y-62310000D02*
X67775000Y-63330000D01*
X56400000Y-80500000D02*
X56300000Y-80600000D01*
D32*
X82860000Y-114340000D02*
X84400000Y-115880000D01*
D36*
X66655000Y-62410000D02*
X63230000Y-62410000D01*
D35*
X56400000Y-112700000D02*
X56400000Y-112280000D01*
D39*
X68650000Y-89000000D02*
X67890000Y-89760000D01*
D33*
X81060000Y-75290000D02*
X81060000Y-76200000D01*
D36*
X56400000Y-110931876D02*
X55320000Y-109851876D01*
D35*
X58100000Y-113980000D02*
X56640000Y-115440000D01*
X53660000Y-115440000D02*
X56400000Y-112700000D01*
D32*
X94900000Y-114240000D02*
X112900000Y-114240000D01*
D37*
X103240000Y-40710000D02*
X103240000Y-42100000D01*
D39*
X67890000Y-89760000D02*
X67890000Y-95560000D01*
D33*
X83330000Y-73220000D02*
X83130000Y-73220000D01*
X55320000Y-92380000D02*
X55320000Y-91220000D01*
X114800000Y-101660000D02*
X114800000Y-105140000D01*
D36*
X63230000Y-62410000D02*
X55270000Y-70370000D01*
D32*
X82840000Y-114340000D02*
X84400000Y-112780000D01*
D39*
X69397919Y-89000000D02*
X68650000Y-89000000D01*
D37*
X101610000Y-39080000D02*
X103240000Y-40710000D01*
D33*
X67775000Y-63330000D02*
X67775000Y-65335000D01*
D36*
X55270000Y-79370000D02*
X55290000Y-79390000D01*
D34*
X91550000Y-57280000D02*
X93160000Y-58890000D01*
D37*
X102500000Y-49440000D02*
X102500000Y-46840000D01*
D32*
X92020000Y-112880000D02*
X92020000Y-115880000D01*
X94900000Y-114240000D02*
X93380000Y-114240000D01*
D36*
X55290000Y-92350000D02*
X55320000Y-92380000D01*
D32*
X84400000Y-112780000D02*
X84400000Y-106900000D01*
D39*
X77050000Y-100300000D02*
X81450000Y-104700000D01*
D33*
X56200000Y-101700000D02*
X56400000Y-101900000D01*
D37*
X99710000Y-45690000D02*
X98540000Y-44520000D01*
D33*
X55300000Y-101700000D02*
X56200000Y-101700000D01*
D39*
X67890000Y-95560000D02*
X72630000Y-100300000D01*
D37*
X96060000Y-49770000D02*
X96390000Y-49440000D01*
D36*
X55290000Y-79390000D02*
X55290000Y-92350000D01*
X66755000Y-62310000D02*
X66655000Y-62410000D01*
D33*
X56300000Y-80600000D02*
X55300000Y-80600000D01*
D34*
X96060000Y-55710000D02*
X94490000Y-57280000D01*
D37*
X99220000Y-39080000D02*
X101610000Y-39080000D01*
D36*
X55320000Y-109851876D02*
X55320000Y-92380000D01*
D34*
X66755000Y-61075000D02*
X70310000Y-57520000D01*
X93160000Y-58890000D02*
X93160000Y-64810000D01*
D32*
X69397919Y-89000000D02*
X70600000Y-89000000D01*
D37*
X98540000Y-44520000D02*
X98540000Y-39760000D01*
D32*
X82840000Y-114340000D02*
X82860000Y-114340000D01*
D37*
X102500000Y-46840000D02*
X101350000Y-45690000D01*
D33*
X96060000Y-52430000D02*
X96060000Y-51210000D01*
D36*
X58100000Y-113980000D02*
X56400000Y-112280000D01*
D33*
X80530000Y-70420000D02*
X83330000Y-73220000D01*
X109190000Y-41960000D02*
X111030000Y-43800000D01*
X111030000Y-43800000D02*
X111030000Y-45320000D01*
D32*
X103000000Y-89040000D02*
X88600000Y-89040000D01*
D34*
X66755000Y-62310000D02*
X66755000Y-61075000D01*
D33*
X114740000Y-113560000D02*
X114060000Y-114240000D01*
X114060000Y-114240000D02*
X112900000Y-114240000D01*
D34*
X79810000Y-57280000D02*
X79730000Y-57360000D01*
D35*
X53020000Y-120910000D02*
X53020000Y-115440000D01*
D33*
X114800000Y-105140000D02*
X114740000Y-105200000D01*
X114740000Y-101600000D02*
X114800000Y-101660000D01*
X103240000Y-42100000D02*
X103380000Y-41960000D01*
X83130000Y-73220000D02*
X81060000Y-75290000D01*
D32*
X82200000Y-104700000D02*
X81450000Y-104700000D01*
D39*
X72630000Y-100300000D02*
X77050000Y-100300000D01*
D32*
X70600000Y-89000000D02*
X102960000Y-89000000D01*
D33*
X96130000Y-53680000D02*
X96130000Y-52500000D01*
X114740000Y-105200000D02*
X114740000Y-113560000D01*
X96130000Y-52500000D02*
X96060000Y-52430000D01*
X55320000Y-91220000D02*
X55300000Y-91200000D01*
X96060000Y-53750000D02*
X96130000Y-53680000D01*
D37*
X96390000Y-49440000D02*
X102500000Y-49440000D01*
D33*
%TO.N,SCL*%
X74830000Y-59080000D02*
X74000000Y-59080000D01*
X86140000Y-75820000D02*
X86140000Y-76200000D01*
X88490000Y-73470000D02*
X86140000Y-75820000D01*
D35*
X84080000Y-44450000D02*
X84440000Y-44090000D01*
D33*
X74000000Y-59080000D02*
X72420000Y-60660000D01*
X75900000Y-47390000D02*
X75900000Y-48400000D01*
X75900000Y-48400000D02*
X74210000Y-50090000D01*
D35*
X84070000Y-46730000D02*
X84070000Y-48040000D01*
D33*
X77100000Y-46190000D02*
X75900000Y-47390000D01*
X72420000Y-66360000D02*
X74140000Y-68080000D01*
X88490000Y-72690000D02*
X88490000Y-73470000D01*
X84080000Y-46720000D02*
X83550000Y-46190000D01*
X75620000Y-58290000D02*
X74830000Y-59080000D01*
X74210000Y-54050000D02*
X75620000Y-55460000D01*
D35*
X84080000Y-46720000D02*
X84070000Y-46730000D01*
D33*
X74210000Y-50090000D02*
X74210000Y-54050000D01*
X75620000Y-55460000D02*
X75620000Y-58290000D01*
X74140000Y-68080000D02*
X83880000Y-68080000D01*
D35*
X84440000Y-44090000D02*
X84440000Y-41300000D01*
X84080000Y-46720000D02*
X84080000Y-44450000D01*
D33*
X72420000Y-60660000D02*
X72420000Y-66360000D01*
X83550000Y-46190000D02*
X77100000Y-46190000D01*
X83880000Y-68080000D02*
X88490000Y-72690000D01*
D35*
%TO.N,SDA*%
X86630000Y-44440000D02*
X86630000Y-41650000D01*
D33*
X78300000Y-59830000D02*
X84110000Y-59830000D01*
X76120000Y-59840000D02*
X75590000Y-60370000D01*
X77790000Y-55690000D02*
X77790000Y-59320000D01*
X78290000Y-59840000D02*
X76120000Y-59840000D01*
X87810000Y-49240000D02*
X87810000Y-50580000D01*
D35*
X97960000Y-47230000D02*
X95330000Y-44600000D01*
D33*
X75590000Y-60370000D02*
X74220000Y-60370000D01*
X74220000Y-60370000D02*
X73540000Y-61050000D01*
X85040000Y-49610000D02*
X76530000Y-49610000D01*
X77790000Y-59320000D02*
X78300000Y-59830000D01*
X86610000Y-48040000D02*
X85040000Y-49610000D01*
X73540000Y-61050000D02*
X73540000Y-65370000D01*
X91030000Y-71530000D02*
X91030000Y-73850000D01*
D35*
X86600000Y-44470000D02*
X86630000Y-44440000D01*
D33*
X85540000Y-61260000D02*
X85540000Y-62270000D01*
X74850000Y-66680000D02*
X86180000Y-66680000D01*
X75500000Y-53400000D02*
X77790000Y-55690000D01*
D35*
X95330000Y-44600000D02*
X86790000Y-44600000D01*
D33*
X76530000Y-49610000D02*
X75500000Y-50640000D01*
X86610000Y-48040000D02*
X87040000Y-48040000D01*
X86610000Y-48040000D02*
X87810000Y-49240000D01*
X75500000Y-50640000D02*
X75500000Y-53400000D01*
X84110000Y-59830000D02*
X85540000Y-61260000D01*
D35*
X86790000Y-44600000D02*
X86630000Y-44440000D01*
X86600000Y-48030000D02*
X86600000Y-44470000D01*
X86610000Y-48040000D02*
X86600000Y-48030000D01*
D33*
X91030000Y-73850000D02*
X88680000Y-76200000D01*
X86180000Y-66680000D02*
X91030000Y-71530000D01*
X87810000Y-50580000D02*
X88440000Y-51210000D01*
X73540000Y-65370000D02*
X74850000Y-66680000D01*
D35*
X86630000Y-41650000D02*
X86980000Y-41300000D01*
D33*
X78300000Y-59830000D02*
X78290000Y-59840000D01*
D35*
X100720000Y-47230000D02*
X97960000Y-47230000D01*
D33*
%TO.N,R_TX_PWM*%
X87360000Y-86500000D02*
X88600000Y-86500000D01*
X86900000Y-82900000D02*
X86900000Y-86040000D01*
X86900000Y-86040000D02*
X87360000Y-86500000D01*
X83600000Y-78740000D02*
X83600000Y-79600000D01*
X83600000Y-79600000D02*
X86900000Y-82900000D01*
%TO.N,R_SH_PWM*%
X86140000Y-78740000D02*
X86140000Y-79840000D01*
X89900000Y-82300000D02*
X90500000Y-82900000D01*
X90500000Y-85800000D02*
X91200000Y-86500000D01*
X88600000Y-82300000D02*
X89900000Y-82300000D01*
X90500000Y-82900000D02*
X90500000Y-85800000D01*
X86140000Y-79840000D02*
X88600000Y-82300000D01*
X91200000Y-86500000D02*
X92200000Y-86500000D01*
%TO.N,R_ELB_PWM*%
X93912792Y-81600000D02*
X94512792Y-82200000D01*
X97800000Y-83380000D02*
X97800000Y-86140000D01*
X94512792Y-82200000D02*
X96620000Y-82200000D01*
X97800000Y-86140000D02*
X98160000Y-86500000D01*
X98160000Y-86500000D02*
X99400000Y-86500000D01*
X96620000Y-82200000D02*
X97800000Y-83380000D01*
X93100000Y-81600000D02*
X93912792Y-81600000D01*
X91220000Y-78740000D02*
X91220000Y-79720000D01*
X91220000Y-79720000D02*
X93100000Y-81600000D01*
%TO.N,L_SH_PWM*%
X73620000Y-86460000D02*
X72400000Y-85240000D01*
X72400000Y-81500000D02*
X73480000Y-80420000D01*
X72400000Y-85240000D02*
X72400000Y-81500000D01*
X73480000Y-78780000D02*
X73440000Y-78740000D01*
X73480000Y-80420000D02*
X73480000Y-78780000D01*
X74550000Y-86460000D02*
X73620000Y-86460000D01*
%TO.N,L_TX_PWM*%
X70900000Y-78740000D02*
X70900000Y-79040000D01*
X69620000Y-86460000D02*
X70600000Y-86460000D01*
X68700000Y-81240000D02*
X68700000Y-85540000D01*
X70900000Y-79040000D02*
X68700000Y-81240000D01*
X68700000Y-85540000D02*
X69620000Y-86460000D01*
%TO.N,L_ELB_PWM*%
X78520000Y-80660000D02*
X79700000Y-81840000D01*
X79700000Y-86040000D02*
X80120000Y-86460000D01*
X79700000Y-81840000D02*
X79700000Y-86040000D01*
X78520000Y-78740000D02*
X78520000Y-80660000D01*
X80120000Y-86460000D02*
X81400000Y-86460000D01*
%TO.N,L_HP_PWM*%
X61720000Y-107090000D02*
X59400000Y-104770000D01*
X63880000Y-111800000D02*
X64700000Y-110980000D01*
X78520000Y-75420000D02*
X78520000Y-76200000D01*
X59400000Y-104770000D02*
X59400000Y-75000000D01*
X73120000Y-72400000D02*
X75500000Y-72400000D01*
X63530000Y-107090000D02*
X61720000Y-107090000D01*
X59400000Y-75000000D02*
X64570000Y-69830000D01*
X75500000Y-72400000D02*
X78520000Y-75420000D01*
X64700000Y-108260000D02*
X63530000Y-107090000D01*
X64570000Y-69830000D02*
X70550000Y-69830000D01*
X64700000Y-110980000D02*
X64700000Y-108260000D01*
X70550000Y-69830000D02*
X73120000Y-72400000D01*
X62900000Y-111800000D02*
X63880000Y-111800000D01*
D35*
%TO.N,L_HP_CURRENT*%
X62900000Y-119660000D02*
X62800000Y-119760000D01*
X62900000Y-116880000D02*
X62900000Y-119660000D01*
D33*
%TO.N,R_HP_PWM*%
X111000000Y-110640000D02*
X112060000Y-111700000D01*
X111000000Y-107700000D02*
X111000000Y-110640000D01*
X113400000Y-83140000D02*
X113400000Y-95900000D01*
X108400000Y-105100000D02*
X111000000Y-107700000D01*
X113400000Y-95900000D02*
X108400000Y-100900000D01*
X112060000Y-111700000D02*
X112900000Y-111700000D01*
X108400000Y-100900000D02*
X108400000Y-105100000D01*
X109000000Y-78740000D02*
X113400000Y-83140000D01*
D34*
%TO.N,R_HP_CURRENT*%
X112900000Y-116780000D02*
X112900000Y-119680000D01*
D33*
%TO.N,L_TG_PWM*%
X73210000Y-74170000D02*
X70620000Y-71580000D01*
X67780000Y-111800000D02*
X66500000Y-111800000D01*
X60770000Y-76230000D02*
X60770000Y-102460000D01*
X75980000Y-75010000D02*
X75140000Y-74170000D01*
X75140000Y-74170000D02*
X73210000Y-74170000D01*
X68300000Y-107480000D02*
X68300000Y-111280000D01*
X75980000Y-76200000D02*
X75980000Y-75010000D01*
X68300000Y-111280000D02*
X67780000Y-111800000D01*
X65420000Y-71580000D02*
X60770000Y-76230000D01*
X65090000Y-106780000D02*
X67600000Y-106780000D01*
X67600000Y-106780000D02*
X68300000Y-107480000D01*
X70620000Y-71580000D02*
X65420000Y-71580000D01*
X60770000Y-102460000D02*
X65090000Y-106780000D01*
D35*
%TO.N,L_TG_CURRENT*%
X66500000Y-119660000D02*
X66400000Y-119760000D01*
X66500000Y-116880000D02*
X66500000Y-119660000D01*
D33*
%TO.N,R_TG_PWM*%
X108120000Y-111700000D02*
X107490000Y-111070000D01*
X108500000Y-80800000D02*
X106460000Y-78760000D01*
X107490000Y-107310000D02*
X106300000Y-106120000D01*
X109200000Y-80800000D02*
X108500000Y-80800000D01*
X111700000Y-83300000D02*
X109200000Y-80800000D01*
X106300000Y-106120000D02*
X106300000Y-101170000D01*
X109300000Y-111700000D02*
X108120000Y-111700000D01*
X106460000Y-78760000D02*
X106460000Y-78740000D01*
X106600000Y-78980000D02*
X106640000Y-78940000D01*
X111700000Y-95770000D02*
X111700000Y-83300000D01*
X106300000Y-101170000D02*
X111700000Y-95770000D01*
X106640000Y-78940000D02*
X106660000Y-78940000D01*
X107490000Y-111070000D02*
X107490000Y-107310000D01*
D34*
%TO.N,R_TG_CURRENT*%
X109300000Y-116780000D02*
X109300000Y-119580000D01*
X109300000Y-119580000D02*
X109400000Y-119680000D01*
D33*
%TO.N,R_KN_PWM*%
X108600000Y-84234416D02*
X104665584Y-80300000D01*
X108600000Y-95220000D02*
X108600000Y-84234416D01*
X104665584Y-80300000D02*
X102940000Y-80300000D01*
X100300000Y-111000000D02*
X100300000Y-103520000D01*
X101000000Y-111700000D02*
X100300000Y-111000000D01*
X102940000Y-80300000D02*
X101380000Y-78740000D01*
X102100000Y-111700000D02*
X101000000Y-111700000D01*
X100300000Y-103520000D02*
X108600000Y-95220000D01*
D34*
%TO.N,R_KN_CURRENT*%
X102100000Y-116780000D02*
X102100000Y-119660000D01*
D33*
%TO.N,L_FT_PWM*%
X80130000Y-107330000D02*
X81880000Y-107330000D01*
X81880000Y-107330000D02*
X82600000Y-108050000D01*
X82600000Y-111280000D02*
X82100000Y-111780000D01*
X71960000Y-103500000D02*
X76300000Y-103500000D01*
X65600000Y-81500000D02*
X65600000Y-97140000D01*
X76300000Y-103500000D02*
X80130000Y-107330000D01*
X82600000Y-108050000D02*
X82600000Y-111280000D01*
X68360000Y-78740000D02*
X65600000Y-81500000D01*
X82100000Y-111780000D02*
X80900000Y-111780000D01*
X65600000Y-97140000D02*
X71960000Y-103500000D01*
D35*
%TO.N,L_FT_CURRENT*%
X81000000Y-116960000D02*
X81000000Y-119760000D01*
X80900000Y-116860000D02*
X81000000Y-116960000D01*
D33*
%TO.N,R_FT_PWM*%
X92400000Y-110100000D02*
X94000000Y-111700000D01*
X102000000Y-82400000D02*
X104000000Y-82400000D01*
X96300000Y-78740000D02*
X96640000Y-78740000D01*
X105400000Y-83800000D02*
X105400000Y-94550000D01*
X96640000Y-78740000D02*
X97100000Y-79200000D01*
X98780000Y-81380000D02*
X100980000Y-81380000D01*
X104000000Y-82400000D02*
X105400000Y-83800000D01*
X94000000Y-111700000D02*
X94900000Y-111700000D01*
X97100000Y-79200000D02*
X97100000Y-79700000D01*
X97100000Y-79700000D02*
X98780000Y-81380000D01*
X105400000Y-94550000D02*
X92400000Y-107550000D01*
X100980000Y-81380000D02*
X102000000Y-82400000D01*
X92400000Y-107550000D02*
X92400000Y-110100000D01*
D34*
%TO.N,R_FT_CURRENT*%
X94900000Y-119560000D02*
X95000000Y-119660000D01*
X94900000Y-116780000D02*
X94900000Y-119560000D01*
D33*
%TO.N,L_KNR_PWM*%
X62060000Y-77340000D02*
X62060000Y-101820000D01*
X65680000Y-105440000D02*
X68230000Y-105440000D01*
X70710000Y-111800000D02*
X70100000Y-111800000D01*
X71900000Y-108260000D02*
X71900000Y-110610000D01*
X66770000Y-72630000D02*
X62060000Y-77340000D01*
X71900000Y-110610000D02*
X70710000Y-111800000D01*
X69850000Y-72630000D02*
X66770000Y-72630000D01*
X73420000Y-76200000D02*
X69850000Y-72630000D01*
X70060000Y-107270000D02*
X70910000Y-107270000D01*
X70910000Y-107270000D02*
X71900000Y-108260000D01*
X73580000Y-76440000D02*
X73580000Y-76380000D01*
X73440000Y-76200000D02*
X73420000Y-76200000D01*
X68230000Y-105440000D02*
X70060000Y-107270000D01*
X62060000Y-101820000D02*
X65680000Y-105440000D01*
%TO.N,L_KN_PWM*%
X68770000Y-104010000D02*
X70860000Y-106100000D01*
X67550000Y-74150000D02*
X63220000Y-78480000D01*
X75500000Y-106980000D02*
X75500000Y-111080000D01*
X66720000Y-104010000D02*
X68770000Y-104010000D01*
X70900000Y-76200000D02*
X70900000Y-75400000D01*
X74620000Y-106100000D02*
X75500000Y-106980000D01*
X74780000Y-111800000D02*
X73700000Y-111800000D01*
X70860000Y-106100000D02*
X74620000Y-106100000D01*
X63220000Y-100510000D02*
X66720000Y-104010000D01*
X75500000Y-111080000D02*
X74780000Y-111800000D01*
X63220000Y-78480000D02*
X63220000Y-100510000D01*
X69650000Y-74150000D02*
X67550000Y-74150000D01*
X70900000Y-75400000D02*
X69650000Y-74150000D01*
%TO.N,L_ANK_PWM*%
X79100000Y-108200000D02*
X79100000Y-110900000D01*
X79100000Y-110900000D02*
X78200000Y-111800000D01*
X67250000Y-102600000D02*
X69290000Y-102600000D01*
X71690000Y-105000000D02*
X75900000Y-105000000D01*
X75900000Y-105000000D02*
X79100000Y-108200000D01*
X64380000Y-99730000D02*
X67250000Y-102600000D01*
X64380000Y-79820000D02*
X64380000Y-99730000D01*
X78200000Y-111800000D02*
X77300000Y-111800000D01*
X68360000Y-76200000D02*
X68000000Y-76200000D01*
X68000000Y-76200000D02*
X64380000Y-79820000D01*
X69290000Y-102600000D02*
X71690000Y-105000000D01*
%TO.N,R_FT_ANGLE*%
X115100000Y-82500000D02*
X111540000Y-78940000D01*
X110100000Y-101100000D02*
X115100000Y-96100000D01*
X112200000Y-105200000D02*
X111600000Y-105200000D01*
X110100000Y-103700000D02*
X110100000Y-101100000D01*
X115100000Y-96100000D02*
X115100000Y-82500000D01*
X111600000Y-105200000D02*
X110100000Y-103700000D01*
X111680000Y-78980000D02*
X111720000Y-78940000D01*
X111540000Y-78940000D02*
X111540000Y-78740000D01*
%TO.N,R_KNR_PWM*%
X103900000Y-101780000D02*
X103900000Y-110830000D01*
X104770000Y-111700000D02*
X105700000Y-111700000D01*
X108500000Y-81900000D02*
X110000000Y-83400000D01*
X104480101Y-78740000D02*
X107640101Y-81900000D01*
X103920000Y-78740000D02*
X104480101Y-78740000D01*
X107640101Y-81900000D02*
X108500000Y-81900000D01*
X110000000Y-83400000D02*
X110000000Y-95680000D01*
X103900000Y-110830000D02*
X104770000Y-111700000D01*
X110000000Y-95680000D02*
X103900000Y-101780000D01*
%TO.N,R_ANK_PWM*%
X98500000Y-111700000D02*
X97600000Y-111700000D01*
X106900000Y-83950000D02*
X104250000Y-81300000D01*
X101500000Y-80400000D02*
X100300000Y-80400000D01*
X106900000Y-94930000D02*
X106900000Y-83950000D01*
X100300000Y-80400000D02*
X98840000Y-78940000D01*
X104250000Y-81300000D02*
X102400000Y-81300000D01*
X97600000Y-111700000D02*
X96800000Y-110900000D01*
X98840000Y-78940000D02*
X98840000Y-78740000D01*
X96800000Y-105030000D02*
X106900000Y-94930000D01*
X96800000Y-110900000D02*
X96800000Y-105030000D01*
X102400000Y-81300000D02*
X101500000Y-80400000D01*
%TO.N,L_FT_ANGLE*%
X112200000Y-101600000D02*
X112200000Y-101200000D01*
X116680000Y-96720000D02*
X116680000Y-81340000D01*
X112200000Y-101200000D02*
X116680000Y-96720000D01*
X116680000Y-81340000D02*
X114080000Y-78740000D01*
%TO.N,MAIN_RX*%
X93570000Y-73850000D02*
X91220000Y-76200000D01*
X93570000Y-73220000D02*
X93570000Y-73850000D01*
%TO.N,MAIN_TX*%
X96110000Y-73220000D02*
X96110000Y-73850000D01*
X96110000Y-73850000D02*
X93760000Y-76200000D01*
D35*
%TO.N,Net-(Q1-C)*%
X75440000Y-133240000D02*
X75440000Y-136960000D01*
X72800000Y-139600000D02*
X68600000Y-139600000D01*
X75440000Y-136960000D02*
X72800000Y-139600000D01*
X75440000Y-133240000D02*
X75680000Y-133000000D01*
D37*
X79160000Y-133045000D02*
X79160000Y-135060000D01*
X81780000Y-137680000D02*
X81780000Y-139500000D01*
D35*
X75680000Y-133000000D02*
X78367500Y-133000000D01*
X66942500Y-137942500D02*
X66942500Y-135100000D01*
X78367500Y-133000000D02*
X78492500Y-133125000D01*
X68600000Y-139600000D02*
X66942500Y-137942500D01*
D37*
X79160000Y-135060000D02*
X81780000Y-137680000D01*
%TO.N,Net-(Q1-B)*%
X72900000Y-135290000D02*
X70690000Y-137500000D01*
X72900000Y-133240000D02*
X72900000Y-135290000D01*
%TO.N,Net-(Q3-C)*%
X101400000Y-139000000D02*
X99310000Y-139000000D01*
X99990000Y-132610000D02*
X100410000Y-132610000D01*
X98100000Y-134500000D02*
X99990000Y-132610000D01*
D35*
X100410000Y-132610000D02*
X102310000Y-132610000D01*
D37*
X98100000Y-137000000D02*
X98100000Y-134500000D01*
X99400000Y-138300000D02*
X98100000Y-137000000D01*
D35*
X98390000Y-130590000D02*
X100410000Y-132610000D01*
%TO.N,L_KNR_CURRENT*%
X70100000Y-116880000D02*
X70100000Y-119760000D01*
D34*
%TO.N,R_KNR_CURRENT*%
X105700000Y-116780000D02*
X105700000Y-119680000D01*
D33*
%TO.N,HD_PWM*%
X105160000Y-43710000D02*
X105380000Y-43490000D01*
X105160000Y-47370000D02*
X105160000Y-43710000D01*
X101730000Y-67070000D02*
X120330000Y-67070000D01*
X123270000Y-64130000D02*
X123270000Y-51120000D01*
X120330000Y-67070000D02*
X123270000Y-64130000D01*
X120840000Y-48690000D02*
X106480000Y-48690000D01*
X96300000Y-75970000D02*
X97980000Y-74290000D01*
X97980000Y-70820000D02*
X101730000Y-67070000D01*
X97980000Y-74290000D02*
X97980000Y-70820000D01*
X106480000Y-48690000D02*
X105160000Y-47370000D01*
X123270000Y-51120000D02*
X120840000Y-48690000D01*
X96300000Y-76200000D02*
X96300000Y-75970000D01*
%TO.N,HD_CURRENT*%
X121130000Y-51150000D02*
X121130000Y-56420000D01*
X119660000Y-49680000D02*
X121130000Y-51150000D01*
X105020000Y-49680000D02*
X119660000Y-49680000D01*
X103820000Y-48480000D02*
X105020000Y-49680000D01*
X97960000Y-57450000D02*
X95700000Y-59710000D01*
X100850000Y-43690000D02*
X102260000Y-45100000D01*
X103820000Y-45690000D02*
X103820000Y-48480000D01*
X102260000Y-45100000D02*
X103230000Y-45100000D01*
X120100000Y-57450000D02*
X97960000Y-57450000D01*
X95700000Y-59710000D02*
X95700000Y-62270000D01*
X121130000Y-56420000D02*
X120100000Y-57450000D01*
X100090000Y-43690000D02*
X100850000Y-43690000D01*
X99970000Y-43160000D02*
X100300000Y-43490000D01*
X103230000Y-45100000D02*
X103820000Y-45690000D01*
X99970000Y-40570000D02*
X99970000Y-43160000D01*
D35*
%TO.N,L_KN_CURRENT*%
X73700000Y-116880000D02*
X73700000Y-119760000D01*
D33*
%TO.N,L_ELBR_PWM*%
X75980000Y-78740000D02*
X75900000Y-78820000D01*
X75900000Y-85240000D02*
X77120000Y-86460000D01*
X75900000Y-78820000D02*
X75900000Y-85240000D01*
X77120000Y-86460000D02*
X77800000Y-86460000D01*
D35*
%TO.N,L_ELBR_CURRENT*%
X77800000Y-91540000D02*
X77800000Y-93320000D01*
X77800000Y-93320000D02*
X78770000Y-94290000D01*
D33*
%TO.N,R_ELBR_PWM*%
X94100000Y-83060000D02*
X94100000Y-85940000D01*
X94660000Y-86500000D02*
X95800000Y-86500000D01*
X93540000Y-82500000D02*
X94100000Y-83060000D01*
X88680000Y-78740000D02*
X88680000Y-79280000D01*
X88680000Y-79280000D02*
X91900000Y-82500000D01*
X94100000Y-85940000D02*
X94660000Y-86500000D01*
X91900000Y-82500000D02*
X93540000Y-82500000D01*
D35*
%TO.N,R_ELBR_CURRENT*%
X95800000Y-91580000D02*
X95800000Y-93500000D01*
X95800000Y-93500000D02*
X94900000Y-94400000D01*
%TO.N,L_ANK_CURRENT*%
X77400000Y-116980000D02*
X77400000Y-119710000D01*
X77300000Y-116880000D02*
X77400000Y-116980000D01*
D34*
%TO.N,R_ANK_CURRENT*%
X98500000Y-116780000D02*
X98500000Y-119660000D01*
D33*
%TO.N,L_HND_PWM*%
X84120000Y-86460000D02*
X85000000Y-86460000D01*
X81060000Y-80460000D02*
X83300000Y-82700000D01*
X83300000Y-82700000D02*
X83300000Y-85640000D01*
X83300000Y-85640000D02*
X84120000Y-86460000D01*
X81060000Y-78740000D02*
X81060000Y-80460000D01*
D35*
%TO.N,L_HND_CURRENT*%
X85000000Y-91540000D02*
X85000000Y-94020000D01*
X85000000Y-94020000D02*
X85400000Y-94420000D01*
D33*
%TO.N,R_HND_PWM*%
X98080000Y-82280000D02*
X100420000Y-82280000D01*
X101100000Y-85640000D02*
X101960000Y-86500000D01*
X95200000Y-81200000D02*
X97000000Y-81200000D01*
X93760000Y-78740000D02*
X93760000Y-79760000D01*
X100420000Y-82280000D02*
X101100000Y-82960000D01*
X93760000Y-79760000D02*
X95200000Y-81200000D01*
X101100000Y-82960000D02*
X101100000Y-85640000D01*
X97000000Y-81200000D02*
X98080000Y-82280000D01*
X101960000Y-86500000D02*
X103000000Y-86500000D01*
D35*
%TO.N,R_HND_CURRENT*%
X103000000Y-92080000D02*
X100700000Y-94380000D01*
X100700000Y-94380000D02*
X100400000Y-94380000D01*
X103000000Y-91580000D02*
X103000000Y-92080000D01*
D33*
%TO.N,Net-(Q3-B)*%
X104850000Y-132610000D02*
X104850000Y-133040000D01*
X104850000Y-133040000D02*
X107810000Y-136000000D01*
%TO.N,Net-(Q5-C)*%
X60200000Y-122100000D02*
X63400000Y-125300000D01*
X66910000Y-125300000D02*
X67010000Y-125200000D01*
X56200000Y-122100000D02*
X60200000Y-122100000D01*
X53600000Y-126040000D02*
X53600000Y-124700000D01*
D35*
X75380000Y-127580000D02*
X78592500Y-127580000D01*
D33*
X63400000Y-125300000D02*
X66910000Y-125300000D01*
X75340000Y-127540000D02*
X75340000Y-125140000D01*
X68110000Y-124100000D02*
X67410000Y-124800000D01*
X75340000Y-125140000D02*
X74300000Y-124100000D01*
X74300000Y-124100000D02*
X68110000Y-124100000D01*
X53600000Y-124700000D02*
X56200000Y-122100000D01*
D35*
X75340000Y-127540000D02*
X75380000Y-127580000D01*
D33*
%TO.N,Net-(Q5-B)*%
X72800000Y-126600000D02*
X71600000Y-125400000D01*
X57300000Y-123500000D02*
X56800000Y-124000000D01*
X59900000Y-123500000D02*
X57300000Y-123500000D01*
X71600000Y-125400000D02*
X69300000Y-125400000D01*
X63100000Y-126700000D02*
X59900000Y-123500000D01*
X72800000Y-126940000D02*
X72800000Y-126600000D01*
X68000000Y-126700000D02*
X63100000Y-126700000D01*
X69300000Y-125400000D02*
X68000000Y-126700000D01*
X56800000Y-124000000D02*
X56800000Y-126040000D01*
%TO.N,Net-(Q7-C)*%
X110290000Y-124800000D02*
X109390000Y-123900000D01*
X109390000Y-123900000D02*
X104300000Y-123900000D01*
D35*
X100705000Y-125005000D02*
X102270000Y-126570000D01*
D33*
X103700000Y-124500000D02*
X103700000Y-125140000D01*
X104300000Y-123900000D02*
X103700000Y-124500000D01*
X103700000Y-125140000D02*
X102270000Y-126570000D01*
X110710000Y-124800000D02*
X110290000Y-124800000D01*
X113100000Y-127190000D02*
X110710000Y-124800000D01*
D35*
X98450000Y-125005000D02*
X100705000Y-125005000D01*
D33*
%TO.N,SHUTOFF*%
X105740000Y-73360000D02*
X105740000Y-72500000D01*
X110000000Y-134810000D02*
X110000000Y-136600000D01*
X110000000Y-136600000D02*
X109000000Y-137600000D01*
X51300000Y-134400000D02*
X50400000Y-135300000D01*
X120620000Y-70820000D02*
X107420000Y-70820000D01*
X103920000Y-76200000D02*
X103920000Y-75180000D01*
X95100000Y-136100000D02*
X95900000Y-136900000D01*
D37*
X78050000Y-139550000D02*
X78310000Y-139290000D01*
D33*
X124580000Y-74780000D02*
X120620000Y-70820000D01*
X50400000Y-135300000D02*
X50400000Y-139700000D01*
X124580000Y-137240000D02*
X124580000Y-74780000D01*
X95900000Y-139400000D02*
X97100000Y-140600000D01*
X103920000Y-75180000D02*
X105740000Y-73360000D01*
D37*
X78050000Y-140050000D02*
X78050000Y-139550000D01*
D33*
X104100000Y-140600000D02*
X107100000Y-137600000D01*
D37*
X78050000Y-140050000D02*
X76600000Y-141500000D01*
D33*
X109000000Y-137600000D02*
X104400000Y-137600000D01*
X56600000Y-136200000D02*
X54800000Y-134400000D01*
X55600000Y-144900000D02*
X116920000Y-144900000D01*
X54800000Y-134400000D02*
X51300000Y-134400000D01*
X82700000Y-141500000D02*
X88100000Y-136100000D01*
X102800000Y-136000000D02*
X99890000Y-136000000D01*
X104400000Y-137600000D02*
X102800000Y-136000000D01*
X97100000Y-140600000D02*
X104100000Y-140600000D01*
X116920000Y-144900000D02*
X124580000Y-137240000D01*
D37*
X59400000Y-141500000D02*
X56600000Y-138700000D01*
D33*
X88100000Y-136100000D02*
X95100000Y-136100000D01*
X107420000Y-70820000D02*
X105740000Y-72500000D01*
X79500000Y-141500000D02*
X82700000Y-141500000D01*
D37*
X78310000Y-139290000D02*
X78310000Y-137500000D01*
D33*
X95900000Y-136900000D02*
X95900000Y-139400000D01*
X50400000Y-139700000D02*
X55600000Y-144900000D01*
D37*
X76600000Y-141500000D02*
X59400000Y-141500000D01*
X56600000Y-138700000D02*
X56600000Y-136200000D01*
D33*
X107100000Y-137600000D02*
X109000000Y-137600000D01*
X78050000Y-140050000D02*
X79500000Y-141500000D01*
%TO.N,Net-(Q7-B)*%
X104810000Y-126090000D02*
X106000000Y-124900000D01*
X104810000Y-126570000D02*
X104810000Y-126090000D01*
X108100000Y-124900000D02*
X110000000Y-126800000D01*
X110000000Y-126800000D02*
X110000000Y-127190000D01*
X106000000Y-124900000D02*
X108100000Y-124900000D01*
%TD*%
%TA.AperFunction,Conductor*%
%TO.N,GND*%
G36*
X56923083Y-38720185D02*
G01*
X56968838Y-38772989D01*
X56978782Y-38842147D01*
X56978263Y-38845441D01*
X56969500Y-38896550D01*
X56969500Y-40275247D01*
X56969722Y-40277863D01*
X56969723Y-40277871D01*
X56984653Y-40453289D01*
X57044724Y-40684000D01*
X57142922Y-40901235D01*
X57268850Y-41087551D01*
X57276421Y-41098753D01*
X57441379Y-41270868D01*
X57633053Y-41412629D01*
X57845926Y-41519957D01*
X58073877Y-41589766D01*
X58310346Y-41620048D01*
X58548532Y-41609930D01*
X58781581Y-41559704D01*
X59002790Y-41470814D01*
X59205795Y-41345819D01*
X59384755Y-41188314D01*
X59534523Y-41002830D01*
X59650790Y-40794704D01*
X59730211Y-40569921D01*
X59737461Y-40527641D01*
X59770500Y-40334952D01*
X59770500Y-39726873D01*
X59770500Y-38956253D01*
X59760181Y-38835015D01*
X59774109Y-38766549D01*
X59822842Y-38716481D01*
X59883734Y-38700500D01*
X70356044Y-38700500D01*
X70423083Y-38720185D01*
X70468838Y-38772989D01*
X70478782Y-38842147D01*
X70478263Y-38845441D01*
X70469500Y-38896550D01*
X70469500Y-40275247D01*
X70469722Y-40277863D01*
X70469723Y-40277871D01*
X70484653Y-40453289D01*
X70544724Y-40684000D01*
X70642922Y-40901235D01*
X70768850Y-41087551D01*
X70776421Y-41098753D01*
X70941379Y-41270868D01*
X71133053Y-41412629D01*
X71345926Y-41519957D01*
X71573877Y-41589766D01*
X71810346Y-41620048D01*
X72048532Y-41609930D01*
X72281581Y-41559704D01*
X72502790Y-41470814D01*
X72705795Y-41345819D01*
X72884755Y-41188314D01*
X73034523Y-41002830D01*
X73150790Y-40794704D01*
X73230211Y-40569921D01*
X73237461Y-40527641D01*
X73270500Y-40334952D01*
X73270500Y-38958884D01*
X73270500Y-38956253D01*
X73260181Y-38835015D01*
X73274109Y-38766549D01*
X73322842Y-38716481D01*
X73383734Y-38700500D01*
X73809953Y-38700500D01*
X73876992Y-38720185D01*
X73897634Y-38736819D01*
X74563182Y-39402367D01*
X74596666Y-39463688D01*
X74599500Y-39490046D01*
X74599500Y-39943837D01*
X74593513Y-39973945D01*
X74595405Y-39974400D01*
X74534317Y-40228850D01*
X74514551Y-40480000D01*
X74534317Y-40731149D01*
X74593126Y-40976110D01*
X74637450Y-41083117D01*
X74689534Y-41208859D01*
X74821164Y-41423659D01*
X74984776Y-41615224D01*
X75176341Y-41778836D01*
X75391141Y-41910466D01*
X75623889Y-42006873D01*
X75868852Y-42065683D01*
X76120000Y-42085449D01*
X76371148Y-42065683D01*
X76616111Y-42006873D01*
X76848859Y-41910466D01*
X77063659Y-41778836D01*
X77255224Y-41615224D01*
X77418836Y-41423659D01*
X77515665Y-41265647D01*
X77567474Y-41218776D01*
X77636404Y-41207353D01*
X77700567Y-41235010D01*
X77739592Y-41292966D01*
X77744988Y-41320463D01*
X77747035Y-41345817D01*
X77754600Y-41439527D01*
X77762312Y-41470814D01*
X77814509Y-41682589D01*
X77814510Y-41682591D01*
X77912608Y-41912837D01*
X77912636Y-41912901D01*
X77948713Y-41969952D01*
X78046432Y-42124481D01*
X78132399Y-42221518D01*
X78204744Y-42303179D01*
X78212437Y-42311862D01*
X78406350Y-42470188D01*
X78406351Y-42470189D01*
X78406353Y-42470190D01*
X78558641Y-42558113D01*
X78606857Y-42608680D01*
X78620080Y-42677287D01*
X78594112Y-42742152D01*
X78537198Y-42782680D01*
X78496641Y-42789500D01*
X78115046Y-42789500D01*
X78111590Y-42789889D01*
X78111579Y-42789890D01*
X77980749Y-42804631D01*
X77980746Y-42804631D01*
X77980745Y-42804632D01*
X77810478Y-42864211D01*
X77810476Y-42864211D01*
X77810476Y-42864212D01*
X77657735Y-42960185D01*
X77530185Y-43087735D01*
X77442673Y-43227011D01*
X77434211Y-43240478D01*
X77374636Y-43410736D01*
X77374631Y-43410749D01*
X77359890Y-43541579D01*
X77359889Y-43541590D01*
X77359500Y-43545046D01*
X77359500Y-43548528D01*
X77359500Y-43548529D01*
X77359500Y-44915500D01*
X77339815Y-44982539D01*
X77287011Y-45028294D01*
X77235500Y-45039500D01*
X77129439Y-45039500D01*
X77123714Y-45039368D01*
X77115901Y-45039006D01*
X77046638Y-45035805D01*
X77046637Y-45035805D01*
X77046634Y-45035805D01*
X76970230Y-45046461D01*
X76964545Y-45047121D01*
X76887688Y-45054243D01*
X76870228Y-45059211D01*
X76853436Y-45062753D01*
X76835467Y-45065260D01*
X76835464Y-45065260D01*
X76835463Y-45065261D01*
X76811577Y-45073266D01*
X76762285Y-45089787D01*
X76756818Y-45091480D01*
X76682607Y-45112596D01*
X76666361Y-45120685D01*
X76650513Y-45127250D01*
X76633295Y-45133022D01*
X76565883Y-45170568D01*
X76560821Y-45173236D01*
X76491745Y-45207632D01*
X76477260Y-45218571D01*
X76462880Y-45227942D01*
X76447023Y-45236774D01*
X76387652Y-45286074D01*
X76383167Y-45289627D01*
X76321590Y-45336130D01*
X76269611Y-45393147D01*
X76265657Y-45397288D01*
X75107288Y-46555657D01*
X75103147Y-46559611D01*
X75046128Y-46611592D01*
X74999633Y-46673159D01*
X74996079Y-46677646D01*
X74946772Y-46737024D01*
X74937938Y-46752885D01*
X74928566Y-46767267D01*
X74917635Y-46781741D01*
X74883236Y-46850824D01*
X74880566Y-46855888D01*
X74843020Y-46923297D01*
X74837253Y-46940504D01*
X74830687Y-46956356D01*
X74822595Y-46972607D01*
X74801479Y-47046821D01*
X74799786Y-47052289D01*
X74775260Y-47125467D01*
X74772753Y-47143436D01*
X74769210Y-47160231D01*
X74764244Y-47177686D01*
X74759096Y-47233232D01*
X74741353Y-47286577D01*
X74689532Y-47371142D01*
X74593127Y-47603886D01*
X74534317Y-47848850D01*
X74533363Y-47860972D01*
X74514551Y-48100000D01*
X74514551Y-48100003D01*
X74513786Y-48109728D01*
X74511718Y-48109565D01*
X74499961Y-48165526D01*
X74478390Y-48194556D01*
X73417288Y-49255657D01*
X73413147Y-49259611D01*
X73356128Y-49311592D01*
X73309633Y-49373159D01*
X73306079Y-49377646D01*
X73256772Y-49437024D01*
X73247938Y-49452885D01*
X73238566Y-49467267D01*
X73227635Y-49481741D01*
X73193236Y-49550824D01*
X73190566Y-49555888D01*
X73153020Y-49623297D01*
X73147253Y-49640504D01*
X73140687Y-49656356D01*
X73132595Y-49672607D01*
X73111479Y-49746821D01*
X73109786Y-49752289D01*
X73085260Y-49825467D01*
X73082753Y-49843436D01*
X73079210Y-49860231D01*
X73074244Y-49877686D01*
X73067123Y-49954532D01*
X73066463Y-49960220D01*
X73055804Y-50036635D01*
X73059368Y-50113727D01*
X73059500Y-50119453D01*
X73059500Y-54020545D01*
X73059368Y-54026271D01*
X73055804Y-54103363D01*
X73066463Y-54179778D01*
X73067123Y-54185466D01*
X73074243Y-54262308D01*
X73079209Y-54279759D01*
X73082753Y-54296558D01*
X73085261Y-54314536D01*
X73085261Y-54314538D01*
X73085262Y-54314539D01*
X73109785Y-54387708D01*
X73111479Y-54393178D01*
X73132594Y-54467387D01*
X73140684Y-54483635D01*
X73147252Y-54499493D01*
X73153019Y-54516698D01*
X73190571Y-54584118D01*
X73193241Y-54589185D01*
X73227632Y-54658253D01*
X73238566Y-54672731D01*
X73247941Y-54687119D01*
X73256773Y-54702975D01*
X73306087Y-54762363D01*
X73309642Y-54766851D01*
X73356128Y-54828407D01*
X73385077Y-54854798D01*
X73413157Y-54880397D01*
X73417299Y-54884352D01*
X74433181Y-55900234D01*
X74466666Y-55961557D01*
X74469500Y-55987915D01*
X74469500Y-57762084D01*
X74449815Y-57829123D01*
X74433182Y-57849764D01*
X74389767Y-57893180D01*
X74328444Y-57926666D01*
X74302085Y-57929500D01*
X74029439Y-57929500D01*
X74023714Y-57929368D01*
X74015901Y-57929006D01*
X73946638Y-57925805D01*
X73946637Y-57925805D01*
X73946634Y-57925805D01*
X73870230Y-57936461D01*
X73864545Y-57937121D01*
X73813305Y-57941870D01*
X73744735Y-57928456D01*
X73694303Y-57880100D01*
X73678019Y-57812154D01*
X73681289Y-57789450D01*
X73685682Y-57771151D01*
X73685683Y-57771148D01*
X73705449Y-57520000D01*
X73685683Y-57268852D01*
X73626873Y-57023889D01*
X73530466Y-56791141D01*
X73398836Y-56576341D01*
X73235224Y-56384776D01*
X73043659Y-56221164D01*
X72828859Y-56089534D01*
X72711460Y-56040906D01*
X72596110Y-55993126D01*
X72351149Y-55934317D01*
X72130151Y-55916924D01*
X72100000Y-55914551D01*
X72099999Y-55914551D01*
X71848850Y-55934317D01*
X71716573Y-55966074D01*
X71687626Y-55969500D01*
X70326833Y-55969500D01*
X70324337Y-55969475D01*
X70216078Y-55967295D01*
X70216077Y-55967295D01*
X70216075Y-55967295D01*
X70142262Y-55977769D01*
X70134819Y-55978597D01*
X70116175Y-55980102D01*
X70047769Y-55965875D01*
X69997914Y-55916924D01*
X69982438Y-55848790D01*
X69998283Y-55795428D01*
X70008442Y-55777478D01*
X70159012Y-55511436D01*
X70315913Y-55152414D01*
X70435068Y-54779163D01*
X70515214Y-54395638D01*
X70555500Y-54005905D01*
X70555500Y-53935579D01*
X70575185Y-53868540D01*
X70591815Y-53847902D01*
X71353772Y-53085944D01*
X71357143Y-53082700D01*
X71445350Y-53001059D01*
X71558550Y-52872257D01*
X71673349Y-52744981D01*
X71684514Y-52729696D01*
X71691503Y-52720981D01*
X71704004Y-52706758D01*
X71803350Y-52567014D01*
X71904464Y-52428595D01*
X71914012Y-52412218D01*
X71920039Y-52402876D01*
X71931027Y-52387422D01*
X72015468Y-52238221D01*
X72101824Y-52090122D01*
X72109635Y-52072856D01*
X72114688Y-52062910D01*
X72122434Y-52049224D01*
X72122433Y-52049224D01*
X72124012Y-52046436D01*
X72192655Y-51889365D01*
X72263335Y-51733149D01*
X72269327Y-51715178D01*
X72273328Y-51704766D01*
X72280913Y-51687414D01*
X72333029Y-51524160D01*
X72387286Y-51361464D01*
X72391400Y-51342964D01*
X72394313Y-51332187D01*
X72399101Y-51317191D01*
X72400068Y-51314163D01*
X72435121Y-51146420D01*
X72472363Y-50979002D01*
X72474552Y-50960190D01*
X72476344Y-50949154D01*
X72479561Y-50933762D01*
X72480214Y-50930638D01*
X72497837Y-50760141D01*
X72517663Y-50589820D01*
X72517906Y-50570880D01*
X72518554Y-50559720D01*
X72520500Y-50540905D01*
X72520500Y-50369507D01*
X72522708Y-50198042D01*
X72521003Y-50179175D01*
X72520500Y-50168015D01*
X72520500Y-45519449D01*
X72520500Y-45519448D01*
X72520500Y-45517860D01*
X72505376Y-45224460D01*
X72445080Y-44837318D01*
X72345298Y-44458427D01*
X72207086Y-44091804D01*
X72031911Y-43741336D01*
X72026621Y-43733020D01*
X71918973Y-43563779D01*
X71821628Y-43410736D01*
X71578467Y-43103511D01*
X71440633Y-42962081D01*
X71307232Y-42825199D01*
X71307231Y-42825198D01*
X71305006Y-42822915D01*
X71208195Y-42742152D01*
X71006607Y-42573980D01*
X71006600Y-42573975D01*
X71004143Y-42571925D01*
X71001483Y-42570135D01*
X70681722Y-42354985D01*
X70681711Y-42354978D01*
X70679068Y-42353200D01*
X70676246Y-42351697D01*
X70676242Y-42351695D01*
X70336044Y-42170558D01*
X70336037Y-42170554D01*
X70333226Y-42169058D01*
X70330276Y-42167858D01*
X70330267Y-42167854D01*
X69973243Y-42022656D01*
X69973229Y-42022651D01*
X69970283Y-42021453D01*
X69967227Y-42020563D01*
X69967220Y-42020561D01*
X69597142Y-41912837D01*
X69597137Y-41912835D01*
X69594087Y-41911948D01*
X69539081Y-41901924D01*
X69211769Y-41842276D01*
X69211754Y-41842274D01*
X69208626Y-41841704D01*
X69205442Y-41841457D01*
X69205438Y-41841457D01*
X68821174Y-41811712D01*
X68821157Y-41811711D01*
X68817985Y-41811466D01*
X68814795Y-41811548D01*
X68814789Y-41811548D01*
X68429486Y-41821472D01*
X68429484Y-41821472D01*
X68426305Y-41821554D01*
X68423156Y-41821961D01*
X68423152Y-41821962D01*
X68040891Y-41871453D01*
X68040873Y-41871456D01*
X68037739Y-41871862D01*
X68034661Y-41872588D01*
X68034641Y-41872592D01*
X67659512Y-41961121D01*
X67659498Y-41961125D01*
X67656405Y-41961855D01*
X67653405Y-41962898D01*
X67653393Y-41962902D01*
X67289354Y-42089535D01*
X67289348Y-42089537D01*
X67286345Y-42090582D01*
X67283469Y-42091927D01*
X67283452Y-42091935D01*
X66934382Y-42255317D01*
X66934371Y-42255322D01*
X66931482Y-42256675D01*
X66928741Y-42258320D01*
X66928737Y-42258323D01*
X66598316Y-42456731D01*
X66598303Y-42456739D01*
X66595578Y-42458376D01*
X66593039Y-42460280D01*
X66593026Y-42460290D01*
X66284736Y-42691637D01*
X66284727Y-42691643D01*
X66282193Y-42693546D01*
X66279873Y-42695693D01*
X66279859Y-42695705D01*
X65996983Y-42957531D01*
X65996976Y-42957537D01*
X65994650Y-42959691D01*
X65992563Y-42962065D01*
X65992548Y-42962081D01*
X65738109Y-43251587D01*
X65738102Y-43251594D01*
X65735996Y-43253992D01*
X65734146Y-43256593D01*
X65734139Y-43256603D01*
X65510827Y-43570718D01*
X65510814Y-43570738D01*
X65508973Y-43573328D01*
X65507400Y-43576106D01*
X65507397Y-43576112D01*
X65317566Y-43911524D01*
X65317558Y-43911539D01*
X65315988Y-43914314D01*
X65314707Y-43917243D01*
X65314704Y-43917251D01*
X65177958Y-44230156D01*
X65159087Y-44273336D01*
X65158117Y-44276373D01*
X65158116Y-44276377D01*
X65040903Y-44643542D01*
X65040897Y-44643561D01*
X65039932Y-44646587D01*
X65039278Y-44649713D01*
X65039278Y-44649716D01*
X65000075Y-44837318D01*
X64959786Y-45030112D01*
X64959459Y-45033273D01*
X64959456Y-45033294D01*
X64919828Y-45416665D01*
X64919827Y-45416678D01*
X64919500Y-45419845D01*
X64919500Y-45423043D01*
X64919500Y-47408957D01*
X64899815Y-47475996D01*
X64859336Y-47515262D01*
X64772789Y-47567232D01*
X64633307Y-47650987D01*
X64633302Y-47650989D01*
X64630578Y-47652626D01*
X64628039Y-47654530D01*
X64628026Y-47654540D01*
X64319736Y-47885887D01*
X64319727Y-47885893D01*
X64317193Y-47887796D01*
X64314873Y-47889943D01*
X64314859Y-47889955D01*
X64031983Y-48151781D01*
X64031976Y-48151787D01*
X64029650Y-48153941D01*
X64027563Y-48156315D01*
X64027548Y-48156331D01*
X63773109Y-48445837D01*
X63773102Y-48445844D01*
X63770996Y-48448242D01*
X63769146Y-48450843D01*
X63769139Y-48450853D01*
X63545827Y-48764968D01*
X63545814Y-48764988D01*
X63543973Y-48767578D01*
X63542400Y-48770356D01*
X63542397Y-48770362D01*
X63352566Y-49105774D01*
X63352558Y-49105789D01*
X63350988Y-49108564D01*
X63349707Y-49111493D01*
X63349704Y-49111501D01*
X63200409Y-49453121D01*
X63194087Y-49467586D01*
X63193117Y-49470623D01*
X63193116Y-49470627D01*
X63075903Y-49837792D01*
X63075897Y-49837811D01*
X63074932Y-49840837D01*
X63074278Y-49843963D01*
X63074278Y-49843966D01*
X63005752Y-50171888D01*
X62994786Y-50224362D01*
X62994459Y-50227523D01*
X62994456Y-50227544D01*
X62954828Y-50610915D01*
X62954827Y-50610928D01*
X62954500Y-50614095D01*
X62954500Y-50617293D01*
X62954500Y-52285464D01*
X62952802Y-52417381D01*
X62952292Y-52456957D01*
X62952578Y-52460127D01*
X62952579Y-52460139D01*
X62953997Y-52475821D01*
X62954500Y-52486983D01*
X62954500Y-53907890D01*
X62954580Y-53909453D01*
X62954581Y-53909469D01*
X62968661Y-54182618D01*
X62969624Y-54201290D01*
X62970115Y-54204446D01*
X62970116Y-54204450D01*
X63029427Y-54585272D01*
X63029430Y-54585287D01*
X63029920Y-54588432D01*
X63030735Y-54591528D01*
X63030736Y-54591531D01*
X63080951Y-54782207D01*
X63129702Y-54967323D01*
X63130825Y-54970301D01*
X63130826Y-54970305D01*
X63264380Y-55324573D01*
X63267914Y-55333946D01*
X63303731Y-55405604D01*
X63440220Y-55678676D01*
X63443089Y-55684414D01*
X63444801Y-55687106D01*
X63444807Y-55687116D01*
X63580040Y-55899724D01*
X63653372Y-56015014D01*
X63655348Y-56017510D01*
X63655349Y-56017512D01*
X63894135Y-56319210D01*
X63896533Y-56322239D01*
X63898754Y-56324518D01*
X63898755Y-56324519D01*
X63993670Y-56421911D01*
X64169994Y-56602835D01*
X64229245Y-56652264D01*
X64399628Y-56794404D01*
X64470857Y-56853825D01*
X64534092Y-56896372D01*
X64793277Y-57070764D01*
X64793282Y-57070767D01*
X64795932Y-57072550D01*
X64798750Y-57074050D01*
X64798756Y-57074054D01*
X64870012Y-57111993D01*
X65034930Y-57199803D01*
X65084852Y-57248684D01*
X65100422Y-57316796D01*
X65076697Y-57382514D01*
X65029219Y-57421560D01*
X64969383Y-57449566D01*
X64969364Y-57449575D01*
X64966482Y-57450925D01*
X64963741Y-57452570D01*
X64963737Y-57452573D01*
X64633316Y-57650981D01*
X64633303Y-57650989D01*
X64630578Y-57652626D01*
X64628039Y-57654530D01*
X64628026Y-57654540D01*
X64319736Y-57885887D01*
X64319727Y-57885893D01*
X64317193Y-57887796D01*
X64314873Y-57889943D01*
X64314859Y-57889955D01*
X64031983Y-58151781D01*
X64031976Y-58151787D01*
X64029650Y-58153941D01*
X64027563Y-58156315D01*
X64027548Y-58156331D01*
X63773109Y-58445837D01*
X63773102Y-58445844D01*
X63770996Y-58448242D01*
X63769146Y-58450843D01*
X63769139Y-58450853D01*
X63693430Y-58557348D01*
X63638543Y-58600582D01*
X63592367Y-58609500D01*
X63305802Y-58609500D01*
X63301063Y-58609408D01*
X63181004Y-58604769D01*
X63177808Y-58604974D01*
X63177807Y-58604975D01*
X63009880Y-58615800D01*
X62841898Y-58624459D01*
X62841885Y-58624460D01*
X62838710Y-58624624D01*
X62835579Y-58625111D01*
X62835545Y-58625115D01*
X62819998Y-58627536D01*
X62808912Y-58628754D01*
X62793209Y-58629767D01*
X62793182Y-58629770D01*
X62790006Y-58629975D01*
X62786866Y-58630505D01*
X62786853Y-58630507D01*
X62620934Y-58658541D01*
X62454720Y-58684428D01*
X62454699Y-58684432D01*
X62451568Y-58684920D01*
X62448506Y-58685726D01*
X62448479Y-58685732D01*
X62433253Y-58689742D01*
X62422345Y-58692095D01*
X62406817Y-58694719D01*
X62406805Y-58694721D01*
X62403672Y-58695251D01*
X62400612Y-58696099D01*
X62400599Y-58696102D01*
X62238461Y-58741042D01*
X62075761Y-58783889D01*
X62075746Y-58783893D01*
X62072677Y-58784702D01*
X62054950Y-58791384D01*
X62044350Y-58794843D01*
X62039464Y-58796197D01*
X62029172Y-58799050D01*
X62029161Y-58799053D01*
X62026097Y-58799903D01*
X62023130Y-58801065D01*
X62023116Y-58801070D01*
X61866469Y-58862439D01*
X61709035Y-58921790D01*
X61709031Y-58921791D01*
X61706054Y-58922914D01*
X61703217Y-58924331D01*
X61703196Y-58924341D01*
X61689108Y-58931382D01*
X61678923Y-58935912D01*
X61664247Y-58941662D01*
X61664229Y-58941669D01*
X61661284Y-58942824D01*
X61658455Y-58944283D01*
X61658448Y-58944287D01*
X61508959Y-59021428D01*
X61358430Y-59096667D01*
X61358422Y-59096671D01*
X61355586Y-59098089D01*
X61352901Y-59099796D01*
X61352897Y-59099799D01*
X61339602Y-59108255D01*
X61329924Y-59113815D01*
X61315931Y-59121036D01*
X61315921Y-59121041D01*
X61313101Y-59122497D01*
X61310457Y-59124226D01*
X61310438Y-59124238D01*
X61169684Y-59216334D01*
X61027687Y-59306653D01*
X61027673Y-59306662D01*
X61024986Y-59308372D01*
X61022491Y-59310346D01*
X61022482Y-59310353D01*
X61010128Y-59320131D01*
X61001072Y-59326656D01*
X60985236Y-59337019D01*
X60982761Y-59339030D01*
X60982749Y-59339039D01*
X60852199Y-59445127D01*
X60852200Y-59445127D01*
X60717761Y-59551533D01*
X60715486Y-59553749D01*
X60715469Y-59553765D01*
X60704198Y-59564750D01*
X60695862Y-59572172D01*
X60683645Y-59582100D01*
X60683640Y-59582104D01*
X60681166Y-59584115D01*
X60678917Y-59586363D01*
X60678907Y-59586373D01*
X60559942Y-59705338D01*
X60439453Y-59822763D01*
X60439442Y-59822774D01*
X60437165Y-59824994D01*
X60435123Y-59827440D01*
X60435117Y-59827448D01*
X60425029Y-59839540D01*
X60417498Y-59847781D01*
X52636239Y-67629040D01*
X52632789Y-67632360D01*
X52544650Y-67713941D01*
X52542547Y-67716333D01*
X52542538Y-67716343D01*
X52431469Y-67842719D01*
X52318796Y-67967639D01*
X52318781Y-67967657D01*
X52316651Y-67970019D01*
X52314770Y-67972593D01*
X52314760Y-67972606D01*
X52305472Y-67985319D01*
X52298497Y-67994016D01*
X52288097Y-68005850D01*
X52288087Y-68005862D01*
X52285996Y-68008242D01*
X52284166Y-68010815D01*
X52284151Y-68010835D01*
X52186649Y-68147985D01*
X52087415Y-68283832D01*
X52087410Y-68283838D01*
X52085536Y-68286405D01*
X52083941Y-68289140D01*
X52083930Y-68289157D01*
X52075998Y-68302761D01*
X52069942Y-68312147D01*
X52065118Y-68318932D01*
X52010228Y-68362163D01*
X51977941Y-68370300D01*
X51850748Y-68384631D01*
X51850745Y-68384631D01*
X51850745Y-68384632D01*
X51680478Y-68444211D01*
X51680476Y-68444211D01*
X51680476Y-68444212D01*
X51527735Y-68540185D01*
X51400185Y-68667735D01*
X51304210Y-68820478D01*
X51294584Y-68847989D01*
X51253861Y-68904764D01*
X51188908Y-68930510D01*
X51120346Y-68917053D01*
X51106420Y-68908607D01*
X51017579Y-68846400D01*
X50803492Y-68746569D01*
X50590000Y-68689364D01*
X50590000Y-69584498D01*
X50482315Y-69535320D01*
X50375763Y-69520000D01*
X50304237Y-69520000D01*
X50197685Y-69535320D01*
X50089999Y-69584498D01*
X50089999Y-68689364D01*
X50089998Y-68689364D01*
X49876507Y-68746569D01*
X49662421Y-68846400D01*
X49468921Y-68981890D01*
X49301890Y-69148921D01*
X49166400Y-69342421D01*
X49066569Y-69556507D01*
X49009364Y-69769999D01*
X49009364Y-69770000D01*
X49906314Y-69770000D01*
X49880507Y-69810156D01*
X49840000Y-69948111D01*
X49840000Y-70091889D01*
X49880507Y-70229844D01*
X49906314Y-70270000D01*
X49009364Y-70270000D01*
X49066569Y-70483492D01*
X49166399Y-70697576D01*
X49301893Y-70891081D01*
X49468918Y-71058106D01*
X49662423Y-71193600D01*
X49876507Y-71293430D01*
X50089998Y-71350634D01*
X50089999Y-71350634D01*
X50089999Y-70455501D01*
X50197685Y-70504680D01*
X50304237Y-70520000D01*
X50375763Y-70520000D01*
X50482315Y-70504680D01*
X50590000Y-70455501D01*
X50590000Y-71350633D01*
X50803490Y-71293430D01*
X51017580Y-71193598D01*
X51106419Y-71131393D01*
X51172625Y-71109065D01*
X51240392Y-71126075D01*
X51288206Y-71177022D01*
X51294584Y-71192011D01*
X51304210Y-71219520D01*
X51400184Y-71372263D01*
X51433180Y-71405258D01*
X51466666Y-71466580D01*
X51469500Y-71492940D01*
X51469500Y-72147059D01*
X51449815Y-72214098D01*
X51433181Y-72234740D01*
X51400185Y-72267735D01*
X51304210Y-72420478D01*
X51294584Y-72447989D01*
X51253861Y-72504764D01*
X51188908Y-72530510D01*
X51120346Y-72517053D01*
X51106420Y-72508607D01*
X51017579Y-72446400D01*
X50803492Y-72346569D01*
X50590000Y-72289364D01*
X50590000Y-73184498D01*
X50482315Y-73135320D01*
X50375763Y-73120000D01*
X50304237Y-73120000D01*
X50197685Y-73135320D01*
X50089999Y-73184498D01*
X50089999Y-72289364D01*
X50089998Y-72289364D01*
X49876507Y-72346569D01*
X49662421Y-72446400D01*
X49468921Y-72581890D01*
X49301890Y-72748921D01*
X49166400Y-72942421D01*
X49066569Y-73156507D01*
X49009364Y-73369999D01*
X49009364Y-73370000D01*
X49906314Y-73370000D01*
X49880507Y-73410156D01*
X49840000Y-73548111D01*
X49840000Y-73691889D01*
X49880507Y-73829844D01*
X49906314Y-73870000D01*
X49009364Y-73870000D01*
X49066569Y-74083492D01*
X49166399Y-74297576D01*
X49301893Y-74491081D01*
X49468918Y-74658106D01*
X49662423Y-74793600D01*
X49876507Y-74893430D01*
X50089998Y-74950634D01*
X50089999Y-74950634D01*
X50089999Y-74055501D01*
X50197685Y-74104680D01*
X50304237Y-74120000D01*
X50375763Y-74120000D01*
X50482315Y-74104680D01*
X50590000Y-74055501D01*
X50590000Y-74950633D01*
X50803490Y-74893430D01*
X51017580Y-74793598D01*
X51106419Y-74731393D01*
X51172625Y-74709065D01*
X51240392Y-74726075D01*
X51288206Y-74777022D01*
X51294584Y-74792011D01*
X51304210Y-74819520D01*
X51400184Y-74972263D01*
X51433180Y-75005258D01*
X51466666Y-75066580D01*
X51469500Y-75092940D01*
X51469500Y-79294171D01*
X51469408Y-79298960D01*
X51464769Y-79418996D01*
X51464973Y-79422172D01*
X51464974Y-79422190D01*
X51475800Y-79590119D01*
X51484459Y-79758104D01*
X51484460Y-79758118D01*
X51484624Y-79761290D01*
X51485112Y-79764429D01*
X51485115Y-79764450D01*
X51487536Y-79780001D01*
X51488755Y-79791093D01*
X51489242Y-79798643D01*
X51489499Y-79806625D01*
X51489500Y-92274171D01*
X51489408Y-92278960D01*
X51487373Y-92331628D01*
X51484769Y-92398996D01*
X51484973Y-92402172D01*
X51484974Y-92402190D01*
X51495800Y-92570119D01*
X51504459Y-92738104D01*
X51504460Y-92738118D01*
X51504624Y-92741290D01*
X51505112Y-92744429D01*
X51505115Y-92744450D01*
X51507536Y-92760001D01*
X51508754Y-92771088D01*
X51509767Y-92786793D01*
X51509770Y-92786822D01*
X51509975Y-92789994D01*
X51510504Y-92793124D01*
X51510506Y-92793142D01*
X51517767Y-92836110D01*
X51519500Y-92856769D01*
X51519500Y-109776047D01*
X51519408Y-109780836D01*
X51517916Y-109819453D01*
X51514769Y-109900872D01*
X51514973Y-109904048D01*
X51514974Y-109904066D01*
X51525800Y-110071995D01*
X51534459Y-110239980D01*
X51534460Y-110239994D01*
X51534624Y-110243166D01*
X51535112Y-110246305D01*
X51535115Y-110246326D01*
X51537536Y-110261877D01*
X51538754Y-110272964D01*
X51539767Y-110288666D01*
X51539769Y-110288691D01*
X51539975Y-110291870D01*
X51540505Y-110295011D01*
X51540507Y-110295022D01*
X51568542Y-110460947D01*
X51594428Y-110627156D01*
X51594432Y-110627176D01*
X51594920Y-110630308D01*
X51598913Y-110645472D01*
X51599742Y-110648618D01*
X51602095Y-110659529D01*
X51604718Y-110675055D01*
X51604720Y-110675067D01*
X51605251Y-110678205D01*
X51606101Y-110681272D01*
X51606104Y-110681285D01*
X51651045Y-110843425D01*
X51693889Y-111006114D01*
X51693892Y-111006123D01*
X51694702Y-111009199D01*
X51695823Y-111012174D01*
X51695828Y-111012188D01*
X51701381Y-111026918D01*
X51704842Y-111037522D01*
X51709903Y-111055779D01*
X51711069Y-111058756D01*
X51711071Y-111058761D01*
X51727178Y-111099874D01*
X51772439Y-111215406D01*
X51832914Y-111375822D01*
X51834337Y-111378670D01*
X51834344Y-111378685D01*
X51841378Y-111392758D01*
X51845912Y-111402953D01*
X51851655Y-111417611D01*
X51851662Y-111417628D01*
X51852824Y-111420592D01*
X51854285Y-111423425D01*
X51854290Y-111423434D01*
X51859564Y-111433654D01*
X51931428Y-111572916D01*
X52008089Y-111726290D01*
X52013779Y-111735236D01*
X52018252Y-111742267D01*
X52023813Y-111751947D01*
X52032497Y-111768775D01*
X52126334Y-111912191D01*
X52218372Y-112056890D01*
X52220351Y-112059390D01*
X52220355Y-112059396D01*
X52230126Y-112071742D01*
X52236655Y-112080802D01*
X52245267Y-112093964D01*
X52245277Y-112093978D01*
X52247019Y-112096640D01*
X52355127Y-112229675D01*
X52461533Y-112364115D01*
X52463764Y-112366404D01*
X52474741Y-112377667D01*
X52482173Y-112386015D01*
X52492094Y-112398224D01*
X52492102Y-112398233D01*
X52494115Y-112400710D01*
X52496374Y-112402969D01*
X52572765Y-112479360D01*
X52606250Y-112540683D01*
X52608920Y-112560656D01*
X52614460Y-112668112D01*
X52614624Y-112671290D01*
X52615112Y-112674429D01*
X52615115Y-112674450D01*
X52617536Y-112690001D01*
X52618754Y-112701088D01*
X52619767Y-112716790D01*
X52619769Y-112716815D01*
X52619975Y-112719994D01*
X52620505Y-112723135D01*
X52620507Y-112723146D01*
X52648542Y-112889071D01*
X52674428Y-113055280D01*
X52674432Y-113055300D01*
X52674920Y-113058432D01*
X52675729Y-113061503D01*
X52679742Y-113076742D01*
X52682095Y-113087653D01*
X52684718Y-113103179D01*
X52684720Y-113103191D01*
X52685251Y-113106329D01*
X52686101Y-113109396D01*
X52686104Y-113109409D01*
X52731045Y-113271549D01*
X52773889Y-113434238D01*
X52773892Y-113434247D01*
X52774702Y-113437323D01*
X52775823Y-113440298D01*
X52775828Y-113440312D01*
X52781381Y-113455042D01*
X52784842Y-113465646D01*
X52789903Y-113483903D01*
X52852439Y-113643530D01*
X52869005Y-113687475D01*
X52874228Y-113757124D01*
X52840954Y-113818562D01*
X52779747Y-113852258D01*
X52773619Y-113853172D01*
X52523889Y-113913126D01*
X52368746Y-113977389D01*
X52291214Y-114009504D01*
X52291139Y-114009535D01*
X52076338Y-114141165D01*
X51884777Y-114304773D01*
X51875757Y-114315335D01*
X51817250Y-114353527D01*
X51747382Y-114354025D01*
X51710345Y-114336377D01*
X51672484Y-114309866D01*
X51466326Y-114213733D01*
X51246602Y-114154858D01*
X51020000Y-114135033D01*
X50793397Y-114154858D01*
X50573672Y-114213733D01*
X50367516Y-114309865D01*
X50294526Y-114360973D01*
X50975599Y-115042046D01*
X50894852Y-115054835D01*
X50781955Y-115112359D01*
X50692359Y-115201955D01*
X50634835Y-115314852D01*
X50622046Y-115395599D01*
X49940973Y-114714526D01*
X49940973Y-114714527D01*
X49889865Y-114787516D01*
X49793733Y-114993672D01*
X49734858Y-115213397D01*
X49715033Y-115440000D01*
X49734858Y-115666602D01*
X49793733Y-115886326D01*
X49889866Y-116092484D01*
X49940972Y-116165471D01*
X49940974Y-116165472D01*
X50622046Y-115484399D01*
X50634835Y-115565148D01*
X50692359Y-115678045D01*
X50781955Y-115767641D01*
X50894852Y-115825165D01*
X50975597Y-115837953D01*
X50294526Y-116519025D01*
X50294526Y-116519026D01*
X50367515Y-116570133D01*
X50573673Y-116666266D01*
X50793397Y-116725141D01*
X51020000Y-116744966D01*
X51246602Y-116725141D01*
X51466324Y-116666267D01*
X51543094Y-116630468D01*
X51612172Y-116619976D01*
X51675956Y-116648495D01*
X51714196Y-116706971D01*
X51719500Y-116742850D01*
X51719500Y-119607149D01*
X51699815Y-119674188D01*
X51647011Y-119719943D01*
X51577853Y-119729887D01*
X51543096Y-119719531D01*
X51466329Y-119683734D01*
X51246602Y-119624858D01*
X51020000Y-119605033D01*
X50793397Y-119624858D01*
X50573672Y-119683733D01*
X50367516Y-119779865D01*
X50294526Y-119830973D01*
X50975599Y-120512046D01*
X50894852Y-120524835D01*
X50781955Y-120582359D01*
X50692359Y-120671955D01*
X50634835Y-120784852D01*
X50622046Y-120865598D01*
X49940973Y-120184527D01*
X49889865Y-120257516D01*
X49793733Y-120463672D01*
X49734858Y-120683397D01*
X49715033Y-120910000D01*
X49734858Y-121136602D01*
X49793733Y-121356326D01*
X49889866Y-121562484D01*
X49940972Y-121635471D01*
X49940973Y-121635472D01*
X50622045Y-120954399D01*
X50634835Y-121035148D01*
X50692359Y-121148045D01*
X50781955Y-121237641D01*
X50894852Y-121295165D01*
X50975597Y-121307953D01*
X50294526Y-121989025D01*
X50294526Y-121989026D01*
X50367515Y-122040133D01*
X50573673Y-122136266D01*
X50793397Y-122195141D01*
X51020000Y-122214966D01*
X51246602Y-122195141D01*
X51466326Y-122136266D01*
X51672482Y-122040134D01*
X51710342Y-122013623D01*
X51776548Y-121991294D01*
X51844315Y-122008303D01*
X51875757Y-122034664D01*
X51884776Y-122045224D01*
X52076341Y-122208836D01*
X52291141Y-122340466D01*
X52523889Y-122436873D01*
X52768852Y-122495683D01*
X53020000Y-122515449D01*
X53271148Y-122495683D01*
X53516111Y-122436873D01*
X53748859Y-122340466D01*
X53963659Y-122208836D01*
X54155224Y-122045224D01*
X54318836Y-121853659D01*
X54450466Y-121638859D01*
X54546873Y-121406111D01*
X54605683Y-121161148D01*
X54625449Y-120910000D01*
X54605683Y-120658852D01*
X54546873Y-120413889D01*
X54450466Y-120181141D01*
X54371489Y-120052263D01*
X54338773Y-119998874D01*
X54320500Y-119934084D01*
X54320500Y-116864500D01*
X54340185Y-116797461D01*
X54392989Y-116751706D01*
X54444500Y-116740500D01*
X55438547Y-116740500D01*
X55505586Y-116760185D01*
X55521597Y-116772420D01*
X55700019Y-116933349D01*
X55844642Y-117038994D01*
X55954158Y-117118994D01*
X56016405Y-117164464D01*
X56354878Y-117361824D01*
X56357780Y-117363137D01*
X56357782Y-117363138D01*
X56451709Y-117405635D01*
X56711850Y-117523335D01*
X57083536Y-117647286D01*
X57465998Y-117732363D01*
X57855180Y-117777663D01*
X58246957Y-117782708D01*
X58637176Y-117747442D01*
X59021701Y-117672241D01*
X59396456Y-117557902D01*
X59757468Y-117405635D01*
X60100911Y-117217056D01*
X60423143Y-116994164D01*
X60720749Y-116739321D01*
X60990575Y-116455228D01*
X61003235Y-116438802D01*
X61059750Y-116397721D01*
X61101448Y-116390500D01*
X61162825Y-116390500D01*
X61229864Y-116410185D01*
X61275619Y-116462989D01*
X61285563Y-116532147D01*
X61283399Y-116543447D01*
X61264779Y-116621004D01*
X61244396Y-116880000D01*
X61264779Y-117138995D01*
X61325426Y-117391610D01*
X61363594Y-117483754D01*
X61424846Y-117631628D01*
X61560588Y-117853140D01*
X61560590Y-117853143D01*
X61569790Y-117863914D01*
X61598361Y-117927676D01*
X61599500Y-117944446D01*
X61599500Y-118817179D01*
X61579815Y-118884218D01*
X61579309Y-118885000D01*
X61475826Y-119043392D01*
X61411029Y-119191117D01*
X61375937Y-119271119D01*
X61327554Y-119462179D01*
X61314891Y-119512183D01*
X61294356Y-119760000D01*
X61314891Y-120007816D01*
X61314891Y-120007819D01*
X61314892Y-120007821D01*
X61375937Y-120248881D01*
X61408296Y-120322651D01*
X61475825Y-120476604D01*
X61475827Y-120476607D01*
X61610929Y-120683397D01*
X61611839Y-120684789D01*
X61659605Y-120736677D01*
X61690527Y-120799331D01*
X61682667Y-120868757D01*
X61645689Y-120917605D01*
X61571916Y-120976438D01*
X61388362Y-121174260D01*
X61275222Y-121340206D01*
X61221193Y-121384508D01*
X61151790Y-121392566D01*
X61089047Y-121361823D01*
X61085088Y-121358035D01*
X61034352Y-121307299D01*
X61030397Y-121303157D01*
X61004296Y-121274527D01*
X60978407Y-121246128D01*
X60916851Y-121199642D01*
X60912363Y-121196087D01*
X60852975Y-121146773D01*
X60837119Y-121137941D01*
X60822731Y-121128566D01*
X60808253Y-121117632D01*
X60739185Y-121083241D01*
X60734129Y-121080577D01*
X60666702Y-121043021D01*
X60666700Y-121043020D01*
X60666698Y-121043019D01*
X60649493Y-121037252D01*
X60633635Y-121030684D01*
X60617387Y-121022594D01*
X60543178Y-121001479D01*
X60537708Y-120999785D01*
X60464539Y-120975262D01*
X60464538Y-120975261D01*
X60464536Y-120975261D01*
X60446558Y-120972753D01*
X60429761Y-120969209D01*
X60424100Y-120967598D01*
X60412308Y-120964243D01*
X60342172Y-120957744D01*
X60335462Y-120957122D01*
X60329783Y-120956463D01*
X60279860Y-120949500D01*
X60253363Y-120945804D01*
X60253362Y-120945804D01*
X60187952Y-120948828D01*
X60176272Y-120949368D01*
X60170546Y-120949500D01*
X56229439Y-120949500D01*
X56223714Y-120949368D01*
X56215901Y-120949006D01*
X56146638Y-120945805D01*
X56146637Y-120945805D01*
X56146634Y-120945805D01*
X56070230Y-120956461D01*
X56064545Y-120957121D01*
X55987688Y-120964243D01*
X55970228Y-120969211D01*
X55953436Y-120972753D01*
X55935467Y-120975260D01*
X55935464Y-120975260D01*
X55935463Y-120975261D01*
X55911577Y-120983266D01*
X55862285Y-120999787D01*
X55856818Y-121001480D01*
X55782607Y-121022596D01*
X55766361Y-121030685D01*
X55750513Y-121037250D01*
X55733295Y-121043022D01*
X55665883Y-121080568D01*
X55660821Y-121083236D01*
X55591745Y-121117632D01*
X55577260Y-121128571D01*
X55562880Y-121137942D01*
X55547023Y-121146774D01*
X55487652Y-121196074D01*
X55483167Y-121199627D01*
X55421590Y-121246130D01*
X55369611Y-121303147D01*
X55365657Y-121307288D01*
X52807288Y-123865657D01*
X52803147Y-123869611D01*
X52746128Y-123921592D01*
X52699633Y-123983159D01*
X52696079Y-123987646D01*
X52646772Y-124047024D01*
X52637938Y-124062885D01*
X52628566Y-124077267D01*
X52617635Y-124091741D01*
X52583236Y-124160824D01*
X52580566Y-124165888D01*
X52543020Y-124233297D01*
X52537253Y-124250504D01*
X52530687Y-124266356D01*
X52522595Y-124282607D01*
X52501479Y-124356821D01*
X52499786Y-124362289D01*
X52475260Y-124435467D01*
X52472753Y-124453436D01*
X52469210Y-124470231D01*
X52464244Y-124487686D01*
X52457123Y-124564532D01*
X52456463Y-124570220D01*
X52445804Y-124646635D01*
X52449368Y-124723727D01*
X52449500Y-124729453D01*
X52449500Y-124876914D01*
X52429815Y-124943953D01*
X52419791Y-124957445D01*
X52301163Y-125096342D01*
X52170002Y-125310377D01*
X52169534Y-125311141D01*
X52168088Y-125314632D01*
X52073126Y-125543889D01*
X52014317Y-125788850D01*
X51995518Y-126027710D01*
X51994551Y-126040000D01*
X51997340Y-126075442D01*
X52014317Y-126291149D01*
X52073126Y-126536110D01*
X52114011Y-126634814D01*
X52169534Y-126768859D01*
X52301164Y-126983659D01*
X52464776Y-127175224D01*
X52656341Y-127338836D01*
X52871141Y-127470466D01*
X53103889Y-127566873D01*
X53348852Y-127625683D01*
X53600000Y-127645449D01*
X53851148Y-127625683D01*
X54096111Y-127566873D01*
X54328859Y-127470466D01*
X54543659Y-127338836D01*
X54735224Y-127175224D01*
X54898836Y-126983659D01*
X54994273Y-126827919D01*
X55046084Y-126781045D01*
X55115014Y-126769622D01*
X55179177Y-126797279D01*
X55205726Y-126827918D01*
X55301164Y-126983659D01*
X55464776Y-127175224D01*
X55656341Y-127338836D01*
X55871141Y-127470466D01*
X56103889Y-127566873D01*
X56348852Y-127625683D01*
X56600000Y-127645449D01*
X56851148Y-127625683D01*
X57096111Y-127566873D01*
X57328859Y-127470466D01*
X57543659Y-127338836D01*
X57735224Y-127175224D01*
X57898836Y-126983659D01*
X58030466Y-126768859D01*
X58126873Y-126536111D01*
X58185683Y-126291148D01*
X58197921Y-126135646D01*
X58222804Y-126070361D01*
X58279035Y-126028890D01*
X58348760Y-126024403D01*
X58409219Y-126057697D01*
X58551180Y-126199658D01*
X58737519Y-126330134D01*
X58943673Y-126426266D01*
X59139999Y-126478871D01*
X59140000Y-126478871D01*
X59140000Y-125515686D01*
X59151955Y-125527641D01*
X59264852Y-125585165D01*
X59358519Y-125600000D01*
X59421481Y-125600000D01*
X59515148Y-125585165D01*
X59628045Y-125527641D01*
X59640000Y-125515685D01*
X59640000Y-126478871D01*
X59836326Y-126426266D01*
X60042480Y-126330134D01*
X60228819Y-126199658D01*
X60389658Y-126038819D01*
X60478737Y-125911603D01*
X60533314Y-125867979D01*
X60602813Y-125860786D01*
X60665167Y-125892308D01*
X60667993Y-125895046D01*
X62265645Y-127492698D01*
X62269600Y-127496840D01*
X62308947Y-127540000D01*
X62321593Y-127553872D01*
X62383167Y-127600371D01*
X62387637Y-127603911D01*
X62447025Y-127653226D01*
X62462876Y-127662055D01*
X62477262Y-127671429D01*
X62491745Y-127682366D01*
X62560860Y-127716781D01*
X62565859Y-127719416D01*
X62633298Y-127756979D01*
X62650511Y-127762748D01*
X62666365Y-127769315D01*
X62682611Y-127777405D01*
X62756877Y-127798535D01*
X62762243Y-127800197D01*
X62835463Y-127824739D01*
X62842101Y-127825664D01*
X62853435Y-127827246D01*
X62870244Y-127830791D01*
X62887690Y-127835756D01*
X62964543Y-127842876D01*
X62970218Y-127843535D01*
X63046638Y-127854195D01*
X63123713Y-127850632D01*
X63129439Y-127850500D01*
X67970546Y-127850500D01*
X67976272Y-127850632D01*
X68053362Y-127854196D01*
X68129835Y-127843528D01*
X68135444Y-127842878D01*
X68212310Y-127835756D01*
X68229761Y-127830789D01*
X68246557Y-127827246D01*
X68264536Y-127824739D01*
X68337731Y-127800205D01*
X68343149Y-127798527D01*
X68417389Y-127777405D01*
X68433642Y-127769311D01*
X68449493Y-127762746D01*
X68466702Y-127756979D01*
X68534155Y-127719407D01*
X68539169Y-127716765D01*
X68608255Y-127682366D01*
X68622726Y-127671436D01*
X68637116Y-127662059D01*
X68652975Y-127653227D01*
X68712373Y-127603902D01*
X68716822Y-127600378D01*
X68778407Y-127553872D01*
X68795952Y-127534625D01*
X68855660Y-127498344D01*
X68925507Y-127500103D01*
X68983316Y-127539345D01*
X69010732Y-127603611D01*
X69011117Y-127607355D01*
X69024287Y-127757886D01*
X69080898Y-127969161D01*
X69173331Y-128167386D01*
X69216873Y-128229571D01*
X69216874Y-128229572D01*
X69862046Y-127584399D01*
X69874835Y-127665148D01*
X69932359Y-127778045D01*
X70021955Y-127867641D01*
X70134852Y-127925165D01*
X70215599Y-127937953D01*
X69570426Y-128583124D01*
X69570427Y-128583125D01*
X69632610Y-128626666D01*
X69830840Y-128719102D01*
X70042113Y-128775712D01*
X70260000Y-128794775D01*
X70477886Y-128775712D01*
X70689159Y-128719102D01*
X70887385Y-128626667D01*
X70949572Y-128583124D01*
X70304401Y-127937953D01*
X70385148Y-127925165D01*
X70498045Y-127867641D01*
X70587641Y-127778045D01*
X70645165Y-127665148D01*
X70657953Y-127584401D01*
X71303124Y-128229572D01*
X71322521Y-128227875D01*
X71391021Y-128241641D01*
X71439056Y-128286613D01*
X71458817Y-128318860D01*
X71541741Y-128454179D01*
X71700241Y-128639759D01*
X71885821Y-128798259D01*
X71930743Y-128825787D01*
X72093911Y-128925778D01*
X72319384Y-129019171D01*
X72319387Y-129019171D01*
X72319388Y-129019172D01*
X72556698Y-129076146D01*
X72800000Y-129095294D01*
X73043302Y-129076146D01*
X73280612Y-129019172D01*
X73280613Y-129019171D01*
X73280615Y-129019171D01*
X73506088Y-128925778D01*
X73574134Y-128884079D01*
X73714179Y-128798259D01*
X73767568Y-128752660D01*
X73831327Y-128724089D01*
X73900413Y-128734526D01*
X73952890Y-128780656D01*
X73953092Y-128780976D01*
X73960184Y-128792263D01*
X74087735Y-128919814D01*
X74087737Y-128919815D01*
X74087738Y-128919816D01*
X74240478Y-129015789D01*
X74410745Y-129075368D01*
X74545046Y-129090500D01*
X74548530Y-129090500D01*
X76131470Y-129090500D01*
X76134954Y-129090500D01*
X76269255Y-129075368D01*
X76439522Y-129015789D01*
X76592262Y-128919816D01*
X76592264Y-128919814D01*
X76595260Y-128916819D01*
X76656583Y-128883334D01*
X76682941Y-128880500D01*
X77953265Y-128880500D01*
X77974329Y-128884079D01*
X77974361Y-128883804D01*
X78044340Y-128891688D01*
X78122546Y-128900500D01*
X78126030Y-128900500D01*
X80113970Y-128900500D01*
X80117454Y-128900500D01*
X80251755Y-128885368D01*
X80422022Y-128825789D01*
X80574762Y-128729816D01*
X80616515Y-128688062D01*
X80677837Y-128654577D01*
X80747528Y-128659561D01*
X80757993Y-128664021D01*
X81000359Y-128780738D01*
X81258228Y-128860280D01*
X81525071Y-128900500D01*
X81794929Y-128900500D01*
X82061772Y-128860280D01*
X82319641Y-128780738D01*
X82562774Y-128663651D01*
X82785741Y-128511635D01*
X82983561Y-128328085D01*
X83048262Y-128246951D01*
X83105449Y-128206813D01*
X83175261Y-128203963D01*
X83221370Y-128226412D01*
X83402836Y-128367652D01*
X83614539Y-128482219D01*
X83842208Y-128560379D01*
X83950000Y-128578366D01*
X83950000Y-127591683D01*
X83978819Y-127609209D01*
X84124404Y-127650000D01*
X84237622Y-127650000D01*
X84349783Y-127634584D01*
X84450000Y-127591053D01*
X84450000Y-128578365D01*
X84557791Y-128560379D01*
X84785460Y-128482219D01*
X84916483Y-128411314D01*
X84984811Y-128396719D01*
X85050183Y-128421382D01*
X85091844Y-128477472D01*
X85099500Y-128520369D01*
X85099500Y-131602983D01*
X85079815Y-131670022D01*
X85027011Y-131715777D01*
X84957853Y-131725721D01*
X84916483Y-131712038D01*
X84825461Y-131662780D01*
X84597792Y-131584619D01*
X84490000Y-131566633D01*
X84490000Y-132553316D01*
X84461181Y-132535791D01*
X84315596Y-132495000D01*
X84202378Y-132495000D01*
X84090217Y-132510416D01*
X83990000Y-132553946D01*
X83990000Y-131566633D01*
X83989999Y-131566633D01*
X83882207Y-131584619D01*
X83654539Y-131662780D01*
X83442836Y-131777347D01*
X83261370Y-131918588D01*
X83196376Y-131944230D01*
X83127836Y-131930663D01*
X83088263Y-131898049D01*
X83023561Y-131816915D01*
X82963114Y-131760828D01*
X82825743Y-131633366D01*
X82728218Y-131566875D01*
X82602775Y-131481349D01*
X82359641Y-131364262D01*
X82252392Y-131331180D01*
X82101771Y-131284719D01*
X81834929Y-131244500D01*
X81565071Y-131244500D01*
X81298228Y-131284719D01*
X81040356Y-131364263D01*
X80797998Y-131480976D01*
X80729057Y-131492328D01*
X80664923Y-131464606D01*
X80656516Y-131456937D01*
X80614764Y-131415185D01*
X80519336Y-131355224D01*
X80462022Y-131319211D01*
X80291755Y-131259632D01*
X80291751Y-131259631D01*
X80291750Y-131259631D01*
X80160920Y-131244890D01*
X80160910Y-131244889D01*
X80157454Y-131244500D01*
X78162546Y-131244500D01*
X78159090Y-131244889D01*
X78159079Y-131244890D01*
X78028249Y-131259631D01*
X78028246Y-131259631D01*
X78028245Y-131259632D01*
X77857978Y-131319211D01*
X77857976Y-131319211D01*
X77857976Y-131319212D01*
X77705235Y-131415185D01*
X77577684Y-131542736D01*
X77515645Y-131641472D01*
X77463310Y-131687763D01*
X77410651Y-131699500D01*
X76330668Y-131699500D01*
X76316784Y-131698720D01*
X76238418Y-131689890D01*
X76238412Y-131689889D01*
X76234954Y-131689500D01*
X74645046Y-131689500D01*
X74641590Y-131689889D01*
X74641579Y-131689890D01*
X74510749Y-131704631D01*
X74510746Y-131704631D01*
X74510745Y-131704632D01*
X74340478Y-131764211D01*
X74340476Y-131764211D01*
X74340476Y-131764212D01*
X74187738Y-131860183D01*
X74060181Y-131987741D01*
X74053091Y-131999025D01*
X74000755Y-132045314D01*
X73931701Y-132055960D01*
X73867854Y-132027582D01*
X73867569Y-132027340D01*
X73814177Y-131981739D01*
X73606088Y-131854221D01*
X73380615Y-131760828D01*
X73143303Y-131703854D01*
X73021650Y-131694280D01*
X72900000Y-131684706D01*
X72899999Y-131684706D01*
X72656696Y-131703854D01*
X72419384Y-131760828D01*
X72193911Y-131854221D01*
X71985822Y-131981740D01*
X71800241Y-132140241D01*
X71641740Y-132325822D01*
X71539056Y-132493386D01*
X71487244Y-132540261D01*
X71422524Y-132552124D01*
X71403124Y-132550427D01*
X70757953Y-133195598D01*
X70745165Y-133114852D01*
X70687641Y-133001955D01*
X70598045Y-132912359D01*
X70485148Y-132854835D01*
X70404401Y-132842046D01*
X71049572Y-132196875D01*
X71049571Y-132196873D01*
X70987386Y-132153331D01*
X70789161Y-132060898D01*
X70577886Y-132004287D01*
X70360000Y-131985224D01*
X70142113Y-132004287D01*
X69930840Y-132060897D01*
X69732611Y-132153333D01*
X69670428Y-132196874D01*
X69670427Y-132196875D01*
X70315599Y-132842046D01*
X70234852Y-132854835D01*
X70121955Y-132912359D01*
X70032359Y-133001955D01*
X69974835Y-133114852D01*
X69962046Y-133195598D01*
X69316875Y-132550427D01*
X69316874Y-132550428D01*
X69273333Y-132612611D01*
X69180897Y-132810840D01*
X69124287Y-133022113D01*
X69105224Y-133239999D01*
X69124287Y-133457886D01*
X69180898Y-133669161D01*
X69273331Y-133867386D01*
X69316873Y-133929571D01*
X69316875Y-133929572D01*
X69962046Y-133284400D01*
X69974835Y-133365148D01*
X70032359Y-133478045D01*
X70121955Y-133567641D01*
X70234852Y-133625165D01*
X70315599Y-133637953D01*
X69670426Y-134283124D01*
X69670427Y-134283125D01*
X69732610Y-134326666D01*
X69930840Y-134419102D01*
X70142113Y-134475712D01*
X70360000Y-134494775D01*
X70577886Y-134475712D01*
X70789159Y-134419102D01*
X70987385Y-134326667D01*
X71049572Y-134283124D01*
X70404401Y-133637953D01*
X70485148Y-133625165D01*
X70598045Y-133567641D01*
X70687641Y-133478045D01*
X70745165Y-133365148D01*
X70757953Y-133284400D01*
X71403124Y-133929572D01*
X71422521Y-133927875D01*
X71491021Y-133941641D01*
X71539056Y-133986613D01*
X71583967Y-134059901D01*
X71641741Y-134154179D01*
X71646806Y-134160109D01*
X71669790Y-134187020D01*
X71698361Y-134250782D01*
X71699500Y-134267552D01*
X71699500Y-134741374D01*
X71679815Y-134808413D01*
X71663181Y-134829055D01*
X70622146Y-135870089D01*
X70560823Y-135903574D01*
X70544195Y-135906026D01*
X70438850Y-135914317D01*
X70193889Y-135973126D01*
X69995224Y-136055416D01*
X69967747Y-136066798D01*
X69961139Y-136069535D01*
X69746342Y-136201163D01*
X69554776Y-136364776D01*
X69391163Y-136556342D01*
X69259535Y-136771139D01*
X69163126Y-137003889D01*
X69104317Y-137248850D01*
X69084551Y-137500000D01*
X69104317Y-137751149D01*
X69164058Y-137999989D01*
X69160567Y-138069771D01*
X69119903Y-138126589D01*
X69054977Y-138152402D01*
X68986402Y-138139016D01*
X68955803Y-138116617D01*
X68279319Y-137440133D01*
X68245834Y-137378810D01*
X68243000Y-137352452D01*
X68243000Y-136075914D01*
X68261273Y-136011124D01*
X68268090Y-136000000D01*
X68372966Y-135828859D01*
X68469373Y-135596111D01*
X68528183Y-135351148D01*
X68547949Y-135100000D01*
X68528183Y-134848852D01*
X68469373Y-134603889D01*
X68372966Y-134371141D01*
X68241336Y-134156341D01*
X68077724Y-133964776D01*
X67886159Y-133801164D01*
X67671359Y-133669534D01*
X67521110Y-133607299D01*
X67438610Y-133573126D01*
X67193649Y-133514317D01*
X67068074Y-133504433D01*
X66942500Y-133494551D01*
X66942499Y-133494551D01*
X66691350Y-133514317D01*
X66446389Y-133573126D01*
X66213639Y-133669535D01*
X65998842Y-133801163D01*
X65807276Y-133964776D01*
X65643663Y-134156342D01*
X65543804Y-134319297D01*
X65512034Y-134371141D01*
X65506895Y-134383547D01*
X65415626Y-134603889D01*
X65356817Y-134848850D01*
X65337051Y-135100000D01*
X65356817Y-135351149D01*
X65415627Y-135596113D01*
X65512032Y-135828858D01*
X65623726Y-136011124D01*
X65641999Y-136075914D01*
X65641999Y-138056281D01*
X65650956Y-138107082D01*
X65652368Y-138117802D01*
X65656865Y-138169193D01*
X65670216Y-138219021D01*
X65672557Y-138229579D01*
X65681514Y-138280377D01*
X65699155Y-138328846D01*
X65702406Y-138339160D01*
X65715758Y-138388990D01*
X65718437Y-138394735D01*
X65737566Y-138435756D01*
X65741701Y-138445741D01*
X65759342Y-138494213D01*
X65785138Y-138538892D01*
X65790131Y-138548482D01*
X65811932Y-138595234D01*
X65811933Y-138595236D01*
X65841515Y-138637483D01*
X65847327Y-138646606D01*
X65873120Y-138691282D01*
X65873122Y-138691284D01*
X65873123Y-138691286D01*
X65906292Y-138730815D01*
X65912858Y-138739373D01*
X65923430Y-138754471D01*
X65942454Y-138781641D01*
X66112040Y-138951226D01*
X66112046Y-138951231D01*
X67248634Y-140087819D01*
X67282119Y-140149142D01*
X67277135Y-140218834D01*
X67235263Y-140274767D01*
X67169799Y-140299184D01*
X67160953Y-140299500D01*
X59948625Y-140299500D01*
X59881586Y-140279815D01*
X59860944Y-140263181D01*
X57836819Y-138239056D01*
X57803334Y-138177733D01*
X57800500Y-138151375D01*
X57800500Y-137745598D01*
X57800500Y-137304537D01*
X57820183Y-137237502D01*
X57830200Y-137224020D01*
X57898836Y-137143659D01*
X58030466Y-136928859D01*
X58126873Y-136696111D01*
X58185683Y-136451148D01*
X58205449Y-136200000D01*
X58199480Y-136124164D01*
X58213844Y-136055790D01*
X58262895Y-136006033D01*
X58331061Y-135990694D01*
X58396698Y-136014643D01*
X58410779Y-136026757D01*
X58483680Y-136099658D01*
X58670019Y-136230134D01*
X58876173Y-136326266D01*
X59072498Y-136378871D01*
X59072499Y-136378871D01*
X59072499Y-135415685D01*
X59084455Y-135427641D01*
X59197352Y-135485165D01*
X59291019Y-135500000D01*
X59353981Y-135500000D01*
X59447648Y-135485165D01*
X59560545Y-135427641D01*
X59572499Y-135415686D01*
X59572499Y-136378871D01*
X59768826Y-136326266D01*
X59974980Y-136230134D01*
X60161319Y-136099658D01*
X60322158Y-135938819D01*
X60452634Y-135752480D01*
X60548766Y-135546326D01*
X60601372Y-135350000D01*
X59638186Y-135350000D01*
X59650141Y-135338045D01*
X59707665Y-135225148D01*
X59727486Y-135100000D01*
X59707665Y-134974852D01*
X59650141Y-134861955D01*
X59638186Y-134850000D01*
X60601372Y-134850000D01*
X60601371Y-134849999D01*
X60548766Y-134653673D01*
X60452634Y-134447519D01*
X60322158Y-134261180D01*
X60161319Y-134100341D01*
X59974980Y-133969865D01*
X59768826Y-133873733D01*
X59572499Y-133821127D01*
X59572498Y-134784313D01*
X59560545Y-134772359D01*
X59447648Y-134714835D01*
X59353981Y-134700000D01*
X59291019Y-134700000D01*
X59197352Y-134714835D01*
X59084455Y-134772359D01*
X59072499Y-134784315D01*
X59072499Y-133821127D01*
X58876173Y-133873733D01*
X58670019Y-133969865D01*
X58483680Y-134100341D01*
X58322841Y-134261180D01*
X58192365Y-134447519D01*
X58096233Y-134653673D01*
X58043628Y-134849999D01*
X58043628Y-134850000D01*
X59006814Y-134850000D01*
X58994859Y-134861955D01*
X58937335Y-134974852D01*
X58917514Y-135100000D01*
X58937335Y-135225148D01*
X58994859Y-135338045D01*
X59006814Y-135350000D01*
X58025674Y-135350000D01*
X57958635Y-135330315D01*
X57919947Y-135290791D01*
X57914277Y-135281538D01*
X57898836Y-135256341D01*
X57735224Y-135064776D01*
X57543659Y-134901164D01*
X57328859Y-134769534D01*
X57202337Y-134717127D01*
X57096110Y-134673126D01*
X56851149Y-134614317D01*
X56669052Y-134599985D01*
X56603764Y-134575101D01*
X56591101Y-134564048D01*
X55634352Y-133607299D01*
X55630397Y-133603157D01*
X55598019Y-133567641D01*
X55578407Y-133546128D01*
X55516851Y-133499642D01*
X55512363Y-133496087D01*
X55452975Y-133446773D01*
X55437119Y-133437941D01*
X55422731Y-133428566D01*
X55408253Y-133417632D01*
X55339185Y-133383241D01*
X55334129Y-133380577D01*
X55266702Y-133343021D01*
X55266700Y-133343020D01*
X55266698Y-133343019D01*
X55249493Y-133337252D01*
X55233635Y-133330684D01*
X55217387Y-133322594D01*
X55143178Y-133301479D01*
X55137708Y-133299785D01*
X55064539Y-133275262D01*
X55064538Y-133275261D01*
X55064536Y-133275261D01*
X55046558Y-133272753D01*
X55029761Y-133269209D01*
X55024100Y-133267598D01*
X55012308Y-133264243D01*
X54942172Y-133257744D01*
X54935462Y-133257122D01*
X54929783Y-133256463D01*
X54879860Y-133249500D01*
X54853363Y-133245804D01*
X54853362Y-133245804D01*
X54787952Y-133248828D01*
X54776272Y-133249368D01*
X54770546Y-133249500D01*
X51329439Y-133249500D01*
X51323714Y-133249368D01*
X51315901Y-133249006D01*
X51246638Y-133245805D01*
X51246637Y-133245805D01*
X51246634Y-133245805D01*
X51170230Y-133256461D01*
X51164545Y-133257121D01*
X51087688Y-133264243D01*
X51070228Y-133269211D01*
X51053436Y-133272753D01*
X51035467Y-133275260D01*
X51035464Y-133275260D01*
X51035463Y-133275261D01*
X51011577Y-133283266D01*
X50962285Y-133299787D01*
X50956818Y-133301480D01*
X50882607Y-133322596D01*
X50866361Y-133330685D01*
X50850513Y-133337250D01*
X50833295Y-133343022D01*
X50765883Y-133380568D01*
X50760821Y-133383236D01*
X50691745Y-133417632D01*
X50677260Y-133428571D01*
X50662880Y-133437942D01*
X50647023Y-133446774D01*
X50587652Y-133496074D01*
X50583167Y-133499627D01*
X50521590Y-133546130D01*
X50469611Y-133603147D01*
X50465657Y-133607288D01*
X49607288Y-134465657D01*
X49603147Y-134469611D01*
X49546128Y-134521592D01*
X49499633Y-134583159D01*
X49496079Y-134587646D01*
X49446772Y-134647024D01*
X49437938Y-134662885D01*
X49428566Y-134677267D01*
X49417635Y-134691741D01*
X49383236Y-134760824D01*
X49380566Y-134765888D01*
X49343020Y-134833297D01*
X49337253Y-134850504D01*
X49330687Y-134866356D01*
X49322595Y-134882607D01*
X49301479Y-134956821D01*
X49299786Y-134962289D01*
X49275260Y-135035467D01*
X49272753Y-135053436D01*
X49269210Y-135070231D01*
X49264244Y-135087686D01*
X49257123Y-135164532D01*
X49256463Y-135170220D01*
X49245804Y-135246635D01*
X49249368Y-135323727D01*
X49249500Y-135329453D01*
X49249500Y-139623085D01*
X49229815Y-139690124D01*
X49177011Y-139735879D01*
X49107853Y-139745823D01*
X49044297Y-139716798D01*
X49037819Y-139710766D01*
X45256819Y-135929766D01*
X45223334Y-135868443D01*
X45220500Y-135842085D01*
X45220500Y-109920000D01*
X46550033Y-109920000D01*
X46569858Y-110146602D01*
X46628733Y-110366326D01*
X46724866Y-110572484D01*
X46775972Y-110645471D01*
X46775973Y-110645472D01*
X47457045Y-109964399D01*
X47469835Y-110045148D01*
X47527359Y-110158045D01*
X47616955Y-110247641D01*
X47729852Y-110305165D01*
X47810599Y-110317953D01*
X47129526Y-110999025D01*
X47129526Y-110999026D01*
X47202515Y-111050133D01*
X47408673Y-111146266D01*
X47628397Y-111205141D01*
X47855000Y-111224966D01*
X48081602Y-111205141D01*
X48301326Y-111146266D01*
X48507480Y-111050134D01*
X48580472Y-110999025D01*
X47899401Y-110317953D01*
X47980148Y-110305165D01*
X48093045Y-110247641D01*
X48182641Y-110158045D01*
X48240165Y-110045148D01*
X48252953Y-109964400D01*
X48934025Y-110645472D01*
X48985134Y-110572480D01*
X49081266Y-110366326D01*
X49140141Y-110146602D01*
X49159966Y-109920000D01*
X49140141Y-109693397D01*
X49081266Y-109473673D01*
X48985133Y-109267515D01*
X48934025Y-109194526D01*
X48252953Y-109875598D01*
X48240165Y-109794852D01*
X48182641Y-109681955D01*
X48093045Y-109592359D01*
X47980148Y-109534835D01*
X47899400Y-109522046D01*
X48580472Y-108840974D01*
X48580471Y-108840972D01*
X48507484Y-108789866D01*
X48301326Y-108693733D01*
X48081602Y-108634858D01*
X47855000Y-108615033D01*
X47628397Y-108634858D01*
X47408672Y-108693733D01*
X47202516Y-108789865D01*
X47129527Y-108840973D01*
X47129526Y-108840973D01*
X47810600Y-109522046D01*
X47729852Y-109534835D01*
X47616955Y-109592359D01*
X47527359Y-109681955D01*
X47469835Y-109794852D01*
X47457046Y-109875598D01*
X46775973Y-109194527D01*
X46724865Y-109267516D01*
X46628733Y-109473672D01*
X46569858Y-109693397D01*
X46550033Y-109920000D01*
X45220500Y-109920000D01*
X45220500Y-101820000D01*
X47800033Y-101820000D01*
X47819858Y-102046602D01*
X47878733Y-102266326D01*
X47974866Y-102472484D01*
X48025972Y-102545471D01*
X48025974Y-102545472D01*
X48707046Y-101864399D01*
X48719835Y-101945148D01*
X48777359Y-102058045D01*
X48866955Y-102147641D01*
X48979852Y-102205165D01*
X49060599Y-102217953D01*
X48379526Y-102899025D01*
X48379526Y-102899026D01*
X48452515Y-102950133D01*
X48658673Y-103046266D01*
X48878397Y-103105141D01*
X49105000Y-103124966D01*
X49331602Y-103105141D01*
X49551326Y-103046266D01*
X49757480Y-102950134D01*
X49830472Y-102899025D01*
X49149401Y-102217953D01*
X49230148Y-102205165D01*
X49343045Y-102147641D01*
X49432641Y-102058045D01*
X49490165Y-101945148D01*
X49502953Y-101864400D01*
X50184025Y-102545472D01*
X50235134Y-102472480D01*
X50331266Y-102266326D01*
X50390141Y-102046602D01*
X50409966Y-101820000D01*
X50390141Y-101593397D01*
X50331266Y-101373673D01*
X50235133Y-101167515D01*
X50184025Y-101094526D01*
X49502953Y-101775598D01*
X49490165Y-101694852D01*
X49432641Y-101581955D01*
X49343045Y-101492359D01*
X49230148Y-101434835D01*
X49149399Y-101422045D01*
X49830472Y-100740973D01*
X49830471Y-100740972D01*
X49757484Y-100689866D01*
X49551326Y-100593733D01*
X49331602Y-100534858D01*
X49105000Y-100515033D01*
X48878397Y-100534858D01*
X48658672Y-100593733D01*
X48452516Y-100689865D01*
X48379526Y-100740973D01*
X49060598Y-101422046D01*
X48979852Y-101434835D01*
X48866955Y-101492359D01*
X48777359Y-101581955D01*
X48719835Y-101694852D01*
X48707046Y-101775599D01*
X48025973Y-101094526D01*
X48025973Y-101094527D01*
X47974865Y-101167516D01*
X47878733Y-101373672D01*
X47819858Y-101593397D01*
X47800033Y-101820000D01*
X45220500Y-101820000D01*
X45220500Y-91320000D01*
X47800033Y-91320000D01*
X47819858Y-91546602D01*
X47878733Y-91766326D01*
X47974866Y-91972484D01*
X48025972Y-92045471D01*
X48025974Y-92045472D01*
X48707046Y-91364399D01*
X48719835Y-91445148D01*
X48777359Y-91558045D01*
X48866955Y-91647641D01*
X48979852Y-91705165D01*
X49060599Y-91717953D01*
X48379526Y-92399025D01*
X48379526Y-92399026D01*
X48452515Y-92450133D01*
X48658673Y-92546266D01*
X48878397Y-92605141D01*
X49104999Y-92624966D01*
X49331602Y-92605141D01*
X49551326Y-92546266D01*
X49757480Y-92450134D01*
X49830472Y-92399025D01*
X49149401Y-91717953D01*
X49230148Y-91705165D01*
X49343045Y-91647641D01*
X49432641Y-91558045D01*
X49490165Y-91445148D01*
X49502953Y-91364400D01*
X50184025Y-92045472D01*
X50235134Y-91972480D01*
X50331266Y-91766326D01*
X50390141Y-91546602D01*
X50409966Y-91320000D01*
X50390141Y-91093397D01*
X50331266Y-90873673D01*
X50235133Y-90667515D01*
X50184025Y-90594526D01*
X49502953Y-91275598D01*
X49490165Y-91194852D01*
X49432641Y-91081955D01*
X49343045Y-90992359D01*
X49230148Y-90934835D01*
X49149400Y-90922046D01*
X49830472Y-90240974D01*
X49830471Y-90240972D01*
X49757484Y-90189866D01*
X49551326Y-90093733D01*
X49331602Y-90034858D01*
X49104999Y-90015033D01*
X48878397Y-90034858D01*
X48658672Y-90093733D01*
X48452516Y-90189865D01*
X48379527Y-90240973D01*
X48379526Y-90240973D01*
X49060600Y-90922046D01*
X48979852Y-90934835D01*
X48866955Y-90992359D01*
X48777359Y-91081955D01*
X48719835Y-91194852D01*
X48707046Y-91275599D01*
X48025973Y-90594526D01*
X48025973Y-90594527D01*
X47974865Y-90667516D01*
X47878733Y-90873672D01*
X47819858Y-91093397D01*
X47800033Y-91320000D01*
X45220500Y-91320000D01*
X45220500Y-80720000D01*
X47800033Y-80720000D01*
X47819858Y-80946602D01*
X47878733Y-81166326D01*
X47974866Y-81372484D01*
X48025972Y-81445471D01*
X48025974Y-81445472D01*
X48707046Y-80764399D01*
X48719835Y-80845148D01*
X48777359Y-80958045D01*
X48866955Y-81047641D01*
X48979852Y-81105165D01*
X49060599Y-81117953D01*
X48379526Y-81799025D01*
X48379526Y-81799026D01*
X48452515Y-81850133D01*
X48658673Y-81946266D01*
X48878397Y-82005141D01*
X49104999Y-82024966D01*
X49331602Y-82005141D01*
X49551326Y-81946266D01*
X49757480Y-81850134D01*
X49830472Y-81799025D01*
X49149401Y-81117953D01*
X49230148Y-81105165D01*
X49343045Y-81047641D01*
X49432641Y-80958045D01*
X49490165Y-80845148D01*
X49502953Y-80764400D01*
X50184025Y-81445472D01*
X50235134Y-81372480D01*
X50331266Y-81166326D01*
X50390141Y-80946602D01*
X50409966Y-80720000D01*
X50390141Y-80493397D01*
X50331266Y-80273673D01*
X50235133Y-80067515D01*
X50184025Y-79994526D01*
X49502953Y-80675598D01*
X49490165Y-80594852D01*
X49432641Y-80481955D01*
X49343045Y-80392359D01*
X49230148Y-80334835D01*
X49149400Y-80322046D01*
X49830472Y-79640974D01*
X49830471Y-79640972D01*
X49757484Y-79589866D01*
X49551326Y-79493733D01*
X49331602Y-79434858D01*
X49104999Y-79415033D01*
X48878397Y-79434858D01*
X48658672Y-79493733D01*
X48452516Y-79589865D01*
X48379527Y-79640973D01*
X48379526Y-79640973D01*
X49060600Y-80322046D01*
X48979852Y-80334835D01*
X48866955Y-80392359D01*
X48777359Y-80481955D01*
X48719835Y-80594852D01*
X48707046Y-80675599D01*
X48025973Y-79994526D01*
X48025973Y-79994527D01*
X47974865Y-80067516D01*
X47878733Y-80273672D01*
X47819858Y-80493397D01*
X47800033Y-80720000D01*
X45220500Y-80720000D01*
X45220500Y-60898850D01*
X45240185Y-60831811D01*
X45292989Y-60786056D01*
X45345329Y-60776806D01*
X45345271Y-60776059D01*
X45353006Y-60775450D01*
X45354232Y-60775233D01*
X45355000Y-60775294D01*
X45598302Y-60756146D01*
X45835612Y-60699172D01*
X45835613Y-60699171D01*
X45835615Y-60699171D01*
X46061088Y-60605778D01*
X46163275Y-60543157D01*
X46269179Y-60478259D01*
X46454759Y-60319759D01*
X46613259Y-60134179D01*
X46728917Y-59945443D01*
X46740778Y-59926088D01*
X46834171Y-59700615D01*
X46834172Y-59700612D01*
X46891146Y-59463302D01*
X46910294Y-59220000D01*
X46891146Y-58976698D01*
X46834172Y-58739388D01*
X46834171Y-58739387D01*
X46834171Y-58739384D01*
X46740778Y-58513911D01*
X46642732Y-58353917D01*
X46613259Y-58305821D01*
X46454759Y-58120241D01*
X46452091Y-58117962D01*
X46449753Y-58114381D01*
X46448421Y-58112821D01*
X46448622Y-58112648D01*
X46413900Y-58059458D01*
X46413400Y-57989590D01*
X46431051Y-57952549D01*
X46441665Y-57937390D01*
X46534102Y-57739159D01*
X46590712Y-57527886D01*
X46609775Y-57310000D01*
X46590712Y-57092113D01*
X46545162Y-56922117D01*
X46546825Y-56852267D01*
X46585987Y-56794404D01*
X46598967Y-56785028D01*
X46607262Y-56779816D01*
X46734816Y-56652262D01*
X46830789Y-56499522D01*
X46890368Y-56329255D01*
X46905500Y-56194954D01*
X46905500Y-55085046D01*
X46925185Y-55018007D01*
X46941814Y-54997370D01*
X49324908Y-52614275D01*
X49324915Y-52614271D01*
X49408619Y-52530567D01*
X49500047Y-52439139D01*
X49529640Y-52396873D01*
X49536214Y-52388306D01*
X49569377Y-52348786D01*
X49595181Y-52304089D01*
X49600969Y-52295003D01*
X49630568Y-52252734D01*
X49652368Y-52205982D01*
X49657362Y-52196390D01*
X49683156Y-52151716D01*
X49700801Y-52103233D01*
X49704934Y-52093255D01*
X49726739Y-52046496D01*
X49740098Y-51996634D01*
X49743334Y-51986370D01*
X49760985Y-51937879D01*
X49769941Y-51887084D01*
X49772282Y-51876527D01*
X49785635Y-51826693D01*
X49790130Y-51775312D01*
X49791542Y-51764583D01*
X49797623Y-51730102D01*
X49800501Y-51713779D01*
X49800501Y-51486221D01*
X49800501Y-51475965D01*
X49800500Y-51475951D01*
X49800500Y-48890046D01*
X49820185Y-48823007D01*
X49836814Y-48802370D01*
X50394415Y-48244769D01*
X50455734Y-48211287D01*
X50525425Y-48216271D01*
X50581359Y-48258142D01*
X50605776Y-48323607D01*
X50594475Y-48384857D01*
X50543733Y-48493675D01*
X50484858Y-48713397D01*
X50465033Y-48940000D01*
X50484858Y-49166602D01*
X50543733Y-49386326D01*
X50639866Y-49592484D01*
X50690972Y-49665471D01*
X50690973Y-49665472D01*
X51372046Y-48984400D01*
X51384835Y-49065148D01*
X51442359Y-49178045D01*
X51531955Y-49267641D01*
X51644852Y-49325165D01*
X51725599Y-49337953D01*
X51044526Y-50019025D01*
X51044526Y-50019026D01*
X51117515Y-50070133D01*
X51323673Y-50166266D01*
X51543397Y-50225141D01*
X51770000Y-50244966D01*
X51996602Y-50225141D01*
X52216326Y-50166266D01*
X52422480Y-50070134D01*
X52495472Y-50019025D01*
X51814401Y-49337953D01*
X51895148Y-49325165D01*
X52008045Y-49267641D01*
X52097641Y-49178045D01*
X52155165Y-49065148D01*
X52167953Y-48984400D01*
X52849025Y-49665472D01*
X52900134Y-49592480D01*
X52996266Y-49386326D01*
X53055141Y-49166602D01*
X53074966Y-48940000D01*
X53055141Y-48713397D01*
X52996266Y-48493673D01*
X52900133Y-48287515D01*
X52849025Y-48214526D01*
X52167953Y-48895598D01*
X52155165Y-48814852D01*
X52097641Y-48701955D01*
X52008045Y-48612359D01*
X51895148Y-48554835D01*
X51814400Y-48542046D01*
X52495472Y-47860974D01*
X52495471Y-47860972D01*
X52422484Y-47809866D01*
X52216326Y-47713733D01*
X51996602Y-47654858D01*
X51770000Y-47635033D01*
X51543397Y-47654858D01*
X51323673Y-47713733D01*
X51214858Y-47764475D01*
X51145780Y-47774967D01*
X51081996Y-47746447D01*
X51043757Y-47687971D01*
X51043202Y-47618103D01*
X51074770Y-47564413D01*
X52924598Y-45714586D01*
X52985916Y-45681104D01*
X53055607Y-45686088D01*
X53111541Y-45727960D01*
X53124656Y-45749865D01*
X53139866Y-45782483D01*
X53190972Y-45855471D01*
X53190973Y-45855472D01*
X53872046Y-45174400D01*
X53884835Y-45255148D01*
X53942359Y-45368045D01*
X54031955Y-45457641D01*
X54144852Y-45515165D01*
X54225599Y-45527953D01*
X53544526Y-46209025D01*
X53544526Y-46209026D01*
X53617515Y-46260133D01*
X53823673Y-46356266D01*
X54043397Y-46415141D01*
X54270000Y-46434966D01*
X54496602Y-46415141D01*
X54716326Y-46356266D01*
X54922480Y-46260134D01*
X54995472Y-46209025D01*
X54314401Y-45527953D01*
X54395148Y-45515165D01*
X54508045Y-45457641D01*
X54597641Y-45368045D01*
X54655165Y-45255148D01*
X54667953Y-45174400D01*
X55349025Y-45855472D01*
X55400134Y-45782480D01*
X55476066Y-45619644D01*
X59015302Y-45619644D01*
X59034564Y-45925809D01*
X59035538Y-45933529D01*
X59093023Y-46234874D01*
X59094959Y-46242413D01*
X59189759Y-46534176D01*
X59192622Y-46541407D01*
X59323243Y-46818990D01*
X59326987Y-46825801D01*
X59491368Y-47084825D01*
X59495949Y-47091130D01*
X59584286Y-47197910D01*
X60405073Y-46377122D01*
X60481890Y-46486828D01*
X60648922Y-46653860D01*
X60758626Y-46730675D01*
X59934971Y-47554329D01*
X59934972Y-47554330D01*
X60174620Y-47728444D01*
X60181210Y-47732626D01*
X60450032Y-47880412D01*
X60457071Y-47883725D01*
X60742307Y-47996657D01*
X60749702Y-47999060D01*
X61046837Y-48075352D01*
X61054495Y-48076813D01*
X61358846Y-48115261D01*
X61366608Y-48115750D01*
X61673392Y-48115750D01*
X61681153Y-48115261D01*
X61985504Y-48076813D01*
X61993162Y-48075352D01*
X62290297Y-47999060D01*
X62297692Y-47996657D01*
X62582928Y-47883725D01*
X62589967Y-47880412D01*
X62858798Y-47732622D01*
X62865368Y-47728452D01*
X63105026Y-47554329D01*
X63105027Y-47554329D01*
X62281373Y-46730675D01*
X62391078Y-46653860D01*
X62558110Y-46486828D01*
X62634925Y-46377124D01*
X63455712Y-47197910D01*
X63544054Y-47091124D01*
X63548630Y-47084826D01*
X63713012Y-46825801D01*
X63716756Y-46818990D01*
X63847377Y-46541407D01*
X63850240Y-46534176D01*
X63945040Y-46242413D01*
X63946976Y-46234874D01*
X64004461Y-45933529D01*
X64005435Y-45925809D01*
X64024698Y-45619644D01*
X64024698Y-45611855D01*
X64005435Y-45305690D01*
X64004461Y-45297970D01*
X63946976Y-44996625D01*
X63945040Y-44989086D01*
X63850240Y-44697323D01*
X63847377Y-44690092D01*
X63716756Y-44412509D01*
X63713012Y-44405698D01*
X63548631Y-44146674D01*
X63544050Y-44140369D01*
X63455712Y-44033588D01*
X62634924Y-44854375D01*
X62558110Y-44744672D01*
X62391078Y-44577640D01*
X62281373Y-44500823D01*
X63105027Y-43677169D01*
X63105026Y-43677168D01*
X62865379Y-43503055D01*
X62858789Y-43498873D01*
X62589967Y-43351087D01*
X62582928Y-43347774D01*
X62297692Y-43234842D01*
X62290297Y-43232439D01*
X61993162Y-43156147D01*
X61985504Y-43154686D01*
X61681153Y-43116238D01*
X61673392Y-43115750D01*
X61366608Y-43115750D01*
X61358846Y-43116238D01*
X61054495Y-43154686D01*
X61046837Y-43156147D01*
X60749702Y-43232439D01*
X60742307Y-43234842D01*
X60457071Y-43347774D01*
X60450032Y-43351087D01*
X60181210Y-43498873D01*
X60174631Y-43503048D01*
X59934971Y-43677169D01*
X60758626Y-44500824D01*
X60648922Y-44577640D01*
X60481890Y-44744672D01*
X60405074Y-44854376D01*
X59584286Y-44033588D01*
X59584285Y-44033588D01*
X59495940Y-44140381D01*
X59491373Y-44146667D01*
X59326987Y-44405698D01*
X59323243Y-44412509D01*
X59192622Y-44690092D01*
X59189759Y-44697323D01*
X59094959Y-44989086D01*
X59093023Y-44996625D01*
X59035538Y-45297970D01*
X59034564Y-45305690D01*
X59015302Y-45611855D01*
X59015302Y-45619644D01*
X55476066Y-45619644D01*
X55496266Y-45576326D01*
X55555141Y-45356602D01*
X55574966Y-45130000D01*
X55555141Y-44903397D01*
X55496266Y-44683673D01*
X55400133Y-44477515D01*
X55349025Y-44404526D01*
X54667953Y-45085598D01*
X54655165Y-45004852D01*
X54597641Y-44891955D01*
X54508045Y-44802359D01*
X54395148Y-44744835D01*
X54314400Y-44732046D01*
X54995472Y-44050974D01*
X54995471Y-44050972D01*
X54922483Y-43999866D01*
X54889865Y-43984656D01*
X54837426Y-43938483D01*
X54818274Y-43871290D01*
X54838490Y-43804409D01*
X54854580Y-43784603D01*
X55064908Y-43574275D01*
X55064916Y-43574270D01*
X55146553Y-43492633D01*
X55240047Y-43399139D01*
X55269640Y-43356873D01*
X55276214Y-43348306D01*
X55309377Y-43308786D01*
X55335181Y-43264089D01*
X55340969Y-43255003D01*
X55370568Y-43212734D01*
X55392368Y-43165982D01*
X55397361Y-43156391D01*
X55397502Y-43156147D01*
X55423156Y-43111715D01*
X55440800Y-43063235D01*
X55444941Y-43053239D01*
X55466739Y-43006496D01*
X55480095Y-42956643D01*
X55483331Y-42946380D01*
X55500985Y-42897880D01*
X55509947Y-42847048D01*
X55512275Y-42836546D01*
X55525635Y-42786692D01*
X55530130Y-42735312D01*
X55531542Y-42724583D01*
X55533390Y-42714107D01*
X55540501Y-42673779D01*
X55540501Y-42446221D01*
X55540501Y-42435964D01*
X55540500Y-42435958D01*
X55540500Y-38824500D01*
X55560185Y-38757461D01*
X55612989Y-38711706D01*
X55664500Y-38700500D01*
X56856044Y-38700500D01*
X56923083Y-38720185D01*
G37*
%TD.AperFunction*%
%TA.AperFunction,Conductor*%
G36*
X117430000Y-106550000D02*
G01*
X117625499Y-106550000D01*
X117692538Y-106569685D01*
X117738293Y-106622489D01*
X117749499Y-106674000D01*
X117749499Y-108272085D01*
X117729814Y-108339124D01*
X117713180Y-108359766D01*
X117117288Y-108955657D01*
X117113147Y-108959611D01*
X117056128Y-109011592D01*
X117009633Y-109073159D01*
X117006079Y-109077646D01*
X116956772Y-109137024D01*
X116947938Y-109152885D01*
X116938566Y-109167267D01*
X116927635Y-109181741D01*
X116893236Y-109250824D01*
X116890566Y-109255888D01*
X116853020Y-109323297D01*
X116847253Y-109340504D01*
X116840687Y-109356356D01*
X116832595Y-109372607D01*
X116811479Y-109446821D01*
X116809786Y-109452289D01*
X116785260Y-109525467D01*
X116782753Y-109543436D01*
X116779210Y-109560231D01*
X116774244Y-109577686D01*
X116767123Y-109654532D01*
X116766463Y-109660220D01*
X116755804Y-109736635D01*
X116759368Y-109813727D01*
X116759500Y-109819453D01*
X116759500Y-123636914D01*
X116739815Y-123703953D01*
X116729791Y-123717445D01*
X116611163Y-123856342D01*
X116479535Y-124071139D01*
X116383126Y-124303889D01*
X116324317Y-124548850D01*
X116304551Y-124800000D01*
X116324317Y-125051149D01*
X116383126Y-125296110D01*
X116397647Y-125331166D01*
X116479534Y-125528859D01*
X116611164Y-125743659D01*
X116774776Y-125935224D01*
X116966341Y-126098836D01*
X117181141Y-126230466D01*
X117413889Y-126326873D01*
X117658852Y-126385683D01*
X117910000Y-126405449D01*
X118161148Y-126385683D01*
X118370331Y-126335463D01*
X118396552Y-126329168D01*
X118466334Y-126332659D01*
X118523152Y-126373323D01*
X118548965Y-126438249D01*
X118549499Y-126449742D01*
X118549499Y-133682085D01*
X118529814Y-133749124D01*
X118513180Y-133769766D01*
X113969766Y-138313181D01*
X113908443Y-138346666D01*
X113882085Y-138349500D01*
X113105778Y-138349500D01*
X113038739Y-138329815D01*
X112992984Y-138277011D01*
X112991217Y-138272952D01*
X112990466Y-138271141D01*
X112947583Y-138201163D01*
X112858836Y-138056341D01*
X112695224Y-137864776D01*
X112503659Y-137701164D01*
X112288859Y-137569534D01*
X112143347Y-137509261D01*
X112056110Y-137473126D01*
X111811149Y-137414317D01*
X111629235Y-137400000D01*
X111560000Y-137394551D01*
X111559999Y-137394551D01*
X111308850Y-137414317D01*
X111059860Y-137474094D01*
X110990077Y-137470603D01*
X110933260Y-137429939D01*
X110907447Y-137365013D01*
X110920833Y-137296437D01*
X110935515Y-137274304D01*
X110953227Y-137252975D01*
X110962059Y-137237116D01*
X110971436Y-137222726D01*
X110982366Y-137208255D01*
X111016769Y-137139162D01*
X111019436Y-137134104D01*
X111056979Y-137066701D01*
X111062742Y-137049505D01*
X111069316Y-137033633D01*
X111074623Y-137022975D01*
X111077405Y-137017389D01*
X111098530Y-136943140D01*
X111100208Y-136937722D01*
X111124739Y-136864536D01*
X111127246Y-136846557D01*
X111130789Y-136829761D01*
X111135756Y-136812310D01*
X111142878Y-136735444D01*
X111143528Y-136729835D01*
X111154196Y-136653362D01*
X111150632Y-136576270D01*
X111150500Y-136570544D01*
X111150500Y-136373084D01*
X111170185Y-136306045D01*
X111180210Y-136292552D01*
X111203102Y-136265749D01*
X111298836Y-136153659D01*
X111430466Y-135938859D01*
X111526873Y-135706111D01*
X111583112Y-135471855D01*
X111617903Y-135411264D01*
X111679929Y-135379100D01*
X111749498Y-135385576D01*
X111804522Y-135428635D01*
X111823461Y-135468709D01*
X111873733Y-135656326D01*
X111969865Y-135862480D01*
X112100341Y-136048819D01*
X112261180Y-136209658D01*
X112447519Y-136340134D01*
X112653673Y-136436266D01*
X112849999Y-136488871D01*
X112850000Y-136488871D01*
X112850000Y-135525686D01*
X112861955Y-135537641D01*
X112974852Y-135595165D01*
X113068519Y-135610000D01*
X113131481Y-135610000D01*
X113225148Y-135595165D01*
X113338045Y-135537641D01*
X113350000Y-135525686D01*
X113350000Y-136488871D01*
X113546326Y-136436266D01*
X113752480Y-136340134D01*
X113938819Y-136209658D01*
X114099658Y-136048819D01*
X114230134Y-135862480D01*
X114326266Y-135656326D01*
X114378872Y-135460000D01*
X113415686Y-135460000D01*
X113427641Y-135448045D01*
X113485165Y-135335148D01*
X113504986Y-135210000D01*
X113485165Y-135084852D01*
X113427641Y-134971955D01*
X113415686Y-134960000D01*
X114378872Y-134960000D01*
X114378871Y-134959999D01*
X114326266Y-134763673D01*
X114230134Y-134557519D01*
X114099658Y-134371180D01*
X113938819Y-134210341D01*
X113752480Y-134079865D01*
X113546326Y-133983733D01*
X113350000Y-133931126D01*
X113349999Y-133931126D01*
X113349999Y-134894313D01*
X113338045Y-134882359D01*
X113225148Y-134824835D01*
X113131481Y-134810000D01*
X113068519Y-134810000D01*
X112974852Y-134824835D01*
X112861955Y-134882359D01*
X112850000Y-134894314D01*
X112850000Y-133931127D01*
X112849999Y-133931126D01*
X112653673Y-133983733D01*
X112447519Y-134079865D01*
X112261180Y-134210341D01*
X112100341Y-134371180D01*
X111969865Y-134557519D01*
X111873733Y-134763673D01*
X111823461Y-134951290D01*
X111787096Y-135010950D01*
X111724248Y-135041479D01*
X111654873Y-135033184D01*
X111600995Y-134988699D01*
X111583112Y-134948143D01*
X111578920Y-134930684D01*
X111526873Y-134713889D01*
X111430466Y-134481141D01*
X111298836Y-134266341D01*
X111135224Y-134074776D01*
X110943659Y-133911164D01*
X110728859Y-133779534D01*
X110586608Y-133720612D01*
X110496110Y-133683126D01*
X110251149Y-133624317D01*
X110034776Y-133607288D01*
X110000000Y-133604551D01*
X109999999Y-133604551D01*
X109748850Y-133624317D01*
X109503889Y-133683126D01*
X109271139Y-133779535D01*
X109056342Y-133911163D01*
X108864776Y-134074776D01*
X108701163Y-134266342D01*
X108569534Y-134481139D01*
X108528949Y-134579121D01*
X108485107Y-134633525D01*
X108418813Y-134655589D01*
X108351114Y-134638309D01*
X108349598Y-134637395D01*
X108288550Y-134599985D01*
X108238859Y-134569534D01*
X108006111Y-134473127D01*
X107983435Y-134467683D01*
X107913876Y-134450983D01*
X107855143Y-134418090D01*
X107496954Y-134059901D01*
X107463469Y-133998578D01*
X107468453Y-133928886D01*
X107510325Y-133872953D01*
X107573829Y-133848692D01*
X107607886Y-133845712D01*
X107819159Y-133789102D01*
X108017385Y-133696667D01*
X108079572Y-133653124D01*
X107434400Y-133007953D01*
X107515148Y-132995165D01*
X107628045Y-132937641D01*
X107717641Y-132848045D01*
X107775165Y-132735148D01*
X107787953Y-132654400D01*
X108433124Y-133299572D01*
X108476667Y-133237385D01*
X108569102Y-133039159D01*
X108625712Y-132827886D01*
X108644775Y-132610000D01*
X108625712Y-132392113D01*
X108569102Y-132180840D01*
X108476667Y-131982615D01*
X108433123Y-131920428D01*
X107787953Y-132565598D01*
X107775165Y-132484852D01*
X107717641Y-132371955D01*
X107628045Y-132282359D01*
X107515148Y-132224835D01*
X107434401Y-132212046D01*
X108079572Y-131566875D01*
X108079571Y-131566873D01*
X108017386Y-131523331D01*
X107819161Y-131430898D01*
X107607886Y-131374287D01*
X107390000Y-131355224D01*
X107172113Y-131374287D01*
X106960840Y-131430897D01*
X106762611Y-131523333D01*
X106700428Y-131566874D01*
X106700427Y-131566875D01*
X107345599Y-132212046D01*
X107264852Y-132224835D01*
X107151955Y-132282359D01*
X107062359Y-132371955D01*
X107004835Y-132484852D01*
X106992046Y-132565598D01*
X106346875Y-131920427D01*
X106327479Y-131922125D01*
X106258979Y-131908359D01*
X106210944Y-131863387D01*
X106150169Y-131764212D01*
X106108259Y-131695821D01*
X105949759Y-131510241D01*
X105764179Y-131351741D01*
X105711095Y-131319211D01*
X105556088Y-131224221D01*
X105330615Y-131130828D01*
X105093303Y-131073854D01*
X104971651Y-131064280D01*
X104850000Y-131054706D01*
X104849999Y-131054706D01*
X104606696Y-131073854D01*
X104369384Y-131130828D01*
X104143911Y-131224221D01*
X103935818Y-131351742D01*
X103882429Y-131397340D01*
X103818667Y-131425910D01*
X103749582Y-131415472D01*
X103697107Y-131369340D01*
X103696983Y-131369145D01*
X103689816Y-131357738D01*
X103689814Y-131357736D01*
X103689813Y-131357734D01*
X103562264Y-131230185D01*
X103418735Y-131140000D01*
X103409522Y-131134211D01*
X103239255Y-131074632D01*
X103239251Y-131074631D01*
X103239250Y-131074631D01*
X103108420Y-131059890D01*
X103108410Y-131059889D01*
X103104954Y-131059500D01*
X101515046Y-131059500D01*
X101511590Y-131059889D01*
X101511579Y-131059890D01*
X101380749Y-131074631D01*
X101380746Y-131074631D01*
X101380745Y-131074632D01*
X101210478Y-131134211D01*
X101210476Y-131134211D01*
X101210476Y-131134212D01*
X101057737Y-131230184D01*
X101051231Y-131236690D01*
X100989906Y-131270173D01*
X100920215Y-131265186D01*
X100875871Y-131236687D01*
X100179319Y-130540134D01*
X100145834Y-130478811D01*
X100143000Y-130452453D01*
X100143000Y-129548529D01*
X100143000Y-129545046D01*
X100127868Y-129410745D01*
X100068289Y-129240478D01*
X99972316Y-129087738D01*
X99972315Y-129087737D01*
X99972314Y-129087735D01*
X99844764Y-128960185D01*
X99763720Y-128909262D01*
X99692022Y-128864211D01*
X99521755Y-128804632D01*
X99521751Y-128804631D01*
X99521750Y-128804631D01*
X99390920Y-128789890D01*
X99390910Y-128789889D01*
X99387454Y-128789500D01*
X97392546Y-128789500D01*
X97389090Y-128789889D01*
X97389079Y-128789890D01*
X97258249Y-128804631D01*
X97258246Y-128804631D01*
X97258245Y-128804632D01*
X97087978Y-128864211D01*
X97087976Y-128864211D01*
X97087976Y-128864212D01*
X96935235Y-128960185D01*
X96893482Y-129001938D01*
X96832159Y-129035422D01*
X96762467Y-129030437D01*
X96752000Y-129025976D01*
X96509641Y-128909262D01*
X96416397Y-128880500D01*
X96251771Y-128829719D01*
X95984929Y-128789500D01*
X95715071Y-128789500D01*
X95448228Y-128829719D01*
X95190359Y-128909262D01*
X94947228Y-129026347D01*
X94724257Y-129178366D01*
X94526437Y-129361916D01*
X94461737Y-129443047D01*
X94404548Y-129483187D01*
X94334737Y-129486036D01*
X94288629Y-129463587D01*
X94107164Y-129322347D01*
X93895460Y-129207780D01*
X93667792Y-129129619D01*
X93560000Y-129111633D01*
X93560000Y-130098316D01*
X93531181Y-130080791D01*
X93385596Y-130040000D01*
X93272378Y-130040000D01*
X93160217Y-130055416D01*
X93059999Y-130098946D01*
X93059999Y-129111633D01*
X93059998Y-129111633D01*
X92952207Y-129129620D01*
X92724539Y-129207780D01*
X92512835Y-129322348D01*
X92322873Y-129470201D01*
X92159848Y-129647292D01*
X92028184Y-129848819D01*
X91931493Y-130069255D01*
X91872400Y-130302606D01*
X91869302Y-130340000D01*
X92815148Y-130340000D01*
X92766441Y-130477047D01*
X92756123Y-130627886D01*
X92786884Y-130775915D01*
X92820090Y-130840000D01*
X91869303Y-130840000D01*
X91872400Y-130877393D01*
X91931493Y-131110744D01*
X92028184Y-131331180D01*
X92159848Y-131532707D01*
X92322873Y-131709798D01*
X92512835Y-131857651D01*
X92724539Y-131972219D01*
X92952208Y-132050379D01*
X93059999Y-132068366D01*
X93059999Y-131081683D01*
X93088819Y-131099209D01*
X93234404Y-131140000D01*
X93347622Y-131140000D01*
X93459783Y-131124584D01*
X93560000Y-131081053D01*
X93560000Y-132068365D01*
X93667791Y-132050379D01*
X93824074Y-131996727D01*
X93893872Y-131993577D01*
X93954294Y-132028663D01*
X93986154Y-132090845D01*
X93979339Y-132160382D01*
X93952020Y-132201687D01*
X93800525Y-132353182D01*
X93739204Y-132386666D01*
X93712846Y-132389500D01*
X91324500Y-132389500D01*
X91257461Y-132369815D01*
X91211706Y-132317011D01*
X91200500Y-132265500D01*
X91200500Y-123251556D01*
X91220185Y-123184517D01*
X91272989Y-123138762D01*
X91342147Y-123128818D01*
X91376905Y-123139174D01*
X91563674Y-123226266D01*
X91759999Y-123278871D01*
X91760000Y-123278871D01*
X91760000Y-122315686D01*
X91771955Y-122327641D01*
X91884852Y-122385165D01*
X91978519Y-122400000D01*
X92041481Y-122400000D01*
X92135148Y-122385165D01*
X92248045Y-122327641D01*
X92260000Y-122315685D01*
X92260000Y-123278871D01*
X92456326Y-123226266D01*
X92662480Y-123130134D01*
X92848819Y-122999658D01*
X93009660Y-122838817D01*
X93074759Y-122745846D01*
X93129335Y-122702221D01*
X93198834Y-122695027D01*
X93261189Y-122726549D01*
X93294825Y-122780419D01*
X93319261Y-122859640D01*
X93436347Y-123102771D01*
X93436348Y-123102773D01*
X93436349Y-123102774D01*
X93588365Y-123325741D01*
X93618116Y-123357805D01*
X93618412Y-123358124D01*
X93649580Y-123420657D01*
X93641993Y-123490113D01*
X93619999Y-123520200D01*
X93619999Y-124513316D01*
X93591181Y-124495791D01*
X93445596Y-124455000D01*
X93332378Y-124455000D01*
X93220217Y-124470416D01*
X93119999Y-124513946D01*
X93119999Y-123526633D01*
X93012207Y-123544619D01*
X92784539Y-123622780D01*
X92572835Y-123737348D01*
X92382873Y-123885201D01*
X92219848Y-124062292D01*
X92088184Y-124263819D01*
X91991493Y-124484255D01*
X91932400Y-124717606D01*
X91929302Y-124755000D01*
X92875148Y-124755000D01*
X92826441Y-124892047D01*
X92816123Y-125042886D01*
X92846884Y-125190915D01*
X92880090Y-125255000D01*
X91929303Y-125255000D01*
X91932400Y-125292393D01*
X91991493Y-125525744D01*
X92088184Y-125746180D01*
X92219848Y-125947707D01*
X92382873Y-126124798D01*
X92572835Y-126272651D01*
X92784539Y-126387219D01*
X93012208Y-126465379D01*
X93120000Y-126483366D01*
X93120000Y-125496683D01*
X93148819Y-125514209D01*
X93294404Y-125555000D01*
X93407622Y-125555000D01*
X93519783Y-125539584D01*
X93619999Y-125496053D01*
X93619999Y-126483365D01*
X93619999Y-126483366D01*
X93727791Y-126465379D01*
X93955460Y-126387219D01*
X94167164Y-126272651D01*
X94348627Y-126131412D01*
X94413621Y-126105769D01*
X94482161Y-126119335D01*
X94521737Y-126151952D01*
X94528301Y-126160183D01*
X94586439Y-126233085D01*
X94689992Y-126329168D01*
X94784256Y-126416633D01*
X94784259Y-126416635D01*
X95007225Y-126568651D01*
X95250359Y-126685738D01*
X95508228Y-126765280D01*
X95775071Y-126805500D01*
X96044929Y-126805500D01*
X96311772Y-126765280D01*
X96569641Y-126685738D01*
X96812002Y-126569022D01*
X96880941Y-126557671D01*
X96945076Y-126585393D01*
X96953483Y-126593062D01*
X96995235Y-126634814D01*
X96995237Y-126634815D01*
X96995238Y-126634816D01*
X97147978Y-126730789D01*
X97318245Y-126790368D01*
X97452546Y-126805500D01*
X97456030Y-126805500D01*
X99443970Y-126805500D01*
X99447454Y-126805500D01*
X99581755Y-126790368D01*
X99752022Y-126730789D01*
X99904762Y-126634816D01*
X100032316Y-126507262D01*
X100079154Y-126432718D01*
X100131485Y-126386431D01*
X100200539Y-126375781D01*
X100264387Y-126404156D01*
X100271827Y-126411012D01*
X100683181Y-126822365D01*
X100716666Y-126883688D01*
X100719499Y-126910045D01*
X100719500Y-127364954D01*
X100719889Y-127368410D01*
X100719890Y-127368420D01*
X100734529Y-127498344D01*
X100734632Y-127499255D01*
X100794211Y-127669522D01*
X100847316Y-127754038D01*
X100890185Y-127822264D01*
X101017735Y-127949814D01*
X101017737Y-127949815D01*
X101017738Y-127949816D01*
X101170478Y-128045789D01*
X101340745Y-128105368D01*
X101475046Y-128120500D01*
X101478530Y-128120500D01*
X103061470Y-128120500D01*
X103064954Y-128120500D01*
X103199255Y-128105368D01*
X103369522Y-128045789D01*
X103522262Y-127949816D01*
X103649816Y-127822262D01*
X103656904Y-127810980D01*
X103709239Y-127764688D01*
X103778292Y-127754038D01*
X103842141Y-127782412D01*
X103895821Y-127828259D01*
X103974887Y-127876711D01*
X104103911Y-127955778D01*
X104329384Y-128049171D01*
X104329387Y-128049171D01*
X104329388Y-128049172D01*
X104566698Y-128106146D01*
X104810000Y-128125294D01*
X105053302Y-128106146D01*
X105290612Y-128049172D01*
X105290613Y-128049171D01*
X105290615Y-128049171D01*
X105516088Y-127955778D01*
X105566045Y-127925163D01*
X105724179Y-127828259D01*
X105909759Y-127669759D01*
X106068259Y-127484179D01*
X106170943Y-127316613D01*
X106222756Y-127269738D01*
X106287479Y-127257875D01*
X106306874Y-127259572D01*
X106952046Y-126614399D01*
X106964835Y-126695148D01*
X107022359Y-126808045D01*
X107111955Y-126897641D01*
X107224852Y-126955165D01*
X107305599Y-126967953D01*
X106660426Y-127613124D01*
X106660427Y-127613125D01*
X106722610Y-127656666D01*
X106920840Y-127749102D01*
X107132113Y-127805712D01*
X107350000Y-127824775D01*
X107567886Y-127805712D01*
X107779159Y-127749102D01*
X107977385Y-127656667D01*
X108039572Y-127613124D01*
X107394401Y-126967953D01*
X107475148Y-126955165D01*
X107588045Y-126897641D01*
X107677641Y-126808045D01*
X107735165Y-126695148D01*
X107747953Y-126614401D01*
X108378133Y-127244581D01*
X108411618Y-127305904D01*
X108414070Y-127341991D01*
X108397395Y-127553870D01*
X108394551Y-127590000D01*
X108395917Y-127607355D01*
X108414317Y-127841149D01*
X108473126Y-128086110D01*
X108489357Y-128125294D01*
X108569534Y-128318859D01*
X108701164Y-128533659D01*
X108864776Y-128725224D01*
X109056341Y-128888836D01*
X109271141Y-129020466D01*
X109503889Y-129116873D01*
X109748852Y-129175683D01*
X110000000Y-129195449D01*
X110251148Y-129175683D01*
X110496111Y-129116873D01*
X110728859Y-129020466D01*
X110943659Y-128888836D01*
X111135224Y-128725224D01*
X111298836Y-128533659D01*
X111430466Y-128318859D01*
X111435438Y-128306853D01*
X111479275Y-128252452D01*
X111545568Y-128230384D01*
X111613268Y-128247661D01*
X111660881Y-128298796D01*
X111664558Y-128306848D01*
X111669532Y-128318856D01*
X111669536Y-128318862D01*
X111801164Y-128533659D01*
X111964776Y-128725224D01*
X112156341Y-128888836D01*
X112371141Y-129020466D01*
X112603889Y-129116873D01*
X112848852Y-129175683D01*
X113100000Y-129195449D01*
X113351148Y-129175683D01*
X113596111Y-129116873D01*
X113828859Y-129020466D01*
X114043659Y-128888836D01*
X114235224Y-128725224D01*
X114398836Y-128533659D01*
X114530466Y-128318859D01*
X114626873Y-128086111D01*
X114685683Y-127841148D01*
X114705449Y-127590000D01*
X114685683Y-127338852D01*
X114626873Y-127093889D01*
X114530466Y-126861141D01*
X114398836Y-126646341D01*
X114235224Y-126454776D01*
X114043659Y-126291164D01*
X113828859Y-126159534D01*
X113637735Y-126080368D01*
X113625843Y-126075442D01*
X113585615Y-126048562D01*
X111817294Y-124280241D01*
X111790414Y-124240013D01*
X111787633Y-124233298D01*
X111770506Y-124191951D01*
X111763038Y-124122483D01*
X111794313Y-124060004D01*
X111854402Y-124024352D01*
X111885068Y-124020500D01*
X112965059Y-124020500D01*
X112967376Y-124020500D01*
X113169103Y-124005383D01*
X113432195Y-123945334D01*
X113683398Y-123846743D01*
X113917102Y-123711815D01*
X114128085Y-123543561D01*
X114311635Y-123345741D01*
X114463651Y-123122775D01*
X114580738Y-122879641D01*
X114660280Y-122621772D01*
X114700500Y-122354929D01*
X114700500Y-122085071D01*
X114660280Y-121818228D01*
X114580738Y-121560359D01*
X114463651Y-121317226D01*
X114311635Y-121094259D01*
X114128085Y-120896439D01*
X114095532Y-120870479D01*
X114055393Y-120813292D01*
X114052543Y-120743480D01*
X114073715Y-120699041D01*
X114085471Y-120683397D01*
X114214730Y-120511385D01*
X114331069Y-120289721D01*
X114410343Y-120052266D01*
X114445430Y-119836365D01*
X114450500Y-119805170D01*
X114450500Y-117374392D01*
X114459940Y-117326938D01*
X114474572Y-117291613D01*
X114474573Y-117291610D01*
X114535221Y-117038994D01*
X114555604Y-116780000D01*
X114535221Y-116521006D01*
X114474573Y-116268390D01*
X114375154Y-116028372D01*
X114239412Y-115806860D01*
X114149548Y-115701643D01*
X114120978Y-115637884D01*
X114131415Y-115568798D01*
X114152936Y-115536777D01*
X114285652Y-115393742D01*
X114337138Y-115360514D01*
X114397731Y-115340205D01*
X114403149Y-115338527D01*
X114477389Y-115317405D01*
X114493642Y-115309311D01*
X114509493Y-115302746D01*
X114526702Y-115296979D01*
X114594155Y-115259407D01*
X114599169Y-115256765D01*
X114668255Y-115222366D01*
X114682726Y-115211436D01*
X114697116Y-115202059D01*
X114712975Y-115193227D01*
X114772373Y-115143902D01*
X114776822Y-115140378D01*
X114838407Y-115093872D01*
X114890398Y-115036839D01*
X114894332Y-115032719D01*
X115532719Y-114394332D01*
X115536841Y-114390397D01*
X115569118Y-114360973D01*
X115593872Y-114338407D01*
X115640405Y-114276786D01*
X115643915Y-114272357D01*
X115693226Y-114212975D01*
X115702056Y-114197120D01*
X115711430Y-114182734D01*
X115722366Y-114168255D01*
X115756764Y-114099170D01*
X115759431Y-114094113D01*
X115796978Y-114026703D01*
X115796979Y-114026702D01*
X115802747Y-114009490D01*
X115809317Y-113993631D01*
X115817404Y-113977391D01*
X115835689Y-113913127D01*
X115838528Y-113903147D01*
X115840206Y-113897729D01*
X115864739Y-113824537D01*
X115867245Y-113806560D01*
X115870789Y-113789761D01*
X115875756Y-113772310D01*
X115882876Y-113695455D01*
X115883536Y-113689772D01*
X115883860Y-113687450D01*
X115894195Y-113613362D01*
X115890629Y-113536241D01*
X115890499Y-113530602D01*
X115890499Y-106593291D01*
X115910184Y-106526253D01*
X115962988Y-106480498D01*
X116032146Y-106470554D01*
X116080614Y-106490630D01*
X116222628Y-106543599D01*
X116278867Y-106549645D01*
X116285482Y-106550000D01*
X116930000Y-106550000D01*
X116930000Y-105635501D01*
X117037685Y-105684680D01*
X117144237Y-105700000D01*
X117215763Y-105700000D01*
X117322315Y-105684680D01*
X117430000Y-105635501D01*
X117430000Y-106550000D01*
G37*
%TD.AperFunction*%
%TA.AperFunction,Conductor*%
G36*
X94639123Y-137270185D02*
G01*
X94659764Y-137286818D01*
X94713180Y-137340233D01*
X94746666Y-137401556D01*
X94749500Y-137427915D01*
X94749500Y-139370545D01*
X94749368Y-139376271D01*
X94745804Y-139453363D01*
X94756463Y-139529778D01*
X94757123Y-139535466D01*
X94764243Y-139612308D01*
X94769209Y-139629759D01*
X94772753Y-139646558D01*
X94775261Y-139664536D01*
X94775261Y-139664538D01*
X94775262Y-139664539D01*
X94799785Y-139737708D01*
X94801479Y-139743178D01*
X94822594Y-139817387D01*
X94830684Y-139833635D01*
X94837252Y-139849493D01*
X94843019Y-139866698D01*
X94880571Y-139934118D01*
X94883241Y-139939185D01*
X94917632Y-140008253D01*
X94917634Y-140008255D01*
X94928351Y-140022447D01*
X94928566Y-140022731D01*
X94937941Y-140037119D01*
X94946773Y-140052975D01*
X94996087Y-140112363D01*
X94999642Y-140116851D01*
X95046128Y-140178407D01*
X95068105Y-140198442D01*
X95103157Y-140230397D01*
X95107299Y-140234352D01*
X96265645Y-141392698D01*
X96269600Y-141396840D01*
X96310734Y-141441961D01*
X96341352Y-141504765D01*
X96333155Y-141574152D01*
X96288746Y-141628092D01*
X96222224Y-141649461D01*
X96219098Y-141649500D01*
X91227914Y-141649500D01*
X91160875Y-141629815D01*
X91140233Y-141613181D01*
X90586819Y-141059766D01*
X90553334Y-140998443D01*
X90550500Y-140972085D01*
X90550500Y-140663084D01*
X90570185Y-140596045D01*
X90580210Y-140582552D01*
X90584607Y-140577404D01*
X90698836Y-140443659D01*
X90830466Y-140228859D01*
X90849591Y-140182686D01*
X90893430Y-140128284D01*
X90959724Y-140106218D01*
X91027424Y-140123496D01*
X91035276Y-140128565D01*
X91037515Y-140130132D01*
X91243673Y-140226266D01*
X91439999Y-140278871D01*
X91440000Y-140278871D01*
X91440000Y-139315686D01*
X91451955Y-139327641D01*
X91564852Y-139385165D01*
X91658519Y-139400000D01*
X91721481Y-139400000D01*
X91815148Y-139385165D01*
X91928045Y-139327641D01*
X91940000Y-139315686D01*
X91940000Y-140278871D01*
X92136326Y-140226266D01*
X92342480Y-140130134D01*
X92528819Y-139999658D01*
X92689658Y-139838819D01*
X92820134Y-139652480D01*
X92916266Y-139446326D01*
X92968872Y-139250000D01*
X92005686Y-139250000D01*
X92017641Y-139238045D01*
X92075165Y-139125148D01*
X92094986Y-139000000D01*
X92075165Y-138874852D01*
X92017641Y-138761955D01*
X92005686Y-138750000D01*
X92968872Y-138750000D01*
X92968871Y-138749999D01*
X92916266Y-138553673D01*
X92820134Y-138347519D01*
X92689658Y-138161180D01*
X92528819Y-138000341D01*
X92342480Y-137869865D01*
X92136326Y-137773733D01*
X91940000Y-137721126D01*
X91940000Y-138684314D01*
X91928045Y-138672359D01*
X91815148Y-138614835D01*
X91721481Y-138600000D01*
X91658519Y-138600000D01*
X91564852Y-138614835D01*
X91451955Y-138672359D01*
X91440000Y-138684314D01*
X91440000Y-137721127D01*
X91439999Y-137721126D01*
X91243673Y-137773733D01*
X91037519Y-137869865D01*
X90851180Y-138000341D01*
X90690337Y-138161184D01*
X90621382Y-138259662D01*
X90566805Y-138303287D01*
X90497307Y-138310479D01*
X90439277Y-138282829D01*
X90388025Y-138239056D01*
X90343659Y-138201164D01*
X90128859Y-138069534D01*
X90012485Y-138021330D01*
X89896110Y-137973126D01*
X89651149Y-137914317D01*
X89525573Y-137904434D01*
X89400000Y-137894551D01*
X89399999Y-137894551D01*
X89148850Y-137914317D01*
X88903889Y-137973126D01*
X88671139Y-138069535D01*
X88456342Y-138201163D01*
X88264776Y-138364776D01*
X88101163Y-138556342D01*
X87969535Y-138771139D01*
X87873126Y-139003889D01*
X87814317Y-139248850D01*
X87794551Y-139500000D01*
X87814317Y-139751149D01*
X87873126Y-139996110D01*
X87913797Y-140094297D01*
X87969534Y-140228859D01*
X88101164Y-140443659D01*
X88134223Y-140482366D01*
X88219790Y-140582552D01*
X88248361Y-140646314D01*
X88249500Y-140663084D01*
X88249500Y-141470545D01*
X88249368Y-141476271D01*
X88245804Y-141553363D01*
X88256463Y-141629778D01*
X88257123Y-141635466D01*
X88264243Y-141712308D01*
X88269209Y-141729759D01*
X88272753Y-141746558D01*
X88275261Y-141764536D01*
X88275261Y-141764538D01*
X88275262Y-141764539D01*
X88299785Y-141837708D01*
X88301479Y-141843178D01*
X88322594Y-141917387D01*
X88330684Y-141933635D01*
X88337252Y-141949493D01*
X88343019Y-141966698D01*
X88380571Y-142034118D01*
X88383241Y-142039185D01*
X88417632Y-142108253D01*
X88428566Y-142122731D01*
X88437941Y-142137119D01*
X88446773Y-142152975D01*
X88496087Y-142212363D01*
X88499642Y-142216851D01*
X88546128Y-142278407D01*
X88564028Y-142294725D01*
X88603157Y-142330397D01*
X88607299Y-142334352D01*
X88810766Y-142537819D01*
X88844251Y-142599142D01*
X88839267Y-142668834D01*
X88797395Y-142724767D01*
X88731931Y-142749184D01*
X88723085Y-142749500D01*
X83298991Y-142749500D01*
X83231952Y-142729815D01*
X83186197Y-142677011D01*
X83176253Y-142607853D01*
X83205278Y-142544297D01*
X83243721Y-142514499D01*
X83245884Y-142513422D01*
X83308255Y-142482366D01*
X83322726Y-142471436D01*
X83337116Y-142462059D01*
X83352975Y-142453227D01*
X83412373Y-142403902D01*
X83416822Y-142400378D01*
X83478407Y-142353872D01*
X83530408Y-142296829D01*
X83534332Y-142292719D01*
X88540233Y-137286819D01*
X88601557Y-137253334D01*
X88627915Y-137250500D01*
X94572084Y-137250500D01*
X94639123Y-137270185D01*
G37*
%TD.AperFunction*%
%TA.AperFunction,Conductor*%
G36*
X109945309Y-138378380D02*
G01*
X110003118Y-138417622D01*
X110030534Y-138481888D01*
X110027965Y-138525387D01*
X109974317Y-138748850D01*
X109973779Y-138755682D01*
X109954551Y-139000000D01*
X109968113Y-139172316D01*
X109974317Y-139251149D01*
X110033126Y-139496110D01*
X110070406Y-139586110D01*
X110129534Y-139728859D01*
X110261164Y-139943659D01*
X110424776Y-140135224D01*
X110616341Y-140298836D01*
X110692731Y-140345648D01*
X110831137Y-140430464D01*
X110831139Y-140430464D01*
X110831141Y-140430466D01*
X110931411Y-140471999D01*
X110941261Y-140477636D01*
X110941457Y-140477244D01*
X111141526Y-140576864D01*
X111142611Y-140577405D01*
X111208123Y-140596045D01*
X111347689Y-140635756D01*
X111362361Y-140637115D01*
X111506806Y-140650500D01*
X113283085Y-140650500D01*
X113350124Y-140670185D01*
X113395879Y-140722989D01*
X113405823Y-140792147D01*
X113376798Y-140855703D01*
X113370766Y-140862181D01*
X112619766Y-141613181D01*
X112558443Y-141646666D01*
X112532085Y-141649500D01*
X104980902Y-141649500D01*
X104913863Y-141629815D01*
X104868108Y-141577011D01*
X104858164Y-141507853D01*
X104887189Y-141444297D01*
X104889264Y-141441963D01*
X104930397Y-141396841D01*
X104934332Y-141392719D01*
X107540232Y-138786819D01*
X107601556Y-138753334D01*
X107627914Y-138750500D01*
X108970546Y-138750500D01*
X108976272Y-138750632D01*
X109053362Y-138754196D01*
X109129835Y-138743528D01*
X109135444Y-138742878D01*
X109212310Y-138735756D01*
X109229761Y-138730789D01*
X109246557Y-138727246D01*
X109264536Y-138724739D01*
X109337731Y-138700205D01*
X109343149Y-138698527D01*
X109417389Y-138677405D01*
X109433642Y-138669311D01*
X109449493Y-138662746D01*
X109466702Y-138656979D01*
X109534155Y-138619407D01*
X109539169Y-138616765D01*
X109608255Y-138582366D01*
X109622726Y-138571436D01*
X109637116Y-138562059D01*
X109652975Y-138553227D01*
X109712390Y-138503889D01*
X109716822Y-138500378D01*
X109778407Y-138453872D01*
X109815755Y-138412900D01*
X109875462Y-138376621D01*
X109945309Y-138378380D01*
G37*
%TD.AperFunction*%
%TA.AperFunction,Conductor*%
G36*
X83655624Y-123072791D02*
G01*
X83737515Y-123130132D01*
X83943673Y-123226266D01*
X84163397Y-123285141D01*
X84390000Y-123304966D01*
X84616602Y-123285141D01*
X84836326Y-123226266D01*
X84923095Y-123185805D01*
X84992172Y-123175313D01*
X85055956Y-123203832D01*
X85094196Y-123262309D01*
X85099500Y-123298187D01*
X85099500Y-125679630D01*
X85079815Y-125746669D01*
X85027011Y-125792424D01*
X84957853Y-125802368D01*
X84916483Y-125788685D01*
X84785460Y-125717780D01*
X84557792Y-125639619D01*
X84450000Y-125621633D01*
X84450000Y-126608316D01*
X84421181Y-126590791D01*
X84275596Y-126550000D01*
X84162378Y-126550000D01*
X84050217Y-126565416D01*
X83950000Y-126608946D01*
X83950000Y-125621633D01*
X83949999Y-125621633D01*
X83842207Y-125639619D01*
X83624763Y-125714270D01*
X83554965Y-125717420D01*
X83494543Y-125682334D01*
X83462683Y-125620152D01*
X83460500Y-125596989D01*
X83460500Y-123174365D01*
X83480185Y-123107326D01*
X83532989Y-123061571D01*
X83602147Y-123051627D01*
X83655624Y-123072791D01*
G37*
%TD.AperFunction*%
%TA.AperFunction,Conductor*%
G36*
X82766089Y-116792381D02*
G01*
X83174496Y-117200788D01*
X83176250Y-117202297D01*
X83176256Y-117202303D01*
X83195190Y-117218597D01*
X83327828Y-117332741D01*
X83504339Y-117443650D01*
X83556323Y-117476314D01*
X83671615Y-117526615D01*
X83725189Y-117571465D01*
X83746011Y-117638160D01*
X83727469Y-117705525D01*
X83675451Y-117752171D01*
X83674434Y-117752651D01*
X83637516Y-117769865D01*
X83564526Y-117820973D01*
X84245599Y-118502046D01*
X84164852Y-118514835D01*
X84051955Y-118572359D01*
X83962359Y-118661955D01*
X83904835Y-118774852D01*
X83892046Y-118855598D01*
X83210973Y-118174527D01*
X83159865Y-118247516D01*
X83063733Y-118453672D01*
X83004858Y-118673397D01*
X82985033Y-118900000D01*
X83004858Y-119126602D01*
X83063733Y-119346326D01*
X83159866Y-119552484D01*
X83210972Y-119625471D01*
X83210973Y-119625472D01*
X83892045Y-118944399D01*
X83904835Y-119025148D01*
X83962359Y-119138045D01*
X84051955Y-119227641D01*
X84164852Y-119285165D01*
X84245597Y-119297953D01*
X83564526Y-119979025D01*
X83564526Y-119979026D01*
X83637515Y-120030133D01*
X83843673Y-120126266D01*
X84063397Y-120185141D01*
X84290000Y-120204966D01*
X84516602Y-120185141D01*
X84736326Y-120126266D01*
X84923095Y-120039174D01*
X84992172Y-120028682D01*
X85055956Y-120057201D01*
X85094196Y-120115678D01*
X85099500Y-120151556D01*
X85099500Y-120701812D01*
X85079815Y-120768851D01*
X85027011Y-120814606D01*
X84957853Y-120824550D01*
X84923096Y-120814194D01*
X84836329Y-120773734D01*
X84616602Y-120714858D01*
X84390000Y-120695033D01*
X84163397Y-120714858D01*
X83943672Y-120773733D01*
X83737516Y-120869865D01*
X83664527Y-120920973D01*
X84345600Y-121602046D01*
X84264852Y-121614835D01*
X84151955Y-121672359D01*
X84062359Y-121761955D01*
X84004835Y-121874852D01*
X83992046Y-121955600D01*
X83310973Y-121274527D01*
X83259865Y-121347516D01*
X83163733Y-121553673D01*
X83121410Y-121711624D01*
X83085044Y-121771284D01*
X83022197Y-121801813D01*
X82952822Y-121793518D01*
X82917298Y-121770431D01*
X82911017Y-121764604D01*
X82907704Y-121761412D01*
X82597251Y-121450959D01*
X82573212Y-121417080D01*
X82563652Y-121397228D01*
X82554980Y-121384508D01*
X82411635Y-121174259D01*
X82228085Y-120976439D01*
X82111842Y-120883738D01*
X82071703Y-120826550D01*
X82068853Y-120756739D01*
X82097925Y-120702810D01*
X82188164Y-120604785D01*
X82324173Y-120396607D01*
X82424063Y-120168881D01*
X82485108Y-119927821D01*
X82505643Y-119680000D01*
X82485108Y-119432179D01*
X82424063Y-119191119D01*
X82324173Y-118963393D01*
X82324172Y-118963391D01*
X82324171Y-118963389D01*
X82320691Y-118958062D01*
X82300503Y-118891173D01*
X82300500Y-118890242D01*
X82300500Y-117768423D01*
X82318773Y-117703633D01*
X82352877Y-117647981D01*
X82375154Y-117611628D01*
X82474573Y-117371610D01*
X82535221Y-117118994D01*
X82554790Y-116870330D01*
X82579674Y-116805045D01*
X82635905Y-116763574D01*
X82705630Y-116759087D01*
X82766089Y-116792381D01*
G37*
%TD.AperFunction*%
%TA.AperFunction,Conductor*%
G36*
X92160000Y-120178871D02*
G01*
X92356326Y-120126266D01*
X92562480Y-120030134D01*
X92748819Y-119899658D01*
X92909658Y-119738819D01*
X93040134Y-119552480D01*
X93113117Y-119395970D01*
X93159289Y-119343531D01*
X93226483Y-119324379D01*
X93293364Y-119344595D01*
X93338698Y-119397760D01*
X93349499Y-119448375D01*
X93349499Y-119543167D01*
X93349474Y-119545662D01*
X93347295Y-119653922D01*
X93357769Y-119727733D01*
X93358597Y-119735174D01*
X93364600Y-119809532D01*
X93374363Y-119849143D01*
X93376735Y-119861389D01*
X93382467Y-119901774D01*
X93404649Y-119972963D01*
X93406659Y-119980173D01*
X93424510Y-120052591D01*
X93440500Y-120090124D01*
X93444805Y-120101830D01*
X93453942Y-120131148D01*
X93456944Y-120140781D01*
X93490262Y-120207496D01*
X93493403Y-120214291D01*
X93517020Y-120269721D01*
X93522634Y-120282897D01*
X93544437Y-120317376D01*
X93550559Y-120328231D01*
X93568794Y-120364742D01*
X93568795Y-120364744D01*
X93568796Y-120364745D01*
X93612394Y-120425265D01*
X93616586Y-120431471D01*
X93656429Y-120494477D01*
X93656432Y-120494481D01*
X93670181Y-120510000D01*
X93683479Y-120525010D01*
X93691272Y-120534753D01*
X93715123Y-120567861D01*
X93767866Y-120620605D01*
X93772983Y-120626041D01*
X93815933Y-120674521D01*
X93845655Y-120737753D01*
X93836473Y-120807017D01*
X93800435Y-120853694D01*
X93771914Y-120876439D01*
X93588366Y-121074256D01*
X93436347Y-121297227D01*
X93387466Y-121398731D01*
X93340643Y-121450591D01*
X93273216Y-121468903D01*
X93206592Y-121447855D01*
X93163364Y-121397334D01*
X93140134Y-121347519D01*
X93009658Y-121161180D01*
X92848819Y-121000341D01*
X92662480Y-120869865D01*
X92456326Y-120773733D01*
X92260000Y-120721126D01*
X92260000Y-121684314D01*
X92248045Y-121672359D01*
X92135148Y-121614835D01*
X92041481Y-121600000D01*
X91978519Y-121600000D01*
X91884852Y-121614835D01*
X91771955Y-121672359D01*
X91760000Y-121684314D01*
X91760000Y-120721127D01*
X91759999Y-120721126D01*
X91563673Y-120773733D01*
X91376905Y-120860825D01*
X91307827Y-120871317D01*
X91244043Y-120842797D01*
X91205804Y-120784321D01*
X91200500Y-120748443D01*
X91200500Y-120476604D01*
X91200500Y-120198183D01*
X91220183Y-120131148D01*
X91272987Y-120085393D01*
X91342146Y-120075449D01*
X91376903Y-120085805D01*
X91463671Y-120126265D01*
X91659999Y-120178871D01*
X91660000Y-120178871D01*
X91660000Y-119215686D01*
X91671955Y-119227641D01*
X91784852Y-119285165D01*
X91878519Y-119300000D01*
X91941481Y-119300000D01*
X92035148Y-119285165D01*
X92148045Y-119227641D01*
X92160000Y-119215686D01*
X92160000Y-120178871D01*
G37*
%TD.AperFunction*%
%TA.AperFunction,Conductor*%
G36*
X117390000Y-102950000D02*
G01*
X117625500Y-102950000D01*
X117692539Y-102969685D01*
X117738294Y-103022489D01*
X117749500Y-103074000D01*
X117749500Y-103726000D01*
X117729815Y-103793039D01*
X117677011Y-103838794D01*
X117625500Y-103850000D01*
X117430000Y-103850000D01*
X117430000Y-104764498D01*
X117322315Y-104715320D01*
X117215763Y-104700000D01*
X117144237Y-104700000D01*
X117037685Y-104715320D01*
X116930000Y-104764498D01*
X116930000Y-103850000D01*
X116285482Y-103850000D01*
X116278867Y-103850354D01*
X116222628Y-103856400D01*
X116117834Y-103895487D01*
X116048142Y-103900471D01*
X115986819Y-103866986D01*
X115953334Y-103805663D01*
X115950500Y-103779305D01*
X115950500Y-103035614D01*
X115970185Y-102968575D01*
X116022989Y-102922820D01*
X116092147Y-102912876D01*
X116117834Y-102919432D01*
X116182628Y-102943599D01*
X116238867Y-102949645D01*
X116245482Y-102950000D01*
X116890000Y-102950000D01*
X116890000Y-102035501D01*
X116997685Y-102084680D01*
X117104237Y-102100000D01*
X117175763Y-102100000D01*
X117282315Y-102084680D01*
X117390000Y-102035501D01*
X117390000Y-102950000D01*
G37*
%TD.AperFunction*%
%TA.AperFunction,Conductor*%
G36*
X117188833Y-97940731D02*
G01*
X117244766Y-97982603D01*
X117269183Y-98048067D01*
X117269499Y-98056913D01*
X117269499Y-98865545D01*
X117269367Y-98871269D01*
X117265804Y-98948362D01*
X117276463Y-99024778D01*
X117277123Y-99030466D01*
X117284243Y-99107308D01*
X117289209Y-99124759D01*
X117292753Y-99141558D01*
X117295261Y-99159536D01*
X117295261Y-99159538D01*
X117295262Y-99159539D01*
X117319785Y-99232708D01*
X117321479Y-99238178D01*
X117342594Y-99312387D01*
X117350684Y-99328635D01*
X117357252Y-99344493D01*
X117363019Y-99361698D01*
X117400571Y-99429118D01*
X117403241Y-99434185D01*
X117437632Y-99503253D01*
X117448566Y-99517731D01*
X117457941Y-99532119D01*
X117466773Y-99547975D01*
X117516087Y-99607363D01*
X117519642Y-99611851D01*
X117566128Y-99673407D01*
X117595077Y-99699798D01*
X117623157Y-99725397D01*
X117627299Y-99729352D01*
X117713181Y-99815234D01*
X117746666Y-99876557D01*
X117749500Y-99902915D01*
X117749500Y-100126000D01*
X117729815Y-100193039D01*
X117677011Y-100238794D01*
X117625500Y-100250000D01*
X117390000Y-100250000D01*
X117390000Y-101164498D01*
X117282315Y-101115320D01*
X117175763Y-101100000D01*
X117104237Y-101100000D01*
X116997685Y-101115320D01*
X116890000Y-101164498D01*
X116890000Y-100250000D01*
X116245482Y-100250000D01*
X116238867Y-100250354D01*
X116182628Y-100256400D01*
X116047910Y-100306647D01*
X115932807Y-100392813D01*
X115932156Y-100393684D01*
X115876220Y-100435552D01*
X115806528Y-100440533D01*
X115752362Y-100413658D01*
X115627068Y-100306647D01*
X115573143Y-100260590D01*
X115573140Y-100260588D01*
X115351628Y-100124846D01*
X115205287Y-100064229D01*
X115150886Y-100020390D01*
X115128821Y-99954096D01*
X115146100Y-99886397D01*
X115165057Y-99861993D01*
X117057820Y-97969230D01*
X117119141Y-97935747D01*
X117188833Y-97940731D01*
G37*
%TD.AperFunction*%
%TA.AperFunction,Conductor*%
G36*
X85169649Y-74322945D02*
G01*
X85183580Y-74331392D01*
X85272423Y-74393600D01*
X85447752Y-74475358D01*
X85500191Y-74521530D01*
X85519343Y-74588724D01*
X85499127Y-74655605D01*
X85445962Y-74700939D01*
X85442818Y-74702293D01*
X85388372Y-74724846D01*
X85345980Y-74750824D01*
X85166856Y-74860590D01*
X84969311Y-75029311D01*
X84800587Y-75226861D01*
X84782257Y-75256772D01*
X84730444Y-75303646D01*
X84661514Y-75315067D01*
X84597352Y-75287409D01*
X84588850Y-75279662D01*
X84471077Y-75161890D01*
X84358192Y-75082847D01*
X84314568Y-75028270D01*
X84307375Y-74958771D01*
X84338897Y-74896417D01*
X84399127Y-74861003D01*
X84415434Y-74858052D01*
X84416774Y-74857900D01*
X84439255Y-74855368D01*
X84609522Y-74795789D01*
X84762262Y-74699816D01*
X84889816Y-74572262D01*
X84985789Y-74419522D01*
X84995414Y-74392012D01*
X85036135Y-74335237D01*
X85101087Y-74309489D01*
X85169649Y-74322945D01*
G37*
%TD.AperFunction*%
%TA.AperFunction,Conductor*%
G36*
X71716573Y-59073926D02*
G01*
X71848852Y-59105683D01*
X72042755Y-59120943D01*
X72108040Y-59145826D01*
X72149511Y-59202057D01*
X72153998Y-59271782D01*
X72120704Y-59332241D01*
X71627288Y-59825657D01*
X71623147Y-59829611D01*
X71566128Y-59881592D01*
X71519633Y-59943159D01*
X71516079Y-59947646D01*
X71466772Y-60007024D01*
X71457938Y-60022885D01*
X71448566Y-60037267D01*
X71437635Y-60051741D01*
X71403236Y-60120824D01*
X71400566Y-60125888D01*
X71363020Y-60193297D01*
X71357253Y-60210504D01*
X71350687Y-60226356D01*
X71342595Y-60242607D01*
X71321479Y-60316821D01*
X71319786Y-60322289D01*
X71295260Y-60395467D01*
X71292753Y-60413436D01*
X71289210Y-60430231D01*
X71284244Y-60447686D01*
X71277123Y-60524532D01*
X71276463Y-60530220D01*
X71274659Y-60543157D01*
X71265804Y-60606638D01*
X71266902Y-60630394D01*
X71269368Y-60683727D01*
X71269500Y-60689453D01*
X71269500Y-66330545D01*
X71269368Y-66336271D01*
X71265804Y-66413363D01*
X71276463Y-66489778D01*
X71277123Y-66495466D01*
X71284243Y-66572308D01*
X71289209Y-66589759D01*
X71292753Y-66606558D01*
X71295261Y-66624536D01*
X71295261Y-66624538D01*
X71295262Y-66624539D01*
X71319785Y-66697708D01*
X71321479Y-66703178D01*
X71342594Y-66777387D01*
X71350684Y-66793635D01*
X71357252Y-66809493D01*
X71363019Y-66826698D01*
X71400571Y-66894118D01*
X71403241Y-66899185D01*
X71437632Y-66968253D01*
X71448566Y-66982731D01*
X71457941Y-66997119D01*
X71466773Y-67012975D01*
X71516087Y-67072363D01*
X71519642Y-67076851D01*
X71566128Y-67138407D01*
X71595077Y-67164798D01*
X71623157Y-67190397D01*
X71627299Y-67194352D01*
X73305645Y-68872698D01*
X73309600Y-68876840D01*
X73358528Y-68930510D01*
X73361593Y-68933872D01*
X73423167Y-68980371D01*
X73427637Y-68983911D01*
X73487025Y-69033226D01*
X73487027Y-69033227D01*
X73494104Y-69037169D01*
X73543095Y-69086986D01*
X73557375Y-69155380D01*
X73532411Y-69220638D01*
X73476129Y-69262040D01*
X73433769Y-69269500D01*
X73387914Y-69269500D01*
X73320875Y-69249815D01*
X73300233Y-69233181D01*
X70015886Y-65948833D01*
X69982401Y-65887510D01*
X69987385Y-65817818D01*
X69995648Y-65800084D01*
X70159012Y-65511436D01*
X70315913Y-65152414D01*
X70435068Y-64779163D01*
X70515214Y-64395638D01*
X70555500Y-64005905D01*
X70555500Y-62334474D01*
X70557708Y-62163043D01*
X70556003Y-62144175D01*
X70555500Y-62133015D01*
X70555500Y-60713699D01*
X70555500Y-60713698D01*
X70555500Y-60712110D01*
X70540376Y-60418710D01*
X70480080Y-60031568D01*
X70396305Y-59713458D01*
X70398267Y-59643619D01*
X70428533Y-59594203D01*
X70915918Y-59106819D01*
X70977242Y-59073334D01*
X71003600Y-59070500D01*
X71687626Y-59070500D01*
X71716573Y-59073926D01*
G37*
%TD.AperFunction*%
%TA.AperFunction,Conductor*%
G36*
X83419124Y-69250185D02*
G01*
X83439766Y-69266819D01*
X85842694Y-71669747D01*
X85876179Y-71731070D01*
X85871195Y-71800762D01*
X85829323Y-71856695D01*
X85765821Y-71880956D01*
X85714681Y-71885430D01*
X85486507Y-71946569D01*
X85272421Y-72046400D01*
X85183579Y-72108608D01*
X85117373Y-72130935D01*
X85049606Y-72113925D01*
X85001793Y-72062976D01*
X84995414Y-72047986D01*
X84994859Y-72046400D01*
X84985789Y-72020478D01*
X84889816Y-71867738D01*
X84889815Y-71867737D01*
X84889814Y-71867735D01*
X84762264Y-71740185D01*
X84650162Y-71669747D01*
X84609522Y-71644211D01*
X84439255Y-71584632D01*
X84439251Y-71584631D01*
X84439250Y-71584631D01*
X84308420Y-71569890D01*
X84308410Y-71569889D01*
X84304954Y-71569500D01*
X84301470Y-71569500D01*
X83357914Y-71569500D01*
X83290875Y-71549815D01*
X83270233Y-71533181D01*
X82327283Y-70590231D01*
X81364352Y-69627299D01*
X81360397Y-69623157D01*
X81334771Y-69595048D01*
X81308407Y-69566128D01*
X81246851Y-69519642D01*
X81242363Y-69516087D01*
X81182977Y-69466774D01*
X81181579Y-69465995D01*
X81175893Y-69462828D01*
X81126906Y-69413012D01*
X81112628Y-69344617D01*
X81137593Y-69279359D01*
X81193876Y-69237959D01*
X81236233Y-69230500D01*
X83352085Y-69230500D01*
X83419124Y-69250185D01*
G37*
%TD.AperFunction*%
%TA.AperFunction,Conductor*%
G36*
X90923439Y-58850185D02*
G01*
X90944081Y-58866819D01*
X91573182Y-59495920D01*
X91606666Y-59557241D01*
X91609500Y-59583599D01*
X91609500Y-61076608D01*
X91589815Y-61143647D01*
X91537011Y-61189402D01*
X91467853Y-61199346D01*
X91414376Y-61178183D01*
X91297576Y-61096399D01*
X91083492Y-60996569D01*
X90870000Y-60939364D01*
X90870000Y-61834498D01*
X90762315Y-61785320D01*
X90655763Y-61770000D01*
X90584237Y-61770000D01*
X90477685Y-61785320D01*
X90369999Y-61834498D01*
X90369999Y-60939364D01*
X90156507Y-60996569D01*
X89942421Y-61096400D01*
X89748924Y-61231888D01*
X89631149Y-61349663D01*
X89569826Y-61383147D01*
X89500134Y-61378163D01*
X89444201Y-61336291D01*
X89437747Y-61326781D01*
X89419412Y-61296860D01*
X89250689Y-61099311D01*
X89129099Y-60995463D01*
X89053143Y-60930590D01*
X89030674Y-60916821D01*
X88831628Y-60794846D01*
X88736470Y-60755430D01*
X88591610Y-60695426D01*
X88338995Y-60634779D01*
X88080000Y-60614396D01*
X87821004Y-60634779D01*
X87568389Y-60695426D01*
X87375198Y-60775450D01*
X87328372Y-60794846D01*
X87184359Y-60883096D01*
X87106856Y-60930590D01*
X86969751Y-61047690D01*
X86909314Y-61099309D01*
X86909309Y-61099313D01*
X86904288Y-61105192D01*
X86845780Y-61143384D01*
X86775913Y-61143881D01*
X86716867Y-61106525D01*
X86715715Y-61105196D01*
X86710689Y-61099311D01*
X86710687Y-61099309D01*
X86704350Y-61091889D01*
X86705802Y-61090648D01*
X86674233Y-61042285D01*
X86673694Y-61040444D01*
X86670791Y-61030244D01*
X86667246Y-61013435D01*
X86664739Y-60995466D01*
X86664739Y-60995463D01*
X86640197Y-60922243D01*
X86638535Y-60916877D01*
X86617405Y-60842611D01*
X86609315Y-60826365D01*
X86602748Y-60810511D01*
X86596979Y-60793298D01*
X86559416Y-60725859D01*
X86556781Y-60720860D01*
X86522366Y-60651745D01*
X86511429Y-60637262D01*
X86502055Y-60622876D01*
X86493226Y-60607025D01*
X86443911Y-60547637D01*
X86440363Y-60543157D01*
X86393872Y-60481593D01*
X86390215Y-60478259D01*
X86336840Y-60429600D01*
X86332698Y-60425645D01*
X84949234Y-59042181D01*
X84915749Y-58980858D01*
X84920733Y-58911166D01*
X84962605Y-58855233D01*
X85028069Y-58830816D01*
X85036915Y-58830500D01*
X90856400Y-58830500D01*
X90923439Y-58850185D01*
G37*
%TD.AperFunction*%
%TA.AperFunction,Conductor*%
G36*
X88690000Y-55080633D02*
G01*
X88903490Y-55023430D01*
X89117576Y-54923600D01*
X89311081Y-54788106D01*
X89428850Y-54670338D01*
X89490173Y-54636853D01*
X89559865Y-54641837D01*
X89615798Y-54683709D01*
X89622258Y-54693228D01*
X89640588Y-54723140D01*
X89809311Y-54920689D01*
X89923256Y-55018007D01*
X89990499Y-55075439D01*
X90006860Y-55089412D01*
X90228372Y-55225154D01*
X90387360Y-55291009D01*
X90468389Y-55324573D01*
X90507431Y-55333946D01*
X90721006Y-55385221D01*
X90980000Y-55405604D01*
X91238994Y-55385221D01*
X91491610Y-55324573D01*
X91731628Y-55225154D01*
X91953140Y-55089412D01*
X92150689Y-54920689D01*
X92155708Y-54914811D01*
X92214214Y-54876618D01*
X92284082Y-54876118D01*
X92343129Y-54913471D01*
X92344265Y-54914781D01*
X92349310Y-54920688D01*
X92349312Y-54920690D01*
X92530499Y-55075439D01*
X92546860Y-55089412D01*
X92768372Y-55225154D01*
X92927360Y-55291009D01*
X93008389Y-55324573D01*
X93047431Y-55333946D01*
X93261006Y-55385221D01*
X93520000Y-55405604D01*
X93778994Y-55385221D01*
X93895012Y-55357367D01*
X93964791Y-55360857D01*
X94021609Y-55401521D01*
X94047423Y-55466447D01*
X94034037Y-55535022D01*
X94011639Y-55565622D01*
X93959101Y-55618160D01*
X93884079Y-55693182D01*
X93822759Y-55726666D01*
X93796400Y-55729500D01*
X91600590Y-55729500D01*
X91593104Y-55729274D01*
X91584376Y-55728746D01*
X91518676Y-55724772D01*
X91518675Y-55724772D01*
X91518674Y-55724772D01*
X91478093Y-55728872D01*
X91465629Y-55729500D01*
X79826833Y-55729500D01*
X79824337Y-55729475D01*
X79716078Y-55727295D01*
X79716077Y-55727295D01*
X79716075Y-55727295D01*
X79642262Y-55737769D01*
X79634822Y-55738597D01*
X79560467Y-55744600D01*
X79520857Y-55754363D01*
X79508611Y-55756735D01*
X79468225Y-55762467D01*
X79397021Y-55784654D01*
X79389833Y-55786658D01*
X79317409Y-55804510D01*
X79317405Y-55804511D01*
X79279878Y-55820499D01*
X79268173Y-55824804D01*
X79229218Y-55836944D01*
X79162495Y-55870265D01*
X79155701Y-55873406D01*
X79113105Y-55891555D01*
X79043716Y-55899724D01*
X78980924Y-55869081D01*
X78944667Y-55809355D01*
X78940500Y-55777478D01*
X78940500Y-55719453D01*
X78940632Y-55713727D01*
X78941987Y-55684414D01*
X78944196Y-55636638D01*
X78933534Y-55560210D01*
X78932875Y-55554522D01*
X78928883Y-55511436D01*
X78925756Y-55477690D01*
X78920787Y-55460228D01*
X78917245Y-55443436D01*
X78914739Y-55425464D01*
X78906800Y-55401780D01*
X78904159Y-55331965D01*
X78939683Y-55271801D01*
X78976918Y-55247815D01*
X79031628Y-55225154D01*
X79253140Y-55089412D01*
X79450689Y-54920689D01*
X79455708Y-54914811D01*
X79514214Y-54876618D01*
X79584082Y-54876118D01*
X79643129Y-54913471D01*
X79644265Y-54914781D01*
X79649310Y-54920688D01*
X79649312Y-54920690D01*
X79830499Y-55075439D01*
X79846860Y-55089412D01*
X80068372Y-55225154D01*
X80227360Y-55291009D01*
X80308389Y-55324573D01*
X80347431Y-55333946D01*
X80561006Y-55385221D01*
X80820000Y-55405604D01*
X81078994Y-55385221D01*
X81331610Y-55324573D01*
X81571628Y-55225154D01*
X81793140Y-55089412D01*
X81990689Y-54920689D01*
X81995706Y-54914813D01*
X82054210Y-54876618D01*
X82124078Y-54876116D01*
X82183126Y-54913466D01*
X82184269Y-54914785D01*
X82189311Y-54920689D01*
X82303256Y-55018007D01*
X82370499Y-55075439D01*
X82386860Y-55089412D01*
X82608372Y-55225154D01*
X82767360Y-55291009D01*
X82848389Y-55324573D01*
X82887431Y-55333946D01*
X83101006Y-55385221D01*
X83360000Y-55405604D01*
X83618994Y-55385221D01*
X83871610Y-55324573D01*
X84111628Y-55225154D01*
X84333140Y-55089412D01*
X84530689Y-54920689D01*
X84699412Y-54723140D01*
X84717741Y-54693228D01*
X84769550Y-54646354D01*
X84838479Y-54634930D01*
X84902643Y-54662585D01*
X84911149Y-54670337D01*
X85028918Y-54788106D01*
X85222423Y-54923600D01*
X85436509Y-55023430D01*
X85650000Y-55080634D01*
X85650000Y-54185501D01*
X85757685Y-54234680D01*
X85864237Y-54250000D01*
X85935763Y-54250000D01*
X86042315Y-54234680D01*
X86150000Y-54185501D01*
X86150000Y-55080633D01*
X86363490Y-55023430D01*
X86577576Y-54923600D01*
X86771081Y-54788106D01*
X86938109Y-54621078D01*
X87068424Y-54434969D01*
X87123001Y-54391344D01*
X87192499Y-54384150D01*
X87254854Y-54415673D01*
X87271574Y-54434968D01*
X87401892Y-54621080D01*
X87568918Y-54788106D01*
X87762423Y-54923600D01*
X87976509Y-55023430D01*
X88190000Y-55080634D01*
X88190000Y-54185501D01*
X88297685Y-54234680D01*
X88404237Y-54250000D01*
X88475763Y-54250000D01*
X88582315Y-54234680D01*
X88690000Y-54185501D01*
X88690000Y-55080633D01*
G37*
%TD.AperFunction*%
%TA.AperFunction,Conductor*%
G36*
X87980507Y-53540156D02*
G01*
X87940000Y-53678111D01*
X87940000Y-53821889D01*
X87980507Y-53959844D01*
X88006314Y-54000000D01*
X86333686Y-54000000D01*
X86359493Y-53959844D01*
X86400000Y-53821889D01*
X86400000Y-53678111D01*
X86359493Y-53540156D01*
X86333686Y-53500000D01*
X88006314Y-53500000D01*
X87980507Y-53540156D01*
G37*
%TD.AperFunction*%
%TA.AperFunction,Conductor*%
G36*
X84479865Y-52101837D02*
G01*
X84535798Y-52143709D01*
X84542258Y-52153228D01*
X84560588Y-52183140D01*
X84729311Y-52380689D01*
X84926860Y-52549412D01*
X84956771Y-52567741D01*
X85003646Y-52619551D01*
X85015069Y-52688481D01*
X84987413Y-52752644D01*
X84979662Y-52761149D01*
X84911149Y-52829662D01*
X84849826Y-52863147D01*
X84780134Y-52858163D01*
X84724201Y-52816291D01*
X84717747Y-52806781D01*
X84699412Y-52776860D01*
X84530689Y-52579311D01*
X84333140Y-52410588D01*
X84303228Y-52392258D01*
X84256353Y-52340446D01*
X84244931Y-52271516D01*
X84272589Y-52207353D01*
X84280338Y-52198850D01*
X84348850Y-52130338D01*
X84410173Y-52096853D01*
X84479865Y-52101837D01*
G37*
%TD.AperFunction*%
%TA.AperFunction,Conductor*%
G36*
X82900507Y-51000156D02*
G01*
X82860000Y-51138111D01*
X82860000Y-51281889D01*
X82900507Y-51419844D01*
X82926314Y-51460000D01*
X81253686Y-51460000D01*
X81279493Y-51419844D01*
X81320000Y-51281889D01*
X81320000Y-51138111D01*
X81279493Y-51000156D01*
X81253686Y-50960000D01*
X82926314Y-50960000D01*
X82900507Y-51000156D01*
G37*
%TD.AperFunction*%
%TA.AperFunction,Conductor*%
G36*
X92980000Y-48660633D02*
G01*
X93193490Y-48603430D01*
X93407576Y-48503600D01*
X93601081Y-48368106D01*
X93718850Y-48250338D01*
X93780173Y-48216853D01*
X93849865Y-48221837D01*
X93905798Y-48263709D01*
X93912258Y-48273228D01*
X93930588Y-48303140D01*
X94099311Y-48500689D01*
X94296860Y-48669412D01*
X94518372Y-48805154D01*
X94667121Y-48866768D01*
X94758389Y-48904573D01*
X94834902Y-48922942D01*
X94956535Y-48952143D01*
X95017126Y-48986934D01*
X95049290Y-49048960D01*
X95042814Y-49118529D01*
X95038587Y-49127990D01*
X94998989Y-49207511D01*
X94996319Y-49212576D01*
X94957084Y-49283016D01*
X94950948Y-49301324D01*
X94944379Y-49317183D01*
X94935771Y-49334471D01*
X94913697Y-49412049D01*
X94912004Y-49417517D01*
X94886381Y-49493969D01*
X94883713Y-49513091D01*
X94880171Y-49529881D01*
X94874884Y-49548462D01*
X94867442Y-49628778D01*
X94866782Y-49634466D01*
X94857251Y-49702797D01*
X94855644Y-49714319D01*
X94859190Y-49791023D01*
X94859368Y-49794869D01*
X94859500Y-49800595D01*
X94859500Y-50028468D01*
X94839815Y-50095507D01*
X94829791Y-50108999D01*
X94720587Y-50236861D01*
X94702257Y-50266772D01*
X94650444Y-50313646D01*
X94581514Y-50325067D01*
X94517352Y-50297409D01*
X94508850Y-50289662D01*
X94391077Y-50171890D01*
X94197576Y-50036399D01*
X93983492Y-49936569D01*
X93769999Y-49879364D01*
X93769999Y-50774498D01*
X93662315Y-50725320D01*
X93555763Y-50710000D01*
X93484237Y-50710000D01*
X93377685Y-50725320D01*
X93270000Y-50774498D01*
X93270000Y-49879364D01*
X93269999Y-49879364D01*
X93056507Y-49936569D01*
X92842421Y-50036400D01*
X92648924Y-50171888D01*
X92531149Y-50289663D01*
X92469826Y-50323147D01*
X92400134Y-50318163D01*
X92344201Y-50276291D01*
X92337747Y-50266781D01*
X92319412Y-50236860D01*
X92150689Y-50039311D01*
X92030394Y-49936569D01*
X91953143Y-49870590D01*
X91941808Y-49863644D01*
X91731628Y-49734846D01*
X91564145Y-49665472D01*
X91491611Y-49635427D01*
X91435552Y-49621968D01*
X91374960Y-49587176D01*
X91342797Y-49525150D01*
X91340500Y-49501394D01*
X91340500Y-49005123D01*
X91360185Y-48938084D01*
X91398527Y-48900130D01*
X91542262Y-48809816D01*
X91669816Y-48682262D01*
X91765789Y-48529522D01*
X91775414Y-48502012D01*
X91816135Y-48445237D01*
X91881087Y-48419489D01*
X91949649Y-48432945D01*
X91963580Y-48441392D01*
X92052423Y-48503600D01*
X92266509Y-48603430D01*
X92480000Y-48660634D01*
X92480000Y-47765501D01*
X92587685Y-47814680D01*
X92694237Y-47830000D01*
X92765763Y-47830000D01*
X92872315Y-47814680D01*
X92980000Y-47765501D01*
X92980000Y-48660633D01*
G37*
%TD.AperFunction*%
%TA.AperFunction,Conductor*%
G36*
X83306064Y-38350185D02*
G01*
X83351819Y-38402989D01*
X83361763Y-38472147D01*
X83332738Y-38535703D01*
X83324927Y-38543924D01*
X83311357Y-38556959D01*
X83205659Y-38658483D01*
X83055271Y-38858612D01*
X83028837Y-38908978D01*
X82980251Y-38959189D01*
X82912232Y-38975163D01*
X82846374Y-38951827D01*
X82818723Y-38924235D01*
X82775146Y-38864256D01*
X82612508Y-38708758D01*
X82424730Y-38584807D01*
X82386627Y-38568521D01*
X82332719Y-38524072D01*
X82311400Y-38457535D01*
X82329438Y-38390034D01*
X82381107Y-38343000D01*
X82435363Y-38330500D01*
X83239025Y-38330500D01*
X83306064Y-38350185D01*
G37*
%TD.AperFunction*%
%TA.AperFunction,Conductor*%
G36*
X85846064Y-38350185D02*
G01*
X85891819Y-38402989D01*
X85901763Y-38472147D01*
X85872738Y-38535703D01*
X85864927Y-38543924D01*
X85839320Y-38568521D01*
X85745658Y-38658484D01*
X85736820Y-38670246D01*
X85680810Y-38712014D01*
X85611109Y-38716870D01*
X85549847Y-38683273D01*
X85544875Y-38677980D01*
X85447566Y-38568141D01*
X85447564Y-38568139D01*
X85447563Y-38568138D01*
X85426020Y-38550549D01*
X85386543Y-38492904D01*
X85384497Y-38423064D01*
X85420534Y-38363205D01*
X85483212Y-38332332D01*
X85504446Y-38330500D01*
X85779025Y-38330500D01*
X85846064Y-38350185D01*
G37*
%TD.AperFunction*%
%TA.AperFunction,Conductor*%
G36*
X88386064Y-38350185D02*
G01*
X88431819Y-38402989D01*
X88441763Y-38472147D01*
X88412738Y-38535703D01*
X88404927Y-38543924D01*
X88379320Y-38568521D01*
X88285658Y-38658484D01*
X88276820Y-38670246D01*
X88220810Y-38712014D01*
X88151109Y-38716870D01*
X88089847Y-38683273D01*
X88084875Y-38677980D01*
X87987566Y-38568141D01*
X87987564Y-38568139D01*
X87987563Y-38568138D01*
X87966020Y-38550549D01*
X87926543Y-38492904D01*
X87924497Y-38423064D01*
X87960534Y-38363205D01*
X88023212Y-38332332D01*
X88044446Y-38330500D01*
X88319025Y-38330500D01*
X88386064Y-38350185D01*
G37*
%TD.AperFunction*%
%TA.AperFunction,Conductor*%
G36*
X90926064Y-38350185D02*
G01*
X90971819Y-38402989D01*
X90981763Y-38472147D01*
X90952738Y-38535703D01*
X90944927Y-38543924D01*
X90919320Y-38568521D01*
X90825658Y-38658484D01*
X90816820Y-38670246D01*
X90760810Y-38712014D01*
X90691109Y-38716870D01*
X90629847Y-38683273D01*
X90624875Y-38677980D01*
X90527566Y-38568141D01*
X90527564Y-38568139D01*
X90527563Y-38568138D01*
X90506020Y-38550549D01*
X90466543Y-38492904D01*
X90464497Y-38423064D01*
X90500534Y-38363205D01*
X90563212Y-38332332D01*
X90584446Y-38330500D01*
X90859025Y-38330500D01*
X90926064Y-38350185D01*
G37*
%TD.AperFunction*%
%TA.AperFunction,Conductor*%
G36*
X93466064Y-38350185D02*
G01*
X93511819Y-38402989D01*
X93521763Y-38472147D01*
X93492738Y-38535703D01*
X93484927Y-38543924D01*
X93459320Y-38568521D01*
X93365658Y-38658484D01*
X93356820Y-38670246D01*
X93300810Y-38712014D01*
X93231109Y-38716870D01*
X93169847Y-38683273D01*
X93164875Y-38677980D01*
X93067566Y-38568141D01*
X93067564Y-38568139D01*
X93067563Y-38568138D01*
X93046020Y-38550549D01*
X93006543Y-38492904D01*
X93004497Y-38423064D01*
X93040534Y-38363205D01*
X93103212Y-38332332D01*
X93124446Y-38330500D01*
X93399025Y-38330500D01*
X93466064Y-38350185D01*
G37*
%TD.AperFunction*%
%TA.AperFunction,Conductor*%
G36*
X96006064Y-38350185D02*
G01*
X96051819Y-38402989D01*
X96061763Y-38472147D01*
X96032738Y-38535703D01*
X96024927Y-38543924D01*
X95999320Y-38568521D01*
X95905658Y-38658484D01*
X95896820Y-38670246D01*
X95840810Y-38712014D01*
X95771109Y-38716870D01*
X95709847Y-38683273D01*
X95704875Y-38677980D01*
X95607566Y-38568141D01*
X95607564Y-38568139D01*
X95607563Y-38568138D01*
X95586020Y-38550549D01*
X95546543Y-38492904D01*
X95544497Y-38423064D01*
X95580534Y-38363205D01*
X95643212Y-38332332D01*
X95664446Y-38330500D01*
X95939025Y-38330500D01*
X96006064Y-38350185D01*
G37*
%TD.AperFunction*%
%TA.AperFunction,Conductor*%
G36*
X106777236Y-38350185D02*
G01*
X106822991Y-38402989D01*
X106833814Y-38444768D01*
X106834315Y-38451143D01*
X106893126Y-38696110D01*
X106918539Y-38757461D01*
X106989534Y-38928859D01*
X107121164Y-39143659D01*
X107284776Y-39335224D01*
X107295335Y-39344242D01*
X107333527Y-39402749D01*
X107334025Y-39472617D01*
X107316378Y-39509653D01*
X107289866Y-39547516D01*
X107193733Y-39753673D01*
X107134858Y-39973397D01*
X107115033Y-40200000D01*
X107134858Y-40426602D01*
X107195631Y-40653406D01*
X107193968Y-40723256D01*
X107154806Y-40781119D01*
X107090578Y-40808623D01*
X107075856Y-40809500D01*
X105305247Y-40809500D01*
X105347060Y-40764079D01*
X105393982Y-40657108D01*
X105403628Y-40540698D01*
X105374953Y-40427462D01*
X105311064Y-40329673D01*
X105218885Y-40257928D01*
X105108405Y-40220000D01*
X105020995Y-40220000D01*
X104934784Y-40234386D01*
X104832053Y-40289981D01*
X104800000Y-40324799D01*
X104800000Y-39395946D01*
X105300000Y-39395946D01*
X105300000Y-40320000D01*
X106226495Y-40320000D01*
X106173759Y-40134648D01*
X106074634Y-39935577D01*
X105940609Y-39758100D01*
X105776262Y-39608278D01*
X105587178Y-39491202D01*
X105379802Y-39410864D01*
X105300000Y-39395946D01*
X104800000Y-39395946D01*
X104720197Y-39410864D01*
X104512821Y-39491202D01*
X104323737Y-39608278D01*
X104156114Y-39761088D01*
X104093310Y-39791705D01*
X104023923Y-39783508D01*
X103984895Y-39757132D01*
X102769944Y-38542181D01*
X102736459Y-38480858D01*
X102741443Y-38411166D01*
X102783315Y-38355233D01*
X102848779Y-38330816D01*
X102857625Y-38330500D01*
X106710197Y-38330500D01*
X106777236Y-38350185D01*
G37*
%TD.AperFunction*%
%TA.AperFunction,Conductor*%
G36*
X110178333Y-39083366D02*
G01*
X110222681Y-39111867D01*
X110593180Y-39482365D01*
X110626665Y-39543688D01*
X110629499Y-39570046D01*
X110629499Y-40061469D01*
X110629499Y-40061486D01*
X110629500Y-40064954D01*
X110629889Y-40068410D01*
X110629890Y-40068420D01*
X110643589Y-40190000D01*
X110644632Y-40199255D01*
X110704211Y-40369522D01*
X110704212Y-40369523D01*
X110800185Y-40522264D01*
X110927735Y-40649814D01*
X110927737Y-40649815D01*
X110927738Y-40649816D01*
X111080478Y-40745789D01*
X111250745Y-40805368D01*
X111385046Y-40820500D01*
X114849953Y-40820500D01*
X114916992Y-40840185D01*
X114937634Y-40856819D01*
X116463181Y-42382366D01*
X116496666Y-42443689D01*
X116499500Y-42470047D01*
X116499500Y-43696000D01*
X116479815Y-43763039D01*
X116427011Y-43808794D01*
X116375500Y-43820000D01*
X115880000Y-43820000D01*
X115880000Y-45446000D01*
X115860315Y-45513039D01*
X115807511Y-45558794D01*
X115756000Y-45570000D01*
X115504000Y-45570000D01*
X115436961Y-45550315D01*
X115391206Y-45497511D01*
X115380000Y-45446000D01*
X115380000Y-43820000D01*
X114835482Y-43820000D01*
X114828882Y-43820353D01*
X114782721Y-43825316D01*
X114713962Y-43812909D01*
X114681786Y-43789707D01*
X114582264Y-43690185D01*
X114479999Y-43625928D01*
X114429522Y-43594211D01*
X114259255Y-43534632D01*
X114259251Y-43534631D01*
X114259250Y-43534631D01*
X114128420Y-43519890D01*
X114128410Y-43519889D01*
X114124954Y-43519500D01*
X112535046Y-43519500D01*
X112531590Y-43519889D01*
X112531579Y-43519890D01*
X112400747Y-43534631D01*
X112298907Y-43570266D01*
X112229128Y-43573827D01*
X112168501Y-43539098D01*
X112140384Y-43492636D01*
X112130198Y-43462247D01*
X112128533Y-43456869D01*
X112107405Y-43382611D01*
X112099317Y-43366368D01*
X112092744Y-43350500D01*
X112086979Y-43333298D01*
X112049418Y-43265863D01*
X112046770Y-43260838D01*
X112022817Y-43212734D01*
X112012366Y-43191745D01*
X112001434Y-43177270D01*
X111992058Y-43162880D01*
X111983227Y-43147025D01*
X111933921Y-43087649D01*
X111930364Y-43083158D01*
X111883873Y-43021594D01*
X111826829Y-42969591D01*
X111822687Y-42965635D01*
X110024352Y-41167299D01*
X110020397Y-41163157D01*
X109991276Y-41131214D01*
X109968407Y-41106128D01*
X109906851Y-41059642D01*
X109902363Y-41056087D01*
X109842975Y-41006773D01*
X109827119Y-40997941D01*
X109812731Y-40988566D01*
X109798253Y-40977632D01*
X109729185Y-40943241D01*
X109724129Y-40940577D01*
X109656702Y-40903021D01*
X109656701Y-40903020D01*
X109654210Y-40901633D01*
X109605221Y-40851814D01*
X109590943Y-40783419D01*
X109602166Y-40740897D01*
X109646267Y-40646324D01*
X109705141Y-40426602D01*
X109724966Y-40200000D01*
X109705141Y-39973397D01*
X109646266Y-39753673D01*
X109567376Y-39584494D01*
X109556884Y-39515417D01*
X109585403Y-39451633D01*
X109627351Y-39419709D01*
X109732734Y-39370568D01*
X109919139Y-39240047D01*
X110047320Y-39111865D01*
X110108641Y-39078382D01*
X110178333Y-39083366D01*
G37*
%TD.AperFunction*%
%TA.AperFunction,Conductor*%
G36*
X82080000Y-42417549D02*
G01*
X82109274Y-42413585D01*
X82323265Y-42344055D01*
X82521407Y-42237430D01*
X82697318Y-42097146D01*
X82826872Y-41948860D01*
X82885803Y-41911325D01*
X82955673Y-41911610D01*
X83014296Y-41949624D01*
X83025056Y-41964170D01*
X83120303Y-42114790D01*
X83139500Y-42181064D01*
X83139500Y-43024087D01*
X83119815Y-43091126D01*
X83096032Y-43118376D01*
X83027075Y-43177272D01*
X82919311Y-43269311D01*
X82750587Y-43466861D01*
X82732257Y-43496772D01*
X82680444Y-43543646D01*
X82611514Y-43555067D01*
X82547352Y-43527409D01*
X82538850Y-43519662D01*
X82421077Y-43401890D01*
X82227576Y-43266399D01*
X82013492Y-43166569D01*
X81800000Y-43109364D01*
X81800000Y-44004498D01*
X81692315Y-43955320D01*
X81585763Y-43940000D01*
X81514237Y-43940000D01*
X81407685Y-43955320D01*
X81300000Y-44004498D01*
X81300000Y-43109364D01*
X81299999Y-43109364D01*
X81086507Y-43166569D01*
X80872421Y-43266400D01*
X80783579Y-43328608D01*
X80717373Y-43350935D01*
X80649606Y-43333925D01*
X80601793Y-43282976D01*
X80595414Y-43267986D01*
X80594859Y-43266400D01*
X80585789Y-43240478D01*
X80489816Y-43087738D01*
X80489815Y-43087737D01*
X80489814Y-43087735D01*
X80362264Y-42960185D01*
X80263104Y-42897879D01*
X80209522Y-42864211D01*
X80039255Y-42804632D01*
X80039253Y-42804631D01*
X80039251Y-42804631D01*
X80039124Y-42804617D01*
X80038694Y-42804436D01*
X80026067Y-42800018D01*
X80026337Y-42799244D01*
X79974711Y-42777550D01*
X79935156Y-42719955D01*
X79933019Y-42650118D01*
X79968978Y-42590212D01*
X79999849Y-42569370D01*
X80067772Y-42537141D01*
X80273797Y-42394932D01*
X80454341Y-42221516D01*
X80604730Y-42021385D01*
X80631162Y-41971022D01*
X80679746Y-41920811D01*
X80747765Y-41904836D01*
X80813623Y-41928171D01*
X80841276Y-41955764D01*
X80884853Y-42015743D01*
X81047491Y-42171241D01*
X81235271Y-42295193D01*
X81442166Y-42383625D01*
X81579999Y-42415084D01*
X81580000Y-42415084D01*
X81580000Y-40875501D01*
X81687685Y-40924680D01*
X81794237Y-40940000D01*
X81865763Y-40940000D01*
X81972315Y-40924680D01*
X82080000Y-40875501D01*
X82080000Y-42417549D01*
G37*
%TD.AperFunction*%
%TD*%
M02*
