%TF.GenerationSoftware,KiCad,Pcbnew,(6.0.5)*%
%TF.CreationDate,2022-12-18T21:16:11-03:00*%
%TF.ProjectId,HM_CENTRAL-01,484d5f43-454e-4545-9241-4c2d30312e6b,rev?*%
%TF.SameCoordinates,Original*%
%TF.FileFunction,Soldermask,Top*%
%TF.FilePolarity,Negative*%
%FSLAX46Y46*%
G04 Gerber Fmt 4.6, Leading zero omitted, Abs format (unit mm)*
G04 Created by KiCad (PCBNEW (6.0.5)) date 2022-12-18 21:16:11*
%MOMM*%
%LPD*%
G01*
G04 APERTURE LIST*
G04 Aperture macros list*
%AMHorizOval*
0 Thick line with rounded ends*
0 $1 width*
0 $2 $3 position (X,Y) of the first rounded end (center of the circle)*
0 $4 $5 position (X,Y) of the second rounded end (center of the circle)*
0 Add line between two ends*
20,1,$1,$2,$3,$4,$5,0*
0 Add two circle primitives to create the rounded ends*
1,1,$1,$2,$3*
1,1,$1,$4,$5*%
G04 Aperture macros list end*
%ADD10R,1.700000X1.700000*%
%ADD11O,1.700000X1.700000*%
%ADD12R,4.000000X4.000000*%
%ADD13C,4.000000*%
%ADD14O,1.200000X2.400000*%
%ADD15C,1.600000*%
%ADD16O,1.600000X1.600000*%
%ADD17R,2.200000X2.200000*%
%ADD18O,2.200000X2.200000*%
%ADD19R,1.500000X1.500000*%
%ADD20C,1.500000*%
%ADD21R,2.000000X1.600000*%
%ADD22R,2.000000X1.500000*%
%ADD23R,2.000000X3.800000*%
%ADD24C,3.200000*%
%ADD25R,1.600000X1.600000*%
%ADD26R,1.905000X2.000000*%
%ADD27O,1.905000X2.000000*%
%ADD28HorizOval,1.600000X0.000000X0.000000X0.000000X0.000000X0*%
%ADD29HorizOval,1.600000X0.000000X0.000000X0.000000X0.000000X0*%
%ADD30O,1.500000X3.000000*%
%ADD31C,0.800000*%
%ADD32HorizOval,0.800000X0.000000X0.000000X0.000000X0.000000X0*%
%ADD33HorizOval,0.800000X0.000000X0.000000X0.000000X0.000000X0*%
%ADD34O,6.000000X9.000000*%
%ADD35HorizOval,1.600000X0.000000X0.000000X0.000000X0.000000X0*%
%ADD36C,1.400000*%
%ADD37O,1.400000X1.400000*%
%ADD38O,3.000000X1.500000*%
G04 APERTURE END LIST*
D10*
%TO.C,M14*%
X150600000Y-104900000D03*
D11*
X153140000Y-104900000D03*
X155680000Y-104900000D03*
X158220000Y-104900000D03*
%TD*%
D12*
%TO.C,J1*%
X129100000Y-29165750D03*
D13*
X121900000Y-29165750D03*
D14*
X132250000Y-23165750D03*
X118750000Y-23165750D03*
%TD*%
D10*
%TO.C,J6*%
X100925000Y-42200000D03*
D11*
X98385000Y-42200000D03*
X95845000Y-42200000D03*
%TD*%
D10*
%TO.C,J7*%
X90100000Y-51700000D03*
D11*
X87560000Y-51700000D03*
X85020000Y-51700000D03*
X82480000Y-51700000D03*
%TD*%
D15*
%TO.C,R6*%
X155500000Y-129690000D03*
D16*
X155500000Y-137310000D03*
%TD*%
D10*
%TO.C,M10*%
X89600000Y-61050000D03*
D11*
X87060000Y-61050000D03*
X84520000Y-61050000D03*
X81980000Y-61050000D03*
%TD*%
D10*
%TO.C,M13*%
X89600000Y-105150000D03*
D11*
X87060000Y-105150000D03*
X84520000Y-105150000D03*
X81980000Y-105150000D03*
%TD*%
D10*
%TO.C,M23*%
X89600000Y-85550000D03*
D11*
X87060000Y-85550000D03*
X84520000Y-85550000D03*
X81980000Y-85550000D03*
%TD*%
D10*
%TO.C,J5*%
X90100000Y-44500000D03*
D11*
X87560000Y-44500000D03*
X85020000Y-44500000D03*
X82480000Y-44500000D03*
%TD*%
D17*
%TO.C,D1*%
X106025000Y-47180000D03*
D18*
X106025000Y-37020000D03*
%TD*%
D15*
%TO.C,R4*%
X79910000Y-128900000D03*
D16*
X72290000Y-128900000D03*
%TD*%
D15*
%TO.C,R41*%
X81790000Y-38900000D03*
D16*
X89410000Y-38900000D03*
%TD*%
D19*
%TO.C,Q7*%
X146740000Y-132160000D03*
D20*
X146740000Y-134700000D03*
X146740000Y-137240000D03*
%TD*%
D21*
%TO.C,R36*%
X116950000Y-71500000D03*
X104250000Y-71500000D03*
%TD*%
D22*
%TO.C,U2*%
X120050000Y-35300000D03*
D23*
X126350000Y-37600000D03*
D22*
X120050000Y-37600000D03*
X120050000Y-39900000D03*
%TD*%
D15*
%TO.C,C5*%
X149600000Y-54200000D03*
X149600000Y-49200000D03*
%TD*%
%TO.C,C7*%
X91600000Y-36300000D03*
X93600000Y-36300000D03*
%TD*%
D10*
%TO.C,M20*%
X150700000Y-109800000D03*
D11*
X153240000Y-109800000D03*
X155780000Y-109800000D03*
X158320000Y-109800000D03*
%TD*%
D15*
%TO.C,R8*%
X89200000Y-132590000D03*
D16*
X89200000Y-140210000D03*
%TD*%
D10*
%TO.C,J2*%
X101210000Y-66180000D03*
D11*
X98670000Y-66180000D03*
X101210000Y-68720000D03*
X98670000Y-68720000D03*
X101210000Y-71260000D03*
X98670000Y-71260000D03*
X101210000Y-73800000D03*
X98670000Y-73800000D03*
X101210000Y-76340000D03*
X98670000Y-76340000D03*
X101210000Y-78880000D03*
X98670000Y-78880000D03*
X101210000Y-81420000D03*
X98670000Y-81420000D03*
X101210000Y-83960000D03*
X98670000Y-83960000D03*
X101210000Y-86500000D03*
X98670000Y-86500000D03*
X101210000Y-89040000D03*
X98670000Y-89040000D03*
X101210000Y-91580000D03*
X98670000Y-91580000D03*
X101210000Y-94120000D03*
X98670000Y-94120000D03*
X101210000Y-96660000D03*
X98670000Y-96660000D03*
X101210000Y-99200000D03*
X98670000Y-99200000D03*
X101210000Y-101740000D03*
X98670000Y-101740000D03*
X101210000Y-104280000D03*
X98670000Y-104280000D03*
X101210000Y-106820000D03*
X98670000Y-106820000D03*
X101210000Y-109360000D03*
X98670000Y-109360000D03*
X101210000Y-111900000D03*
X98670000Y-111900000D03*
X101210000Y-114440000D03*
X98670000Y-114440000D03*
%TD*%
D24*
%TO.C,H3*%
X133800000Y-94100000D03*
%TD*%
D15*
%TO.C,R40*%
X85300000Y-41700000D03*
D16*
X92920000Y-41700000D03*
%TD*%
D10*
%TO.C,M5*%
X150700000Y-95150000D03*
D11*
X153240000Y-95150000D03*
X155780000Y-95150000D03*
X158320000Y-95150000D03*
%TD*%
D25*
%TO.C,SW1*%
X114325000Y-53867500D03*
D16*
X116865000Y-53867500D03*
X116865000Y-46247500D03*
X114325000Y-46247500D03*
%TD*%
D24*
%TO.C,H4*%
X161100000Y-25500000D03*
%TD*%
D15*
%TO.C,C2*%
X141400000Y-55100000D03*
X141400000Y-53100000D03*
%TD*%
D26*
%TO.C,Q6*%
X85040000Y-134555000D03*
D27*
X82500000Y-134555000D03*
X79960000Y-134555000D03*
%TD*%
D15*
%TO.C,R7*%
X95200000Y-123190000D03*
D16*
X95200000Y-130810000D03*
%TD*%
D10*
%TO.C,M2*%
X89600000Y-90450000D03*
D11*
X87060000Y-90450000D03*
X84520000Y-90450000D03*
X81980000Y-90450000D03*
%TD*%
D10*
%TO.C,M8*%
X151480000Y-65750000D03*
D11*
X154020000Y-65750000D03*
X156560000Y-65750000D03*
X159100000Y-65750000D03*
%TD*%
D26*
%TO.C,Q8*%
X157160000Y-134745000D03*
D27*
X159700000Y-134745000D03*
X162240000Y-134745000D03*
%TD*%
D10*
%TO.C,M6*%
X89600000Y-100250000D03*
D11*
X87060000Y-100250000D03*
X84520000Y-100250000D03*
X81980000Y-100250000D03*
%TD*%
D10*
%TO.C,M26*%
X101650000Y-130600000D03*
D11*
X101650000Y-133140000D03*
%TD*%
D15*
%TO.C,R5*%
X135590000Y-121400000D03*
D16*
X143210000Y-121400000D03*
%TD*%
D10*
%TO.C,J4*%
X97100000Y-49400000D03*
D11*
X97100000Y-51940000D03*
%TD*%
D10*
%TO.C,M4*%
X89600000Y-95350000D03*
D11*
X87060000Y-95350000D03*
X84520000Y-95350000D03*
X81980000Y-95350000D03*
%TD*%
D10*
%TO.C,M22*%
X150800000Y-114750000D03*
D11*
X153340000Y-114750000D03*
X155880000Y-114750000D03*
X158420000Y-114750000D03*
%TD*%
D10*
%TO.C,J3*%
X122340000Y-68800000D03*
D11*
X119800000Y-68800000D03*
X122340000Y-71340000D03*
X119800000Y-71340000D03*
X122340000Y-73880000D03*
X119800000Y-73880000D03*
X122340000Y-76420000D03*
X119800000Y-76420000D03*
X122340000Y-78960000D03*
X119800000Y-78960000D03*
X122340000Y-81500000D03*
X119800000Y-81500000D03*
X122340000Y-84040000D03*
X119800000Y-84040000D03*
X122340000Y-86580000D03*
X119800000Y-86580000D03*
X122340000Y-89120000D03*
X119800000Y-89120000D03*
X122340000Y-91660000D03*
X119800000Y-91660000D03*
X122340000Y-94200000D03*
X119800000Y-94200000D03*
X122340000Y-96740000D03*
X119800000Y-96740000D03*
X122340000Y-99280000D03*
X119800000Y-99280000D03*
X122340000Y-101820000D03*
X119800000Y-101820000D03*
X122340000Y-104360000D03*
X119800000Y-104360000D03*
X122340000Y-106900000D03*
X119800000Y-106900000D03*
X122340000Y-109440000D03*
X119800000Y-109440000D03*
%TD*%
D15*
%TO.C,R39*%
X145800000Y-121205923D03*
D28*
X151188154Y-126594077D03*
%TD*%
D10*
%TO.C,J9*%
X90100000Y-48100000D03*
D11*
X87560000Y-48100000D03*
X85020000Y-48100000D03*
X82480000Y-48100000D03*
%TD*%
D10*
%TO.C,J12*%
X143200000Y-68800000D03*
D11*
X140660000Y-68800000D03*
X143200000Y-71340000D03*
X140660000Y-71340000D03*
X143200000Y-73880000D03*
X140660000Y-73880000D03*
X143200000Y-76420000D03*
X140660000Y-76420000D03*
X143200000Y-78960000D03*
X140660000Y-78960000D03*
X143200000Y-81500000D03*
X140660000Y-81500000D03*
X143200000Y-84040000D03*
X140660000Y-84040000D03*
X143200000Y-86580000D03*
X140660000Y-86580000D03*
X143200000Y-89120000D03*
X140660000Y-89120000D03*
X143200000Y-91660000D03*
X140660000Y-91660000D03*
X143200000Y-94200000D03*
X140660000Y-94200000D03*
X143200000Y-96740000D03*
X140660000Y-96740000D03*
X143200000Y-99280000D03*
X140660000Y-99280000D03*
X143200000Y-101820000D03*
X140660000Y-101820000D03*
X143200000Y-104360000D03*
X140660000Y-104360000D03*
X143200000Y-106900000D03*
X140660000Y-106900000D03*
X143200000Y-109440000D03*
X140660000Y-109440000D03*
%TD*%
D10*
%TO.C,M25*%
X106300000Y-130600000D03*
D11*
X106300000Y-133140000D03*
%TD*%
D19*
%TO.C,Q5*%
X92640000Y-131860000D03*
D20*
X92640000Y-134400000D03*
X92640000Y-136940000D03*
%TD*%
D10*
%TO.C,J8*%
X100925000Y-45800000D03*
D11*
X98385000Y-45800000D03*
X95845000Y-45800000D03*
%TD*%
D15*
%TO.C,C1*%
X133400000Y-127850000D03*
X133400000Y-135350000D03*
%TD*%
D10*
%TO.C,M17*%
X89600000Y-80650000D03*
D11*
X87060000Y-80650000D03*
X84520000Y-80650000D03*
X81980000Y-80650000D03*
%TD*%
D15*
%TO.C,R3*%
X98200000Y-123190000D03*
D16*
X98200000Y-130810000D03*
%TD*%
D10*
%TO.C,M16*%
X151480000Y-75550000D03*
D11*
X154020000Y-75550000D03*
X156560000Y-75550000D03*
X159100000Y-75550000D03*
%TD*%
D15*
%TO.C,R38*%
X92200000Y-121890000D03*
D16*
X92200000Y-129510000D03*
%TD*%
D15*
%TO.C,C3*%
X142100000Y-49500000D03*
X142100000Y-47500000D03*
%TD*%
D10*
%TO.C,M15*%
X89600000Y-75750000D03*
D11*
X87060000Y-75750000D03*
X84520000Y-75750000D03*
X81980000Y-75750000D03*
%TD*%
D10*
%TO.C,M7*%
X89600000Y-65950000D03*
D11*
X87060000Y-65950000D03*
X84520000Y-65950000D03*
X81980000Y-65950000D03*
%TD*%
D10*
%TO.C,M3*%
X150800000Y-90200000D03*
D11*
X153340000Y-90200000D03*
X155880000Y-90200000D03*
X158420000Y-90200000D03*
%TD*%
D10*
%TO.C,M12*%
X151480000Y-70650000D03*
D11*
X154020000Y-70650000D03*
X156560000Y-70650000D03*
X159100000Y-70650000D03*
%TD*%
D15*
%TO.C,C4*%
X123600000Y-129100000D03*
X123600000Y-134100000D03*
%TD*%
D10*
%TO.C,M9*%
X150700000Y-100000000D03*
D11*
X153240000Y-100000000D03*
X155780000Y-100000000D03*
X158320000Y-100000000D03*
%TD*%
D15*
%TO.C,R2*%
X147895957Y-119253100D03*
D29*
X157104044Y-123546902D03*
%TD*%
D10*
%TO.C,M11*%
X89600000Y-70850000D03*
D11*
X87060000Y-70850000D03*
X84520000Y-70850000D03*
X81980000Y-70850000D03*
%TD*%
D26*
%TO.C,Q4*%
X157260000Y-125945000D03*
D27*
X159800000Y-125945000D03*
X162340000Y-125945000D03*
%TD*%
D10*
%TO.C,M21*%
X89600000Y-114950000D03*
D11*
X87060000Y-114950000D03*
X84520000Y-114950000D03*
X81980000Y-114950000D03*
%TD*%
D21*
%TO.C,R37*%
X104300000Y-68700000D03*
X117000000Y-68700000D03*
%TD*%
D10*
%TO.C,M24*%
X151480000Y-85350000D03*
D11*
X154020000Y-85350000D03*
X156560000Y-85350000D03*
X159100000Y-85350000D03*
%TD*%
D15*
%TO.C,C8*%
X120650000Y-45300000D03*
X128150000Y-45300000D03*
%TD*%
%TO.C,C6*%
X113000000Y-128700000D03*
X113000000Y-133700000D03*
%TD*%
%TO.C,R10*%
X151100000Y-132890000D03*
D16*
X151100000Y-140510000D03*
%TD*%
D30*
%TO.C,U3*%
X111150000Y-33600370D03*
X98450000Y-33600370D03*
X113690000Y-33600370D03*
X100990000Y-33600370D03*
X103530000Y-33600370D03*
X95910000Y-33600370D03*
X106070000Y-33600370D03*
X108610000Y-33600370D03*
%TD*%
D24*
%TO.C,H2*%
X106300000Y-103100000D03*
%TD*%
D19*
%TO.C,U1*%
X136875000Y-36500000D03*
D20*
X136875000Y-38410000D03*
X136875000Y-40320000D03*
D31*
X160325000Y-45410000D03*
D32*
X157645000Y-39460000D03*
D31*
X156615000Y-40210000D03*
X156615000Y-46610000D03*
X156225000Y-45410000D03*
X159935000Y-40210000D03*
X156225000Y-42740000D03*
X160325000Y-41410000D03*
X158905000Y-47360000D03*
D33*
X158905000Y-39460000D03*
D31*
X159935000Y-46610000D03*
X160325000Y-42740000D03*
X156225000Y-44080000D03*
X156225000Y-41410000D03*
D34*
X158275000Y-43410000D03*
D31*
X157645000Y-47360000D03*
X160325000Y-44080000D03*
X156615000Y-30210000D03*
D34*
X158275000Y-33410000D03*
D31*
X159935000Y-36610000D03*
D33*
X157645000Y-37360000D03*
D31*
X160325000Y-31410000D03*
X160325000Y-34080000D03*
X156615000Y-36610000D03*
X156225000Y-35410000D03*
X158905000Y-29460000D03*
X160325000Y-35410000D03*
X156225000Y-31410000D03*
X156225000Y-34080000D03*
D32*
X158905000Y-37360000D03*
D31*
X159935000Y-30210000D03*
X157645000Y-29460000D03*
X160325000Y-32740000D03*
X156225000Y-32740000D03*
%TD*%
D10*
%TO.C,M18*%
X151480000Y-80450000D03*
D11*
X154020000Y-80450000D03*
X156560000Y-80450000D03*
X159100000Y-80450000D03*
%TD*%
D24*
%TO.C,H1*%
X73300000Y-25400000D03*
%TD*%
D26*
%TO.C,Q2*%
X85000000Y-126555000D03*
D27*
X82460000Y-126555000D03*
X79920000Y-126555000D03*
%TD*%
D10*
%TO.C,M19*%
X89600000Y-110050000D03*
D11*
X87060000Y-110050000D03*
X84520000Y-110050000D03*
X81980000Y-110050000D03*
%TD*%
D15*
%TO.C,R1*%
X90600000Y-119600000D03*
D35*
X84762741Y-124498042D03*
%TD*%
D36*
%TO.C,R13*%
X82000000Y-68450000D03*
D37*
X79460000Y-68450000D03*
%TD*%
D15*
%TO.C,R34*%
X145800000Y-45110000D03*
D16*
X145800000Y-37490000D03*
%TD*%
D10*
%TO.C,J10*%
X100700000Y-50300000D03*
D11*
X103240000Y-50300000D03*
X105780000Y-50300000D03*
%TD*%
D38*
%TO.C,M1*%
X132600000Y-55260930D03*
X132600000Y-52720930D03*
X132600000Y-50180930D03*
X132600000Y-47640930D03*
X132600000Y-45100930D03*
X132600000Y-42560930D03*
X132600000Y-40020930D03*
X132600000Y-37480930D03*
X109740000Y-37480930D03*
X109740000Y-40020930D03*
X109740000Y-42560930D03*
X109740000Y-45100930D03*
X109740000Y-47640930D03*
X109740000Y-50180930D03*
X109740000Y-52720930D03*
X109740000Y-55260930D03*
%TD*%
D36*
%TO.C,R21*%
X82000000Y-78150000D03*
D37*
X79460000Y-78150000D03*
%TD*%
D36*
%TO.C,R12*%
X158480000Y-92700000D03*
D37*
X161020000Y-92700000D03*
%TD*%
D36*
%TO.C,R17*%
X82000000Y-73250000D03*
D37*
X79460000Y-73250000D03*
%TD*%
D36*
%TO.C,R32*%
X82000000Y-87950000D03*
D37*
X79460000Y-87950000D03*
%TD*%
D36*
%TO.C,R14*%
X159080000Y-68200000D03*
D37*
X161620000Y-68200000D03*
%TD*%
D36*
%TO.C,R19*%
X82000000Y-102750000D03*
D37*
X79460000Y-102750000D03*
%TD*%
D36*
%TO.C,R33*%
X159080000Y-87800000D03*
D37*
X161620000Y-87800000D03*
%TD*%
D36*
%TO.C,R16*%
X158480000Y-97600000D03*
D37*
X161020000Y-97600000D03*
%TD*%
D36*
%TO.C,R11*%
X82000000Y-92850000D03*
D37*
X79460000Y-92850000D03*
%TD*%
D19*
%TO.C,Q1*%
X80100000Y-131300000D03*
D20*
X77560000Y-131300000D03*
X75020000Y-131300000D03*
%TD*%
D15*
%TO.C,R35*%
X148800000Y-45110000D03*
D16*
X148800000Y-37490000D03*
%TD*%
D36*
%TO.C,R27*%
X159080000Y-82900000D03*
D37*
X161620000Y-82900000D03*
%TD*%
D36*
%TO.C,R18*%
X159080000Y-73000000D03*
D37*
X161620000Y-73000000D03*
%TD*%
D36*
%TO.C,R20*%
X158380000Y-102500000D03*
D37*
X160920000Y-102500000D03*
%TD*%
D36*
%TO.C,R22*%
X159080000Y-78000000D03*
D37*
X161620000Y-78000000D03*
%TD*%
D15*
%TO.C,R9*%
X137190000Y-133700000D03*
D16*
X144810000Y-133700000D03*
%TD*%
D36*
%TO.C,R26*%
X82000000Y-83050000D03*
D37*
X79460000Y-83050000D03*
%TD*%
D36*
%TO.C,R28*%
X82000000Y-112450000D03*
D37*
X79460000Y-112450000D03*
%TD*%
D36*
%TO.C,R24*%
X82000000Y-107550000D03*
D37*
X79460000Y-107550000D03*
%TD*%
D19*
%TO.C,Q3*%
X157460000Y-129660000D03*
D20*
X160000000Y-129660000D03*
X162540000Y-129660000D03*
%TD*%
D36*
%TO.C,R31*%
X158400000Y-117600000D03*
D37*
X160940000Y-117600000D03*
%TD*%
D36*
%TO.C,R29*%
X158480000Y-112300000D03*
D37*
X161020000Y-112300000D03*
%TD*%
D36*
%TO.C,R25*%
X158180000Y-107400000D03*
D37*
X160720000Y-107400000D03*
%TD*%
D10*
%TO.C,J11*%
X97725000Y-37900000D03*
D11*
X100265000Y-37900000D03*
%TD*%
D36*
%TO.C,R15*%
X82000000Y-97750000D03*
D37*
X79460000Y-97750000D03*
%TD*%
D36*
%TO.C,R23*%
X82000000Y-63450000D03*
D37*
X79460000Y-63450000D03*
%TD*%
D36*
%TO.C,R30*%
X82000000Y-117350000D03*
D37*
X79460000Y-117350000D03*
%TD*%
M02*
