%TF.GenerationSoftware,KiCad,Pcbnew,(6.0.5)*%
%TF.CreationDate,2022-12-18T21:16:11-03:00*%
%TF.ProjectId,HM_CENTRAL-01,484d5f43-454e-4545-9241-4c2d30312e6b,rev?*%
%TF.SameCoordinates,Original*%
%TF.FileFunction,Legend,Top*%
%TF.FilePolarity,Positive*%
%FSLAX46Y46*%
G04 Gerber Fmt 4.6, Leading zero omitted, Abs format (unit mm)*
G04 Created by KiCad (PCBNEW (6.0.5)) date 2022-12-18 21:16:11*
%MOMM*%
%LPD*%
G01*
G04 APERTURE LIST*
%ADD10C,0.150000*%
%ADD11C,0.101600*%
%ADD12C,0.120000*%
%ADD13C,0.127000*%
%ADD14C,0.254000*%
G04 APERTURE END LIST*
D10*
%TO.C,M14*%
X148722380Y-106185714D02*
X147722380Y-106185714D01*
X148436666Y-105852380D01*
X147722380Y-105519047D01*
X148722380Y-105519047D01*
X148722380Y-104519047D02*
X148722380Y-105090476D01*
X148722380Y-104804761D02*
X147722380Y-104804761D01*
X147865238Y-104900000D01*
X147960476Y-104995238D01*
X148008095Y-105090476D01*
X148055714Y-103661904D02*
X148722380Y-103661904D01*
X147674761Y-103900000D02*
X148389047Y-104138095D01*
X148389047Y-103519047D01*
%TO.C,J1*%
X120342919Y-9102909D02*
X120342919Y-9817510D01*
X120295279Y-9960430D01*
X120199999Y-10055710D01*
X120057079Y-10103350D01*
X119961799Y-10103350D01*
X121343360Y-10103350D02*
X120771680Y-10103350D01*
X121057520Y-10103350D02*
X121057520Y-9102909D01*
X120962240Y-9245829D01*
X120866960Y-9341109D01*
X120771680Y-9388749D01*
%TO.C,J6*%
X102707380Y-42533333D02*
X103421666Y-42533333D01*
X103564523Y-42580952D01*
X103659761Y-42676190D01*
X103707380Y-42819047D01*
X103707380Y-42914285D01*
X102707380Y-41628571D02*
X102707380Y-41819047D01*
X102755000Y-41914285D01*
X102802619Y-41961904D01*
X102945476Y-42057142D01*
X103135952Y-42104761D01*
X103516904Y-42104761D01*
X103612142Y-42057142D01*
X103659761Y-42009523D01*
X103707380Y-41914285D01*
X103707380Y-41723809D01*
X103659761Y-41628571D01*
X103612142Y-41580952D01*
X103516904Y-41533333D01*
X103278809Y-41533333D01*
X103183571Y-41580952D01*
X103135952Y-41628571D01*
X103088333Y-41723809D01*
X103088333Y-41914285D01*
X103135952Y-42009523D01*
X103183571Y-42057142D01*
X103278809Y-42104761D01*
%TO.C,J7*%
X92452380Y-52133333D02*
X93166666Y-52133333D01*
X93309523Y-52180952D01*
X93404761Y-52276190D01*
X93452380Y-52419047D01*
X93452380Y-52514285D01*
X92452380Y-51752380D02*
X92452380Y-51085714D01*
X93452380Y-51514285D01*
%TO.C,R6*%
X158322380Y-133666666D02*
X157846190Y-134000000D01*
X158322380Y-134238095D02*
X157322380Y-134238095D01*
X157322380Y-133857142D01*
X157370000Y-133761904D01*
X157417619Y-133714285D01*
X157512857Y-133666666D01*
X157655714Y-133666666D01*
X157750952Y-133714285D01*
X157798571Y-133761904D01*
X157846190Y-133857142D01*
X157846190Y-134238095D01*
X157322380Y-132809523D02*
X157322380Y-133000000D01*
X157370000Y-133095238D01*
X157417619Y-133142857D01*
X157560476Y-133238095D01*
X157750952Y-133285714D01*
X158131904Y-133285714D01*
X158227142Y-133238095D01*
X158274761Y-133190476D01*
X158322380Y-133095238D01*
X158322380Y-132904761D01*
X158274761Y-132809523D01*
X158227142Y-132761904D01*
X158131904Y-132714285D01*
X157893809Y-132714285D01*
X157798571Y-132761904D01*
X157750952Y-132809523D01*
X157703333Y-132904761D01*
X157703333Y-133095238D01*
X157750952Y-133190476D01*
X157798571Y-133238095D01*
X157893809Y-133285714D01*
%TO.C,M10*%
X92382380Y-62335714D02*
X91382380Y-62335714D01*
X92096666Y-62002380D01*
X91382380Y-61669047D01*
X92382380Y-61669047D01*
X92382380Y-60669047D02*
X92382380Y-61240476D01*
X92382380Y-60954761D02*
X91382380Y-60954761D01*
X91525238Y-61050000D01*
X91620476Y-61145238D01*
X91668095Y-61240476D01*
X91382380Y-60050000D02*
X91382380Y-59954761D01*
X91430000Y-59859523D01*
X91477619Y-59811904D01*
X91572857Y-59764285D01*
X91763333Y-59716666D01*
X92001428Y-59716666D01*
X92191904Y-59764285D01*
X92287142Y-59811904D01*
X92334761Y-59859523D01*
X92382380Y-59954761D01*
X92382380Y-60050000D01*
X92334761Y-60145238D01*
X92287142Y-60192857D01*
X92191904Y-60240476D01*
X92001428Y-60288095D01*
X91763333Y-60288095D01*
X91572857Y-60240476D01*
X91477619Y-60192857D01*
X91430000Y-60145238D01*
X91382380Y-60050000D01*
%TO.C,M13*%
X92382380Y-106435714D02*
X91382380Y-106435714D01*
X92096666Y-106102380D01*
X91382380Y-105769047D01*
X92382380Y-105769047D01*
X92382380Y-104769047D02*
X92382380Y-105340476D01*
X92382380Y-105054761D02*
X91382380Y-105054761D01*
X91525238Y-105150000D01*
X91620476Y-105245238D01*
X91668095Y-105340476D01*
X91382380Y-104435714D02*
X91382380Y-103816666D01*
X91763333Y-104150000D01*
X91763333Y-104007142D01*
X91810952Y-103911904D01*
X91858571Y-103864285D01*
X91953809Y-103816666D01*
X92191904Y-103816666D01*
X92287142Y-103864285D01*
X92334761Y-103911904D01*
X92382380Y-104007142D01*
X92382380Y-104292857D01*
X92334761Y-104388095D01*
X92287142Y-104435714D01*
%TO.C,M23*%
X92382380Y-86835714D02*
X91382380Y-86835714D01*
X92096666Y-86502380D01*
X91382380Y-86169047D01*
X92382380Y-86169047D01*
X91477619Y-85740476D02*
X91430000Y-85692857D01*
X91382380Y-85597619D01*
X91382380Y-85359523D01*
X91430000Y-85264285D01*
X91477619Y-85216666D01*
X91572857Y-85169047D01*
X91668095Y-85169047D01*
X91810952Y-85216666D01*
X92382380Y-85788095D01*
X92382380Y-85169047D01*
X91382380Y-84835714D02*
X91382380Y-84216666D01*
X91763333Y-84550000D01*
X91763333Y-84407142D01*
X91810952Y-84311904D01*
X91858571Y-84264285D01*
X91953809Y-84216666D01*
X92191904Y-84216666D01*
X92287142Y-84264285D01*
X92334761Y-84311904D01*
X92382380Y-84407142D01*
X92382380Y-84692857D01*
X92334761Y-84788095D01*
X92287142Y-84835714D01*
%TO.C,J5*%
X92212380Y-44723333D02*
X92926666Y-44723333D01*
X93069523Y-44770952D01*
X93164761Y-44866190D01*
X93212380Y-45009047D01*
X93212380Y-45104285D01*
X92212380Y-43770952D02*
X92212380Y-44247142D01*
X92688571Y-44294761D01*
X92640952Y-44247142D01*
X92593333Y-44151904D01*
X92593333Y-43913809D01*
X92640952Y-43818571D01*
X92688571Y-43770952D01*
X92783809Y-43723333D01*
X93021904Y-43723333D01*
X93117142Y-43770952D01*
X93164761Y-43818571D01*
X93212380Y-43913809D01*
X93212380Y-44151904D01*
X93164761Y-44247142D01*
X93117142Y-44294761D01*
%TO.C,D1*%
X104007380Y-42838095D02*
X103007380Y-42838095D01*
X103007380Y-42600000D01*
X103055000Y-42457142D01*
X103150238Y-42361904D01*
X103245476Y-42314285D01*
X103435952Y-42266666D01*
X103578809Y-42266666D01*
X103769285Y-42314285D01*
X103864523Y-42361904D01*
X103959761Y-42457142D01*
X104007380Y-42600000D01*
X104007380Y-42838095D01*
X104007380Y-41314285D02*
X104007380Y-41885714D01*
X104007380Y-41600000D02*
X103007380Y-41600000D01*
X103150238Y-41695238D01*
X103245476Y-41790476D01*
X103293095Y-41885714D01*
X104377380Y-47441904D02*
X103377380Y-47441904D01*
X104377380Y-46870476D02*
X103805952Y-47299047D01*
X103377380Y-46870476D02*
X103948809Y-47441904D01*
%TO.C,R4*%
X76133333Y-134522380D02*
X75800000Y-134046190D01*
X75561904Y-134522380D02*
X75561904Y-133522380D01*
X75942857Y-133522380D01*
X76038095Y-133570000D01*
X76085714Y-133617619D01*
X76133333Y-133712857D01*
X76133333Y-133855714D01*
X76085714Y-133950952D01*
X76038095Y-133998571D01*
X75942857Y-134046190D01*
X75561904Y-134046190D01*
X76990476Y-133855714D02*
X76990476Y-134522380D01*
X76752380Y-133474761D02*
X76514285Y-134189047D01*
X77133333Y-134189047D01*
%TO.C,R41*%
X84957142Y-36982380D02*
X84623809Y-36506190D01*
X84385714Y-36982380D02*
X84385714Y-35982380D01*
X84766666Y-35982380D01*
X84861904Y-36030000D01*
X84909523Y-36077619D01*
X84957142Y-36172857D01*
X84957142Y-36315714D01*
X84909523Y-36410952D01*
X84861904Y-36458571D01*
X84766666Y-36506190D01*
X84385714Y-36506190D01*
X85814285Y-36315714D02*
X85814285Y-36982380D01*
X85576190Y-35934761D02*
X85338095Y-36649047D01*
X85957142Y-36649047D01*
X86861904Y-36982380D02*
X86290476Y-36982380D01*
X86576190Y-36982380D02*
X86576190Y-35982380D01*
X86480952Y-36125238D01*
X86385714Y-36220476D01*
X86290476Y-36268095D01*
%TO.C,Q7*%
X152347619Y-127895238D02*
X152300000Y-127990476D01*
X152204761Y-128085714D01*
X152061904Y-128228571D01*
X152014285Y-128323809D01*
X152014285Y-128419047D01*
X152252380Y-128371428D02*
X152204761Y-128466666D01*
X152109523Y-128561904D01*
X151919047Y-128609523D01*
X151585714Y-128609523D01*
X151395238Y-128561904D01*
X151300000Y-128466666D01*
X151252380Y-128371428D01*
X151252380Y-128180952D01*
X151300000Y-128085714D01*
X151395238Y-127990476D01*
X151585714Y-127942857D01*
X151919047Y-127942857D01*
X152109523Y-127990476D01*
X152204761Y-128085714D01*
X152252380Y-128180952D01*
X152252380Y-128371428D01*
X151252380Y-127609523D02*
X151252380Y-126942857D01*
X152252380Y-127371428D01*
%TO.C,R36*%
X111227142Y-74322380D02*
X110893809Y-73846190D01*
X110655714Y-74322380D02*
X110655714Y-73322380D01*
X111036666Y-73322380D01*
X111131904Y-73370000D01*
X111179523Y-73417619D01*
X111227142Y-73512857D01*
X111227142Y-73655714D01*
X111179523Y-73750952D01*
X111131904Y-73798571D01*
X111036666Y-73846190D01*
X110655714Y-73846190D01*
X111560476Y-73322380D02*
X112179523Y-73322380D01*
X111846190Y-73703333D01*
X111989047Y-73703333D01*
X112084285Y-73750952D01*
X112131904Y-73798571D01*
X112179523Y-73893809D01*
X112179523Y-74131904D01*
X112131904Y-74227142D01*
X112084285Y-74274761D01*
X111989047Y-74322380D01*
X111703333Y-74322380D01*
X111608095Y-74274761D01*
X111560476Y-74227142D01*
X113036666Y-73322380D02*
X112846190Y-73322380D01*
X112750952Y-73370000D01*
X112703333Y-73417619D01*
X112608095Y-73560476D01*
X112560476Y-73750952D01*
X112560476Y-74131904D01*
X112608095Y-74227142D01*
X112655714Y-74274761D01*
X112750952Y-74322380D01*
X112941428Y-74322380D01*
X113036666Y-74274761D01*
X113084285Y-74227142D01*
X113131904Y-74131904D01*
X113131904Y-73893809D01*
X113084285Y-73798571D01*
X113036666Y-73750952D01*
X112941428Y-73703333D01*
X112750952Y-73703333D01*
X112655714Y-73750952D01*
X112608095Y-73798571D01*
X112560476Y-73893809D01*
%TO.C,U2*%
X122438095Y-32552380D02*
X122438095Y-33361904D01*
X122485714Y-33457142D01*
X122533333Y-33504761D01*
X122628571Y-33552380D01*
X122819047Y-33552380D01*
X122914285Y-33504761D01*
X122961904Y-33457142D01*
X123009523Y-33361904D01*
X123009523Y-32552380D01*
X123438095Y-32647619D02*
X123485714Y-32600000D01*
X123580952Y-32552380D01*
X123819047Y-32552380D01*
X123914285Y-32600000D01*
X123961904Y-32647619D01*
X124009523Y-32742857D01*
X124009523Y-32838095D01*
X123961904Y-32980952D01*
X123390476Y-33552380D01*
X124009523Y-33552380D01*
%TO.C,C5*%
X143707142Y-51866666D02*
X143754761Y-51914285D01*
X143802380Y-52057142D01*
X143802380Y-52152380D01*
X143754761Y-52295238D01*
X143659523Y-52390476D01*
X143564285Y-52438095D01*
X143373809Y-52485714D01*
X143230952Y-52485714D01*
X143040476Y-52438095D01*
X142945238Y-52390476D01*
X142850000Y-52295238D01*
X142802380Y-52152380D01*
X142802380Y-52057142D01*
X142850000Y-51914285D01*
X142897619Y-51866666D01*
X142802380Y-50961904D02*
X142802380Y-51438095D01*
X143278571Y-51485714D01*
X143230952Y-51438095D01*
X143183333Y-51342857D01*
X143183333Y-51104761D01*
X143230952Y-51009523D01*
X143278571Y-50961904D01*
X143373809Y-50914285D01*
X143611904Y-50914285D01*
X143707142Y-50961904D01*
X143754761Y-51009523D01*
X143802380Y-51104761D01*
X143802380Y-51342857D01*
X143754761Y-51438095D01*
X143707142Y-51485714D01*
%TO.C,C7*%
X92633333Y-25907142D02*
X92585714Y-25954761D01*
X92442857Y-26002380D01*
X92347619Y-26002380D01*
X92204761Y-25954761D01*
X92109523Y-25859523D01*
X92061904Y-25764285D01*
X92014285Y-25573809D01*
X92014285Y-25430952D01*
X92061904Y-25240476D01*
X92109523Y-25145238D01*
X92204761Y-25050000D01*
X92347619Y-25002380D01*
X92442857Y-25002380D01*
X92585714Y-25050000D01*
X92633333Y-25097619D01*
X92966666Y-25002380D02*
X93633333Y-25002380D01*
X93204761Y-26002380D01*
%TO.C,M20*%
X148822380Y-111085714D02*
X147822380Y-111085714D01*
X148536666Y-110752380D01*
X147822380Y-110419047D01*
X148822380Y-110419047D01*
X147917619Y-109990476D02*
X147870000Y-109942857D01*
X147822380Y-109847619D01*
X147822380Y-109609523D01*
X147870000Y-109514285D01*
X147917619Y-109466666D01*
X148012857Y-109419047D01*
X148108095Y-109419047D01*
X148250952Y-109466666D01*
X148822380Y-110038095D01*
X148822380Y-109419047D01*
X147822380Y-108800000D02*
X147822380Y-108704761D01*
X147870000Y-108609523D01*
X147917619Y-108561904D01*
X148012857Y-108514285D01*
X148203333Y-108466666D01*
X148441428Y-108466666D01*
X148631904Y-108514285D01*
X148727142Y-108561904D01*
X148774761Y-108609523D01*
X148822380Y-108704761D01*
X148822380Y-108800000D01*
X148774761Y-108895238D01*
X148727142Y-108942857D01*
X148631904Y-108990476D01*
X148441428Y-109038095D01*
X148203333Y-109038095D01*
X148012857Y-108990476D01*
X147917619Y-108942857D01*
X147870000Y-108895238D01*
X147822380Y-108800000D01*
%TO.C,R8*%
X92022380Y-136566666D02*
X91546190Y-136900000D01*
X92022380Y-137138095D02*
X91022380Y-137138095D01*
X91022380Y-136757142D01*
X91070000Y-136661904D01*
X91117619Y-136614285D01*
X91212857Y-136566666D01*
X91355714Y-136566666D01*
X91450952Y-136614285D01*
X91498571Y-136661904D01*
X91546190Y-136757142D01*
X91546190Y-137138095D01*
X91450952Y-135995238D02*
X91403333Y-136090476D01*
X91355714Y-136138095D01*
X91260476Y-136185714D01*
X91212857Y-136185714D01*
X91117619Y-136138095D01*
X91070000Y-136090476D01*
X91022380Y-135995238D01*
X91022380Y-135804761D01*
X91070000Y-135709523D01*
X91117619Y-135661904D01*
X91212857Y-135614285D01*
X91260476Y-135614285D01*
X91355714Y-135661904D01*
X91403333Y-135709523D01*
X91450952Y-135804761D01*
X91450952Y-135995238D01*
X91498571Y-136090476D01*
X91546190Y-136138095D01*
X91641428Y-136185714D01*
X91831904Y-136185714D01*
X91927142Y-136138095D01*
X91974761Y-136090476D01*
X92022380Y-135995238D01*
X92022380Y-135804761D01*
X91974761Y-135709523D01*
X91927142Y-135661904D01*
X91831904Y-135614285D01*
X91641428Y-135614285D01*
X91546190Y-135661904D01*
X91498571Y-135709523D01*
X91450952Y-135804761D01*
%TO.C,J2*%
X100666666Y-62952380D02*
X100666666Y-63666666D01*
X100619047Y-63809523D01*
X100523809Y-63904761D01*
X100380952Y-63952380D01*
X100285714Y-63952380D01*
X101095238Y-63047619D02*
X101142857Y-63000000D01*
X101238095Y-62952380D01*
X101476190Y-62952380D01*
X101571428Y-63000000D01*
X101619047Y-63047619D01*
X101666666Y-63142857D01*
X101666666Y-63238095D01*
X101619047Y-63380952D01*
X101047619Y-63952380D01*
X101666666Y-63952380D01*
%TO.C,H3*%
X133038095Y-90352380D02*
X133038095Y-89352380D01*
X133038095Y-89828571D02*
X133609523Y-89828571D01*
X133609523Y-90352380D02*
X133609523Y-89352380D01*
X133990476Y-89352380D02*
X134609523Y-89352380D01*
X134276190Y-89733333D01*
X134419047Y-89733333D01*
X134514285Y-89780952D01*
X134561904Y-89828571D01*
X134609523Y-89923809D01*
X134609523Y-90161904D01*
X134561904Y-90257142D01*
X134514285Y-90304761D01*
X134419047Y-90352380D01*
X134133333Y-90352380D01*
X134038095Y-90304761D01*
X133990476Y-90257142D01*
%TO.C,R40*%
X88467142Y-39782380D02*
X88133809Y-39306190D01*
X87895714Y-39782380D02*
X87895714Y-38782380D01*
X88276666Y-38782380D01*
X88371904Y-38830000D01*
X88419523Y-38877619D01*
X88467142Y-38972857D01*
X88467142Y-39115714D01*
X88419523Y-39210952D01*
X88371904Y-39258571D01*
X88276666Y-39306190D01*
X87895714Y-39306190D01*
X89324285Y-39115714D02*
X89324285Y-39782380D01*
X89086190Y-38734761D02*
X88848095Y-39449047D01*
X89467142Y-39449047D01*
X90038571Y-38782380D02*
X90133809Y-38782380D01*
X90229047Y-38830000D01*
X90276666Y-38877619D01*
X90324285Y-38972857D01*
X90371904Y-39163333D01*
X90371904Y-39401428D01*
X90324285Y-39591904D01*
X90276666Y-39687142D01*
X90229047Y-39734761D01*
X90133809Y-39782380D01*
X90038571Y-39782380D01*
X89943333Y-39734761D01*
X89895714Y-39687142D01*
X89848095Y-39591904D01*
X89800476Y-39401428D01*
X89800476Y-39163333D01*
X89848095Y-38972857D01*
X89895714Y-38877619D01*
X89943333Y-38830000D01*
X90038571Y-38782380D01*
%TO.C,M5*%
X148822380Y-95959523D02*
X147822380Y-95959523D01*
X148536666Y-95626190D01*
X147822380Y-95292857D01*
X148822380Y-95292857D01*
X147822380Y-94340476D02*
X147822380Y-94816666D01*
X148298571Y-94864285D01*
X148250952Y-94816666D01*
X148203333Y-94721428D01*
X148203333Y-94483333D01*
X148250952Y-94388095D01*
X148298571Y-94340476D01*
X148393809Y-94292857D01*
X148631904Y-94292857D01*
X148727142Y-94340476D01*
X148774761Y-94388095D01*
X148822380Y-94483333D01*
X148822380Y-94721428D01*
X148774761Y-94816666D01*
X148727142Y-94864285D01*
%TO.C,SW1*%
X111309761Y-51390833D02*
X111357380Y-51247976D01*
X111357380Y-51009880D01*
X111309761Y-50914642D01*
X111262142Y-50867023D01*
X111166904Y-50819404D01*
X111071666Y-50819404D01*
X110976428Y-50867023D01*
X110928809Y-50914642D01*
X110881190Y-51009880D01*
X110833571Y-51200357D01*
X110785952Y-51295595D01*
X110738333Y-51343214D01*
X110643095Y-51390833D01*
X110547857Y-51390833D01*
X110452619Y-51343214D01*
X110405000Y-51295595D01*
X110357380Y-51200357D01*
X110357380Y-50962261D01*
X110405000Y-50819404D01*
X110357380Y-50486071D02*
X111357380Y-50247976D01*
X110643095Y-50057500D01*
X111357380Y-49867023D01*
X110357380Y-49628928D01*
X111357380Y-48724166D02*
X111357380Y-49295595D01*
X111357380Y-49009880D02*
X110357380Y-49009880D01*
X110500238Y-49105119D01*
X110595476Y-49200357D01*
X110643095Y-49295595D01*
%TO.C,H4*%
X160338095Y-21752380D02*
X160338095Y-20752380D01*
X160338095Y-21228571D02*
X160909523Y-21228571D01*
X160909523Y-21752380D02*
X160909523Y-20752380D01*
X161814285Y-21085714D02*
X161814285Y-21752380D01*
X161576190Y-20704761D02*
X161338095Y-21419047D01*
X161957142Y-21419047D01*
%TO.C,C2*%
X140157142Y-54166666D02*
X140204761Y-54214285D01*
X140252380Y-54357142D01*
X140252380Y-54452380D01*
X140204761Y-54595238D01*
X140109523Y-54690476D01*
X140014285Y-54738095D01*
X139823809Y-54785714D01*
X139680952Y-54785714D01*
X139490476Y-54738095D01*
X139395238Y-54690476D01*
X139300000Y-54595238D01*
X139252380Y-54452380D01*
X139252380Y-54357142D01*
X139300000Y-54214285D01*
X139347619Y-54166666D01*
X139347619Y-53785714D02*
X139300000Y-53738095D01*
X139252380Y-53642857D01*
X139252380Y-53404761D01*
X139300000Y-53309523D01*
X139347619Y-53261904D01*
X139442857Y-53214285D01*
X139538095Y-53214285D01*
X139680952Y-53261904D01*
X140252380Y-53833333D01*
X140252380Y-53214285D01*
%TO.C,Q6*%
X82404761Y-139372619D02*
X82309523Y-139325000D01*
X82214285Y-139229761D01*
X82071428Y-139086904D01*
X81976190Y-139039285D01*
X81880952Y-139039285D01*
X81928571Y-139277380D02*
X81833333Y-139229761D01*
X81738095Y-139134523D01*
X81690476Y-138944047D01*
X81690476Y-138610714D01*
X81738095Y-138420238D01*
X81833333Y-138325000D01*
X81928571Y-138277380D01*
X82119047Y-138277380D01*
X82214285Y-138325000D01*
X82309523Y-138420238D01*
X82357142Y-138610714D01*
X82357142Y-138944047D01*
X82309523Y-139134523D01*
X82214285Y-139229761D01*
X82119047Y-139277380D01*
X81928571Y-139277380D01*
X83214285Y-138277380D02*
X83023809Y-138277380D01*
X82928571Y-138325000D01*
X82880952Y-138372619D01*
X82785714Y-138515476D01*
X82738095Y-138705952D01*
X82738095Y-139086904D01*
X82785714Y-139182142D01*
X82833333Y-139229761D01*
X82928571Y-139277380D01*
X83119047Y-139277380D01*
X83214285Y-139229761D01*
X83261904Y-139182142D01*
X83309523Y-139086904D01*
X83309523Y-138848809D01*
X83261904Y-138753571D01*
X83214285Y-138705952D01*
X83119047Y-138658333D01*
X82928571Y-138658333D01*
X82833333Y-138705952D01*
X82785714Y-138753571D01*
X82738095Y-138848809D01*
%TO.C,R7*%
X98022380Y-127166666D02*
X97546190Y-127500000D01*
X98022380Y-127738095D02*
X97022380Y-127738095D01*
X97022380Y-127357142D01*
X97070000Y-127261904D01*
X97117619Y-127214285D01*
X97212857Y-127166666D01*
X97355714Y-127166666D01*
X97450952Y-127214285D01*
X97498571Y-127261904D01*
X97546190Y-127357142D01*
X97546190Y-127738095D01*
X97022380Y-126833333D02*
X97022380Y-126166666D01*
X98022380Y-126595238D01*
%TO.C,M2*%
X92382380Y-91259523D02*
X91382380Y-91259523D01*
X92096666Y-90926190D01*
X91382380Y-90592857D01*
X92382380Y-90592857D01*
X91477619Y-90164285D02*
X91430000Y-90116666D01*
X91382380Y-90021428D01*
X91382380Y-89783333D01*
X91430000Y-89688095D01*
X91477619Y-89640476D01*
X91572857Y-89592857D01*
X91668095Y-89592857D01*
X91810952Y-89640476D01*
X92382380Y-90211904D01*
X92382380Y-89592857D01*
%TO.C,M8*%
X149602380Y-66559523D02*
X148602380Y-66559523D01*
X149316666Y-66226190D01*
X148602380Y-65892857D01*
X149602380Y-65892857D01*
X149030952Y-65273809D02*
X148983333Y-65369047D01*
X148935714Y-65416666D01*
X148840476Y-65464285D01*
X148792857Y-65464285D01*
X148697619Y-65416666D01*
X148650000Y-65369047D01*
X148602380Y-65273809D01*
X148602380Y-65083333D01*
X148650000Y-64988095D01*
X148697619Y-64940476D01*
X148792857Y-64892857D01*
X148840476Y-64892857D01*
X148935714Y-64940476D01*
X148983333Y-64988095D01*
X149030952Y-65083333D01*
X149030952Y-65273809D01*
X149078571Y-65369047D01*
X149126190Y-65416666D01*
X149221428Y-65464285D01*
X149411904Y-65464285D01*
X149507142Y-65416666D01*
X149554761Y-65369047D01*
X149602380Y-65273809D01*
X149602380Y-65083333D01*
X149554761Y-64988095D01*
X149507142Y-64940476D01*
X149411904Y-64892857D01*
X149221428Y-64892857D01*
X149126190Y-64940476D01*
X149078571Y-64988095D01*
X149030952Y-65083333D01*
%TO.C,Q8*%
X159604761Y-131022619D02*
X159509523Y-130975000D01*
X159414285Y-130879761D01*
X159271428Y-130736904D01*
X159176190Y-130689285D01*
X159080952Y-130689285D01*
X159128571Y-130927380D02*
X159033333Y-130879761D01*
X158938095Y-130784523D01*
X158890476Y-130594047D01*
X158890476Y-130260714D01*
X158938095Y-130070238D01*
X159033333Y-129975000D01*
X159128571Y-129927380D01*
X159319047Y-129927380D01*
X159414285Y-129975000D01*
X159509523Y-130070238D01*
X159557142Y-130260714D01*
X159557142Y-130594047D01*
X159509523Y-130784523D01*
X159414285Y-130879761D01*
X159319047Y-130927380D01*
X159128571Y-130927380D01*
X160128571Y-130355952D02*
X160033333Y-130308333D01*
X159985714Y-130260714D01*
X159938095Y-130165476D01*
X159938095Y-130117857D01*
X159985714Y-130022619D01*
X160033333Y-129975000D01*
X160128571Y-129927380D01*
X160319047Y-129927380D01*
X160414285Y-129975000D01*
X160461904Y-130022619D01*
X160509523Y-130117857D01*
X160509523Y-130165476D01*
X160461904Y-130260714D01*
X160414285Y-130308333D01*
X160319047Y-130355952D01*
X160128571Y-130355952D01*
X160033333Y-130403571D01*
X159985714Y-130451190D01*
X159938095Y-130546428D01*
X159938095Y-130736904D01*
X159985714Y-130832142D01*
X160033333Y-130879761D01*
X160128571Y-130927380D01*
X160319047Y-130927380D01*
X160414285Y-130879761D01*
X160461904Y-130832142D01*
X160509523Y-130736904D01*
X160509523Y-130546428D01*
X160461904Y-130451190D01*
X160414285Y-130403571D01*
X160319047Y-130355952D01*
%TO.C,M6*%
X92382380Y-101059523D02*
X91382380Y-101059523D01*
X92096666Y-100726190D01*
X91382380Y-100392857D01*
X92382380Y-100392857D01*
X91382380Y-99488095D02*
X91382380Y-99678571D01*
X91430000Y-99773809D01*
X91477619Y-99821428D01*
X91620476Y-99916666D01*
X91810952Y-99964285D01*
X92191904Y-99964285D01*
X92287142Y-99916666D01*
X92334761Y-99869047D01*
X92382380Y-99773809D01*
X92382380Y-99583333D01*
X92334761Y-99488095D01*
X92287142Y-99440476D01*
X92191904Y-99392857D01*
X91953809Y-99392857D01*
X91858571Y-99440476D01*
X91810952Y-99488095D01*
X91763333Y-99583333D01*
X91763333Y-99773809D01*
X91810952Y-99869047D01*
X91858571Y-99916666D01*
X91953809Y-99964285D01*
%TO.C,M26*%
X100364285Y-128722380D02*
X100364285Y-127722380D01*
X100697619Y-128436666D01*
X101030952Y-127722380D01*
X101030952Y-128722380D01*
X101459523Y-127817619D02*
X101507142Y-127770000D01*
X101602380Y-127722380D01*
X101840476Y-127722380D01*
X101935714Y-127770000D01*
X101983333Y-127817619D01*
X102030952Y-127912857D01*
X102030952Y-128008095D01*
X101983333Y-128150952D01*
X101411904Y-128722380D01*
X102030952Y-128722380D01*
X102888095Y-127722380D02*
X102697619Y-127722380D01*
X102602380Y-127770000D01*
X102554761Y-127817619D01*
X102459523Y-127960476D01*
X102411904Y-128150952D01*
X102411904Y-128531904D01*
X102459523Y-128627142D01*
X102507142Y-128674761D01*
X102602380Y-128722380D01*
X102792857Y-128722380D01*
X102888095Y-128674761D01*
X102935714Y-128627142D01*
X102983333Y-128531904D01*
X102983333Y-128293809D01*
X102935714Y-128198571D01*
X102888095Y-128150952D01*
X102792857Y-128103333D01*
X102602380Y-128103333D01*
X102507142Y-128150952D01*
X102459523Y-128198571D01*
X102411904Y-128293809D01*
%TO.C,R5*%
X139233333Y-119482380D02*
X138900000Y-119006190D01*
X138661904Y-119482380D02*
X138661904Y-118482380D01*
X139042857Y-118482380D01*
X139138095Y-118530000D01*
X139185714Y-118577619D01*
X139233333Y-118672857D01*
X139233333Y-118815714D01*
X139185714Y-118910952D01*
X139138095Y-118958571D01*
X139042857Y-119006190D01*
X138661904Y-119006190D01*
X140138095Y-118482380D02*
X139661904Y-118482380D01*
X139614285Y-118958571D01*
X139661904Y-118910952D01*
X139757142Y-118863333D01*
X139995238Y-118863333D01*
X140090476Y-118910952D01*
X140138095Y-118958571D01*
X140185714Y-119053809D01*
X140185714Y-119291904D01*
X140138095Y-119387142D01*
X140090476Y-119434761D01*
X139995238Y-119482380D01*
X139757142Y-119482380D01*
X139661904Y-119434761D01*
X139614285Y-119387142D01*
%TO.C,J4*%
X96766666Y-46522380D02*
X96766666Y-47236666D01*
X96719047Y-47379523D01*
X96623809Y-47474761D01*
X96480952Y-47522380D01*
X96385714Y-47522380D01*
X97671428Y-46855714D02*
X97671428Y-47522380D01*
X97433333Y-46474761D02*
X97195238Y-47189047D01*
X97814285Y-47189047D01*
%TO.C,M4*%
X92382380Y-96159523D02*
X91382380Y-96159523D01*
X92096666Y-95826190D01*
X91382380Y-95492857D01*
X92382380Y-95492857D01*
X91715714Y-94588095D02*
X92382380Y-94588095D01*
X91334761Y-94826190D02*
X92049047Y-95064285D01*
X92049047Y-94445238D01*
%TO.C,M22*%
X148922380Y-116035714D02*
X147922380Y-116035714D01*
X148636666Y-115702380D01*
X147922380Y-115369047D01*
X148922380Y-115369047D01*
X148017619Y-114940476D02*
X147970000Y-114892857D01*
X147922380Y-114797619D01*
X147922380Y-114559523D01*
X147970000Y-114464285D01*
X148017619Y-114416666D01*
X148112857Y-114369047D01*
X148208095Y-114369047D01*
X148350952Y-114416666D01*
X148922380Y-114988095D01*
X148922380Y-114369047D01*
X148017619Y-113988095D02*
X147970000Y-113940476D01*
X147922380Y-113845238D01*
X147922380Y-113607142D01*
X147970000Y-113511904D01*
X148017619Y-113464285D01*
X148112857Y-113416666D01*
X148208095Y-113416666D01*
X148350952Y-113464285D01*
X148922380Y-114035714D01*
X148922380Y-113416666D01*
%TO.C,J3*%
X120736666Y-65482380D02*
X120736666Y-66196666D01*
X120689047Y-66339523D01*
X120593809Y-66434761D01*
X120450952Y-66482380D01*
X120355714Y-66482380D01*
X121117619Y-65482380D02*
X121736666Y-65482380D01*
X121403333Y-65863333D01*
X121546190Y-65863333D01*
X121641428Y-65910952D01*
X121689047Y-65958571D01*
X121736666Y-66053809D01*
X121736666Y-66291904D01*
X121689047Y-66387142D01*
X121641428Y-66434761D01*
X121546190Y-66482380D01*
X121260476Y-66482380D01*
X121165238Y-66434761D01*
X121117619Y-66387142D01*
%TO.C,R39*%
X150944370Y-122358844D02*
X150843355Y-122931263D01*
X151348431Y-122762905D02*
X150641324Y-123470011D01*
X150371950Y-123200637D01*
X150338278Y-123099622D01*
X150338278Y-123032279D01*
X150371950Y-122931263D01*
X150472965Y-122830248D01*
X150573981Y-122796576D01*
X150641324Y-122796576D01*
X150742339Y-122830248D01*
X151011713Y-123099622D01*
X150001561Y-122830248D02*
X149563828Y-122392515D01*
X150068904Y-122358844D01*
X149967889Y-122257828D01*
X149934217Y-122156813D01*
X149934217Y-122089469D01*
X149967889Y-121988454D01*
X150136248Y-121820095D01*
X150237263Y-121786424D01*
X150304607Y-121786424D01*
X150405622Y-121820095D01*
X150607652Y-122022126D01*
X150641324Y-122123141D01*
X150641324Y-122190485D01*
X149934217Y-121348691D02*
X149799530Y-121214004D01*
X149698515Y-121180332D01*
X149631171Y-121180332D01*
X149462813Y-121214004D01*
X149294454Y-121315019D01*
X149025080Y-121584393D01*
X148991408Y-121685408D01*
X148991408Y-121752752D01*
X149025080Y-121853767D01*
X149159767Y-121988454D01*
X149260782Y-122022126D01*
X149328126Y-122022126D01*
X149429141Y-121988454D01*
X149597500Y-121820095D01*
X149631171Y-121719080D01*
X149631171Y-121651737D01*
X149597500Y-121550721D01*
X149462813Y-121416034D01*
X149361797Y-121382363D01*
X149294454Y-121382363D01*
X149193439Y-121416034D01*
%TO.C,J9*%
X92412380Y-48273333D02*
X93126666Y-48273333D01*
X93269523Y-48320952D01*
X93364761Y-48416190D01*
X93412380Y-48559047D01*
X93412380Y-48654285D01*
X93412380Y-47749523D02*
X93412380Y-47559047D01*
X93364761Y-47463809D01*
X93317142Y-47416190D01*
X93174285Y-47320952D01*
X92983809Y-47273333D01*
X92602857Y-47273333D01*
X92507619Y-47320952D01*
X92460000Y-47368571D01*
X92412380Y-47463809D01*
X92412380Y-47654285D01*
X92460000Y-47749523D01*
X92507619Y-47797142D01*
X92602857Y-47844761D01*
X92840952Y-47844761D01*
X92936190Y-47797142D01*
X92983809Y-47749523D01*
X93031428Y-47654285D01*
X93031428Y-47463809D01*
X92983809Y-47368571D01*
X92936190Y-47320952D01*
X92840952Y-47273333D01*
%TO.C,J12*%
X141120476Y-65482380D02*
X141120476Y-66196666D01*
X141072857Y-66339523D01*
X140977619Y-66434761D01*
X140834761Y-66482380D01*
X140739523Y-66482380D01*
X142120476Y-66482380D02*
X141549047Y-66482380D01*
X141834761Y-66482380D02*
X141834761Y-65482380D01*
X141739523Y-65625238D01*
X141644285Y-65720476D01*
X141549047Y-65768095D01*
X142501428Y-65577619D02*
X142549047Y-65530000D01*
X142644285Y-65482380D01*
X142882380Y-65482380D01*
X142977619Y-65530000D01*
X143025238Y-65577619D01*
X143072857Y-65672857D01*
X143072857Y-65768095D01*
X143025238Y-65910952D01*
X142453809Y-66482380D01*
X143072857Y-66482380D01*
%TO.C,M25*%
X105014285Y-128722380D02*
X105014285Y-127722380D01*
X105347619Y-128436666D01*
X105680952Y-127722380D01*
X105680952Y-128722380D01*
X106109523Y-127817619D02*
X106157142Y-127770000D01*
X106252380Y-127722380D01*
X106490476Y-127722380D01*
X106585714Y-127770000D01*
X106633333Y-127817619D01*
X106680952Y-127912857D01*
X106680952Y-128008095D01*
X106633333Y-128150952D01*
X106061904Y-128722380D01*
X106680952Y-128722380D01*
X107585714Y-127722380D02*
X107109523Y-127722380D01*
X107061904Y-128198571D01*
X107109523Y-128150952D01*
X107204761Y-128103333D01*
X107442857Y-128103333D01*
X107538095Y-128150952D01*
X107585714Y-128198571D01*
X107633333Y-128293809D01*
X107633333Y-128531904D01*
X107585714Y-128627142D01*
X107538095Y-128674761D01*
X107442857Y-128722380D01*
X107204761Y-128722380D01*
X107109523Y-128674761D01*
X107061904Y-128627142D01*
%TO.C,Q5*%
X96747619Y-134495238D02*
X96700000Y-134590476D01*
X96604761Y-134685714D01*
X96461904Y-134828571D01*
X96414285Y-134923809D01*
X96414285Y-135019047D01*
X96652380Y-134971428D02*
X96604761Y-135066666D01*
X96509523Y-135161904D01*
X96319047Y-135209523D01*
X95985714Y-135209523D01*
X95795238Y-135161904D01*
X95700000Y-135066666D01*
X95652380Y-134971428D01*
X95652380Y-134780952D01*
X95700000Y-134685714D01*
X95795238Y-134590476D01*
X95985714Y-134542857D01*
X96319047Y-134542857D01*
X96509523Y-134590476D01*
X96604761Y-134685714D01*
X96652380Y-134780952D01*
X96652380Y-134971428D01*
X95652380Y-133638095D02*
X95652380Y-134114285D01*
X96128571Y-134161904D01*
X96080952Y-134114285D01*
X96033333Y-134019047D01*
X96033333Y-133780952D01*
X96080952Y-133685714D01*
X96128571Y-133638095D01*
X96223809Y-133590476D01*
X96461904Y-133590476D01*
X96557142Y-133638095D01*
X96604761Y-133685714D01*
X96652380Y-133780952D01*
X96652380Y-134019047D01*
X96604761Y-134114285D01*
X96557142Y-134161904D01*
%TO.C,J8*%
X102707380Y-46133333D02*
X103421666Y-46133333D01*
X103564523Y-46180952D01*
X103659761Y-46276190D01*
X103707380Y-46419047D01*
X103707380Y-46514285D01*
X103135952Y-45514285D02*
X103088333Y-45609523D01*
X103040714Y-45657142D01*
X102945476Y-45704761D01*
X102897857Y-45704761D01*
X102802619Y-45657142D01*
X102755000Y-45609523D01*
X102707380Y-45514285D01*
X102707380Y-45323809D01*
X102755000Y-45228571D01*
X102802619Y-45180952D01*
X102897857Y-45133333D01*
X102945476Y-45133333D01*
X103040714Y-45180952D01*
X103088333Y-45228571D01*
X103135952Y-45323809D01*
X103135952Y-45514285D01*
X103183571Y-45609523D01*
X103231190Y-45657142D01*
X103326428Y-45704761D01*
X103516904Y-45704761D01*
X103612142Y-45657142D01*
X103659761Y-45609523D01*
X103707380Y-45514285D01*
X103707380Y-45323809D01*
X103659761Y-45228571D01*
X103612142Y-45180952D01*
X103516904Y-45133333D01*
X103326428Y-45133333D01*
X103231190Y-45180952D01*
X103183571Y-45228571D01*
X103135952Y-45323809D01*
%TO.C,C1*%
X135657142Y-132066666D02*
X135704761Y-132114285D01*
X135752380Y-132257142D01*
X135752380Y-132352380D01*
X135704761Y-132495238D01*
X135609523Y-132590476D01*
X135514285Y-132638095D01*
X135323809Y-132685714D01*
X135180952Y-132685714D01*
X134990476Y-132638095D01*
X134895238Y-132590476D01*
X134800000Y-132495238D01*
X134752380Y-132352380D01*
X134752380Y-132257142D01*
X134800000Y-132114285D01*
X134847619Y-132066666D01*
X135752380Y-131114285D02*
X135752380Y-131685714D01*
X135752380Y-131400000D02*
X134752380Y-131400000D01*
X134895238Y-131495238D01*
X134990476Y-131590476D01*
X135038095Y-131685714D01*
%TO.C,M17*%
X92382380Y-81935714D02*
X91382380Y-81935714D01*
X92096666Y-81602380D01*
X91382380Y-81269047D01*
X92382380Y-81269047D01*
X92382380Y-80269047D02*
X92382380Y-80840476D01*
X92382380Y-80554761D02*
X91382380Y-80554761D01*
X91525238Y-80650000D01*
X91620476Y-80745238D01*
X91668095Y-80840476D01*
X91382380Y-79935714D02*
X91382380Y-79269047D01*
X92382380Y-79697619D01*
%TO.C,R3*%
X101022380Y-127166666D02*
X100546190Y-127500000D01*
X101022380Y-127738095D02*
X100022380Y-127738095D01*
X100022380Y-127357142D01*
X100070000Y-127261904D01*
X100117619Y-127214285D01*
X100212857Y-127166666D01*
X100355714Y-127166666D01*
X100450952Y-127214285D01*
X100498571Y-127261904D01*
X100546190Y-127357142D01*
X100546190Y-127738095D01*
X100022380Y-126833333D02*
X100022380Y-126214285D01*
X100403333Y-126547619D01*
X100403333Y-126404761D01*
X100450952Y-126309523D01*
X100498571Y-126261904D01*
X100593809Y-126214285D01*
X100831904Y-126214285D01*
X100927142Y-126261904D01*
X100974761Y-126309523D01*
X101022380Y-126404761D01*
X101022380Y-126690476D01*
X100974761Y-126785714D01*
X100927142Y-126833333D01*
%TO.C,M16*%
X149602380Y-76835714D02*
X148602380Y-76835714D01*
X149316666Y-76502380D01*
X148602380Y-76169047D01*
X149602380Y-76169047D01*
X149602380Y-75169047D02*
X149602380Y-75740476D01*
X149602380Y-75454761D02*
X148602380Y-75454761D01*
X148745238Y-75550000D01*
X148840476Y-75645238D01*
X148888095Y-75740476D01*
X148602380Y-74311904D02*
X148602380Y-74502380D01*
X148650000Y-74597619D01*
X148697619Y-74645238D01*
X148840476Y-74740476D01*
X149030952Y-74788095D01*
X149411904Y-74788095D01*
X149507142Y-74740476D01*
X149554761Y-74692857D01*
X149602380Y-74597619D01*
X149602380Y-74407142D01*
X149554761Y-74311904D01*
X149507142Y-74264285D01*
X149411904Y-74216666D01*
X149173809Y-74216666D01*
X149078571Y-74264285D01*
X149030952Y-74311904D01*
X148983333Y-74407142D01*
X148983333Y-74597619D01*
X149030952Y-74692857D01*
X149078571Y-74740476D01*
X149173809Y-74788095D01*
%TO.C,R38*%
X95022380Y-126342857D02*
X94546190Y-126676190D01*
X95022380Y-126914285D02*
X94022380Y-126914285D01*
X94022380Y-126533333D01*
X94070000Y-126438095D01*
X94117619Y-126390476D01*
X94212857Y-126342857D01*
X94355714Y-126342857D01*
X94450952Y-126390476D01*
X94498571Y-126438095D01*
X94546190Y-126533333D01*
X94546190Y-126914285D01*
X94022380Y-126009523D02*
X94022380Y-125390476D01*
X94403333Y-125723809D01*
X94403333Y-125580952D01*
X94450952Y-125485714D01*
X94498571Y-125438095D01*
X94593809Y-125390476D01*
X94831904Y-125390476D01*
X94927142Y-125438095D01*
X94974761Y-125485714D01*
X95022380Y-125580952D01*
X95022380Y-125866666D01*
X94974761Y-125961904D01*
X94927142Y-126009523D01*
X94450952Y-124819047D02*
X94403333Y-124914285D01*
X94355714Y-124961904D01*
X94260476Y-125009523D01*
X94212857Y-125009523D01*
X94117619Y-124961904D01*
X94070000Y-124914285D01*
X94022380Y-124819047D01*
X94022380Y-124628571D01*
X94070000Y-124533333D01*
X94117619Y-124485714D01*
X94212857Y-124438095D01*
X94260476Y-124438095D01*
X94355714Y-124485714D01*
X94403333Y-124533333D01*
X94450952Y-124628571D01*
X94450952Y-124819047D01*
X94498571Y-124914285D01*
X94546190Y-124961904D01*
X94641428Y-125009523D01*
X94831904Y-125009523D01*
X94927142Y-124961904D01*
X94974761Y-124914285D01*
X95022380Y-124819047D01*
X95022380Y-124628571D01*
X94974761Y-124533333D01*
X94927142Y-124485714D01*
X94831904Y-124438095D01*
X94641428Y-124438095D01*
X94546190Y-124485714D01*
X94498571Y-124533333D01*
X94450952Y-124628571D01*
%TO.C,C3*%
X140157142Y-48566666D02*
X140204761Y-48614285D01*
X140252380Y-48757142D01*
X140252380Y-48852380D01*
X140204761Y-48995238D01*
X140109523Y-49090476D01*
X140014285Y-49138095D01*
X139823809Y-49185714D01*
X139680952Y-49185714D01*
X139490476Y-49138095D01*
X139395238Y-49090476D01*
X139300000Y-48995238D01*
X139252380Y-48852380D01*
X139252380Y-48757142D01*
X139300000Y-48614285D01*
X139347619Y-48566666D01*
X139252380Y-48233333D02*
X139252380Y-47614285D01*
X139633333Y-47947619D01*
X139633333Y-47804761D01*
X139680952Y-47709523D01*
X139728571Y-47661904D01*
X139823809Y-47614285D01*
X140061904Y-47614285D01*
X140157142Y-47661904D01*
X140204761Y-47709523D01*
X140252380Y-47804761D01*
X140252380Y-48090476D01*
X140204761Y-48185714D01*
X140157142Y-48233333D01*
%TO.C,M15*%
X92382380Y-77035714D02*
X91382380Y-77035714D01*
X92096666Y-76702380D01*
X91382380Y-76369047D01*
X92382380Y-76369047D01*
X92382380Y-75369047D02*
X92382380Y-75940476D01*
X92382380Y-75654761D02*
X91382380Y-75654761D01*
X91525238Y-75750000D01*
X91620476Y-75845238D01*
X91668095Y-75940476D01*
X91382380Y-74464285D02*
X91382380Y-74940476D01*
X91858571Y-74988095D01*
X91810952Y-74940476D01*
X91763333Y-74845238D01*
X91763333Y-74607142D01*
X91810952Y-74511904D01*
X91858571Y-74464285D01*
X91953809Y-74416666D01*
X92191904Y-74416666D01*
X92287142Y-74464285D01*
X92334761Y-74511904D01*
X92382380Y-74607142D01*
X92382380Y-74845238D01*
X92334761Y-74940476D01*
X92287142Y-74988095D01*
%TO.C,M7*%
X92382380Y-66759523D02*
X91382380Y-66759523D01*
X92096666Y-66426190D01*
X91382380Y-66092857D01*
X92382380Y-66092857D01*
X91382380Y-65711904D02*
X91382380Y-65045238D01*
X92382380Y-65473809D01*
%TO.C,M3*%
X148922380Y-91009523D02*
X147922380Y-91009523D01*
X148636666Y-90676190D01*
X147922380Y-90342857D01*
X148922380Y-90342857D01*
X147922380Y-89961904D02*
X147922380Y-89342857D01*
X148303333Y-89676190D01*
X148303333Y-89533333D01*
X148350952Y-89438095D01*
X148398571Y-89390476D01*
X148493809Y-89342857D01*
X148731904Y-89342857D01*
X148827142Y-89390476D01*
X148874761Y-89438095D01*
X148922380Y-89533333D01*
X148922380Y-89819047D01*
X148874761Y-89914285D01*
X148827142Y-89961904D01*
%TO.C,M12*%
X149602380Y-71935714D02*
X148602380Y-71935714D01*
X149316666Y-71602380D01*
X148602380Y-71269047D01*
X149602380Y-71269047D01*
X149602380Y-70269047D02*
X149602380Y-70840476D01*
X149602380Y-70554761D02*
X148602380Y-70554761D01*
X148745238Y-70650000D01*
X148840476Y-70745238D01*
X148888095Y-70840476D01*
X148697619Y-69888095D02*
X148650000Y-69840476D01*
X148602380Y-69745238D01*
X148602380Y-69507142D01*
X148650000Y-69411904D01*
X148697619Y-69364285D01*
X148792857Y-69316666D01*
X148888095Y-69316666D01*
X149030952Y-69364285D01*
X149602380Y-69935714D01*
X149602380Y-69316666D01*
%TO.C,C4*%
X125557142Y-128466666D02*
X125604761Y-128514285D01*
X125652380Y-128657142D01*
X125652380Y-128752380D01*
X125604761Y-128895238D01*
X125509523Y-128990476D01*
X125414285Y-129038095D01*
X125223809Y-129085714D01*
X125080952Y-129085714D01*
X124890476Y-129038095D01*
X124795238Y-128990476D01*
X124700000Y-128895238D01*
X124652380Y-128752380D01*
X124652380Y-128657142D01*
X124700000Y-128514285D01*
X124747619Y-128466666D01*
X124985714Y-127609523D02*
X125652380Y-127609523D01*
X124604761Y-127847619D02*
X125319047Y-128085714D01*
X125319047Y-127466666D01*
%TO.C,M9*%
X148822380Y-100809523D02*
X147822380Y-100809523D01*
X148536666Y-100476190D01*
X147822380Y-100142857D01*
X148822380Y-100142857D01*
X148822380Y-99619047D02*
X148822380Y-99428571D01*
X148774761Y-99333333D01*
X148727142Y-99285714D01*
X148584285Y-99190476D01*
X148393809Y-99142857D01*
X148012857Y-99142857D01*
X147917619Y-99190476D01*
X147870000Y-99238095D01*
X147822380Y-99333333D01*
X147822380Y-99523809D01*
X147870000Y-99619047D01*
X147917619Y-99666666D01*
X148012857Y-99714285D01*
X148250952Y-99714285D01*
X148346190Y-99666666D01*
X148393809Y-99619047D01*
X148441428Y-99523809D01*
X148441428Y-99333333D01*
X148393809Y-99238095D01*
X148346190Y-99190476D01*
X148250952Y-99142857D01*
%TO.C,R2*%
X153843841Y-118912490D02*
X153944697Y-119484938D01*
X154361731Y-119153987D02*
X153939113Y-120060294D01*
X153593853Y-119899297D01*
X153527663Y-119815890D01*
X153504630Y-119752608D01*
X153501722Y-119646168D01*
X153562096Y-119516696D01*
X153645503Y-119450505D01*
X153708785Y-119427473D01*
X153815225Y-119424564D01*
X154160485Y-119585562D01*
X153116212Y-119571486D02*
X153052930Y-119594519D01*
X152946490Y-119597427D01*
X152730703Y-119496803D01*
X152664512Y-119413397D01*
X152641480Y-119350114D01*
X152638571Y-119243675D01*
X152678821Y-119157360D01*
X152782352Y-119048012D01*
X153541739Y-118771618D01*
X152980691Y-118509997D01*
%TO.C,M11*%
X92382380Y-72135714D02*
X91382380Y-72135714D01*
X92096666Y-71802380D01*
X91382380Y-71469047D01*
X92382380Y-71469047D01*
X92382380Y-70469047D02*
X92382380Y-71040476D01*
X92382380Y-70754761D02*
X91382380Y-70754761D01*
X91525238Y-70850000D01*
X91620476Y-70945238D01*
X91668095Y-71040476D01*
X92382380Y-69516666D02*
X92382380Y-70088095D01*
X92382380Y-69802380D02*
X91382380Y-69802380D01*
X91525238Y-69897619D01*
X91620476Y-69992857D01*
X91668095Y-70088095D01*
%TO.C,Q4*%
X159704761Y-122222619D02*
X159609523Y-122175000D01*
X159514285Y-122079761D01*
X159371428Y-121936904D01*
X159276190Y-121889285D01*
X159180952Y-121889285D01*
X159228571Y-122127380D02*
X159133333Y-122079761D01*
X159038095Y-121984523D01*
X158990476Y-121794047D01*
X158990476Y-121460714D01*
X159038095Y-121270238D01*
X159133333Y-121175000D01*
X159228571Y-121127380D01*
X159419047Y-121127380D01*
X159514285Y-121175000D01*
X159609523Y-121270238D01*
X159657142Y-121460714D01*
X159657142Y-121794047D01*
X159609523Y-121984523D01*
X159514285Y-122079761D01*
X159419047Y-122127380D01*
X159228571Y-122127380D01*
X160514285Y-121460714D02*
X160514285Y-122127380D01*
X160276190Y-121079761D02*
X160038095Y-121794047D01*
X160657142Y-121794047D01*
%TO.C,M21*%
X92382380Y-116235714D02*
X91382380Y-116235714D01*
X92096666Y-115902380D01*
X91382380Y-115569047D01*
X92382380Y-115569047D01*
X91477619Y-115140476D02*
X91430000Y-115092857D01*
X91382380Y-114997619D01*
X91382380Y-114759523D01*
X91430000Y-114664285D01*
X91477619Y-114616666D01*
X91572857Y-114569047D01*
X91668095Y-114569047D01*
X91810952Y-114616666D01*
X92382380Y-115188095D01*
X92382380Y-114569047D01*
X92382380Y-113616666D02*
X92382380Y-114188095D01*
X92382380Y-113902380D02*
X91382380Y-113902380D01*
X91525238Y-113997619D01*
X91620476Y-114092857D01*
X91668095Y-114188095D01*
%TO.C,R37*%
X108737142Y-66782380D02*
X108403809Y-66306190D01*
X108165714Y-66782380D02*
X108165714Y-65782380D01*
X108546666Y-65782380D01*
X108641904Y-65830000D01*
X108689523Y-65877619D01*
X108737142Y-65972857D01*
X108737142Y-66115714D01*
X108689523Y-66210952D01*
X108641904Y-66258571D01*
X108546666Y-66306190D01*
X108165714Y-66306190D01*
X109070476Y-65782380D02*
X109689523Y-65782380D01*
X109356190Y-66163333D01*
X109499047Y-66163333D01*
X109594285Y-66210952D01*
X109641904Y-66258571D01*
X109689523Y-66353809D01*
X109689523Y-66591904D01*
X109641904Y-66687142D01*
X109594285Y-66734761D01*
X109499047Y-66782380D01*
X109213333Y-66782380D01*
X109118095Y-66734761D01*
X109070476Y-66687142D01*
X110022857Y-65782380D02*
X110689523Y-65782380D01*
X110260952Y-66782380D01*
%TO.C,M24*%
X149602380Y-86635714D02*
X148602380Y-86635714D01*
X149316666Y-86302380D01*
X148602380Y-85969047D01*
X149602380Y-85969047D01*
X148697619Y-85540476D02*
X148650000Y-85492857D01*
X148602380Y-85397619D01*
X148602380Y-85159523D01*
X148650000Y-85064285D01*
X148697619Y-85016666D01*
X148792857Y-84969047D01*
X148888095Y-84969047D01*
X149030952Y-85016666D01*
X149602380Y-85588095D01*
X149602380Y-84969047D01*
X148935714Y-84111904D02*
X149602380Y-84111904D01*
X148554761Y-84350000D02*
X149269047Y-84588095D01*
X149269047Y-83969047D01*
%TO.C,C8*%
X124233333Y-41857142D02*
X124185714Y-41904761D01*
X124042857Y-41952380D01*
X123947619Y-41952380D01*
X123804761Y-41904761D01*
X123709523Y-41809523D01*
X123661904Y-41714285D01*
X123614285Y-41523809D01*
X123614285Y-41380952D01*
X123661904Y-41190476D01*
X123709523Y-41095238D01*
X123804761Y-41000000D01*
X123947619Y-40952380D01*
X124042857Y-40952380D01*
X124185714Y-41000000D01*
X124233333Y-41047619D01*
X124804761Y-41380952D02*
X124709523Y-41333333D01*
X124661904Y-41285714D01*
X124614285Y-41190476D01*
X124614285Y-41142857D01*
X124661904Y-41047619D01*
X124709523Y-41000000D01*
X124804761Y-40952380D01*
X124995238Y-40952380D01*
X125090476Y-41000000D01*
X125138095Y-41047619D01*
X125185714Y-41142857D01*
X125185714Y-41190476D01*
X125138095Y-41285714D01*
X125090476Y-41333333D01*
X124995238Y-41380952D01*
X124804761Y-41380952D01*
X124709523Y-41428571D01*
X124661904Y-41476190D01*
X124614285Y-41571428D01*
X124614285Y-41761904D01*
X124661904Y-41857142D01*
X124709523Y-41904761D01*
X124804761Y-41952380D01*
X124995238Y-41952380D01*
X125090476Y-41904761D01*
X125138095Y-41857142D01*
X125185714Y-41761904D01*
X125185714Y-41571428D01*
X125138095Y-41476190D01*
X125090476Y-41428571D01*
X124995238Y-41380952D01*
%TO.C,C6*%
X115157142Y-131366666D02*
X115204761Y-131414285D01*
X115252380Y-131557142D01*
X115252380Y-131652380D01*
X115204761Y-131795238D01*
X115109523Y-131890476D01*
X115014285Y-131938095D01*
X114823809Y-131985714D01*
X114680952Y-131985714D01*
X114490476Y-131938095D01*
X114395238Y-131890476D01*
X114300000Y-131795238D01*
X114252380Y-131652380D01*
X114252380Y-131557142D01*
X114300000Y-131414285D01*
X114347619Y-131366666D01*
X114252380Y-130509523D02*
X114252380Y-130700000D01*
X114300000Y-130795238D01*
X114347619Y-130842857D01*
X114490476Y-130938095D01*
X114680952Y-130985714D01*
X115061904Y-130985714D01*
X115157142Y-130938095D01*
X115204761Y-130890476D01*
X115252380Y-130795238D01*
X115252380Y-130604761D01*
X115204761Y-130509523D01*
X115157142Y-130461904D01*
X115061904Y-130414285D01*
X114823809Y-130414285D01*
X114728571Y-130461904D01*
X114680952Y-130509523D01*
X114633333Y-130604761D01*
X114633333Y-130795238D01*
X114680952Y-130890476D01*
X114728571Y-130938095D01*
X114823809Y-130985714D01*
%TO.C,R10*%
X153922380Y-137342857D02*
X153446190Y-137676190D01*
X153922380Y-137914285D02*
X152922380Y-137914285D01*
X152922380Y-137533333D01*
X152970000Y-137438095D01*
X153017619Y-137390476D01*
X153112857Y-137342857D01*
X153255714Y-137342857D01*
X153350952Y-137390476D01*
X153398571Y-137438095D01*
X153446190Y-137533333D01*
X153446190Y-137914285D01*
X153922380Y-136390476D02*
X153922380Y-136961904D01*
X153922380Y-136676190D02*
X152922380Y-136676190D01*
X153065238Y-136771428D01*
X153160476Y-136866666D01*
X153208095Y-136961904D01*
X152922380Y-135771428D02*
X152922380Y-135676190D01*
X152970000Y-135580952D01*
X153017619Y-135533333D01*
X153112857Y-135485714D01*
X153303333Y-135438095D01*
X153541428Y-135438095D01*
X153731904Y-135485714D01*
X153827142Y-135533333D01*
X153874761Y-135580952D01*
X153922380Y-135676190D01*
X153922380Y-135771428D01*
X153874761Y-135866666D01*
X153827142Y-135914285D01*
X153731904Y-135961904D01*
X153541428Y-136009523D01*
X153303333Y-136009523D01*
X153112857Y-135961904D01*
X153017619Y-135914285D01*
X152970000Y-135866666D01*
X152922380Y-135771428D01*
D11*
%TO.C,U3*%
X103941600Y-22904913D02*
X103941600Y-23933009D01*
X104002077Y-24053961D01*
X104062553Y-24114437D01*
X104183505Y-24174913D01*
X104425410Y-24174913D01*
X104546362Y-24114437D01*
X104606839Y-24053961D01*
X104667315Y-23933009D01*
X104667315Y-22904913D01*
X105151124Y-22904913D02*
X105937315Y-22904913D01*
X105513981Y-23388723D01*
X105695410Y-23388723D01*
X105816362Y-23449199D01*
X105876839Y-23509675D01*
X105937315Y-23630628D01*
X105937315Y-23933009D01*
X105876839Y-24053961D01*
X105816362Y-24114437D01*
X105695410Y-24174913D01*
X105332553Y-24174913D01*
X105211600Y-24114437D01*
X105151124Y-24053961D01*
X102097077Y-21466790D02*
X101976124Y-21406313D01*
X101794696Y-21406313D01*
X101613267Y-21466790D01*
X101492315Y-21587742D01*
X101431839Y-21708694D01*
X101371362Y-21950599D01*
X101371362Y-22132028D01*
X101431839Y-22373932D01*
X101492315Y-22494885D01*
X101613267Y-22615837D01*
X101794696Y-22676313D01*
X101915648Y-22676313D01*
X102097077Y-22615837D01*
X102157553Y-22555361D01*
X102157553Y-22132028D01*
X101915648Y-22132028D01*
X102943743Y-22071551D02*
X102943743Y-22676313D01*
X102520410Y-21406313D02*
X102943743Y-22071551D01*
X103367077Y-21406313D01*
X103790410Y-22192504D02*
X104758029Y-22192504D01*
X105967553Y-21406313D02*
X105362791Y-21406313D01*
X105302315Y-22011075D01*
X105362791Y-21950599D01*
X105483743Y-21890123D01*
X105786124Y-21890123D01*
X105907077Y-21950599D01*
X105967553Y-22011075D01*
X106028029Y-22132028D01*
X106028029Y-22434409D01*
X105967553Y-22555361D01*
X105907077Y-22615837D01*
X105786124Y-22676313D01*
X105483743Y-22676313D01*
X105362791Y-22615837D01*
X105302315Y-22555361D01*
X106511839Y-21527266D02*
X106572315Y-21466790D01*
X106693267Y-21406313D01*
X106995648Y-21406313D01*
X107116600Y-21466790D01*
X107177077Y-21527266D01*
X107237553Y-21648218D01*
X107237553Y-21769170D01*
X107177077Y-21950599D01*
X106451362Y-22676313D01*
X107237553Y-22676313D01*
X108447077Y-22676313D02*
X107721362Y-22676313D01*
X108084220Y-22676313D02*
X108084220Y-21406313D01*
X107963267Y-21587742D01*
X107842315Y-21708694D01*
X107721362Y-21769170D01*
X108500417Y-28269030D02*
X109347083Y-27966650D01*
X108500417Y-27664269D02*
X109347083Y-27966650D01*
X109649464Y-28087602D01*
X109709940Y-28148078D01*
X109770417Y-28269030D01*
X112847203Y-25299529D02*
X112000537Y-24634290D01*
X112000537Y-25299529D02*
X112847203Y-24634290D01*
D10*
%TO.C,H2*%
X105538095Y-99352380D02*
X105538095Y-98352380D01*
X105538095Y-98828571D02*
X106109523Y-98828571D01*
X106109523Y-99352380D02*
X106109523Y-98352380D01*
X106538095Y-98447619D02*
X106585714Y-98400000D01*
X106680952Y-98352380D01*
X106919047Y-98352380D01*
X107014285Y-98400000D01*
X107061904Y-98447619D01*
X107109523Y-98542857D01*
X107109523Y-98638095D01*
X107061904Y-98780952D01*
X106490476Y-99352380D01*
X107109523Y-99352380D01*
%TO.C,U1*%
X153027380Y-39171904D02*
X153836904Y-39171904D01*
X153932142Y-39124285D01*
X153979761Y-39076666D01*
X154027380Y-38981428D01*
X154027380Y-38790952D01*
X153979761Y-38695714D01*
X153932142Y-38648095D01*
X153836904Y-38600476D01*
X153027380Y-38600476D01*
X154027380Y-37600476D02*
X154027380Y-38171904D01*
X154027380Y-37886190D02*
X153027380Y-37886190D01*
X153170238Y-37981428D01*
X153265476Y-38076666D01*
X153313095Y-38171904D01*
%TO.C,M18*%
X149602380Y-81735714D02*
X148602380Y-81735714D01*
X149316666Y-81402380D01*
X148602380Y-81069047D01*
X149602380Y-81069047D01*
X149602380Y-80069047D02*
X149602380Y-80640476D01*
X149602380Y-80354761D02*
X148602380Y-80354761D01*
X148745238Y-80450000D01*
X148840476Y-80545238D01*
X148888095Y-80640476D01*
X149030952Y-79497619D02*
X148983333Y-79592857D01*
X148935714Y-79640476D01*
X148840476Y-79688095D01*
X148792857Y-79688095D01*
X148697619Y-79640476D01*
X148650000Y-79592857D01*
X148602380Y-79497619D01*
X148602380Y-79307142D01*
X148650000Y-79211904D01*
X148697619Y-79164285D01*
X148792857Y-79116666D01*
X148840476Y-79116666D01*
X148935714Y-79164285D01*
X148983333Y-79211904D01*
X149030952Y-79307142D01*
X149030952Y-79497619D01*
X149078571Y-79592857D01*
X149126190Y-79640476D01*
X149221428Y-79688095D01*
X149411904Y-79688095D01*
X149507142Y-79640476D01*
X149554761Y-79592857D01*
X149602380Y-79497619D01*
X149602380Y-79307142D01*
X149554761Y-79211904D01*
X149507142Y-79164285D01*
X149411904Y-79116666D01*
X149221428Y-79116666D01*
X149126190Y-79164285D01*
X149078571Y-79211904D01*
X149030952Y-79307142D01*
%TO.C,H1*%
X72538095Y-21652380D02*
X72538095Y-20652380D01*
X72538095Y-21128571D02*
X73109523Y-21128571D01*
X73109523Y-21652380D02*
X73109523Y-20652380D01*
X74109523Y-21652380D02*
X73538095Y-21652380D01*
X73823809Y-21652380D02*
X73823809Y-20652380D01*
X73728571Y-20795238D01*
X73633333Y-20890476D01*
X73538095Y-20938095D01*
%TO.C,Q2*%
X82364761Y-131372619D02*
X82269523Y-131325000D01*
X82174285Y-131229761D01*
X82031428Y-131086904D01*
X81936190Y-131039285D01*
X81840952Y-131039285D01*
X81888571Y-131277380D02*
X81793333Y-131229761D01*
X81698095Y-131134523D01*
X81650476Y-130944047D01*
X81650476Y-130610714D01*
X81698095Y-130420238D01*
X81793333Y-130325000D01*
X81888571Y-130277380D01*
X82079047Y-130277380D01*
X82174285Y-130325000D01*
X82269523Y-130420238D01*
X82317142Y-130610714D01*
X82317142Y-130944047D01*
X82269523Y-131134523D01*
X82174285Y-131229761D01*
X82079047Y-131277380D01*
X81888571Y-131277380D01*
X82698095Y-130372619D02*
X82745714Y-130325000D01*
X82840952Y-130277380D01*
X83079047Y-130277380D01*
X83174285Y-130325000D01*
X83221904Y-130372619D01*
X83269523Y-130467857D01*
X83269523Y-130563095D01*
X83221904Y-130705952D01*
X82650476Y-131277380D01*
X83269523Y-131277380D01*
%TO.C,M19*%
X92382380Y-111335714D02*
X91382380Y-111335714D01*
X92096666Y-111002380D01*
X91382380Y-110669047D01*
X92382380Y-110669047D01*
X92382380Y-109669047D02*
X92382380Y-110240476D01*
X92382380Y-109954761D02*
X91382380Y-109954761D01*
X91525238Y-110050000D01*
X91620476Y-110145238D01*
X91668095Y-110240476D01*
X92382380Y-109192857D02*
X92382380Y-109002380D01*
X92334761Y-108907142D01*
X92287142Y-108859523D01*
X92144285Y-108764285D01*
X91953809Y-108716666D01*
X91572857Y-108716666D01*
X91477619Y-108764285D01*
X91430000Y-108811904D01*
X91382380Y-108907142D01*
X91382380Y-109097619D01*
X91430000Y-109192857D01*
X91477619Y-109240476D01*
X91572857Y-109288095D01*
X91810952Y-109288095D01*
X91906190Y-109240476D01*
X91953809Y-109192857D01*
X92001428Y-109097619D01*
X92001428Y-108907142D01*
X91953809Y-108811904D01*
X91906190Y-108764285D01*
X91810952Y-108716666D01*
%TO.C,R1*%
X89367887Y-124318221D02*
X88806450Y-124167700D01*
X88930148Y-124685528D02*
X88287360Y-123919483D01*
X88579186Y-123674612D01*
X88682752Y-123649872D01*
X88749839Y-123655742D01*
X88847535Y-123698089D01*
X88939362Y-123807524D01*
X88964102Y-123911090D01*
X88958232Y-123978177D01*
X88915885Y-124075873D01*
X88624058Y-124320745D01*
X90097453Y-123706042D02*
X89659714Y-124073349D01*
X89878584Y-123889696D02*
X89235796Y-123123651D01*
X89254666Y-123294304D01*
X89242927Y-123428478D01*
X89200580Y-123526175D01*
D12*
%TO.C,M14*%
X151870000Y-106230000D02*
X159550000Y-106230000D01*
X149270000Y-106230000D02*
X149270000Y-104900000D01*
X151870000Y-103570000D02*
X159550000Y-103570000D01*
X150600000Y-106230000D02*
X149270000Y-106230000D01*
X151870000Y-106230000D02*
X151870000Y-103570000D01*
X159550000Y-106230000D02*
X159550000Y-103570000D01*
D13*
%TO.C,J1*%
X117750000Y-31015750D02*
X119722000Y-31015750D01*
X133250000Y-31015750D02*
X131278000Y-31015750D01*
X124078000Y-31015750D02*
X126922000Y-31015750D01*
X133250000Y-12815750D02*
X117750000Y-12815750D01*
X128040000Y-33325750D02*
X129310000Y-33325750D01*
X133250000Y-31015750D02*
X133250000Y-12815750D01*
X130580000Y-33325750D02*
X129310000Y-33325750D01*
X129310000Y-33325750D02*
X129310000Y-32055750D01*
X129310000Y-33325750D02*
X129310000Y-34595750D01*
X117750000Y-12815750D02*
X117750000Y-31015750D01*
D12*
%TO.C,J6*%
X99655000Y-43530000D02*
X94515000Y-43530000D01*
X99655000Y-40870000D02*
X99655000Y-43530000D01*
X102255000Y-40870000D02*
X102255000Y-42200000D01*
X100925000Y-40870000D02*
X102255000Y-40870000D01*
X99655000Y-40870000D02*
X94515000Y-40870000D01*
X94515000Y-40870000D02*
X94515000Y-43530000D01*
%TO.C,J7*%
X90100000Y-50370000D02*
X91430000Y-50370000D01*
X91430000Y-50370000D02*
X91430000Y-51700000D01*
X88830000Y-50370000D02*
X88830000Y-53030000D01*
X88830000Y-50370000D02*
X81150000Y-50370000D01*
X88830000Y-53030000D02*
X81150000Y-53030000D01*
X81150000Y-50370000D02*
X81150000Y-53030000D01*
%TO.C,R6*%
X156540000Y-130230000D02*
X156870000Y-130230000D01*
X156870000Y-136770000D02*
X156540000Y-136770000D01*
X154130000Y-130230000D02*
X154130000Y-136770000D01*
X156870000Y-130230000D02*
X156870000Y-136770000D01*
X154460000Y-130230000D02*
X154130000Y-130230000D01*
X154130000Y-136770000D02*
X154460000Y-136770000D01*
%TO.C,M10*%
X90930000Y-59720000D02*
X90930000Y-61050000D01*
X88330000Y-59720000D02*
X80650000Y-59720000D01*
X88330000Y-59720000D02*
X88330000Y-62380000D01*
X88330000Y-62380000D02*
X80650000Y-62380000D01*
X80650000Y-59720000D02*
X80650000Y-62380000D01*
X89600000Y-59720000D02*
X90930000Y-59720000D01*
%TO.C,M13*%
X88330000Y-106480000D02*
X80650000Y-106480000D01*
X88330000Y-103820000D02*
X80650000Y-103820000D01*
X90930000Y-103820000D02*
X90930000Y-105150000D01*
X88330000Y-103820000D02*
X88330000Y-106480000D01*
X89600000Y-103820000D02*
X90930000Y-103820000D01*
X80650000Y-103820000D02*
X80650000Y-106480000D01*
%TO.C,M23*%
X80650000Y-84220000D02*
X80650000Y-86880000D01*
X88330000Y-86880000D02*
X80650000Y-86880000D01*
X89600000Y-84220000D02*
X90930000Y-84220000D01*
X90930000Y-84220000D02*
X90930000Y-85550000D01*
X88330000Y-84220000D02*
X80650000Y-84220000D01*
X88330000Y-84220000D02*
X88330000Y-86880000D01*
%TO.C,J5*%
X88830000Y-45830000D02*
X81150000Y-45830000D01*
X90100000Y-43170000D02*
X91430000Y-43170000D01*
X88830000Y-43170000D02*
X88830000Y-45830000D01*
X91430000Y-43170000D02*
X91430000Y-44500000D01*
X88830000Y-43170000D02*
X81150000Y-43170000D01*
X81150000Y-43170000D02*
X81150000Y-45830000D01*
%TO.C,D1*%
X106025000Y-38360000D02*
X106025000Y-39380000D01*
X104555000Y-44040000D02*
X107495000Y-44040000D01*
X104555000Y-39380000D02*
X104555000Y-44820000D01*
X106025000Y-45840000D02*
X106025000Y-44820000D01*
X104555000Y-43920000D02*
X107495000Y-43920000D01*
X107495000Y-44820000D02*
X107495000Y-39380000D01*
X104555000Y-43800000D02*
X107495000Y-43800000D01*
X104555000Y-44820000D02*
X107495000Y-44820000D01*
X107495000Y-39380000D02*
X104555000Y-39380000D01*
%TO.C,R4*%
X79370000Y-130270000D02*
X72830000Y-130270000D01*
X79370000Y-127860000D02*
X79370000Y-127530000D01*
X79370000Y-127530000D02*
X72830000Y-127530000D01*
X79370000Y-129940000D02*
X79370000Y-130270000D01*
X72830000Y-127530000D02*
X72830000Y-127860000D01*
X72830000Y-130270000D02*
X72830000Y-129940000D01*
%TO.C,R41*%
X82330000Y-39940000D02*
X82330000Y-40270000D01*
X88870000Y-37530000D02*
X88870000Y-37860000D01*
X82330000Y-37860000D02*
X82330000Y-37530000D01*
X88870000Y-40270000D02*
X88870000Y-39940000D01*
X82330000Y-40270000D02*
X88870000Y-40270000D01*
X82330000Y-37530000D02*
X88870000Y-37530000D01*
%TO.C,Q7*%
X144890000Y-132900000D02*
X144890000Y-136500000D01*
X149340000Y-134700000D02*
G75*
G03*
X147838807Y-132343600I-2600000J0D01*
G01*
X147838807Y-137056400D02*
G75*
G03*
X149340000Y-134700000I-1098807J2356400D01*
G01*
X144890000Y-136500000D02*
G75*
G03*
X145617205Y-137024184I1850000J1800000D01*
G01*
X145617205Y-132375816D02*
G75*
G03*
X144890000Y-132900000I1122795J-2324184D01*
G01*
%TO.C,R36*%
X115140000Y-72870000D02*
X115140000Y-70130000D01*
X106060000Y-70130000D02*
X106060000Y-72870000D01*
X106060000Y-72870000D02*
X115140000Y-72870000D01*
X115910000Y-71500000D02*
X115140000Y-71500000D01*
X115140000Y-70130000D02*
X106060000Y-70130000D01*
X105290000Y-71500000D02*
X106060000Y-71500000D01*
%TO.C,U2*%
X121350000Y-41010000D02*
X125110000Y-41010000D01*
X125110000Y-34190000D02*
X125110000Y-35450000D01*
X125110000Y-41010000D02*
X125110000Y-39750000D01*
X119100000Y-34190000D02*
X125110000Y-34190000D01*
%TO.C,C5*%
X154720000Y-51700000D02*
G75*
G03*
X154720000Y-51700000I-5120000J0D01*
G01*
%TO.C,C7*%
X95220000Y-36300000D02*
G75*
G03*
X95220000Y-36300000I-2620000J0D01*
G01*
%TO.C,M20*%
X159650000Y-111130000D02*
X159650000Y-108470000D01*
X151970000Y-108470000D02*
X159650000Y-108470000D01*
X150700000Y-111130000D02*
X149370000Y-111130000D01*
X149370000Y-111130000D02*
X149370000Y-109800000D01*
X151970000Y-111130000D02*
X151970000Y-108470000D01*
X151970000Y-111130000D02*
X159650000Y-111130000D01*
%TO.C,R8*%
X88160000Y-133130000D02*
X87830000Y-133130000D01*
X87830000Y-139670000D02*
X88160000Y-139670000D01*
X90570000Y-133130000D02*
X90570000Y-139670000D01*
X90570000Y-139670000D02*
X90240000Y-139670000D01*
X87830000Y-133130000D02*
X87830000Y-139670000D01*
X90240000Y-133130000D02*
X90570000Y-133130000D01*
%TO.C,J2*%
X102540000Y-64850000D02*
X102540000Y-66180000D01*
X99940000Y-67450000D02*
X102540000Y-67450000D01*
X97340000Y-64850000D02*
X97340000Y-115770000D01*
X97340000Y-115770000D02*
X102540000Y-115770000D01*
X102540000Y-67450000D02*
X102540000Y-115770000D01*
X97340000Y-64850000D02*
X99940000Y-64850000D01*
X101210000Y-64850000D02*
X102540000Y-64850000D01*
X99940000Y-64850000D02*
X99940000Y-67450000D01*
%TO.C,R40*%
X85840000Y-40330000D02*
X92380000Y-40330000D01*
X85840000Y-40660000D02*
X85840000Y-40330000D01*
X85840000Y-42740000D02*
X85840000Y-43070000D01*
X92380000Y-43070000D02*
X92380000Y-42740000D01*
X92380000Y-40330000D02*
X92380000Y-40660000D01*
X85840000Y-43070000D02*
X92380000Y-43070000D01*
%TO.C,M5*%
X151970000Y-93820000D02*
X159650000Y-93820000D01*
X151970000Y-96480000D02*
X159650000Y-96480000D01*
X150700000Y-96480000D02*
X149370000Y-96480000D01*
X149370000Y-96480000D02*
X149370000Y-95150000D01*
X151970000Y-96480000D02*
X151970000Y-93820000D01*
X159650000Y-96480000D02*
X159650000Y-93820000D01*
%TO.C,SW1*%
X111905000Y-55007500D02*
X111905000Y-45107500D01*
X116230000Y-48027500D02*
X116230000Y-52087500D01*
X116230000Y-50734167D02*
X117500000Y-50734167D01*
X116590000Y-52087500D02*
X116590000Y-50734167D01*
X114890000Y-52087500D02*
X114890000Y-50734167D01*
X116830000Y-52087500D02*
X116830000Y-50734167D01*
X114960000Y-52087500D02*
X114960000Y-48027500D01*
X117190000Y-52087500D02*
X117190000Y-50734167D01*
X114050000Y-52087500D02*
X114050000Y-50734167D01*
X113690000Y-52087500D02*
X114960000Y-52087500D01*
X116470000Y-52087500D02*
X116470000Y-50734167D01*
X116710000Y-52087500D02*
X116710000Y-50734167D01*
X111905000Y-55007500D02*
X119285000Y-55007500D01*
X116230000Y-52087500D02*
X117500000Y-52087500D01*
X114770000Y-52087500D02*
X114770000Y-50734167D01*
X113690000Y-48027500D02*
X113690000Y-52087500D01*
X111905000Y-45107500D02*
X119285000Y-45107500D01*
X114170000Y-52087500D02*
X114170000Y-50734167D01*
X114650000Y-52087500D02*
X114650000Y-50734167D01*
X114530000Y-52087500D02*
X114530000Y-50734167D01*
X117500000Y-48027500D02*
X116230000Y-48027500D01*
X111665000Y-55247500D02*
X113048000Y-55247500D01*
X114960000Y-48027500D02*
X113690000Y-48027500D01*
X113930000Y-52087500D02*
X113930000Y-50734167D01*
X114410000Y-52087500D02*
X114410000Y-50734167D01*
X119285000Y-55007500D02*
X119285000Y-45107500D01*
X113690000Y-50734167D02*
X114960000Y-50734167D01*
X116350000Y-52087500D02*
X116350000Y-50734167D01*
X117310000Y-52087500D02*
X117310000Y-50734167D01*
X116950000Y-52087500D02*
X116950000Y-50734167D01*
X113810000Y-52087500D02*
X113810000Y-50734167D01*
X114290000Y-52087500D02*
X114290000Y-50734167D01*
X117070000Y-52087500D02*
X117070000Y-50734167D01*
X117500000Y-52087500D02*
X117500000Y-48027500D01*
X111665000Y-55247500D02*
X111665000Y-53863500D01*
X117430000Y-52087500D02*
X117430000Y-50734167D01*
%TO.C,C2*%
X144020000Y-54100000D02*
G75*
G03*
X144020000Y-54100000I-2620000J0D01*
G01*
%TO.C,Q6*%
X87620000Y-133184000D02*
X77380000Y-133184000D01*
X77380000Y-137825000D02*
X77380000Y-133184000D01*
X84350000Y-137825000D02*
X84350000Y-136315000D01*
X87620000Y-137825000D02*
X77380000Y-137825000D01*
X87620000Y-137825000D02*
X87620000Y-133184000D01*
X87620000Y-136315000D02*
X77380000Y-136315000D01*
X80649000Y-137825000D02*
X80649000Y-136315000D01*
%TO.C,R7*%
X96240000Y-123730000D02*
X96570000Y-123730000D01*
X96570000Y-130270000D02*
X96240000Y-130270000D01*
X93830000Y-130270000D02*
X94160000Y-130270000D01*
X96570000Y-123730000D02*
X96570000Y-130270000D01*
X94160000Y-123730000D02*
X93830000Y-123730000D01*
X93830000Y-123730000D02*
X93830000Y-130270000D01*
%TO.C,M2*%
X89600000Y-89120000D02*
X90930000Y-89120000D01*
X88330000Y-89120000D02*
X80650000Y-89120000D01*
X88330000Y-89120000D02*
X88330000Y-91780000D01*
X90930000Y-89120000D02*
X90930000Y-90450000D01*
X80650000Y-89120000D02*
X80650000Y-91780000D01*
X88330000Y-91780000D02*
X80650000Y-91780000D01*
%TO.C,M8*%
X152750000Y-67080000D02*
X152750000Y-64420000D01*
X160430000Y-67080000D02*
X160430000Y-64420000D01*
X152750000Y-67080000D02*
X160430000Y-67080000D01*
X151480000Y-67080000D02*
X150150000Y-67080000D01*
X152750000Y-64420000D02*
X160430000Y-64420000D01*
X150150000Y-67080000D02*
X150150000Y-65750000D01*
%TO.C,Q8*%
X154580000Y-136116000D02*
X164820000Y-136116000D01*
X154580000Y-131475000D02*
X164820000Y-131475000D01*
X157850000Y-131475000D02*
X157850000Y-132985000D01*
X164820000Y-131475000D02*
X164820000Y-136116000D01*
X154580000Y-131475000D02*
X154580000Y-136116000D01*
X154580000Y-132985000D02*
X164820000Y-132985000D01*
X161551000Y-131475000D02*
X161551000Y-132985000D01*
%TO.C,M6*%
X88330000Y-98920000D02*
X80650000Y-98920000D01*
X88330000Y-101580000D02*
X80650000Y-101580000D01*
X89600000Y-98920000D02*
X90930000Y-98920000D01*
X80650000Y-98920000D02*
X80650000Y-101580000D01*
X90930000Y-98920000D02*
X90930000Y-100250000D01*
X88330000Y-98920000D02*
X88330000Y-101580000D01*
%TO.C,M26*%
X100320000Y-129270000D02*
X101650000Y-129270000D01*
X102980000Y-131870000D02*
X102980000Y-134470000D01*
X100320000Y-134470000D02*
X102980000Y-134470000D01*
X100320000Y-131870000D02*
X102980000Y-131870000D01*
X100320000Y-131870000D02*
X100320000Y-134470000D01*
X100320000Y-130600000D02*
X100320000Y-129270000D01*
%TO.C,R5*%
X136130000Y-120360000D02*
X136130000Y-120030000D01*
X136130000Y-120030000D02*
X142670000Y-120030000D01*
X136130000Y-122440000D02*
X136130000Y-122770000D01*
X136130000Y-122770000D02*
X142670000Y-122770000D01*
X142670000Y-122770000D02*
X142670000Y-122440000D01*
X142670000Y-120030000D02*
X142670000Y-120360000D01*
%TO.C,J4*%
X98430000Y-50670000D02*
X98430000Y-53270000D01*
X95770000Y-48070000D02*
X97100000Y-48070000D01*
X95770000Y-49400000D02*
X95770000Y-48070000D01*
X95770000Y-53270000D02*
X98430000Y-53270000D01*
X95770000Y-50670000D02*
X98430000Y-50670000D01*
X95770000Y-50670000D02*
X95770000Y-53270000D01*
%TO.C,M4*%
X80650000Y-94020000D02*
X80650000Y-96680000D01*
X88330000Y-94020000D02*
X80650000Y-94020000D01*
X90930000Y-94020000D02*
X90930000Y-95350000D01*
X89600000Y-94020000D02*
X90930000Y-94020000D01*
X88330000Y-96680000D02*
X80650000Y-96680000D01*
X88330000Y-94020000D02*
X88330000Y-96680000D01*
%TO.C,M22*%
X152070000Y-113420000D02*
X159750000Y-113420000D01*
X159750000Y-116080000D02*
X159750000Y-113420000D01*
X152070000Y-116080000D02*
X152070000Y-113420000D01*
X149470000Y-116080000D02*
X149470000Y-114750000D01*
X152070000Y-116080000D02*
X159750000Y-116080000D01*
X150800000Y-116080000D02*
X149470000Y-116080000D01*
%TO.C,J3*%
X123670000Y-67470000D02*
X123670000Y-68800000D01*
X121070000Y-67470000D02*
X121070000Y-70070000D01*
X121070000Y-70070000D02*
X123670000Y-70070000D01*
X118470000Y-110770000D02*
X123670000Y-110770000D01*
X118470000Y-67470000D02*
X118470000Y-110770000D01*
X118470000Y-67470000D02*
X121070000Y-67470000D01*
X122340000Y-67470000D02*
X123670000Y-67470000D01*
X123670000Y-70070000D02*
X123670000Y-110770000D01*
%TO.C,R39*%
X147150574Y-120619024D02*
X151775052Y-125243503D01*
X145213101Y-122556497D02*
X149837580Y-127180975D01*
X149837580Y-127180975D02*
X150070925Y-126947630D01*
X146917229Y-120852370D02*
X147150574Y-120619024D01*
X151775052Y-125243503D02*
X151541707Y-125476848D01*
X145446447Y-122323152D02*
X145213101Y-122556497D01*
%TO.C,J9*%
X91430000Y-46770000D02*
X91430000Y-48100000D01*
X90100000Y-46770000D02*
X91430000Y-46770000D01*
X81150000Y-46770000D02*
X81150000Y-49430000D01*
X88830000Y-49430000D02*
X81150000Y-49430000D01*
X88830000Y-46770000D02*
X88830000Y-49430000D01*
X88830000Y-46770000D02*
X81150000Y-46770000D01*
%TO.C,J12*%
X139330000Y-67470000D02*
X139330000Y-110770000D01*
X144530000Y-70070000D02*
X144530000Y-110770000D01*
X139330000Y-67470000D02*
X141930000Y-67470000D01*
X139330000Y-110770000D02*
X144530000Y-110770000D01*
X143200000Y-67470000D02*
X144530000Y-67470000D01*
X144530000Y-67470000D02*
X144530000Y-68800000D01*
X141930000Y-67470000D02*
X141930000Y-70070000D01*
X141930000Y-70070000D02*
X144530000Y-70070000D01*
%TO.C,M25*%
X104970000Y-134470000D02*
X107630000Y-134470000D01*
X104970000Y-131870000D02*
X104970000Y-134470000D01*
X104970000Y-129270000D02*
X106300000Y-129270000D01*
X104970000Y-130600000D02*
X104970000Y-129270000D01*
X107630000Y-131870000D02*
X107630000Y-134470000D01*
X104970000Y-131870000D02*
X107630000Y-131870000D01*
%TO.C,Q5*%
X90790000Y-132600000D02*
X90790000Y-136200000D01*
X90790000Y-136200000D02*
G75*
G03*
X91517205Y-136724184I1850000J1800000D01*
G01*
X95240000Y-134400000D02*
G75*
G03*
X93738807Y-132043600I-2600000J0D01*
G01*
X91517205Y-132075816D02*
G75*
G03*
X90790000Y-132600000I1122795J-2324184D01*
G01*
X93738807Y-136756400D02*
G75*
G03*
X95240000Y-134400000I-1098807J2356400D01*
G01*
%TO.C,J8*%
X100925000Y-44470000D02*
X102255000Y-44470000D01*
X102255000Y-44470000D02*
X102255000Y-45800000D01*
X99655000Y-47130000D02*
X94515000Y-47130000D01*
X99655000Y-44470000D02*
X99655000Y-47130000D01*
X94515000Y-44470000D02*
X94515000Y-47130000D01*
X99655000Y-44470000D02*
X94515000Y-44470000D01*
%TO.C,C1*%
X136070000Y-126980000D02*
X134065000Y-126980000D01*
X136070000Y-136220000D02*
X134065000Y-136220000D01*
X132735000Y-136220000D02*
X130730000Y-136220000D01*
X136070000Y-126980000D02*
X136070000Y-136220000D01*
X130730000Y-126980000D02*
X130730000Y-136220000D01*
X132735000Y-126980000D02*
X130730000Y-126980000D01*
%TO.C,M17*%
X90930000Y-79320000D02*
X90930000Y-80650000D01*
X89600000Y-79320000D02*
X90930000Y-79320000D01*
X88330000Y-79320000D02*
X80650000Y-79320000D01*
X88330000Y-79320000D02*
X88330000Y-81980000D01*
X80650000Y-79320000D02*
X80650000Y-81980000D01*
X88330000Y-81980000D02*
X80650000Y-81980000D01*
%TO.C,R3*%
X99570000Y-123730000D02*
X99570000Y-130270000D01*
X99570000Y-130270000D02*
X99240000Y-130270000D01*
X97160000Y-123730000D02*
X96830000Y-123730000D01*
X96830000Y-130270000D02*
X97160000Y-130270000D01*
X99240000Y-123730000D02*
X99570000Y-123730000D01*
X96830000Y-123730000D02*
X96830000Y-130270000D01*
%TO.C,M16*%
X150150000Y-76880000D02*
X150150000Y-75550000D01*
X151480000Y-76880000D02*
X150150000Y-76880000D01*
X160430000Y-76880000D02*
X160430000Y-74220000D01*
X152750000Y-76880000D02*
X152750000Y-74220000D01*
X152750000Y-74220000D02*
X160430000Y-74220000D01*
X152750000Y-76880000D02*
X160430000Y-76880000D01*
%TO.C,R38*%
X90830000Y-122430000D02*
X90830000Y-128970000D01*
X93570000Y-128970000D02*
X93240000Y-128970000D01*
X93570000Y-122430000D02*
X93570000Y-128970000D01*
X90830000Y-128970000D02*
X91160000Y-128970000D01*
X91160000Y-122430000D02*
X90830000Y-122430000D01*
X93240000Y-122430000D02*
X93570000Y-122430000D01*
%TO.C,C3*%
X144720000Y-48500000D02*
G75*
G03*
X144720000Y-48500000I-2620000J0D01*
G01*
%TO.C,M15*%
X88330000Y-77080000D02*
X80650000Y-77080000D01*
X88330000Y-74420000D02*
X88330000Y-77080000D01*
X80650000Y-74420000D02*
X80650000Y-77080000D01*
X90930000Y-74420000D02*
X90930000Y-75750000D01*
X88330000Y-74420000D02*
X80650000Y-74420000D01*
X89600000Y-74420000D02*
X90930000Y-74420000D01*
%TO.C,M7*%
X89600000Y-64620000D02*
X90930000Y-64620000D01*
X80650000Y-64620000D02*
X80650000Y-67280000D01*
X88330000Y-64620000D02*
X88330000Y-67280000D01*
X90930000Y-64620000D02*
X90930000Y-65950000D01*
X88330000Y-67280000D02*
X80650000Y-67280000D01*
X88330000Y-64620000D02*
X80650000Y-64620000D01*
%TO.C,M3*%
X159750000Y-91530000D02*
X159750000Y-88870000D01*
X152070000Y-88870000D02*
X159750000Y-88870000D01*
X150800000Y-91530000D02*
X149470000Y-91530000D01*
X152070000Y-91530000D02*
X159750000Y-91530000D01*
X149470000Y-91530000D02*
X149470000Y-90200000D01*
X152070000Y-91530000D02*
X152070000Y-88870000D01*
%TO.C,M12*%
X151480000Y-71980000D02*
X150150000Y-71980000D01*
X152750000Y-71980000D02*
X152750000Y-69320000D01*
X150150000Y-71980000D02*
X150150000Y-70650000D01*
X160430000Y-71980000D02*
X160430000Y-69320000D01*
X152750000Y-71980000D02*
X160430000Y-71980000D01*
X152750000Y-69320000D02*
X160430000Y-69320000D01*
%TO.C,C4*%
X128720000Y-131600000D02*
G75*
G03*
X128720000Y-131600000I-5120000J0D01*
G01*
%TO.C,M9*%
X150700000Y-101330000D02*
X149370000Y-101330000D01*
X151970000Y-98670000D02*
X159650000Y-98670000D01*
X149370000Y-101330000D02*
X149370000Y-100000000D01*
X151970000Y-101330000D02*
X159650000Y-101330000D01*
X159650000Y-101330000D02*
X159650000Y-98670000D01*
X151970000Y-101330000D02*
X151970000Y-98670000D01*
%TO.C,R2*%
X154884640Y-124023604D02*
X156042614Y-121540321D01*
X148957387Y-121259681D02*
X154884640Y-124023604D01*
X150115361Y-118776397D02*
X148957387Y-121259681D01*
X156042614Y-121540321D02*
X150115361Y-118776397D01*
X148838517Y-119692623D02*
X149536374Y-120018039D01*
X156161484Y-123107379D02*
X155463627Y-122781962D01*
%TO.C,M11*%
X90930000Y-69520000D02*
X90930000Y-70850000D01*
X88330000Y-72180000D02*
X80650000Y-72180000D01*
X80650000Y-69520000D02*
X80650000Y-72180000D01*
X88330000Y-69520000D02*
X80650000Y-69520000D01*
X89600000Y-69520000D02*
X90930000Y-69520000D01*
X88330000Y-69520000D02*
X88330000Y-72180000D01*
%TO.C,Q4*%
X164920000Y-122675000D02*
X164920000Y-127316000D01*
X154680000Y-122675000D02*
X164920000Y-122675000D01*
X161651000Y-122675000D02*
X161651000Y-124185000D01*
X157950000Y-122675000D02*
X157950000Y-124185000D01*
X154680000Y-122675000D02*
X154680000Y-127316000D01*
X154680000Y-127316000D02*
X164920000Y-127316000D01*
X154680000Y-124185000D02*
X164920000Y-124185000D01*
%TO.C,M21*%
X88330000Y-113620000D02*
X88330000Y-116280000D01*
X89600000Y-113620000D02*
X90930000Y-113620000D01*
X90930000Y-113620000D02*
X90930000Y-114950000D01*
X88330000Y-116280000D02*
X80650000Y-116280000D01*
X80650000Y-113620000D02*
X80650000Y-116280000D01*
X88330000Y-113620000D02*
X80650000Y-113620000D01*
%TO.C,R37*%
X115190000Y-67330000D02*
X106110000Y-67330000D01*
X106110000Y-67330000D02*
X106110000Y-70070000D01*
X115960000Y-68700000D02*
X115190000Y-68700000D01*
X106110000Y-70070000D02*
X115190000Y-70070000D01*
X105340000Y-68700000D02*
X106110000Y-68700000D01*
X115190000Y-70070000D02*
X115190000Y-67330000D01*
%TO.C,M24*%
X152750000Y-86680000D02*
X160430000Y-86680000D01*
X151480000Y-86680000D02*
X150150000Y-86680000D01*
X152750000Y-84020000D02*
X160430000Y-84020000D01*
X150150000Y-86680000D02*
X150150000Y-85350000D01*
X160430000Y-86680000D02*
X160430000Y-84020000D01*
X152750000Y-86680000D02*
X152750000Y-84020000D01*
%TO.C,C8*%
X129020000Y-45965000D02*
X129020000Y-47970000D01*
X119780000Y-42630000D02*
X119780000Y-44635000D01*
X119780000Y-45965000D02*
X119780000Y-47970000D01*
X119780000Y-42630000D02*
X129020000Y-42630000D01*
X119780000Y-47970000D02*
X129020000Y-47970000D01*
X129020000Y-42630000D02*
X129020000Y-44635000D01*
%TO.C,C6*%
X118120000Y-131200000D02*
G75*
G03*
X118120000Y-131200000I-5120000J0D01*
G01*
%TO.C,R10*%
X152140000Y-133430000D02*
X152470000Y-133430000D01*
X152470000Y-139970000D02*
X152140000Y-139970000D01*
X150060000Y-133430000D02*
X149730000Y-133430000D01*
X149730000Y-139970000D02*
X150060000Y-139970000D01*
X149730000Y-133430000D02*
X149730000Y-139970000D01*
X152470000Y-133430000D02*
X152470000Y-139970000D01*
D13*
%TO.C,U3*%
X108559200Y-29411910D02*
X109194200Y-30046910D01*
X112369200Y-29411910D02*
X112369200Y-25601910D01*
X112369200Y-25601910D02*
X113004200Y-26236910D01*
X112369200Y-29411910D02*
X108559200Y-29411910D01*
X108559200Y-29411910D02*
X109194200Y-28776910D01*
X112369200Y-25601910D02*
X111734200Y-26236910D01*
D14*
X98579540Y-22602170D02*
G75*
G03*
X98579540Y-22602170I-1399540J0D01*
G01*
X113819540Y-22602170D02*
G75*
G03*
X113819540Y-22602170I-1399540J0D01*
G01*
D12*
%TO.C,U1*%
X144055000Y-43530000D02*
X144055000Y-45530000D01*
X144055000Y-45530000D02*
X154975000Y-45530000D01*
X139655000Y-36245000D02*
X137775000Y-36245000D01*
X152895000Y-35530000D02*
X154975000Y-35530000D01*
X139655000Y-43530000D02*
X139655000Y-33290000D01*
X139655000Y-33290000D02*
X144055000Y-33290000D01*
X139655000Y-40575000D02*
X137775000Y-40575000D01*
X144055000Y-31290000D02*
X154975000Y-31290000D01*
X139655000Y-36755000D02*
X137775000Y-36755000D01*
X152895000Y-41290000D02*
X154975000Y-41290000D01*
X144055000Y-33290000D02*
X144055000Y-31290000D01*
X152895000Y-35530000D02*
X152895000Y-41290000D01*
X139655000Y-40065000D02*
X137775000Y-40065000D01*
X139655000Y-38155000D02*
X137775000Y-38155000D01*
X139655000Y-43530000D02*
X144055000Y-43530000D01*
X139655000Y-38665000D02*
X137775000Y-38665000D01*
%TO.C,M18*%
X151480000Y-81780000D02*
X150150000Y-81780000D01*
X152750000Y-79120000D02*
X160430000Y-79120000D01*
X160430000Y-81780000D02*
X160430000Y-79120000D01*
X150150000Y-81780000D02*
X150150000Y-80450000D01*
X152750000Y-81780000D02*
X152750000Y-79120000D01*
X152750000Y-81780000D02*
X160430000Y-81780000D01*
%TO.C,Q2*%
X80609000Y-129825000D02*
X80609000Y-128315000D01*
X84310000Y-129825000D02*
X84310000Y-128315000D01*
X87580000Y-128315000D02*
X77340000Y-128315000D01*
X87580000Y-125184000D02*
X77340000Y-125184000D01*
X77340000Y-129825000D02*
X77340000Y-125184000D01*
X87580000Y-129825000D02*
X77340000Y-129825000D01*
X87580000Y-129825000D02*
X87580000Y-125184000D01*
%TO.C,M19*%
X88330000Y-111380000D02*
X80650000Y-111380000D01*
X80650000Y-108720000D02*
X80650000Y-111380000D01*
X88330000Y-108720000D02*
X88330000Y-111380000D01*
X89600000Y-108720000D02*
X90930000Y-108720000D01*
X90930000Y-108720000D02*
X90930000Y-110050000D01*
X88330000Y-108720000D02*
X80650000Y-108720000D01*
%TO.C,R1*%
X91066955Y-120996586D02*
X86057024Y-125200417D01*
X90854835Y-120743792D02*
X91066955Y-120996586D01*
X89517837Y-119150419D02*
X89305717Y-118897624D01*
X89305717Y-118897624D02*
X84295786Y-123101455D01*
X86057024Y-125200417D02*
X85844904Y-124947622D01*
X84295786Y-123101455D02*
X84507906Y-123354250D01*
%TD*%
M02*
