M48
; DRILL file {KiCad (6.0.5)} date Sun Dec 18 21:16:05 2022
; FORMAT={-:-/ absolute / inch / decimal}
; #@! TF.CreationDate,2022-12-18T21:16:05-03:00
; #@! TF.GenerationSoftware,Kicad,Pcbnew,(6.0.5)
; #@! TF.FileFunction,Plated,1,4,PTH
FMAT,2
INCH
; #@! TA.AperFunction,Plated,PTH,ViaDrill
T1C0.0157
; #@! TA.AperFunction,Plated,PTH,ComponentDrill
T2C0.0197
; #@! TA.AperFunction,Plated,PTH,ComponentDrill
T3C0.0236
; #@! TA.AperFunction,Plated,PTH,ComponentDrill
T4C0.0276
; #@! TA.AperFunction,Plated,PTH,ComponentDrill
T5C0.0315
; #@! TA.AperFunction,Plated,PTH,ViaDrill
T6C0.0354
; #@! TA.AperFunction,Plated,PTH,ComponentDrill
T7C0.0394
; #@! TA.AperFunction,Plated,PTH,ComponentDrill
T8C0.0433
; #@! TA.AperFunction,Plated,PTH,ComponentDrill
T9C0.0787
; #@! TA.AperFunction,Plated,PTH,ComponentDrill
T10C0.1063
%
G90
G05
T1
X2.8543Y-3.2047
X2.8543Y-4.622
X2.8602Y-3.439
X2.8602Y-3.5492
X2.8602Y-3.6634
X2.8602Y-3.7815
X2.8602Y-3.8839
X2.8602Y-4.0138
X2.8602Y-4.1476
X2.8602Y-4.3012
X2.8602Y-4.4587
X2.8602Y-4.7618
X2.874Y-5.1654
X2.874Y-1.7402
X2.874Y-1.8425
X2.874Y-2.0984
X2.874Y-2.248
X2.874Y-2.3543
X2.874Y-2.5276
X2.874Y-2.6654
X2.874Y-2.7913
X2.874Y-2.8937
X2.874Y-3.0236
X2.878Y-1.9685
X2.9291Y-1.5827
X3.0039Y-1.3425
X3.0236Y-3.7874
X3.0236Y-4.5197
X3.061Y-4.7815
X3.0906Y-5.4724
X3.1142Y-1.2323
X3.2047Y-1.1417
X3.2559Y-4.7244
X3.3504Y-1.0157
X3.4547Y-5.1004
X3.5866Y-0.9882
X3.7441Y-0.9882
X3.9567Y-0.9882
X4.1417Y-0.9882
X4.2992Y-0.9882
X4.4843Y-0.9882
X4.6006Y-1.0844
X5.2258Y-1.0852
X5.4108Y-1.0852
X5.4961Y-5.4724
X5.5748Y-1.0866
X5.5787Y-4.9882
X5.7402Y-4.9882
X5.7415Y-1.0852
X5.8504Y-5.4882
X5.9187Y-1.0852
X6.0591Y-4.8425
X6.0603Y-1.1444
X6.1732Y-5.4882
X6.2618Y-5.1909
T2
X6.1506Y-1.2366
X6.1506Y-1.289
X6.1506Y-1.3417
X6.1506Y-1.3941
X6.1506Y-1.6303
X6.1506Y-1.6827
X6.1506Y-1.7354
X6.1506Y-1.7878
X6.1659Y-1.1894
X6.1659Y-1.4413
X6.1659Y-1.5831
X6.1659Y-1.835
X6.2065Y-1.1598
X6.2065Y-1.4709
X6.2065Y-1.5535
X6.2065Y-1.8646
X6.2561Y-1.1598
X6.2561Y-1.4709
X6.2561Y-1.5535
X6.2561Y-1.8646
X6.2967Y-1.1894
X6.2967Y-1.4413
X6.2967Y-1.5831
X6.2967Y-1.835
X6.312Y-1.2366
X6.312Y-1.289
X6.312Y-1.3417
X6.312Y-1.3941
X6.312Y-1.6303
X6.312Y-1.6827
X6.312Y-1.7354
X6.312Y-1.7878
T4
X3.1283Y-2.498
X3.1283Y-2.6949
X3.1283Y-2.8839
X3.1283Y-3.0768
X3.1283Y-3.2697
X3.1283Y-3.4626
X3.1283Y-3.6555
X3.1283Y-3.8484
X3.1283Y-4.0453
X3.1283Y-4.2343
X3.1283Y-4.4272
X3.1283Y-4.6201
X3.2283Y-2.498
X3.2283Y-2.6949
X3.2283Y-2.8839
X3.2283Y-3.0768
X3.2283Y-3.2697
X3.2283Y-3.4626
X3.2283Y-3.6555
X3.2283Y-3.8484
X3.2283Y-4.0453
X3.2283Y-4.2343
X3.2283Y-4.4272
X3.2283Y-4.6201
X6.2276Y-4.2283
X6.2354Y-4.0354
X6.2362Y-4.6299
X6.2394Y-3.6496
X6.2394Y-3.8425
X6.2394Y-4.4213
X6.263Y-2.685
X6.263Y-2.874
X6.263Y-3.0709
X6.263Y-3.2638
X6.263Y-3.4567
X6.3276Y-4.2283
X6.3354Y-4.0354
X6.3362Y-4.6299
X6.3394Y-3.6496
X6.3394Y-3.8425
X6.3394Y-4.4213
X6.363Y-2.685
X6.363Y-2.874
X6.363Y-3.0709
X6.363Y-3.2638
X6.363Y-3.4567
T5
X2.8461Y-5.0748
X2.9535Y-5.1693
X3.0535Y-5.1693
X3.1461Y-5.0748
X3.1535Y-5.1693
X3.2201Y-1.5315
X3.3371Y-4.9015
X3.3583Y-1.6417
X3.5118Y-5.2201
X3.5118Y-5.5201
X3.5201Y-1.5315
X3.5669Y-4.7087
X3.6063Y-1.4291
X3.6299Y-4.7988
X3.6299Y-5.0988
X3.6472Y-5.1913
X3.6472Y-5.2913
X3.6472Y-5.3913
X3.6583Y-1.6417
X3.685Y-1.4291
X3.748Y-4.85
X3.748Y-5.15
X3.8661Y-4.85
X3.8661Y-5.15
X4.4488Y-5.0669
X4.4488Y-5.2638
X4.501Y-1.8208
X4.501Y-2.1208
X4.601Y-1.8208
X4.601Y-2.1208
X4.75Y-1.7835
X4.8661Y-5.0827
X4.8661Y-5.2795
X5.0453Y-1.7835
X5.252Y-5.0335
X5.252Y-5.3287
X5.3382Y-4.7795
X5.3888Y-1.437
X5.3888Y-1.5122
X5.3888Y-1.5874
X5.4012Y-5.2638
X5.5669Y-2.0906
X5.5669Y-2.1693
X5.5945Y-1.8701
X5.5945Y-1.9488
X5.6382Y-4.7795
X5.7012Y-5.2638
X5.7402Y-1.476
X5.7402Y-1.776
X5.7402Y-4.7719
X5.7772Y-5.2031
X5.7772Y-5.3031
X5.7772Y-5.4031
X5.8227Y-4.695
X5.8583Y-1.476
X5.8583Y-1.776
X5.8898Y-1.937
X5.8898Y-2.1339
X5.9488Y-5.2319
X5.9488Y-5.5319
X5.9523Y-4.984
X6.122Y-5.1059
X6.122Y-5.4059
X6.1852Y-4.8641
X6.1992Y-5.1047
X6.2992Y-5.1047
X6.3992Y-5.1047
T6
X4.6378Y-1.4724
T7
X3.2276Y-2.4035
X3.2276Y-2.5965
X3.2276Y-2.7894
X3.2276Y-2.9823
X3.2276Y-3.1752
X3.2276Y-3.3681
X3.2276Y-3.561
X3.2276Y-3.7539
X3.2276Y-3.9469
X3.2276Y-4.1398
X3.2276Y-4.3327
X3.2276Y-4.5256
X3.2472Y-1.752
X3.2472Y-1.8937
X3.2472Y-2.0354
X3.3276Y-2.4035
X3.3276Y-2.5965
X3.3276Y-2.7894
X3.3276Y-2.9823
X3.3276Y-3.1752
X3.3276Y-3.3681
X3.3276Y-3.561
X3.3276Y-3.7539
X3.3276Y-3.9469
X3.3276Y-4.1398
X3.3276Y-4.3327
X3.3276Y-4.5256
X3.3472Y-1.752
X3.3472Y-1.8937
X3.3472Y-2.0354
X3.4276Y-2.4035
X3.4276Y-2.5965
X3.4276Y-2.7894
X3.4276Y-2.9823
X3.4276Y-3.1752
X3.4276Y-3.3681
X3.4276Y-3.561
X3.4276Y-3.7539
X3.4276Y-3.9469
X3.4276Y-4.1398
X3.4276Y-4.3327
X3.4276Y-4.5256
X3.4472Y-1.752
X3.4472Y-1.8937
X3.4472Y-2.0354
X3.5276Y-2.4035
X3.5276Y-2.5965
X3.5276Y-2.7894
X3.5276Y-2.9823
X3.5276Y-3.1752
X3.5276Y-3.3681
X3.5276Y-3.561
X3.5276Y-3.7539
X3.5276Y-3.9469
X3.5276Y-4.1398
X3.5276Y-4.3327
X3.5276Y-4.5256
X3.5472Y-1.752
X3.5472Y-1.8937
X3.5472Y-2.0354
X3.7734Y-1.6614
X3.7734Y-1.8031
X3.776Y-1.3228
X3.8228Y-1.9449
X3.8228Y-2.0449
X3.8474Y-1.4921
X3.8734Y-1.6614
X3.8734Y-1.8031
X3.876Y-1.3228
X3.8846Y-2.6055
X3.8846Y-2.7055
X3.8846Y-2.8055
X3.8846Y-2.9055
X3.8846Y-3.0055
X3.8846Y-3.1055
X3.8846Y-3.2055
X3.8846Y-3.3055
X3.8846Y-3.4055
X3.8846Y-3.5055
X3.8846Y-3.6055
X3.8846Y-3.7055
X3.8846Y-3.8055
X3.8846Y-3.9055
X3.8846Y-4.0055
X3.8846Y-4.1055
X3.8846Y-4.2055
X3.8846Y-4.3055
X3.8846Y-4.4055
X3.8846Y-4.5055
X3.9474Y-1.4921
X3.9646Y-1.9803
X3.9734Y-1.6614
X3.9734Y-1.8031
X3.976Y-1.3228
X3.9846Y-2.6055
X3.9846Y-2.7055
X3.9846Y-2.8055
X3.9846Y-2.9055
X3.9846Y-3.0055
X3.9846Y-3.1055
X3.9846Y-3.2055
X3.9846Y-3.3055
X3.9846Y-3.4055
X3.9846Y-3.5055
X3.9846Y-3.6055
X3.9846Y-3.7055
X3.9846Y-3.8055
X3.9846Y-3.9055
X3.9846Y-4.0055
X3.9846Y-4.1055
X3.9846Y-4.2055
X3.9846Y-4.3055
X3.9846Y-4.4055
X3.9846Y-4.5055
X4.002Y-5.1417
X4.002Y-5.2417
X4.0646Y-1.9803
X4.076Y-1.3228
X4.1646Y-1.9803
X4.176Y-1.3228
X4.185Y-5.1417
X4.185Y-5.2417
X4.276Y-1.3228
X4.3205Y-1.4756
X4.3205Y-1.5756
X4.3205Y-1.6756
X4.3205Y-1.7756
X4.3205Y-1.8756
X4.3205Y-1.9756
X4.3205Y-2.0756
X4.3205Y-2.1756
X4.376Y-1.3228
X4.476Y-1.3228
X4.7165Y-2.7087
X4.7165Y-2.8087
X4.7165Y-2.9087
X4.7165Y-3.0087
X4.7165Y-3.1087
X4.7165Y-3.2087
X4.7165Y-3.3087
X4.7165Y-3.4087
X4.7165Y-3.5087
X4.7165Y-3.6087
X4.7165Y-3.7087
X4.7165Y-3.8087
X4.7165Y-3.9087
X4.7165Y-4.0087
X4.7165Y-4.1087
X4.7165Y-4.2087
X4.7165Y-4.3087
X4.8165Y-2.7087
X4.8165Y-2.8087
X4.8165Y-2.9087
X4.8165Y-3.0087
X4.8165Y-3.1087
X4.8165Y-3.2087
X4.8165Y-3.3087
X4.8165Y-3.4087
X4.8165Y-3.5087
X4.8165Y-3.6087
X4.8165Y-3.7087
X4.8165Y-3.8087
X4.8165Y-3.9087
X4.8165Y-4.0087
X4.8165Y-4.1087
X4.8165Y-4.2087
X4.8165Y-4.3087
X5.2205Y-1.4756
X5.2205Y-1.5756
X5.2205Y-1.6756
X5.2205Y-1.7756
X5.2205Y-1.8756
X5.2205Y-1.9756
X5.2205Y-2.0756
X5.2205Y-2.1756
X5.5378Y-2.7087
X5.5378Y-2.8087
X5.5378Y-2.9087
X5.5378Y-3.0087
X5.5378Y-3.1087
X5.5378Y-3.2087
X5.5378Y-3.3087
X5.5378Y-3.4087
X5.5378Y-3.5087
X5.5378Y-3.6087
X5.5378Y-3.7087
X5.5378Y-3.8087
X5.5378Y-3.9087
X5.5378Y-4.0087
X5.5378Y-4.1087
X5.5378Y-4.2087
X5.5378Y-4.3087
X5.6378Y-2.7087
X5.6378Y-2.8087
X5.6378Y-2.9087
X5.6378Y-3.0087
X5.6378Y-3.1087
X5.6378Y-3.2087
X5.6378Y-3.3087
X5.6378Y-3.4087
X5.6378Y-3.5087
X5.6378Y-3.6087
X5.6378Y-3.7087
X5.6378Y-3.8087
X5.6378Y-3.9087
X5.6378Y-4.0087
X5.6378Y-4.1087
X5.6378Y-4.2087
X5.6378Y-4.3087
X5.9291Y-4.1299
X5.9331Y-3.7461
X5.9331Y-3.937
X5.9331Y-4.3228
X5.937Y-3.5512
X5.937Y-4.5177
X5.9638Y-2.5886
X5.9638Y-2.7815
X5.9638Y-2.9744
X5.9638Y-3.1673
X5.9638Y-3.3602
X6.0291Y-4.1299
X6.0331Y-3.7461
X6.0331Y-3.937
X6.0331Y-4.3228
X6.037Y-3.5512
X6.037Y-4.5177
X6.0638Y-2.5886
X6.0638Y-2.7815
X6.0638Y-2.9744
X6.0638Y-3.1673
X6.0638Y-3.3602
X6.1291Y-4.1299
X6.1331Y-3.7461
X6.1331Y-3.937
X6.1331Y-4.3228
X6.137Y-3.5512
X6.137Y-4.5177
X6.1638Y-2.5886
X6.1638Y-2.7815
X6.1638Y-2.9744
X6.1638Y-3.1673
X6.1638Y-3.3602
X6.2291Y-4.1299
X6.2331Y-3.7461
X6.2331Y-3.937
X6.2331Y-4.3228
X6.237Y-3.5512
X6.237Y-4.5177
X6.2638Y-2.5886
X6.2638Y-2.7815
X6.2638Y-2.9744
X6.2638Y-3.1673
X6.2638Y-3.3602
T8
X3.1465Y-4.9825
X3.148Y-5.2974
X3.2465Y-4.9825
X3.248Y-5.2974
X3.3465Y-4.9825
X3.348Y-5.2974
X4.1742Y-1.4575
X4.1742Y-1.8575
X6.1874Y-5.3049
X6.1913Y-4.9585
X6.2874Y-5.3049
X6.2913Y-4.9585
X6.3874Y-5.3049
X6.3913Y-4.9585
T10
X4.7992Y-1.1483
X5.0827Y-1.1483
T3
G00X4.6752Y-0.8904
M15
G01X4.6752Y-0.9337
M16
G05
G00X5.2067Y-0.8904
M15
G01X5.2067Y-0.9337
M16
G05
T9
G00X6.2313Y-1.2366
M15
G01X6.2313Y-1.3941
M16
G05
G00X6.2313Y-1.6303
M15
G01X6.2313Y-1.7878
M16
G05
T0
M30
