%TF.GenerationSoftware,KiCad,Pcbnew,7.0.2*%
%TF.CreationDate,2024-04-19T19:58:46-03:00*%
%TF.ProjectId,HM_MAIN_ESP32_DEV-01,484d5f4d-4149-44e5-9f45-535033325f44,rev?*%
%TF.SameCoordinates,Original*%
%TF.FileFunction,Copper,L2,Bot*%
%TF.FilePolarity,Positive*%
%FSLAX46Y46*%
G04 Gerber Fmt 4.6, Leading zero omitted, Abs format (unit mm)*
G04 Created by KiCad (PCBNEW 7.0.2) date 2024-04-19 19:58:46*
%MOMM*%
%LPD*%
G01*
G04 APERTURE LIST*
%TA.AperFunction,ComponentPad*%
%ADD10O,1.500000X3.000000*%
%TD*%
%TA.AperFunction,ComponentPad*%
%ADD11R,2.200000X2.200000*%
%TD*%
%TA.AperFunction,ComponentPad*%
%ADD12O,2.200000X2.200000*%
%TD*%
%TA.AperFunction,ComponentPad*%
%ADD13R,1.700000X1.700000*%
%TD*%
%TA.AperFunction,ComponentPad*%
%ADD14O,1.700000X1.700000*%
%TD*%
%TA.AperFunction,Conductor*%
%ADD15C,0.700000*%
%TD*%
G04 APERTURE END LIST*
D10*
%TO.P,M1,3V3,3V3*%
%TO.N,unconnected-(M1-Pad3V3)*%
X82632380Y-85118200D03*
%TO.P,M1,D1,IO1*%
%TO.N,MAIN_TX*%
X113109840Y-85118200D03*
%TO.P,M1,D2,IO2*%
%TO.N,R_SH_PWM*%
X90252380Y-85118200D03*
%TO.P,M1,D3,IO3*%
%TO.N,MAIN_RX*%
X110569840Y-85118200D03*
%TO.P,M1,D4,IO4*%
%TO.N,R_TX_PWM*%
X92792380Y-85118200D03*
%TO.P,M1,D5,IO5*%
%TO.N,L_TX_PWM*%
X100409840Y-85118200D03*
%TO.P,M1,D12,IO12*%
%TO.N,L_TG_PWM*%
X90252380Y-59715660D03*
%TO.P,M1,D13,IO13*%
%TO.N,L_HP_PWM*%
X87712380Y-59715660D03*
%TO.P,M1,D14,IO14*%
%TO.N,L_KN_PWM*%
X92792380Y-59715660D03*
%TO.P,M1,D15,IO15*%
%TO.N,R_ELB_PWM*%
X87712380Y-85118200D03*
%TO.P,M1,D16,IO16*%
%TO.N,L_ELB_PWM*%
X95332380Y-85118200D03*
%TO.P,M1,D17,IO17*%
%TO.N,L_SH_PWM*%
X97872380Y-85118200D03*
%TO.P,M1,D18,IO18*%
%TO.N,R_HP_PWM*%
X102949840Y-85118200D03*
%TO.P,M1,D19,IO19*%
%TO.N,R_TG_PWM*%
X105489840Y-85118200D03*
%TO.P,M1,D21,IO21*%
%TO.N,R_KN_PWM*%
X108029840Y-85118200D03*
%TO.P,M1,D22,IO22*%
%TO.N,R_ANK_PWM*%
X115649840Y-85118200D03*
%TO.P,M1,D23,IO23*%
%TO.N,R_FT_PWM*%
X118189840Y-85118200D03*
%TO.P,M1,D25,IO25*%
%TO.N,SCL*%
X100409840Y-59715660D03*
%TO.P,M1,D26,IO26*%
%TO.N,L_FT_PWM*%
X97872380Y-59715660D03*
%TO.P,M1,D27,IO27*%
%TO.N,L_ANK_PWM*%
X95332380Y-59715660D03*
%TO.P,M1,D32,IO32*%
%TO.N,SERVO_CONTROL*%
X105489840Y-59715660D03*
%TO.P,M1,D33,IO33*%
%TO.N,SDA*%
X102949840Y-59715660D03*
%TO.P,M1,D34,IO34*%
%TO.N,SHUTOFF*%
X110569840Y-59715660D03*
%TO.P,M1,D35,IO35*%
%TO.N,I_SENS*%
X108029840Y-59715660D03*
%TO.P,M1,D36,VP-OI36*%
%TO.N,R_FT_ANGLE*%
X115649840Y-59715660D03*
%TO.P,M1,D39,VN-IO39*%
%TO.N,L_FT_ANGLE*%
X113109840Y-59715660D03*
%TO.P,M1,EN,EN*%
%TO.N,unconnected-(M1-PadEN)*%
X118189840Y-59715660D03*
%TO.P,M1,GND@1,GND*%
%TO.N,GND*%
X85172380Y-59715660D03*
%TO.P,M1,GND@2,GND*%
%TO.N,unconnected-(M1-GND-PadGND@2)*%
X85172380Y-85118200D03*
%TO.P,M1,VIN,VIN*%
%TO.N,Net-(D1-K)*%
X82632380Y-59715660D03*
%TD*%
D11*
%TO.P,D1,1,K*%
%TO.N,Net-(D1-K)*%
X82120000Y-55060000D03*
D12*
%TO.P,D1,2,A*%
%TO.N,SERVO_VCC*%
X92280000Y-55060000D03*
%TD*%
D13*
%TO.P,J2,1,Pin_1*%
%TO.N,L_ANK_PWM*%
X75140160Y-47464340D03*
D14*
%TO.P,J2,2,Pin_2*%
%TO.N,L_FT_PWM*%
X75140160Y-44924340D03*
%TO.P,J2,3,Pin_3*%
%TO.N,L_KN_PWM*%
X77680160Y-47464340D03*
%TO.P,J2,4,Pin_4*%
%TO.N,L_TX_PWM*%
X77680160Y-44924340D03*
%TO.P,J2,5,Pin_5*%
%TO.N,unconnected-(J2-Pin_5-Pad5)*%
X80220160Y-47464340D03*
%TO.P,J2,6,Pin_6*%
%TO.N,L_SH_PWM*%
X80220160Y-44924340D03*
%TO.P,J2,7,Pin_7*%
%TO.N,L_TG_PWM*%
X82760160Y-47464340D03*
%TO.P,J2,8,Pin_8*%
%TO.N,unconnected-(J2-Pin_8-Pad8)*%
X82760160Y-44924340D03*
%TO.P,J2,9,Pin_9*%
%TO.N,L_HP_PWM*%
X85300160Y-47464340D03*
%TO.P,J2,10,Pin_10*%
%TO.N,L_ELB_PWM*%
X85300160Y-44924340D03*
%TO.P,J2,11,Pin_11*%
%TO.N,SERVO_VCC*%
X87840160Y-47464340D03*
%TO.P,J2,12,Pin_12*%
%TO.N,unconnected-(J2-Pin_12-Pad12)*%
X87840160Y-44924340D03*
%TO.P,J2,13,Pin_13*%
%TO.N,GND*%
X90380160Y-47464340D03*
%TO.P,J2,14,Pin_14*%
%TO.N,R_TX_PWM*%
X90380160Y-44924340D03*
%TO.P,J2,15,Pin_15*%
%TO.N,SCL*%
X92920160Y-47464340D03*
%TO.P,J2,16,Pin_16*%
%TO.N,R_SH_PWM*%
X92920160Y-44924340D03*
%TO.P,J2,17,Pin_17*%
%TO.N,SDA*%
X95460160Y-47464340D03*
%TO.P,J2,18,Pin_18*%
%TO.N,unconnected-(J2-Pin_18-Pad18)*%
X95460160Y-44924340D03*
%TO.P,J2,19,Pin_19*%
%TO.N,MAIN_RX*%
X98000160Y-47464340D03*
%TO.P,J2,20,Pin_20*%
%TO.N,R_ELB_PWM*%
X98000160Y-44924340D03*
%TO.P,J2,21,Pin_21*%
%TO.N,MAIN_TX*%
X100540160Y-47464340D03*
%TO.P,J2,22,Pin_22*%
%TO.N,unconnected-(J2-Pin_22-Pad22)*%
X100540160Y-44924340D03*
%TO.P,J2,23,Pin_23*%
%TO.N,HD_PWM*%
X103080160Y-47464340D03*
%TO.P,J2,24,Pin_24*%
%TO.N,R_FT_PWM*%
X103080160Y-44924340D03*
%TO.P,J2,25,Pin_25*%
%TO.N,+3V3*%
X105620160Y-47464340D03*
%TO.P,J2,26,Pin_26*%
%TO.N,R_ANK_PWM*%
X105620160Y-44924340D03*
%TO.P,J2,27,Pin_27*%
%TO.N,I_SENS*%
X108160160Y-47464340D03*
%TO.P,J2,28,Pin_28*%
%TO.N,R_KN_PWM*%
X108160160Y-44924340D03*
%TO.P,J2,29,Pin_29*%
%TO.N,SHUTOFF*%
X110700160Y-47464340D03*
%TO.P,J2,30,Pin_30*%
%TO.N,unconnected-(J2-Pin_30-Pad30)*%
X110700160Y-44924340D03*
%TO.P,J2,31,Pin_31*%
%TO.N,SERVO_CONTROL*%
X113240160Y-47464340D03*
%TO.P,J2,32,Pin_32*%
%TO.N,R_TG_PWM*%
X113240160Y-44924340D03*
%TO.P,J2,33,Pin_33*%
%TO.N,SERVO_CONTROL*%
X115780160Y-47464340D03*
%TO.P,J2,34,Pin_34*%
%TO.N,R_HP_PWM*%
X115780160Y-44924340D03*
%TO.P,J2,35,Pin_35*%
%TO.N,SERVO_CONTROL*%
X118320160Y-47464340D03*
%TO.P,J2,36,Pin_36*%
%TO.N,R_FT_ANGLE*%
X118320160Y-44924340D03*
%TO.P,J2,37,Pin_37*%
%TO.N,SERVO_CONTROL*%
X120860160Y-47464340D03*
%TO.P,J2,38,Pin_38*%
%TO.N,L_FT_ANGLE*%
X120860160Y-44924340D03*
%TD*%
D15*
%TO.N,SERVO_VCC*%
X92280000Y-53429680D02*
X87840160Y-48989840D01*
X87840160Y-47464340D02*
X87840160Y-48989840D01*
X92280000Y-55060000D02*
X92280000Y-53429680D01*
%TO.N,Net-(D1-K)*%
X82120000Y-55060000D02*
X82120000Y-59203280D01*
X82632380Y-59715660D02*
X82612380Y-59695660D01*
X82120000Y-59203280D02*
X82632380Y-59715660D01*
%TO.N,L_FT_ANGLE*%
X119085660Y-50344340D02*
X113109840Y-56320160D01*
X122530000Y-49124500D02*
X121310160Y-50344340D01*
X120860160Y-44924340D02*
X121454340Y-44924340D01*
X121454340Y-44924340D02*
X122530000Y-46000000D01*
X122530000Y-46000000D02*
X122530000Y-49124500D01*
X113109840Y-56320160D02*
X113109840Y-59715660D01*
X121310160Y-50344340D02*
X119085660Y-50344340D01*
%TO.N,R_HP_PWM*%
X122390000Y-43280000D02*
X116222419Y-43280000D01*
X102949840Y-78990160D02*
X123920000Y-58020000D01*
X123920000Y-44810000D02*
X122390000Y-43280000D01*
X116222419Y-43280000D02*
X115780160Y-43722259D01*
X102949840Y-85118200D02*
X102949840Y-78990160D01*
X115780160Y-43722259D02*
X115780160Y-44924340D01*
X123920000Y-58020000D02*
X123920000Y-44810000D01*
%TO.N,R_TG_PWM*%
X122810000Y-42190000D02*
X115090000Y-42190000D01*
X125230000Y-60070000D02*
X125230000Y-44610000D01*
X105489840Y-79810160D02*
X125230000Y-60070000D01*
X115090000Y-42190000D02*
X113164500Y-44115500D01*
X105489840Y-85118200D02*
X105489840Y-79810160D01*
X113164500Y-44115500D02*
X113164500Y-44848680D01*
X125230000Y-44610000D02*
X122810000Y-42190000D01*
%TO.N,R_KN_PWM*%
X123220000Y-41170000D02*
X110770000Y-41170000D01*
X108029840Y-85118200D02*
X108029840Y-79880160D01*
X126530000Y-61380000D02*
X126530000Y-44480000D01*
X108029840Y-79880160D02*
X126530000Y-61380000D01*
X108160160Y-43779840D02*
X108160160Y-44924340D01*
X126530000Y-44480000D02*
X123220000Y-41170000D01*
X110770000Y-41170000D02*
X108160160Y-43779840D01*
%TO.N,I_SENS*%
X108110000Y-59635500D02*
X108029840Y-59715660D01*
X108160160Y-59585340D02*
X108029840Y-59715660D01*
X108160160Y-47464340D02*
X108160160Y-59585340D01*
%TO.N,R_FT_PWM*%
X118189840Y-85118200D02*
X118421640Y-85350000D01*
%TO.N,SDA*%
X102949840Y-52989840D02*
X102949840Y-59715660D01*
X95460160Y-48870160D02*
X96120000Y-49530000D01*
X96120000Y-49530000D02*
X99490000Y-49530000D01*
X103000000Y-59665500D02*
X102949840Y-59715660D01*
X99490000Y-49530000D02*
X102949840Y-52989840D01*
X95460160Y-47464340D02*
X95460160Y-48870160D01*
%TO.N,SHUTOFF*%
X110650000Y-59635500D02*
X110569840Y-59715660D01*
X110700160Y-59585340D02*
X110569840Y-59715660D01*
X110700160Y-47464340D02*
X110700160Y-59585340D01*
%TO.N,R_SH_PWM*%
X91150000Y-41160000D02*
X71470000Y-41160000D01*
X92920160Y-42930160D02*
X91150000Y-41160000D01*
X85000000Y-76020000D02*
X90252380Y-81272380D01*
X75600000Y-76020000D02*
X85000000Y-76020000D01*
X69420000Y-69840000D02*
X75600000Y-76020000D01*
X92920160Y-44924340D02*
X92920160Y-42930160D01*
X90252380Y-81272380D02*
X90252380Y-85118200D01*
X69420000Y-43210000D02*
X69420000Y-69840000D01*
X71470000Y-41160000D02*
X69420000Y-43210000D01*
%TO.N,SCL*%
X92920160Y-49320160D02*
X94760000Y-51160000D01*
X92920160Y-47464340D02*
X92920160Y-49320160D01*
X94760000Y-51160000D02*
X98230000Y-51160000D01*
X100409840Y-53339840D02*
X100409840Y-59715660D01*
X98230000Y-51160000D02*
X100409840Y-53339840D01*
%TO.N,GND*%
X86000000Y-57230000D02*
X85172380Y-58057620D01*
X90380160Y-47464340D02*
X90380160Y-49000160D01*
X93660000Y-57230000D02*
X86000000Y-57230000D01*
X94310000Y-56580000D02*
X93660000Y-57230000D01*
X90380160Y-49000160D02*
X94310000Y-52930000D01*
X94310000Y-52930000D02*
X94310000Y-56580000D01*
X85172380Y-58057620D02*
X85172380Y-59715660D01*
%TO.N,L_ELB_PWM*%
X70670000Y-44020000D02*
X70670000Y-67070000D01*
X85300160Y-43200160D02*
X84330000Y-42230000D01*
X76800000Y-73200000D02*
X88150000Y-73200000D01*
X85300160Y-44924340D02*
X85300160Y-43200160D01*
X70670000Y-67070000D02*
X76800000Y-73200000D01*
X95332380Y-80382380D02*
X95332380Y-85118200D01*
X88150000Y-73200000D02*
X95332380Y-80382380D01*
X72460000Y-42230000D02*
X70670000Y-44020000D01*
X84330000Y-42230000D02*
X72460000Y-42230000D01*
%TO.N,L_HP_PWM*%
X79840000Y-61110000D02*
X81380000Y-62650000D01*
X85300160Y-47464340D02*
X85300160Y-50759840D01*
X87712380Y-61657620D02*
X87712380Y-59715660D01*
X83720000Y-52340000D02*
X81500000Y-52340000D01*
X81380000Y-62650000D02*
X86720000Y-62650000D01*
X81500000Y-52340000D02*
X79840000Y-54000000D01*
X85300160Y-50759840D02*
X83720000Y-52340000D01*
X86720000Y-62650000D02*
X87712380Y-61657620D01*
X79840000Y-54000000D02*
X79840000Y-61110000D01*
%TO.N,L_TG_PWM*%
X90252380Y-62387620D02*
X90252380Y-59715660D01*
X78300000Y-61700000D02*
X80900000Y-64300000D01*
X80900000Y-64300000D02*
X88340000Y-64300000D01*
X82760160Y-47464340D02*
X82760160Y-48875626D01*
X78300000Y-53335786D02*
X78300000Y-61700000D01*
X82760160Y-48875626D02*
X78300000Y-53335786D01*
X88340000Y-64300000D02*
X90252380Y-62387620D01*
%TO.N,L_TX_PWM*%
X76880000Y-43310000D02*
X73280000Y-43310000D01*
X73280000Y-43310000D02*
X71950000Y-44640000D01*
X71950000Y-44640000D02*
X71950000Y-64710000D01*
X77680160Y-44924340D02*
X77680160Y-44110160D01*
X100409840Y-79829840D02*
X100409840Y-85118200D01*
X71950000Y-64710000D02*
X78040000Y-70800000D01*
X78040000Y-70800000D02*
X91380000Y-70800000D01*
X91380000Y-70800000D02*
X100409840Y-79829840D01*
X77680160Y-44110160D02*
X76880000Y-43310000D01*
%TO.N,L_KN_PWM*%
X76800000Y-62170000D02*
X76800000Y-51450000D01*
X77680160Y-50569840D02*
X77680160Y-47464340D01*
X80310000Y-65680000D02*
X76800000Y-62170000D01*
X92792380Y-62177620D02*
X89290000Y-65680000D01*
X76800000Y-51450000D02*
X77680160Y-50569840D01*
X89290000Y-65680000D02*
X80310000Y-65680000D01*
X92792380Y-59715660D02*
X92792380Y-62177620D01*
%TO.N,L_FT_PWM*%
X78700000Y-68480000D02*
X94510000Y-68480000D01*
X75140160Y-44924340D02*
X74135660Y-44924340D01*
X73220000Y-63000000D02*
X78700000Y-68480000D01*
X73220000Y-45840000D02*
X73220000Y-63000000D01*
X97872380Y-65117620D02*
X97872380Y-59715660D01*
X94510000Y-68480000D02*
X97872380Y-65117620D01*
X74135660Y-44924340D02*
X73220000Y-45840000D01*
%TO.N,L_ANK_PWM*%
X95332380Y-63627620D02*
X95332380Y-59715660D01*
X79590000Y-67090000D02*
X91870000Y-67090000D01*
X75140160Y-62640160D02*
X79590000Y-67090000D01*
X91870000Y-67090000D02*
X95332380Y-63627620D01*
X75140160Y-47464340D02*
X75140160Y-62640160D01*
%TO.N,SERVO_CONTROL*%
X113180000Y-47524500D02*
X113240160Y-47464340D01*
X105560000Y-59645500D02*
X105489840Y-59715660D01*
X120860160Y-47464340D02*
X113240160Y-47464340D01*
%TD*%
M02*
