M48
; DRILL file {KiCad 7.0.2} date Fri Apr 19 19:59:14 2024
; FORMAT={-:-/ absolute / inch / decimal}
; #@! TF.CreationDate,2024-04-19T19:59:14-03:00
; #@! TF.GenerationSoftware,Kicad,Pcbnew,7.0.2
; #@! TF.FileFunction,Plated,1,2,PTH
FMAT,2
INCH
; #@! TA.AperFunction,Plated,PTH,ComponentDrill
T1C0.0394
; #@! TA.AperFunction,Plated,PTH,ComponentDrill
T2C0.0433
%
G90
G05
T1
X2.9583Y-1.7687
X2.9583Y-1.8687
X3.0583Y-1.7687
X3.0583Y-1.8687
X3.1583Y-1.7687
X3.1583Y-1.8687
X3.2532Y-2.351
X3.2532Y-3.3511
X3.2583Y-1.7687
X3.2583Y-1.8687
X3.3532Y-2.351
X3.3532Y-3.3511
X3.3583Y-1.7687
X3.3583Y-1.8687
X3.4532Y-2.351
X3.4532Y-3.3511
X3.4583Y-1.7687
X3.4583Y-1.8687
X3.5532Y-2.351
X3.5532Y-3.3511
X3.5583Y-1.7687
X3.5583Y-1.8687
X3.6532Y-2.351
X3.6532Y-3.3511
X3.6583Y-1.7687
X3.6583Y-1.8687
X3.7532Y-2.351
X3.7532Y-3.3511
X3.7583Y-1.7687
X3.7583Y-1.8687
X3.8532Y-2.351
X3.8532Y-3.3511
X3.8583Y-1.7687
X3.8583Y-1.8687
X3.9531Y-2.351
X3.9531Y-3.3511
X3.9583Y-1.7687
X3.9583Y-1.8687
X4.0531Y-2.351
X4.0531Y-3.3511
X4.0583Y-1.7687
X4.0583Y-1.8687
X4.1531Y-2.351
X4.1531Y-3.3511
X4.1583Y-1.7687
X4.1583Y-1.8687
X4.2531Y-2.351
X4.2531Y-3.3511
X4.2583Y-1.7687
X4.2583Y-1.8687
X4.3531Y-2.351
X4.3531Y-3.3511
X4.3583Y-1.7687
X4.3583Y-1.8687
X4.4531Y-2.351
X4.4531Y-3.3511
X4.4583Y-1.7687
X4.4583Y-1.8687
X4.5531Y-2.351
X4.5531Y-3.3511
X4.5583Y-1.7687
X4.5583Y-1.8687
X4.6531Y-2.351
X4.6531Y-3.3511
X4.6583Y-1.7687
X4.6583Y-1.8687
X4.7583Y-1.7687
X4.7583Y-1.8687
T2
X3.2331Y-2.1677
X3.6331Y-2.1677
T0
M30
